<?xml version="1.0" encoding="utf-8" standalone="no"?>
<!DOCTYPE svg PUBLIC "-//W3C//DTD SVG 1.1//EN"
  "http://www.w3.org/Graphics/SVG/1.1/DTD/svg11.dtd">
<svg xmlns:xlink="http://www.w3.org/1999/xlink" width="720pt" height="288pt" viewBox="0 0 720 288" xmlns="http://www.w3.org/2000/svg" version="1.1">
 <metadata>
  <rdf:RDF xmlns:dc="http://purl.org/dc/elements/1.1/" xmlns:cc="http://creativecommons.org/ns#" xmlns:rdf="http://www.w3.org/1999/02/22-rdf-syntax-ns#">
   <cc:Work>
    <dc:type rdf:resource="http://purl.org/dc/dcmitype/StillImage"/>
    <dc:date>2026-04-24T12:43:14.174151</dc:date>
    <dc:format>image/svg+xml</dc:format>
    <dc:creator>
     <cc:Agent>
      <dc:title>Matplotlib v3.9.2, https://matplotlib.org/</dc:title>
     </cc:Agent>
    </dc:creator>
   </cc:Work>
  </rdf:RDF>
 </metadata>
 <defs>
  <style type="text/css">*{stroke-linejoin: round; stroke-linecap: butt}</style>
 </defs>
 <g id="figure_1">
  <g id="patch_1">
   <path d="M 0 288 
L 720 288 
L 720 0 
L 0 0 
z
" style="fill: #ffffff"/>
  </g>
  <g id="axes_1">
   <g id="patch_2">
    <path d="M 46.64 246.04 
L 709.2 246.04 
L 709.2 37.968 
L 46.64 37.968 
z
" style="fill: #ffffff"/>
   </g>
   <g id="matplotlib.axis_1">
    <g id="xtick_1">
     <g id="line2d_1">
      <path d="M 76.756364 246.04 
L 76.756364 37.968 
" clip-path="url(#pce6b83478f)" style="fill: none; stroke: #b0b0b0; stroke-width: 0.8; stroke-linecap: square"/>
     </g>
     <g id="line2d_2">
      <defs>
       <path id="m21a4a847b5" d="M 0 0 
L 0 3.5 
" style="stroke: #000000; stroke-width: 0.8"/>
      </defs>
      <g>
       <use xlink:href="#m21a4a847b5" x="76.756364" y="246.04" style="stroke: #000000; stroke-width: 0.8"/>
      </g>
     </g>
     <g id="text_1">
      <!-- 0.00 -->
      <g transform="translate(65.623551 260.638438) scale(0.1 -0.1)">
       <defs>
        <path id="DejaVuSans-30" d="M 2034 4250 
Q 1547 4250 1301 3770 
Q 1056 3291 1056 2328 
Q 1056 1369 1301 889 
Q 1547 409 2034 409 
Q 2525 409 2770 889 
Q 3016 1369 3016 2328 
Q 3016 3291 2770 3770 
Q 2525 4250 2034 4250 
z
M 2034 4750 
Q 2819 4750 3233 4129 
Q 3647 3509 3647 2328 
Q 3647 1150 3233 529 
Q 2819 -91 2034 -91 
Q 1250 -91 836 529 
Q 422 1150 422 2328 
Q 422 3509 836 4129 
Q 1250 4750 2034 4750 
z
" transform="scale(0.015625)"/>
        <path id="DejaVuSans-2e" d="M 684 794 
L 1344 794 
L 1344 0 
L 684 0 
L 684 794 
z
" transform="scale(0.015625)"/>
       </defs>
       <use xlink:href="#DejaVuSans-30"/>
       <use xlink:href="#DejaVuSans-2e" x="63.623047"/>
       <use xlink:href="#DejaVuSans-30" x="95.410156"/>
       <use xlink:href="#DejaVuSans-30" x="159.033203"/>
      </g>
     </g>
    </g>
    <g id="xtick_2">
     <g id="line2d_3">
      <path d="M 152.047273 246.04 
L 152.047273 37.968 
" clip-path="url(#pce6b83478f)" style="fill: none; stroke: #b0b0b0; stroke-width: 0.8; stroke-linecap: square"/>
     </g>
     <g id="line2d_4">
      <g>
       <use xlink:href="#m21a4a847b5" x="152.047273" y="246.04" style="stroke: #000000; stroke-width: 0.8"/>
      </g>
     </g>
     <g id="text_2">
      <!-- 0.25 -->
      <g transform="translate(140.91446 260.638438) scale(0.1 -0.1)">
       <defs>
        <path id="DejaVuSans-32" d="M 1228 531 
L 3431 531 
L 3431 0 
L 469 0 
L 469 531 
Q 828 903 1448 1529 
Q 2069 2156 2228 2338 
Q 2531 2678 2651 2914 
Q 2772 3150 2772 3378 
Q 2772 3750 2511 3984 
Q 2250 4219 1831 4219 
Q 1534 4219 1204 4116 
Q 875 4013 500 3803 
L 500 4441 
Q 881 4594 1212 4672 
Q 1544 4750 1819 4750 
Q 2544 4750 2975 4387 
Q 3406 4025 3406 3419 
Q 3406 3131 3298 2873 
Q 3191 2616 2906 2266 
Q 2828 2175 2409 1742 
Q 1991 1309 1228 531 
z
" transform="scale(0.015625)"/>
        <path id="DejaVuSans-35" d="M 691 4666 
L 3169 4666 
L 3169 4134 
L 1269 4134 
L 1269 2991 
Q 1406 3038 1543 3061 
Q 1681 3084 1819 3084 
Q 2600 3084 3056 2656 
Q 3513 2228 3513 1497 
Q 3513 744 3044 326 
Q 2575 -91 1722 -91 
Q 1428 -91 1123 -41 
Q 819 9 494 109 
L 494 744 
Q 775 591 1075 516 
Q 1375 441 1709 441 
Q 2250 441 2565 725 
Q 2881 1009 2881 1497 
Q 2881 1984 2565 2268 
Q 2250 2553 1709 2553 
Q 1456 2553 1204 2497 
Q 953 2441 691 2322 
L 691 4666 
z
" transform="scale(0.015625)"/>
       </defs>
       <use xlink:href="#DejaVuSans-30"/>
       <use xlink:href="#DejaVuSans-2e" x="63.623047"/>
       <use xlink:href="#DejaVuSans-32" x="95.410156"/>
       <use xlink:href="#DejaVuSans-35" x="159.033203"/>
      </g>
     </g>
    </g>
    <g id="xtick_3">
     <g id="line2d_5">
      <path d="M 227.338182 246.04 
L 227.338182 37.968 
" clip-path="url(#pce6b83478f)" style="fill: none; stroke: #b0b0b0; stroke-width: 0.8; stroke-linecap: square"/>
     </g>
     <g id="line2d_6">
      <g>
       <use xlink:href="#m21a4a847b5" x="227.338182" y="246.04" style="stroke: #000000; stroke-width: 0.8"/>
      </g>
     </g>
     <g id="text_3">
      <!-- 0.50 -->
      <g transform="translate(216.205369 260.638438) scale(0.1 -0.1)">
       <use xlink:href="#DejaVuSans-30"/>
       <use xlink:href="#DejaVuSans-2e" x="63.623047"/>
       <use xlink:href="#DejaVuSans-35" x="95.410156"/>
       <use xlink:href="#DejaVuSans-30" x="159.033203"/>
      </g>
     </g>
    </g>
    <g id="xtick_4">
     <g id="line2d_7">
      <path d="M 302.629091 246.04 
L 302.629091 37.968 
" clip-path="url(#pce6b83478f)" style="fill: none; stroke: #b0b0b0; stroke-width: 0.8; stroke-linecap: square"/>
     </g>
     <g id="line2d_8">
      <g>
       <use xlink:href="#m21a4a847b5" x="302.629091" y="246.04" style="stroke: #000000; stroke-width: 0.8"/>
      </g>
     </g>
     <g id="text_4">
      <!-- 0.75 -->
      <g transform="translate(291.496278 260.638438) scale(0.1 -0.1)">
       <defs>
        <path id="DejaVuSans-37" d="M 525 4666 
L 3525 4666 
L 3525 4397 
L 1831 0 
L 1172 0 
L 2766 4134 
L 525 4134 
L 525 4666 
z
" transform="scale(0.015625)"/>
       </defs>
       <use xlink:href="#DejaVuSans-30"/>
       <use xlink:href="#DejaVuSans-2e" x="63.623047"/>
       <use xlink:href="#DejaVuSans-37" x="95.410156"/>
       <use xlink:href="#DejaVuSans-35" x="159.033203"/>
      </g>
     </g>
    </g>
    <g id="xtick_5">
     <g id="line2d_9">
      <path d="M 377.92 246.04 
L 377.92 37.968 
" clip-path="url(#pce6b83478f)" style="fill: none; stroke: #b0b0b0; stroke-width: 0.8; stroke-linecap: square"/>
     </g>
     <g id="line2d_10">
      <g>
       <use xlink:href="#m21a4a847b5" x="377.92" y="246.04" style="stroke: #000000; stroke-width: 0.8"/>
      </g>
     </g>
     <g id="text_5">
      <!-- 1.00 -->
      <g transform="translate(366.787188 260.638438) scale(0.1 -0.1)">
       <defs>
        <path id="DejaVuSans-31" d="M 794 531 
L 1825 531 
L 1825 4091 
L 703 3866 
L 703 4441 
L 1819 4666 
L 2450 4666 
L 2450 531 
L 3481 531 
L 3481 0 
L 794 0 
L 794 531 
z
" transform="scale(0.015625)"/>
       </defs>
       <use xlink:href="#DejaVuSans-31"/>
       <use xlink:href="#DejaVuSans-2e" x="63.623047"/>
       <use xlink:href="#DejaVuSans-30" x="95.410156"/>
       <use xlink:href="#DejaVuSans-30" x="159.033203"/>
      </g>
     </g>
    </g>
    <g id="xtick_6">
     <g id="line2d_11">
      <path d="M 453.210909 246.04 
L 453.210909 37.968 
" clip-path="url(#pce6b83478f)" style="fill: none; stroke: #b0b0b0; stroke-width: 0.8; stroke-linecap: square"/>
     </g>
     <g id="line2d_12">
      <g>
       <use xlink:href="#m21a4a847b5" x="453.210909" y="246.04" style="stroke: #000000; stroke-width: 0.8"/>
      </g>
     </g>
     <g id="text_6">
      <!-- 1.25 -->
      <g transform="translate(442.078097 260.638438) scale(0.1 -0.1)">
       <use xlink:href="#DejaVuSans-31"/>
       <use xlink:href="#DejaVuSans-2e" x="63.623047"/>
       <use xlink:href="#DejaVuSans-32" x="95.410156"/>
       <use xlink:href="#DejaVuSans-35" x="159.033203"/>
      </g>
     </g>
    </g>
    <g id="xtick_7">
     <g id="line2d_13">
      <path d="M 528.501818 246.04 
L 528.501818 37.968 
" clip-path="url(#pce6b83478f)" style="fill: none; stroke: #b0b0b0; stroke-width: 0.8; stroke-linecap: square"/>
     </g>
     <g id="line2d_14">
      <g>
       <use xlink:href="#m21a4a847b5" x="528.501818" y="246.04" style="stroke: #000000; stroke-width: 0.8"/>
      </g>
     </g>
     <g id="text_7">
      <!-- 1.50 -->
      <g transform="translate(517.369006 260.638438) scale(0.1 -0.1)">
       <use xlink:href="#DejaVuSans-31"/>
       <use xlink:href="#DejaVuSans-2e" x="63.623047"/>
       <use xlink:href="#DejaVuSans-35" x="95.410156"/>
       <use xlink:href="#DejaVuSans-30" x="159.033203"/>
      </g>
     </g>
    </g>
    <g id="xtick_8">
     <g id="line2d_15">
      <path d="M 603.792727 246.04 
L 603.792727 37.968 
" clip-path="url(#pce6b83478f)" style="fill: none; stroke: #b0b0b0; stroke-width: 0.8; stroke-linecap: square"/>
     </g>
     <g id="line2d_16">
      <g>
       <use xlink:href="#m21a4a847b5" x="603.792727" y="246.04" style="stroke: #000000; stroke-width: 0.8"/>
      </g>
     </g>
     <g id="text_8">
      <!-- 1.75 -->
      <g transform="translate(592.659915 260.638438) scale(0.1 -0.1)">
       <use xlink:href="#DejaVuSans-31"/>
       <use xlink:href="#DejaVuSans-2e" x="63.623047"/>
       <use xlink:href="#DejaVuSans-37" x="95.410156"/>
       <use xlink:href="#DejaVuSans-35" x="159.033203"/>
      </g>
     </g>
    </g>
    <g id="xtick_9">
     <g id="line2d_17">
      <path d="M 679.083636 246.04 
L 679.083636 37.968 
" clip-path="url(#pce6b83478f)" style="fill: none; stroke: #b0b0b0; stroke-width: 0.8; stroke-linecap: square"/>
     </g>
     <g id="line2d_18">
      <g>
       <use xlink:href="#m21a4a847b5" x="679.083636" y="246.04" style="stroke: #000000; stroke-width: 0.8"/>
      </g>
     </g>
     <g id="text_9">
      <!-- 2.00 -->
      <g transform="translate(667.950824 260.638438) scale(0.1 -0.1)">
       <use xlink:href="#DejaVuSans-32"/>
       <use xlink:href="#DejaVuSans-2e" x="63.623047"/>
       <use xlink:href="#DejaVuSans-30" x="95.410156"/>
       <use xlink:href="#DejaVuSans-30" x="159.033203"/>
      </g>
     </g>
    </g>
    <g id="text_10">
     <!-- Time [s] -->
     <g transform="translate(357.591094 274.316562) scale(0.1 -0.1)">
      <defs>
       <path id="DejaVuSans-54" d="M -19 4666 
L 3928 4666 
L 3928 4134 
L 2272 4134 
L 2272 0 
L 1638 0 
L 1638 4134 
L -19 4134 
L -19 4666 
z
" transform="scale(0.015625)"/>
       <path id="DejaVuSans-69" d="M 603 3500 
L 1178 3500 
L 1178 0 
L 603 0 
L 603 3500 
z
M 603 4863 
L 1178 4863 
L 1178 4134 
L 603 4134 
L 603 4863 
z
" transform="scale(0.015625)"/>
       <path id="DejaVuSans-6d" d="M 3328 2828 
Q 3544 3216 3844 3400 
Q 4144 3584 4550 3584 
Q 5097 3584 5394 3201 
Q 5691 2819 5691 2113 
L 5691 0 
L 5113 0 
L 5113 2094 
Q 5113 2597 4934 2840 
Q 4756 3084 4391 3084 
Q 3944 3084 3684 2787 
Q 3425 2491 3425 1978 
L 3425 0 
L 2847 0 
L 2847 2094 
Q 2847 2600 2669 2842 
Q 2491 3084 2119 3084 
Q 1678 3084 1418 2786 
Q 1159 2488 1159 1978 
L 1159 0 
L 581 0 
L 581 3500 
L 1159 3500 
L 1159 2956 
Q 1356 3278 1631 3431 
Q 1906 3584 2284 3584 
Q 2666 3584 2933 3390 
Q 3200 3197 3328 2828 
z
" transform="scale(0.015625)"/>
       <path id="DejaVuSans-65" d="M 3597 1894 
L 3597 1613 
L 953 1613 
Q 991 1019 1311 708 
Q 1631 397 2203 397 
Q 2534 397 2845 478 
Q 3156 559 3463 722 
L 3463 178 
Q 3153 47 2828 -22 
Q 2503 -91 2169 -91 
Q 1331 -91 842 396 
Q 353 884 353 1716 
Q 353 2575 817 3079 
Q 1281 3584 2069 3584 
Q 2775 3584 3186 3129 
Q 3597 2675 3597 1894 
z
M 3022 2063 
Q 3016 2534 2758 2815 
Q 2500 3097 2075 3097 
Q 1594 3097 1305 2825 
Q 1016 2553 972 2059 
L 3022 2063 
z
" transform="scale(0.015625)"/>
       <path id="DejaVuSans-20" transform="scale(0.015625)"/>
       <path id="DejaVuSans-5b" d="M 550 4863 
L 1875 4863 
L 1875 4416 
L 1125 4416 
L 1125 -397 
L 1875 -397 
L 1875 -844 
L 550 -844 
L 550 4863 
z
" transform="scale(0.015625)"/>
       <path id="DejaVuSans-73" d="M 2834 3397 
L 2834 2853 
Q 2591 2978 2328 3040 
Q 2066 3103 1784 3103 
Q 1356 3103 1142 2972 
Q 928 2841 928 2578 
Q 928 2378 1081 2264 
Q 1234 2150 1697 2047 
L 1894 2003 
Q 2506 1872 2764 1633 
Q 3022 1394 3022 966 
Q 3022 478 2636 193 
Q 2250 -91 1575 -91 
Q 1294 -91 989 -36 
Q 684 19 347 128 
L 347 722 
Q 666 556 975 473 
Q 1284 391 1588 391 
Q 1994 391 2212 530 
Q 2431 669 2431 922 
Q 2431 1156 2273 1281 
Q 2116 1406 1581 1522 
L 1381 1569 
Q 847 1681 609 1914 
Q 372 2147 372 2553 
Q 372 3047 722 3315 
Q 1072 3584 1716 3584 
Q 2034 3584 2315 3537 
Q 2597 3491 2834 3397 
z
" transform="scale(0.015625)"/>
       <path id="DejaVuSans-5d" d="M 1947 4863 
L 1947 -844 
L 622 -844 
L 622 -397 
L 1369 -397 
L 1369 4416 
L 622 4416 
L 622 4863 
L 1947 4863 
z
" transform="scale(0.015625)"/>
      </defs>
      <use xlink:href="#DejaVuSans-54"/>
      <use xlink:href="#DejaVuSans-69" x="57.958984"/>
      <use xlink:href="#DejaVuSans-6d" x="85.742188"/>
      <use xlink:href="#DejaVuSans-65" x="183.154297"/>
      <use xlink:href="#DejaVuSans-20" x="244.677734"/>
      <use xlink:href="#DejaVuSans-5b" x="276.464844"/>
      <use xlink:href="#DejaVuSans-73" x="315.478516"/>
      <use xlink:href="#DejaVuSans-5d" x="367.578125"/>
     </g>
    </g>
   </g>
   <g id="matplotlib.axis_2">
    <g id="ytick_1">
     <g id="line2d_19">
      <path d="M 46.64 219.661055 
L 709.2 219.661055 
" clip-path="url(#pce6b83478f)" style="fill: none; stroke: #b0b0b0; stroke-width: 0.8; stroke-linecap: square"/>
     </g>
     <g id="line2d_20">
      <defs>
       <path id="m5f6cf95ac9" d="M 0 0 
L -3.5 0 
" style="stroke: #000000; stroke-width: 0.8"/>
      </defs>
      <g>
       <use xlink:href="#m5f6cf95ac9" x="46.64" y="219.661055" style="stroke: #000000; stroke-width: 0.8"/>
      </g>
     </g>
     <g id="text_11">
      <!-- −2 -->
      <g transform="translate(24.897813 223.460273) scale(0.1 -0.1)">
       <defs>
        <path id="DejaVuSans-2212" d="M 678 2272 
L 4684 2272 
L 4684 1741 
L 678 1741 
L 678 2272 
z
" transform="scale(0.015625)"/>
       </defs>
       <use xlink:href="#DejaVuSans-2212"/>
       <use xlink:href="#DejaVuSans-32" x="83.789062"/>
      </g>
     </g>
    </g>
    <g id="ytick_2">
     <g id="line2d_21">
      <path d="M 46.64 183.098885 
L 709.2 183.098885 
" clip-path="url(#pce6b83478f)" style="fill: none; stroke: #b0b0b0; stroke-width: 0.8; stroke-linecap: square"/>
     </g>
     <g id="line2d_22">
      <g>
       <use xlink:href="#m5f6cf95ac9" x="46.64" y="183.098885" style="stroke: #000000; stroke-width: 0.8"/>
      </g>
     </g>
     <g id="text_12">
      <!-- −1 -->
      <g transform="translate(24.897813 186.898104) scale(0.1 -0.1)">
       <use xlink:href="#DejaVuSans-2212"/>
       <use xlink:href="#DejaVuSans-31" x="83.789062"/>
      </g>
     </g>
    </g>
    <g id="ytick_3">
     <g id="line2d_23">
      <path d="M 46.64 146.536716 
L 709.2 146.536716 
" clip-path="url(#pce6b83478f)" style="fill: none; stroke: #b0b0b0; stroke-width: 0.8; stroke-linecap: square"/>
     </g>
     <g id="line2d_24">
      <g>
       <use xlink:href="#m5f6cf95ac9" x="46.64" y="146.536716" style="stroke: #000000; stroke-width: 0.8"/>
      </g>
     </g>
     <g id="text_13">
      <!-- 0 -->
      <g transform="translate(33.2775 150.335935) scale(0.1 -0.1)">
       <use xlink:href="#DejaVuSans-30"/>
      </g>
     </g>
    </g>
    <g id="ytick_4">
     <g id="line2d_25">
      <path d="M 46.64 109.974547 
L 709.2 109.974547 
" clip-path="url(#pce6b83478f)" style="fill: none; stroke: #b0b0b0; stroke-width: 0.8; stroke-linecap: square"/>
     </g>
     <g id="line2d_26">
      <g>
       <use xlink:href="#m5f6cf95ac9" x="46.64" y="109.974547" style="stroke: #000000; stroke-width: 0.8"/>
      </g>
     </g>
     <g id="text_14">
      <!-- 1 -->
      <g transform="translate(33.2775 113.773765) scale(0.1 -0.1)">
       <use xlink:href="#DejaVuSans-31"/>
      </g>
     </g>
    </g>
    <g id="ytick_5">
     <g id="line2d_27">
      <path d="M 46.64 73.412377 
L 709.2 73.412377 
" clip-path="url(#pce6b83478f)" style="fill: none; stroke: #b0b0b0; stroke-width: 0.8; stroke-linecap: square"/>
     </g>
     <g id="line2d_28">
      <g>
       <use xlink:href="#m5f6cf95ac9" x="46.64" y="73.412377" style="stroke: #000000; stroke-width: 0.8"/>
      </g>
     </g>
     <g id="text_15">
      <!-- 2 -->
      <g transform="translate(33.2775 77.211596) scale(0.1 -0.1)">
       <use xlink:href="#DejaVuSans-32"/>
      </g>
     </g>
    </g>
    <g id="text_16">
     <!-- x(t) -->
     <g transform="translate(18.818125 150.825094) rotate(-90) scale(0.1 -0.1)">
      <defs>
       <path id="DejaVuSans-78" d="M 3513 3500 
L 2247 1797 
L 3578 0 
L 2900 0 
L 1881 1375 
L 863 0 
L 184 0 
L 1544 1831 
L 300 3500 
L 978 3500 
L 1906 2253 
L 2834 3500 
L 3513 3500 
z
" transform="scale(0.015625)"/>
       <path id="DejaVuSans-28" d="M 1984 4856 
Q 1566 4138 1362 3434 
Q 1159 2731 1159 2009 
Q 1159 1288 1364 580 
Q 1569 -128 1984 -844 
L 1484 -844 
Q 1016 -109 783 600 
Q 550 1309 550 2009 
Q 550 2706 781 3412 
Q 1013 4119 1484 4856 
L 1984 4856 
z
" transform="scale(0.015625)"/>
       <path id="DejaVuSans-74" d="M 1172 4494 
L 1172 3500 
L 2356 3500 
L 2356 3053 
L 1172 3053 
L 1172 1153 
Q 1172 725 1289 603 
Q 1406 481 1766 481 
L 2356 481 
L 2356 0 
L 1766 0 
Q 1100 0 847 248 
Q 594 497 594 1153 
L 594 3053 
L 172 3053 
L 172 3500 
L 594 3500 
L 594 4494 
L 1172 4494 
z
" transform="scale(0.015625)"/>
       <path id="DejaVuSans-29" d="M 513 4856 
L 1013 4856 
Q 1481 4119 1714 3412 
Q 1947 2706 1947 2009 
Q 1947 1309 1714 600 
Q 1481 -109 1013 -844 
L 513 -844 
Q 928 -128 1133 580 
Q 1338 1288 1338 2009 
Q 1338 2731 1133 3434 
Q 928 4138 513 4856 
z
" transform="scale(0.015625)"/>
      </defs>
      <use xlink:href="#DejaVuSans-78"/>
      <use xlink:href="#DejaVuSans-28" x="59.179688"/>
      <use xlink:href="#DejaVuSans-74" x="98.193359"/>
      <use xlink:href="#DejaVuSans-29" x="137.402344"/>
     </g>
    </g>
   </g>
   <g id="line2d_29">
    <path d="M 76.756364 146.536716 
L 77.057527 131.760634 
L 77.358691 150.556019 
L 77.659855 147.449431 
L 78.262182 154.719994 
L 78.563345 156.118859 
L 78.864509 170.553648 
L 79.165673 171.757252 
L 79.466836 177.521921 
L 79.768 152.850138 
L 80.069164 151.090448 
L 80.671491 155.450855 
L 80.972655 160.110942 
L 81.273818 167.481355 
L 81.574982 169.895989 
L 81.876145 165.944201 
L 82.177309 167.287015 
L 82.478473 159.942039 
L 82.779636 161.123147 
L 83.0808 160.658679 
L 83.381964 149.187433 
L 83.683127 145.188428 
L 83.984291 148.872939 
L 84.285455 150.150417 
L 84.586618 146.165505 
L 84.887782 132.162982 
L 85.490109 136.403304 
L 85.791273 129.347294 
L 86.092436 136.105562 
L 86.3936 138.424142 
L 86.694764 132.195275 
L 86.995927 128.277569 
L 87.297091 127.976551 
L 87.598255 123.492568 
L 87.899418 144.424529 
L 88.200582 137.072178 
L 88.501745 144.207335 
L 88.802909 156.334126 
L 89.104073 154.138681 
L 89.405236 148.916266 
L 89.7064 152.089226 
L 90.007564 159.772366 
L 90.308727 159.321141 
L 90.609891 159.449879 
L 90.911055 149.017769 
L 91.212218 143.557471 
L 91.513382 142.213255 
L 91.814545 134.250735 
L 92.115709 135.981983 
L 92.416873 142.894415 
L 93.0192 134.674901 
L 93.320364 136.465124 
L 93.621527 142.332023 
L 93.922691 140.756226 
L 94.223855 158.926271 
L 94.826182 149.985496 
L 95.127345 161.782393 
L 95.428509 161.036314 
L 95.729673 167.729202 
L 96.030836 161.827347 
L 96.332 176.251771 
L 96.633164 182.284236 
L 96.934327 176.439089 
L 97.235491 167.474737 
L 97.536655 182.683912 
L 97.837818 185.573916 
L 98.138982 182.42609 
L 98.440145 186.126106 
L 98.741309 173.826083 
L 99.042473 181.910098 
L 99.343636 178.642876 
L 99.6448 185.597499 
L 99.945964 174.644991 
L 100.247127 174.245163 
L 100.548291 176.391561 
L 100.849455 188.239909 
L 101.150618 175.237856 
L 101.752945 163.314595 
L 102.054109 154.744207 
L 102.355273 152.053317 
L 102.9576 162.167136 
L 103.258764 167.651013 
L 103.559927 157.313714 
L 103.861091 167.673351 
L 104.162255 171.572483 
L 104.463418 173.40252 
L 104.764582 171.244319 
L 105.065745 166.589594 
L 105.366909 175.235877 
L 105.668073 187.192747 
L 105.969236 186.419662 
L 106.571564 170.76267 
L 106.872727 168.721671 
L 107.173891 170.578559 
L 107.475055 167.979512 
L 107.776218 169.316641 
L 108.077382 162.949062 
L 108.378545 168.375807 
L 108.679709 166.971479 
L 108.980873 167.368882 
L 109.282036 163.022502 
L 109.5832 161.069697 
L 109.884364 142.31989 
L 110.486691 121.013698 
L 110.787855 136.284922 
L 111.089018 138.951785 
L 111.390182 143.508266 
L 111.691345 139.711374 
L 111.992509 156.346483 
L 112.594836 139.902073 
L 113.197164 156.487048 
L 113.498327 162.090435 
L 113.799491 161.468992 
L 114.100655 156.532737 
L 114.401818 141.508281 
L 114.702982 143.037339 
L 115.004145 137.549978 
L 115.305309 136.602716 
L 115.606473 124.057705 
L 115.907636 119.129659 
L 116.2088 109.764166 
L 116.509964 118.294588 
L 116.811127 120.245626 
L 117.112291 126.657868 
L 117.413455 116.155804 
L 117.714618 111.996129 
L 118.316945 118.791788 
L 118.618109 115.832242 
L 119.220436 128.751768 
L 119.5216 125.619547 
L 119.822764 108.200868 
L 120.123927 110.741954 
L 120.425091 115.475159 
L 121.027418 134.669646 
L 121.328582 131.103795 
L 121.629745 125.249646 
L 121.930909 125.604734 
L 122.232073 123.611393 
L 122.8344 122.68385 
L 123.135564 134.205431 
L 123.436727 137.766344 
L 123.737891 137.132908 
L 124.039055 142.989177 
L 124.340218 146.508734 
L 124.641382 152.439649 
L 124.942545 154.737251 
L 125.243709 148.398438 
L 125.544873 151.30518 
L 125.846036 152.324769 
L 126.448364 141.655137 
L 126.749527 129.47864 
L 127.050691 144.951347 
L 127.351855 138.779153 
L 127.653018 142.424459 
L 127.954182 141.53073 
L 128.556509 127.939435 
L 128.857673 120.782875 
L 129.158836 120.169875 
L 129.46 109.038152 
L 129.761164 111.829383 
L 130.062327 113.537332 
L 130.363491 108.403528 
L 130.664655 113.150505 
L 130.965818 98.166819 
L 131.266982 91.745638 
L 131.568145 77.079593 
L 131.869309 78.647439 
L 132.170473 82.765266 
L 132.471636 82.818612 
L 132.7728 78.762043 
L 133.073964 84.356998 
L 133.375127 82.83923 
L 133.676291 84.222187 
L 133.977455 73.758698 
L 134.278618 79.997704 
L 134.579782 73.741142 
L 135.182109 88.119621 
L 135.483273 94.418865 
L 135.784436 104.067712 
L 136.0856 103.849091 
L 136.386764 97.228121 
L 136.687927 97.014871 
L 136.989091 93.475408 
L 137.290255 82.70929 
L 137.591418 82.018189 
L 137.892582 81.882782 
L 138.193745 85.154438 
L 138.494909 98.013426 
L 138.796073 93.473806 
L 139.097236 107.241147 
L 139.3984 103.293929 
L 139.699564 104.253872 
L 140.000727 96.933326 
L 140.301891 98.40619 
L 140.603055 105.319138 
L 140.904218 103.54406 
L 141.205382 108.451434 
L 141.506545 110.515685 
L 141.807709 110.925809 
L 142.410036 114.643884 
L 142.7112 121.302236 
L 143.012364 123.171224 
L 143.313527 139.115297 
L 143.614691 140.401322 
L 143.915855 149.196635 
L 144.518182 131.948163 
L 144.819345 146.362297 
L 145.120509 145.316565 
L 145.421673 146.25559 
L 145.722836 153.839289 
L 146.024 149.845564 
L 146.325164 153.122638 
L 146.626327 165.789496 
L 146.927491 167.338982 
L 147.228655 168.000409 
L 147.529818 166.804848 
L 147.830982 175.317535 
L 148.433309 164.495162 
L 148.734473 172.435253 
L 149.035636 176.692486 
L 149.3368 176.676997 
L 149.637964 180.177431 
L 149.939127 166.886665 
L 150.240291 164.975112 
L 150.842618 177.129626 
L 151.143782 176.939925 
L 151.444945 159.716657 
L 151.746109 160.746296 
L 152.047273 159.542009 
L 152.348436 155.562842 
L 152.6496 155.674621 
L 152.950764 138.981887 
L 153.251927 142.979678 
L 153.553091 137.662144 
L 153.854255 136.676315 
L 154.155418 132.374155 
L 154.456582 141.173388 
L 154.757745 128.478603 
L 155.058909 129.716026 
L 155.360073 129.801759 
L 155.9624 142.375989 
L 156.263564 138.373331 
L 157.167055 117.888247 
L 157.468218 113.282686 
L 157.769382 113.735098 
L 158.371709 104.787178 
L 158.672873 106.342031 
L 158.974036 101.881234 
L 159.2752 93.457131 
L 159.576364 92.809901 
L 159.877527 96.452658 
L 160.178691 92.240979 
L 160.479855 79.555043 
L 161.082182 84.344011 
L 161.383345 86.563015 
L 161.684509 78.896032 
L 161.985673 93.536567 
L 162.286836 91.93735 
L 162.588 84.386601 
L 162.889164 91.506081 
L 163.190327 81.81569 
L 163.491491 79.22166 
L 163.792655 84.529561 
L 164.093818 84.27943 
L 164.394982 96.6218 
L 164.696145 101.704868 
L 164.997309 89.365969 
L 165.298473 96.969091 
L 165.599636 84.596053 
L 165.9008 86.413146 
L 166.201964 80.402398 
L 166.503127 81.394134 
L 166.804291 98.91218 
L 167.105455 104.001156 
L 167.406618 103.468893 
L 168.008945 123.080524 
L 168.310109 120.893833 
L 168.611273 126.103306 
L 168.912436 138.78556 
L 169.2136 143.891979 
L 169.514764 137.712681 
L 169.815927 141.31729 
L 170.117091 134.652967 
L 170.418255 123.830956 
L 170.719418 124.045151 
L 171.321745 142.36714 
L 171.622909 142.639778 
L 171.924073 136.338175 
L 172.225236 134.592471 
L 172.5264 130.866887 
L 172.827564 134.386928 
L 173.128727 132.452474 
L 173.731055 138.706782 
L 174.333382 159.566986 
L 174.634545 162.798295 
L 175.236873 176.962047 
L 175.538036 171.501258 
L 175.8392 171.782184 
L 176.140364 150.184266 
L 176.441527 143.405401 
L 176.742691 148.05163 
L 177.043855 142.388925 
L 177.345018 139.887827 
L 177.646182 144.983757 
L 177.947345 137.031813 
L 178.248509 142.833337 
L 178.549673 165.049089 
L 178.850836 158.933558 
L 179.152 163.156988 
L 179.453164 152.069099 
L 179.754327 156.663122 
L 180.055491 165.015511 
L 180.356655 153.438875 
L 180.657818 161.08872 
L 180.958982 159.328018 
L 181.260145 148.578831 
L 181.561309 147.709443 
L 181.862473 148.26965 
L 182.163636 147.493798 
L 182.4648 141.400169 
L 182.765964 147.343131 
L 183.368291 138.800087 
L 183.669455 122.064645 
L 183.970618 124.985641 
L 184.271782 132.035671 
L 184.572945 126.996499 
L 184.874109 130.258806 
L 185.175273 128.487954 
L 185.476436 127.885501 
L 185.7776 119.795746 
L 186.078764 125.080701 
L 186.379927 126.173654 
L 186.681091 145.053949 
L 186.982255 151.527659 
L 187.283418 140.305869 
L 187.885745 150.465161 
L 188.186909 159.204917 
L 188.488073 154.756119 
L 188.789236 153.30473 
L 189.0904 161.76353 
L 189.391564 156.629735 
L 189.692727 154.546735 
L 189.993891 148.928988 
L 190.295055 153.525876 
L 190.596218 140.804445 
L 190.897382 137.950545 
L 191.198545 138.966832 
L 191.499709 142.873042 
L 191.800873 144.718117 
L 192.102036 138.536547 
L 192.4032 140.642257 
L 192.704364 132.953305 
L 193.005527 129.018228 
L 193.306691 119.616606 
L 193.607855 114.255615 
L 193.909018 115.350498 
L 194.210182 129.791486 
L 194.511345 127.961438 
L 194.812509 122.61641 
L 195.113673 121.910737 
L 195.414836 118.369846 
L 196.017164 125.575788 
L 196.318327 132.813659 
L 196.619491 123.22535 
L 196.920655 122.540185 
L 197.221818 126.580906 
L 197.522982 136.618557 
L 197.824145 137.924881 
L 198.125309 127.650879 
L 198.426473 124.68057 
L 198.727636 130.358826 
L 199.329964 110.506387 
L 200.233455 91.817614 
L 200.534618 88.967976 
L 200.835782 84.496973 
L 201.136945 91.372759 
L 201.438109 81.608407 
L 201.739273 81.220349 
L 202.040436 67.858578 
L 202.3416 84.202212 
L 202.642764 80.329417 
L 202.943927 74.534711 
L 203.245091 78.443249 
L 203.546255 76.515932 
L 204.148582 69.770753 
L 204.449745 75.197908 
L 204.750909 77.638129 
L 205.353236 63.860322 
L 205.955564 65.842007 
L 206.256727 65.988293 
L 206.557891 60.07065 
L 207.160218 80.563399 
L 207.461382 80.969729 
L 207.762545 90.279216 
L 208.063709 95.643812 
L 208.364873 96.026786 
L 208.666036 93.533654 
L 208.9672 102.345039 
L 209.268364 97.416538 
L 209.569527 111.230726 
L 209.870691 107.981065 
L 210.473018 129.919652 
L 210.774182 125.59906 
L 211.075345 128.955681 
L 211.376509 135.063584 
L 211.677673 138.510913 
L 211.978836 135.303038 
L 212.581164 136.339792 
L 212.882327 128.905212 
L 213.484655 138.097219 
L 213.785818 142.046681 
L 214.689309 117.823207 
L 214.990473 118.636125 
L 215.291636 120.32383 
L 215.5928 114.668876 
L 215.893964 118.155409 
L 216.496291 108.129568 
L 216.797455 113.945844 
L 217.399782 116.677513 
L 217.700945 104.719527 
L 218.002109 86.811941 
L 218.303273 88.718036 
L 218.604436 89.761095 
L 218.9056 107.403806 
L 219.206764 106.647213 
L 219.507927 107.487997 
L 219.809091 116.028511 
L 220.110255 110.944979 
L 220.411418 122.985667 
L 220.712582 125.007526 
L 221.013745 124.428522 
L 221.314909 133.908947 
L 221.917236 120.682003 
L 222.519564 141.727225 
L 222.820727 137.462152 
L 223.121891 137.862636 
L 223.423055 146.80485 
L 223.724218 148.936958 
L 224.326545 150.641431 
L 224.627709 144.569204 
L 224.928873 141.826601 
L 225.5312 119.503936 
L 225.832364 115.127128 
L 226.735855 94.958177 
L 227.037018 104.85377 
L 227.338182 99.457041 
L 227.639345 99.866033 
L 227.940509 89.07012 
L 228.241673 89.53129 
L 228.542836 86.851932 
L 228.844 85.647205 
L 229.145164 74.680968 
L 229.446327 74.821022 
L 229.747491 78.192534 
L 230.048655 77.308041 
L 230.349818 81.860863 
L 230.650982 81.968381 
L 230.952145 83.301016 
L 231.253309 82.586643 
L 231.554473 69.928525 
L 231.855636 74.382635 
L 232.1568 75.543698 
L 232.457964 78.393758 
L 232.759127 74.873428 
L 233.060291 84.846956 
L 233.361455 91.083798 
L 233.662618 92.467741 
L 233.963782 89.584314 
L 234.264945 91.047119 
L 234.566109 95.767917 
L 234.867273 103.048964 
L 235.168436 100.205033 
L 235.4696 90.681066 
L 235.770764 89.449491 
L 236.071927 89.217812 
L 236.373091 87.1392 
L 236.674255 95.140077 
L 237.276582 101.30695 
L 237.577745 100.065044 
L 237.878909 101.217108 
L 238.180073 110.921129 
L 238.481236 103.479802 
L 238.7824 92.079493 
L 239.083564 95.063343 
L 239.384727 93.19501 
L 239.685891 92.317019 
L 239.987055 87.709743 
L 240.288218 99.588099 
L 240.589382 88.83969 
L 240.890545 93.369379 
L 241.191709 85.269273 
L 241.492873 85.898397 
L 241.794036 89.919466 
L 242.0952 92.057428 
L 242.396364 86.640734 
L 242.697527 94.0768 
L 243.299855 102.287198 
L 243.601018 115.583098 
L 243.902182 106.781052 
L 244.203345 103.37716 
L 244.504509 104.386096 
L 244.805673 96.795915 
L 245.106836 104.70532 
L 245.408 106.065407 
L 245.709164 94.375022 
L 246.010327 88.315191 
L 246.311491 105.580127 
L 246.612655 130.515108 
L 246.913818 138.346693 
L 247.214982 130.825265 
L 247.516145 134.55684 
L 247.817309 136.370506 
L 248.118473 132.167977 
L 248.419636 138.861287 
L 248.7208 137.472053 
L 249.021964 131.916821 
L 249.624291 126.309279 
L 249.925455 131.068571 
L 250.226618 127.651466 
L 250.527782 131.121424 
L 250.828945 121.978962 
L 251.130109 103.857985 
L 251.431273 110.059936 
L 251.732436 126.525435 
L 252.0336 130.001834 
L 252.334764 127.60092 
L 252.937091 113.079107 
L 253.539418 125.69731 
L 253.840582 116.934806 
L 254.141745 125.429758 
L 254.442909 117.954521 
L 254.744073 120.163136 
L 255.948727 100.601784 
L 256.249891 108.674464 
L 256.551055 107.270159 
L 256.852218 107.946457 
L 257.153382 106.477748 
L 257.454545 98.342354 
L 257.755709 101.259467 
L 258.358036 113.358846 
L 258.6592 116.26611 
L 258.960364 111.416672 
L 259.261527 118.011291 
L 259.562691 110.183203 
L 259.863855 108.800207 
L 260.165018 111.184464 
L 260.466182 121.525526 
L 260.767345 120.247485 
L 261.068509 115.761867 
L 261.369673 129.155245 
L 261.670836 120.869735 
L 261.972 109.448426 
L 262.273164 107.732096 
L 262.574327 104.940027 
L 262.875491 88.288749 
L 263.176655 80.523352 
L 263.477818 88.33019 
L 263.778982 89.603266 
L 264.381309 94.041664 
L 264.682473 112.198234 
L 264.983636 107.397531 
L 265.2848 112.782454 
L 265.585964 112.266011 
L 265.887127 113.930253 
L 266.188291 108.269248 
L 266.489455 111.168624 
L 266.790618 117.627791 
L 267.091782 114.345533 
L 267.392945 104.811708 
L 267.694109 107.95332 
L 267.995273 98.799015 
L 268.296436 97.846101 
L 268.5976 102.667156 
L 268.898764 92.493818 
L 269.199927 99.490725 
L 269.501091 93.080675 
L 269.802255 97.746 
L 270.103418 95.452576 
L 270.705745 112.277915 
L 271.006909 105.245396 
L 271.308073 104.701069 
L 271.609236 105.252232 
L 271.9104 109.253894 
L 272.211564 106.759661 
L 272.813891 126.343377 
L 273.115055 127.88562 
L 273.717382 139.609701 
L 274.018545 140.264543 
L 274.319709 141.384383 
L 274.620873 143.097336 
L 274.922036 131.108986 
L 275.524364 115.635587 
L 275.825527 116.451361 
L 276.126691 120.700962 
L 276.427855 131.738651 
L 276.729018 134.552158 
L 277.030182 149.891609 
L 277.331345 154.051415 
L 277.632509 148.369589 
L 277.933673 136.593554 
L 278.234836 129.79953 
L 278.536 136.368862 
L 278.837164 133.003683 
L 279.138327 138.985136 
L 279.439491 133.176407 
L 279.740655 134.247204 
L 280.041818 128.277256 
L 280.342982 110.011272 
L 280.644145 104.055527 
L 280.945309 88.009971 
L 281.246473 87.88421 
L 281.547636 91.432736 
L 282.149964 71.644492 
L 282.451127 77.145716 
L 282.752291 77.964941 
L 283.053455 89.708625 
L 283.354618 92.282212 
L 283.655782 86.925073 
L 283.956945 88.730882 
L 284.258109 93.996619 
L 284.559273 105.225281 
L 284.860436 103.377171 
L 285.462764 95.091075 
L 285.763927 94.261303 
L 286.065091 104.52055 
L 286.366255 92.597181 
L 286.667418 94.074574 
L 286.968582 96.161708 
L 287.269745 91.852859 
L 287.570909 108.596957 
L 287.872073 109.814952 
L 288.173236 111.532437 
L 288.4744 109.53027 
L 288.775564 100.509723 
L 289.076727 98.00243 
L 289.377891 112.22771 
L 289.679055 115.361961 
L 289.980218 114.49123 
L 290.281382 114.060295 
L 290.883709 136.471738 
L 291.184873 132.696245 
L 291.486036 130.48314 
L 291.7872 130.95524 
L 292.088364 143.755683 
L 292.389527 130.966777 
L 292.690691 152.272529 
L 292.991855 154.794986 
L 293.293018 139.491702 
L 293.594182 140.770952 
L 293.895345 139.204953 
L 294.196509 147.887052 
L 294.497673 138.023875 
L 294.798836 147.550921 
L 295.1 145.688865 
L 295.401164 144.728948 
L 295.702327 152.371901 
L 296.003491 145.834701 
L 296.304655 156.100018 
L 296.605818 160.859022 
L 296.906982 160.783223 
L 297.208145 163.487572 
L 297.509309 159.765041 
L 297.810473 152.813024 
L 298.111636 154.815642 
L 298.713964 162.076443 
L 299.015127 164.415605 
L 299.316291 158.199789 
L 299.617455 159.544142 
L 299.918618 156.335302 
L 300.219782 156.801216 
L 300.520945 162.711821 
L 300.822109 156.138275 
L 301.123273 163.463482 
L 301.424436 163.083438 
L 301.7256 151.989864 
L 302.026764 159.795887 
L 302.327927 159.932898 
L 302.629091 171.141317 
L 302.930255 174.342244 
L 303.231418 184.612432 
L 303.532582 186.476343 
L 303.833745 189.582713 
L 304.134909 187.774882 
L 304.436073 175.488108 
L 304.737236 172.866048 
L 305.0384 167.579565 
L 305.339564 167.529966 
L 305.640727 168.884602 
L 305.941891 174.480042 
L 306.243055 186.964778 
L 306.544218 185.667443 
L 306.845382 173.097887 
L 307.146545 169.123569 
L 307.447709 172.542355 
L 307.748873 160.085848 
L 308.050036 162.949714 
L 308.3512 167.105062 
L 308.953527 181.869686 
L 309.254691 182.953692 
L 309.555855 167.759848 
L 309.857018 168.8323 
L 310.158182 175.858908 
L 310.459345 179.66147 
L 310.760509 180.619056 
L 311.061673 192.337119 
L 311.362836 190.513431 
L 311.664 184.569853 
L 311.965164 181.494093 
L 312.266327 176.452637 
L 312.868655 196.728621 
L 313.470982 177.714551 
L 313.772145 188.248572 
L 314.073309 185.928436 
L 314.374473 184.963609 
L 314.675636 180.257774 
L 314.9768 178.079906 
L 315.277964 181.090702 
L 315.880291 177.213165 
L 316.181455 176.95779 
L 316.482618 189.766767 
L 316.783782 210.595756 
L 317.084945 215.048202 
L 317.386109 225.527191 
L 317.687273 222.134547 
L 317.988436 215.45313 
L 318.2896 212.18356 
L 318.590764 213.559016 
L 318.891927 211.72161 
L 319.193091 201.979413 
L 319.494255 206.158082 
L 320.096582 192.152097 
L 320.397745 189.35428 
L 320.698909 177.994584 
L 321.000073 182.568622 
L 321.301236 175.031479 
L 322.204727 192.949393 
L 322.505891 188.802577 
L 322.807055 194.76944 
L 323.108218 193.436735 
L 323.409382 200.73775 
L 323.710545 191.944883 
L 324.011709 177.752 
L 324.312873 175.497121 
L 324.614036 163.02584 
L 324.9152 158.640176 
L 325.216364 142.694891 
L 325.517527 142.049042 
L 325.818691 153.507637 
L 326.119855 142.577902 
L 326.421018 143.571179 
L 326.722182 151.129331 
L 327.023345 155.7897 
L 327.324509 167.380982 
L 327.625673 168.182385 
L 327.926836 175.509631 
L 328.228 164.190587 
L 328.529164 159.030152 
L 329.131491 181.251168 
L 329.432655 184.668632 
L 329.733818 197.850704 
L 330.034982 197.629603 
L 330.336145 196.932457 
L 330.637309 201.529607 
L 330.938473 204.397248 
L 331.239636 199.63988 
L 331.841964 176.640064 
L 332.143127 175.795585 
L 332.444291 169.019946 
L 332.745455 173.920378 
L 333.046618 170.395635 
L 333.347782 176.871141 
L 333.648945 170.98843 
L 334.251273 185.805166 
L 334.552436 185.088014 
L 334.8536 180.292092 
L 335.154764 190.035953 
L 335.455927 193.059828 
L 336.058255 188.618248 
L 336.359418 193.857813 
L 336.660582 192.219371 
L 336.961745 193.249567 
L 337.262909 182.160987 
L 337.564073 177.423683 
L 337.865236 186.398418 
L 338.1664 201.54819 
L 338.467564 199.735754 
L 338.768727 190.124151 
L 339.069891 188.003199 
L 339.371055 180.796024 
L 339.672218 183.626639 
L 339.973382 192.766878 
L 340.274545 186.431704 
L 340.575709 184.925397 
L 340.876873 179.215444 
L 341.178036 188.570782 
L 341.4792 186.42402 
L 341.780364 190.162773 
L 342.081527 183.459284 
L 342.985018 193.899339 
L 343.286182 183.812292 
L 343.587345 182.865212 
L 343.888509 187.648175 
L 344.490836 200.852355 
L 344.792 189.187533 
L 345.093164 201.481804 
L 345.394327 206.550335 
L 345.695491 200.743714 
L 345.996655 191.138134 
L 346.297818 191.328483 
L 347.201309 170.72536 
L 347.502473 169.910352 
L 347.803636 157.465694 
L 348.1048 155.684556 
L 348.405964 144.294579 
L 348.707127 152.178273 
L 349.008291 145.111806 
L 349.610618 164.615284 
L 349.911782 160.452735 
L 350.212945 165.967262 
L 350.514109 162.129117 
L 350.815273 169.3445 
L 351.116436 157.016696 
L 351.4176 156.480392 
L 351.718764 164.205944 
L 352.019927 162.294716 
L 352.321091 155.292426 
L 352.622255 160.381645 
L 352.923418 156.040477 
L 353.224582 140.69663 
L 353.525745 134.184232 
L 353.826909 134.144676 
L 354.128073 138.151376 
L 354.429236 133.76251 
L 354.7304 144.61763 
L 355.031564 166.277478 
L 355.332727 170.327527 
L 355.633891 177.302446 
L 355.935055 163.662557 
L 356.236218 161.90524 
L 356.838545 175.892706 
L 357.139709 171.270522 
L 357.440873 176.364262 
L 357.742036 179.555052 
L 358.0432 179.12112 
L 358.946691 173.739301 
L 359.549018 150.160694 
L 359.850182 161.563581 
L 360.151345 142.107163 
L 360.452509 140.753187 
L 360.753673 131.348231 
L 361.054836 136.486816 
L 361.657164 131.979806 
L 361.958327 130.920481 
L 362.560655 119.853956 
L 362.861818 127.125677 
L 363.162982 127.824414 
L 363.765309 117.34011 
L 364.367636 121.825509 
L 364.6688 122.884684 
L 365.271127 139.891526 
L 365.572291 128.116184 
L 365.873455 130.796469 
L 366.174618 129.872413 
L 366.475782 135.072808 
L 367.078109 112.548399 
L 367.379273 114.268197 
L 367.680436 110.637454 
L 367.9816 116.268956 
L 368.282764 103.544337 
L 368.583927 97.14746 
L 368.885091 103.661207 
L 369.186255 94.930536 
L 370.089745 88.310639 
L 370.692073 98.170564 
L 370.993236 94.087785 
L 371.2944 94.95618 
L 371.595564 102.31834 
L 371.896727 87.965853 
L 372.197891 90.125575 
L 372.800218 100.344247 
L 373.101382 95.75341 
L 373.402545 89.195696 
L 373.703709 88.04769 
L 374.004873 82.411733 
L 374.306036 94.035627 
L 374.908364 101.158582 
L 375.209527 101.530956 
L 375.510691 98.401652 
L 375.811855 113.642377 
L 376.113018 91.189195 
L 376.414182 98.09631 
L 376.715345 96.097353 
L 377.317673 85.14265 
L 377.618836 84.175286 
L 377.92 106.051404 
L 378.221164 114.305968 
L 378.522327 109.043325 
L 379.124655 123.932512 
L 379.425818 141.067787 
L 379.726982 132.006228 
L 380.028145 128.264738 
L 380.329309 134.773052 
L 380.931636 136.321501 
L 381.2328 144.336857 
L 381.533964 146.11144 
L 381.835127 144.040215 
L 382.136291 139.863271 
L 382.437455 130.614912 
L 382.738618 130.517161 
L 383.039782 133.989172 
L 383.340945 131.139345 
L 383.642109 135.827702 
L 383.943273 144.93328 
L 384.244436 136.524611 
L 384.5456 139.32679 
L 384.846764 138.442295 
L 385.147927 133.751075 
L 385.449091 141.877671 
L 386.051418 133.966214 
L 386.352582 134.784873 
L 386.653745 132.021491 
L 386.954909 137.648895 
L 387.256073 153.655886 
L 387.557236 155.429303 
L 387.8584 161.715682 
L 388.159564 154.993257 
L 388.460727 152.778066 
L 388.761891 156.358505 
L 389.063055 155.689117 
L 389.665382 137.25216 
L 390.267709 131.623247 
L 390.568873 133.803886 
L 390.870036 134.873133 
L 391.1712 130.711852 
L 391.472364 131.765014 
L 391.773527 129.768724 
L 392.074691 138.056868 
L 392.677018 162.297712 
L 392.978182 165.035552 
L 393.580509 146.085398 
L 393.881673 153.199802 
L 394.182836 164.223176 
L 394.484 158.016609 
L 394.785164 154.321475 
L 395.086327 163.964871 
L 395.387491 155.847266 
L 395.688655 154.285537 
L 395.989818 144.434582 
L 396.290982 141.884515 
L 396.592145 135.417712 
L 396.893309 133.199158 
L 397.194473 140.251742 
L 397.495636 141.953701 
L 397.7968 146.844651 
L 398.097964 140.718998 
L 398.399127 147.942089 
L 398.700291 158.914825 
L 399.001455 153.624873 
L 399.904945 126.763153 
L 400.206109 137.974713 
L 400.808436 147.039799 
L 401.1096 147.102402 
L 401.410764 162.598892 
L 401.711927 162.26298 
L 402.013091 159.860684 
L 402.314255 166.395393 
L 402.615418 165.063642 
L 402.916582 155.986856 
L 403.217745 155.383139 
L 403.820073 140.030309 
L 404.4224 134.433897 
L 404.723564 137.283353 
L 405.024727 128.398973 
L 405.325891 132.086626 
L 405.627055 137.339696 
L 405.928218 132.328449 
L 406.229382 137.784555 
L 406.530545 134.791387 
L 406.831709 127.287202 
L 407.132873 126.999719 
L 407.434036 126.53577 
L 408.036364 115.167254 
L 408.638691 136.631754 
L 408.939855 127.090675 
L 409.241018 124.549907 
L 409.843345 149.741334 
L 410.144509 149.387599 
L 410.445673 156.314902 
L 410.746836 152.608311 
L 411.048 151.798979 
L 411.349164 148.017781 
L 411.650327 156.319016 
L 411.951491 151.496587 
L 412.252655 137.075442 
L 412.553818 142.879979 
L 413.156145 126.302566 
L 413.457309 121.888757 
L 413.758473 122.699568 
L 414.3608 137.926961 
L 414.963127 125.434211 
L 415.565455 110.301199 
L 415.866618 104.31089 
L 416.167782 108.124513 
L 416.468945 117.460144 
L 416.770109 116.386933 
L 417.071273 113.189753 
L 417.372436 113.055829 
L 417.6736 124.552667 
L 417.974764 128.580748 
L 418.275927 139.456181 
L 418.577091 138.365704 
L 418.878255 145.954583 
L 419.179418 146.997627 
L 419.480582 144.474343 
L 419.781745 143.341556 
L 420.082909 133.31521 
L 420.384073 141.394125 
L 420.685236 157.120138 
L 420.9864 149.881384 
L 421.588727 129.051155 
L 421.889891 127.139626 
L 422.191055 123.420196 
L 422.492218 122.78721 
L 422.793382 132.428002 
L 423.094545 136.634003 
L 423.395709 133.023866 
L 423.696873 137.257271 
L 423.998036 123.415556 
L 424.2992 134.812756 
L 424.600364 137.96829 
L 424.901527 129.880611 
L 425.202691 134.389852 
L 426.106182 157.231999 
L 426.407345 145.863801 
L 427.009673 138.801126 
L 427.310836 142.485438 
L 427.612 136.222988 
L 427.913164 135.421995 
L 428.214327 142.077295 
L 428.515491 145.205849 
L 428.816655 143.530205 
L 429.117818 134.876714 
L 429.418982 135.290657 
L 429.720145 131.654036 
L 430.021309 117.086264 
L 430.322473 123.210537 
L 430.623636 132.412264 
L 430.9248 125.329225 
L 431.225964 122.330942 
L 431.527127 123.275056 
L 431.828291 121.57672 
L 432.129455 124.208513 
L 432.430618 120.665639 
L 432.731782 123.358778 
L 433.032945 117.774837 
L 433.635273 132.621656 
L 433.936436 131.800088 
L 434.2376 135.237825 
L 434.538764 130.168482 
L 434.839927 130.539481 
L 435.141091 134.522293 
L 435.442255 132.979427 
L 435.743418 136.806047 
L 436.345745 155.936675 
L 436.646909 161.282693 
L 436.948073 164.119095 
L 437.249236 162.785538 
L 437.5504 155.585953 
L 437.851564 151.12549 
L 438.453891 128.497063 
L 438.755055 129.915431 
L 439.357382 109.685406 
L 439.658545 113.381603 
L 439.959709 111.464759 
L 440.260873 103.913816 
L 440.562036 102.682658 
L 440.8632 95.866263 
L 441.164364 93.676975 
L 441.465527 89.298794 
L 441.766691 92.402905 
L 442.067855 90.396038 
L 442.369018 93.805336 
L 442.670182 89.617868 
L 442.971345 102.633316 
L 443.272509 100.738919 
L 443.573673 92.25323 
L 443.874836 88.785444 
L 444.176 89.772333 
L 444.477164 86.652674 
L 445.079491 100.345302 
L 445.380655 103.516517 
L 445.681818 105.0971 
L 445.982982 98.582271 
L 446.284145 105.664037 
L 446.585309 98.887553 
L 446.886473 110.877982 
L 447.187636 116.941919 
L 447.4888 117.454868 
L 447.789964 109.30985 
L 448.091127 114.15123 
L 448.392291 129.97355 
L 448.693455 126.923108 
L 448.994618 127.18453 
L 449.596945 142.51346 
L 449.898109 147.293256 
L 450.199273 146.231205 
L 450.500436 141.098349 
L 450.8016 151.574368 
L 451.102764 134.569327 
L 451.403927 134.746915 
L 451.705091 137.34749 
L 452.006255 132.326512 
L 452.307418 131.489213 
L 452.608582 114.543236 
L 452.909745 106.912412 
L 454.1144 119.930754 
L 454.415564 115.263513 
L 454.716727 120.237326 
L 455.017891 108.759188 
L 455.319055 109.781287 
L 455.620218 111.245257 
L 455.921382 104.756786 
L 456.222545 119.598026 
L 456.523709 126.592749 
L 456.824873 122.338458 
L 457.126036 122.422405 
L 457.4272 122.676157 
L 457.728364 119.964781 
L 458.029527 124.533463 
L 458.330691 125.898122 
L 458.933018 149.337322 
L 459.234182 139.8213 
L 459.836509 151.293337 
L 460.438836 132.936554 
L 461.041164 140.467759 
L 461.342327 140.889985 
L 461.643491 147.626436 
L 461.944655 143.347526 
L 462.546982 140.939259 
L 463.149309 130.047467 
L 463.751636 106.082383 
L 464.0528 118.98265 
L 464.353964 112.74711 
L 464.956291 131.795316 
L 465.257455 126.659349 
L 465.558618 131.858413 
L 465.859782 134.157855 
L 466.160945 126.377642 
L 466.763273 137.806539 
L 467.064436 135.335323 
L 467.3656 126.423251 
L 467.666764 122.715098 
L 467.967927 134.156968 
L 468.269091 138.837669 
L 468.570255 139.813316 
L 468.871418 125.693258 
L 469.774909 105.123495 
L 470.076073 107.902968 
L 470.6784 101.912357 
L 470.979564 109.590231 
L 471.280727 110.164694 
L 471.581891 106.521932 
L 471.883055 114.852914 
L 472.786545 97.388615 
L 473.087709 103.693059 
L 473.388873 103.486517 
L 473.690036 93.539492 
L 473.9912 88.57253 
L 474.292364 95.150412 
L 474.593527 94.261639 
L 474.894691 84.737128 
L 475.195855 86.23849 
L 475.497018 84.401028 
L 475.798182 66.762876 
L 476.400509 70.400895 
L 477.002836 84.770818 
L 477.304 74.981203 
L 477.605164 77.152059 
L 478.207491 94.547855 
L 478.508655 95.29432 
L 478.809818 90.533076 
L 479.110982 96.799222 
L 479.412145 92.394948 
L 479.713309 96.785192 
L 480.014473 94.984407 
L 480.6168 88.534766 
L 480.917964 92.628003 
L 481.219127 94.748798 
L 481.520291 91.94871 
L 481.821455 102.247779 
L 482.122618 101.741273 
L 482.423782 98.785387 
L 482.724945 92.062061 
L 483.026109 93.310093 
L 483.327273 95.609355 
L 483.628436 95.51375 
L 483.9296 101.760433 
L 484.230764 104.099726 
L 484.531927 101.928336 
L 484.833091 100.730944 
L 485.134255 109.162325 
L 485.435418 112.238409 
L 485.736582 128.206488 
L 486.037745 122.765192 
L 486.338909 127.090623 
L 486.640073 125.757411 
L 486.941236 134.148523 
L 487.2424 135.038552 
L 487.543564 132.082858 
L 487.844727 125.318601 
L 488.145891 135.655654 
L 488.447055 129.842987 
L 488.748218 131.446196 
L 489.049382 137.445704 
L 489.350545 134.27153 
L 489.952873 139.191822 
L 490.254036 144.542274 
L 490.5552 143.083398 
L 490.856364 143.008093 
L 491.157527 144.461762 
L 491.458691 151.548186 
L 491.759855 155.286275 
L 492.061018 152.336205 
L 492.362182 143.104532 
L 492.663345 143.50606 
L 492.964509 133.476135 
L 493.265673 133.954776 
L 493.566836 142.237857 
L 493.868 137.897454 
L 494.169164 145.200626 
L 494.470327 142.460893 
L 494.771491 134.940139 
L 495.072655 137.542339 
L 495.373818 138.502504 
L 495.674982 120.951238 
L 496.277309 118.625924 
L 496.578473 113.668286 
L 497.1808 116.565433 
L 497.481964 114.538417 
L 497.783127 132.608866 
L 498.084291 122.781066 
L 498.686618 139.340897 
L 498.987782 135.717258 
L 499.288945 135.867669 
L 499.590109 145.248474 
L 499.891273 143.871677 
L 500.192436 152.298311 
L 500.4936 157.348966 
L 500.794764 168.131264 
L 501.095927 173.810817 
L 501.397091 170.526714 
L 501.698255 169.290427 
L 501.999418 166.732434 
L 502.300582 159.796731 
L 502.601745 159.972948 
L 502.902909 164.60722 
L 503.204073 166.401217 
L 503.505236 154.225729 
L 503.8064 153.961225 
L 504.107564 151.636158 
L 504.408727 152.360998 
L 504.709891 150.604204 
L 505.011055 147.537285 
L 505.312218 147.714203 
L 505.613382 148.941852 
L 506.215709 160.757782 
L 506.516873 157.667144 
L 507.1192 145.521466 
L 507.420364 145.284036 
L 507.721527 151.401344 
L 508.323855 142.561727 
L 508.625018 153.629575 
L 509.227345 143.719456 
L 509.528509 131.868509 
L 510.130836 149.927794 
L 510.432 144.308012 
L 510.733164 157.4482 
L 511.034327 162.633192 
L 511.636655 177.283884 
L 511.937818 190.560283 
L 512.238982 191.520196 
L 512.540145 183.700035 
L 513.142473 176.114016 
L 513.443636 178.211894 
L 513.7448 167.241782 
L 514.045964 163.117668 
L 514.347127 155.294547 
L 514.648291 166.397453 
L 514.949455 163.597091 
L 515.250618 171.589055 
L 515.551782 168.647114 
L 515.852945 166.845287 
L 516.154109 174.638613 
L 516.455273 172.865089 
L 516.756436 164.018694 
L 517.358764 155.602808 
L 518.262255 173.968136 
L 518.563418 172.492531 
L 518.864582 163.41598 
L 519.165745 159.955241 
L 519.466909 159.714332 
L 519.768073 167.537319 
L 520.069236 163.923353 
L 520.3704 165.300343 
L 520.972727 190.496932 
L 521.273891 192.071816 
L 521.575055 197.618799 
L 521.876218 184.690204 
L 522.177382 183.674722 
L 522.478545 190.414797 
L 522.779709 193.05343 
L 523.080873 180.635077 
L 523.382036 186.779445 
L 523.6832 180.411067 
L 523.984364 176.562953 
L 524.285527 165.360015 
L 524.586691 161.136474 
L 524.887855 163.723206 
L 525.189018 159.55592 
L 525.490182 158.789039 
L 525.791345 151.492587 
L 526.092509 151.805725 
L 526.393673 137.401714 
L 526.694836 138.269678 
L 526.996 135.213805 
L 527.297164 140.115332 
L 527.598327 139.274211 
L 527.899491 139.155596 
L 528.200655 138.004508 
L 528.501818 131.606392 
L 528.802982 135.69565 
L 529.104145 141.930439 
L 529.405309 133.948462 
L 529.706473 136.170478 
L 530.007636 141.10662 
L 530.609964 127.37525 
L 530.911127 146.710217 
L 531.212291 149.326634 
L 531.814618 137.441745 
L 532.115782 141.202271 
L 532.416945 129.920755 
L 532.718109 135.833167 
L 533.019273 137.580096 
L 533.320436 136.69857 
L 533.6216 136.791004 
L 534.223927 123.834635 
L 534.525091 124.451464 
L 534.826255 114.659233 
L 535.127418 120.063825 
L 535.428582 121.959565 
L 535.729745 109.885425 
L 536.030909 109.733016 
L 536.332073 102.591575 
L 536.9344 108.892113 
L 537.235564 110.203598 
L 537.536727 109.485975 
L 537.837891 112.449938 
L 538.139055 112.79325 
L 538.440218 108.422876 
L 538.741382 100.275402 
L 539.042545 100.183624 
L 539.343709 96.201681 
L 539.644873 90.399639 
L 539.946036 99.033072 
L 540.2472 111.069002 
L 540.849527 91.074299 
L 541.150691 91.518453 
L 541.451855 89.836946 
L 541.753018 97.502734 
L 542.054182 108.194739 
L 542.355345 106.437441 
L 542.656509 117.69572 
L 542.957673 111.448912 
L 543.258836 116.804894 
L 543.56 115.064461 
L 544.162327 88.578392 
L 544.463491 91.453936 
L 544.764655 84.625687 
L 545.065818 93.051492 
L 545.366982 98.104951 
L 545.668145 96.17315 
L 545.969309 86.957228 
L 546.270473 92.056108 
L 546.571636 89.016318 
L 546.8728 89.209651 
L 547.173964 99.23812 
L 547.475127 100.933804 
L 547.776291 90.824262 
L 548.077455 92.389292 
L 548.378618 89.640466 
L 548.679782 84.592095 
L 548.980945 90.929831 
L 549.583273 73.181599 
L 550.1856 54.915238 
L 550.787927 65.647679 
L 551.691418 87.424833 
L 551.992582 81.266172 
L 552.293745 71.8365 
L 552.594909 77.77094 
L 552.896073 73.118648 
L 553.197236 83.543612 
L 553.4984 86.989875 
L 553.799564 95.20618 
L 554.100727 107.83039 
L 554.401891 108.067303 
L 554.703055 108.130082 
L 555.305382 116.046657 
L 555.606545 123.649858 
L 555.907709 124.947342 
L 556.208873 129.603713 
L 556.510036 128.097794 
L 556.8112 137.073023 
L 557.112364 135.525242 
L 557.413527 131.95919 
L 558.015855 115.966622 
L 558.317018 115.11351 
L 558.618182 120.593088 
L 558.919345 134.260629 
L 559.220509 134.484223 
L 559.822836 112.819416 
L 560.124 131.799059 
L 560.425164 137.501128 
L 560.726327 140.156376 
L 561.027491 147.753635 
L 561.328655 146.326502 
L 561.629818 145.997656 
L 561.930982 149.695089 
L 562.232145 149.840371 
L 562.533309 161.240004 
L 563.135636 173.934001 
L 563.4368 166.854738 
L 563.737964 178.175025 
L 564.039127 179.043247 
L 564.340291 172.726055 
L 564.641455 172.55451 
L 564.942618 166.125559 
L 565.243782 170.415733 
L 565.544945 166.748394 
L 565.846109 159.762158 
L 566.147273 143.300116 
L 566.448436 138.051376 
L 566.7496 127.835331 
L 567.050764 128.06467 
L 567.351927 127.655036 
L 567.653091 116.608684 
L 567.954255 112.908544 
L 568.255418 103.231462 
L 568.556582 98.870741 
L 569.158909 68.266015 
L 569.460073 75.76632 
L 569.761236 63.605843 
L 570.363564 60.089335 
L 570.664727 62.507423 
L 570.965891 58.833583 
L 571.568218 75.13297 
L 571.869382 81.925539 
L 572.170545 80.947067 
L 572.772873 71.306802 
L 573.074036 69.946508 
L 573.3752 75.565481 
L 573.676364 89.519622 
L 573.977527 87.528709 
L 574.278691 87.440132 
L 574.579855 85.8189 
L 574.881018 76.479764 
L 575.483345 81.565782 
L 575.784509 99.407971 
L 576.085673 96.079881 
L 576.386836 97.218959 
L 576.688 103.332247 
L 576.989164 101.18092 
L 577.290327 109.424821 
L 577.591491 113.86917 
L 577.892655 100.09443 
L 579.097309 81.321347 
L 579.398473 81.008239 
L 579.699636 65.560074 
L 580.0008 67.501484 
L 580.301964 63.549877 
L 580.904291 70.530111 
L 581.506618 104.387129 
L 582.108945 83.93911 
L 582.410109 88.179481 
L 582.711273 89.412328 
L 583.012436 85.95478 
L 583.3136 94.206594 
L 583.614764 82.289087 
L 584.217091 97.136038 
L 584.518255 117.992086 
L 584.819418 107.465293 
L 585.120582 107.697176 
L 585.421745 96.597136 
L 585.722909 104.725034 
L 586.024073 102.991304 
L 586.325236 103.201549 
L 586.6264 102.509022 
L 587.529891 64.262321 
L 587.831055 68.69475 
L 588.132218 63.669799 
L 588.433382 55.47334 
L 589.336873 49.088906 
L 589.638036 57.454682 
L 589.9392 57.355955 
L 590.240364 47.425818 
L 590.541527 56.514116 
L 590.842691 57.62289 
L 591.143855 53.257985 
L 591.445018 64.907275 
L 591.746182 67.445308 
L 592.047345 81.225083 
L 592.348509 86.837365 
L 592.950836 105.526475 
L 593.252 109.829763 
L 593.854327 114.620734 
L 594.155491 132.636889 
L 594.456655 121.378455 
L 594.757818 123.841815 
L 595.058982 132.206998 
L 595.360145 137.028171 
L 595.661309 134.961259 
L 595.962473 142.43877 
L 596.5648 148.93583 
L 596.865964 144.980653 
L 597.167127 150.431192 
L 597.769455 144.53304 
L 598.070618 145.647364 
L 598.371782 136.679488 
L 598.672945 136.726693 
L 598.974109 145.446847 
L 599.275273 143.312253 
L 599.576436 142.484224 
L 599.8776 142.857706 
L 600.178764 141.248531 
L 600.479927 124.342679 
L 600.781091 123.091492 
L 601.082255 120.241343 
L 601.383418 122.546338 
L 601.684582 113.534292 
L 601.985745 114.597278 
L 602.286909 121.036917 
L 602.588073 130.393678 
L 602.889236 126.897231 
L 603.1904 121.897914 
L 603.491564 133.886776 
L 603.792727 139.37689 
L 604.093891 134.875078 
L 604.395055 127.669761 
L 604.696218 137.608916 
L 604.997382 140.744737 
L 605.298545 134.83749 
L 606.202036 146.367876 
L 606.5032 155.842593 
L 606.804364 155.329562 
L 607.105527 152.9623 
L 607.406691 162.996911 
L 607.707855 161.95795 
L 608.009018 153.644822 
L 608.310182 152.015028 
L 608.611345 145.06205 
L 608.912509 149.082723 
L 609.213673 139.133852 
L 609.514836 144.98648 
L 609.816 131.381641 
L 610.117164 134.947686 
L 611.020655 149.992511 
L 611.321818 153.512019 
L 611.622982 158.382274 
L 611.924145 160.549811 
L 612.526473 148.933035 
L 612.827636 151.347367 
L 613.1288 142.331473 
L 614.032291 165.064277 
L 614.333455 160.363391 
L 614.935782 180.982844 
L 615.839273 148.284987 
L 616.140436 159.083996 
L 616.4416 158.788199 
L 616.742764 152.564277 
L 617.043927 151.788072 
L 617.345091 163.443355 
L 617.646255 165.633297 
L 618.248582 185.958574 
L 618.549745 169.64725 
L 618.850909 164.324869 
L 619.453236 185.017565 
L 619.7544 181.011203 
L 620.055564 184.80249 
L 620.356727 179.927534 
L 620.657891 184.018204 
L 620.959055 184.790506 
L 621.260218 182.37409 
L 621.561382 189.212685 
L 621.862545 202.342085 
L 622.163709 209.957562 
L 622.464873 213.833704 
L 622.766036 214.058284 
L 623.368364 212.485865 
L 623.669527 207.545886 
L 623.970691 212.890206 
L 624.874182 182.752579 
L 625.175345 180.776137 
L 625.476509 171.169326 
L 625.777673 166.09325 
L 626.078836 164.453941 
L 626.38 165.422572 
L 626.681164 170.508073 
L 626.982327 178.60827 
L 627.283491 173.267617 
L 627.584655 164.251433 
L 627.885818 171.66618 
L 628.186982 171.804789 
L 628.488145 169.841074 
L 628.789309 172.575881 
L 629.090473 177.688595 
L 629.391636 180.030887 
L 629.6928 193.750284 
L 629.993964 193.374804 
L 630.295127 194.696415 
L 630.596291 178.53705 
L 630.897455 171.244336 
L 631.198618 173.378376 
L 631.499782 173.027756 
L 632.102109 148.429688 
L 632.403273 147.180145 
L 632.704436 148.222588 
L 633.0056 158.776256 
L 633.306764 161.027943 
L 633.607927 162.08995 
L 633.909091 167.235075 
L 634.210255 154.426234 
L 634.511418 167.975306 
L 634.812582 168.659439 
L 635.414909 161.992369 
L 635.716073 149.602126 
L 636.017236 159.794223 
L 636.3184 165.074407 
L 636.920727 162.953901 
L 637.221891 165.549513 
L 637.523055 170.83391 
L 637.824218 162.712813 
L 638.125382 170.122596 
L 638.426545 173.948405 
L 639.330036 144.118503 
L 640.835855 173.858515 
L 641.137018 164.249744 
L 641.438182 162.42183 
L 642.040509 173.066378 
L 642.341673 181.194209 
L 642.642836 171.916927 
L 642.944 186.187444 
L 643.245164 183.579798 
L 644.148655 210.231615 
L 644.449818 202.179417 
L 644.750982 201.858319 
L 645.052145 181.097623 
L 645.654473 195.433085 
L 646.2568 185.680861 
L 646.557964 187.170057 
L 646.859127 201.227814 
L 647.160291 189.924956 
L 647.762618 181.799877 
L 648.063782 185.661314 
L 648.364945 180.517651 
L 648.666109 184.183226 
L 648.967273 183.417631 
L 649.268436 184.354774 
L 649.5696 174.806935 
L 650.171927 180.174173 
L 650.473091 171.838546 
L 650.774255 170.035351 
L 651.075418 170.059109 
L 651.376582 171.69299 
L 651.677745 164.67133 
L 651.978909 169.388801 
L 652.280073 165.897368 
L 652.581236 151.189585 
L 652.8824 148.588591 
L 653.183564 154.624704 
L 653.484727 163.565691 
L 653.785891 162.566818 
L 654.990545 195.746021 
L 655.291709 188.868751 
L 655.592873 198.984022 
L 655.894036 186.935859 
L 656.1952 192.037778 
L 656.496364 190.741041 
L 656.797527 185.466706 
L 657.098691 183.551895 
L 657.399855 178.075015 
L 657.701018 185.084034 
L 658.002182 201.26996 
L 658.303345 202.14632 
L 658.604509 213.735984 
L 658.905673 217.129529 
L 659.206836 209.4181 
L 659.508 210.137733 
L 659.809164 213.715916 
L 660.110327 221.115689 
L 660.411491 222.308078 
L 660.712655 222.623597 
L 661.013818 233.142632 
L 661.314982 229.865815 
L 661.616145 236.582182 
L 661.917309 233.797036 
L 662.218473 235.925023 
L 662.8208 220.349485 
L 663.121964 219.408581 
L 663.423127 219.337114 
L 663.724291 215.299086 
L 664.326618 196.162597 
L 664.627782 194.538513 
L 664.928945 191.783357 
L 665.230109 179.914344 
L 665.531273 191.528819 
L 665.832436 187.127294 
L 666.1336 193.250196 
L 666.434764 182.884949 
L 666.735927 186.100914 
L 667.037091 186.462228 
L 667.338255 193.857569 
L 667.639418 193.095543 
L 667.940582 186.693149 
L 668.241745 174.027882 
L 668.542909 182.862563 
L 668.844073 185.545573 
L 669.145236 156.635539 
L 669.4464 149.762279 
L 669.747564 149.884052 
L 670.048727 146.146541 
L 670.349891 165.571007 
L 670.651055 153.584756 
L 670.952218 152.377202 
L 671.253382 162.727769 
L 671.554545 153.993505 
L 671.855709 158.458002 
L 672.156873 165.709492 
L 672.7592 158.384117 
L 673.060364 161.495634 
L 673.361527 161.748305 
L 673.963855 181.194818 
L 674.265018 173.998694 
L 674.566182 163.917887 
L 675.168509 157.470603 
L 675.469673 160.12181 
L 675.770836 160.795394 
L 676.072 167.299206 
L 676.373164 154.158349 
L 676.674327 158.120012 
L 676.975491 154.917921 
L 677.276655 154.750754 
L 677.577818 164.726021 
L 677.878982 150.326252 
L 678.180145 152.972191 
L 678.481309 158.41027 
L 678.782473 157.345 
L 679.083636 163.634573 
L 679.083636 163.634573 
" clip-path="url(#pce6b83478f)" style="fill: none; stroke: #1f77b4; stroke-width: 1.5; stroke-linecap: square"/>
   </g>
   <g id="patch_3">
    <path d="M 46.64 246.04 
L 46.64 37.968 
" style="fill: none; stroke: #000000; stroke-width: 0.8; stroke-linejoin: miter; stroke-linecap: square"/>
   </g>
   <g id="patch_4">
    <path d="M 709.2 246.04 
L 709.2 37.968 
" style="fill: none; stroke: #000000; stroke-width: 0.8; stroke-linejoin: miter; stroke-linecap: square"/>
   </g>
   <g id="patch_5">
    <path d="M 46.64 246.04 
L 709.2 246.04 
" style="fill: none; stroke: #000000; stroke-width: 0.8; stroke-linejoin: miter; stroke-linecap: square"/>
   </g>
   <g id="patch_6">
    <path d="M 46.64 37.968 
L 709.2 37.968 
" style="fill: none; stroke: #000000; stroke-width: 0.8; stroke-linejoin: miter; stroke-linecap: square"/>
   </g>
   <g id="text_17">
    <!-- Correlated random signal (zoom: first 2.00 s) -->
    <g transform="translate(242.77 18.530625) scale(0.12 -0.12)">
     <defs>
      <path id="DejaVuSans-43" d="M 4122 4306 
L 4122 3641 
Q 3803 3938 3442 4084 
Q 3081 4231 2675 4231 
Q 1875 4231 1450 3742 
Q 1025 3253 1025 2328 
Q 1025 1406 1450 917 
Q 1875 428 2675 428 
Q 3081 428 3442 575 
Q 3803 722 4122 1019 
L 4122 359 
Q 3791 134 3420 21 
Q 3050 -91 2638 -91 
Q 1578 -91 968 557 
Q 359 1206 359 2328 
Q 359 3453 968 4101 
Q 1578 4750 2638 4750 
Q 3056 4750 3426 4639 
Q 3797 4528 4122 4306 
z
" transform="scale(0.015625)"/>
      <path id="DejaVuSans-6f" d="M 1959 3097 
Q 1497 3097 1228 2736 
Q 959 2375 959 1747 
Q 959 1119 1226 758 
Q 1494 397 1959 397 
Q 2419 397 2687 759 
Q 2956 1122 2956 1747 
Q 2956 2369 2687 2733 
Q 2419 3097 1959 3097 
z
M 1959 3584 
Q 2709 3584 3137 3096 
Q 3566 2609 3566 1747 
Q 3566 888 3137 398 
Q 2709 -91 1959 -91 
Q 1206 -91 779 398 
Q 353 888 353 1747 
Q 353 2609 779 3096 
Q 1206 3584 1959 3584 
z
" transform="scale(0.015625)"/>
      <path id="DejaVuSans-72" d="M 2631 2963 
Q 2534 3019 2420 3045 
Q 2306 3072 2169 3072 
Q 1681 3072 1420 2755 
Q 1159 2438 1159 1844 
L 1159 0 
L 581 0 
L 581 3500 
L 1159 3500 
L 1159 2956 
Q 1341 3275 1631 3429 
Q 1922 3584 2338 3584 
Q 2397 3584 2469 3576 
Q 2541 3569 2628 3553 
L 2631 2963 
z
" transform="scale(0.015625)"/>
      <path id="DejaVuSans-6c" d="M 603 4863 
L 1178 4863 
L 1178 0 
L 603 0 
L 603 4863 
z
" transform="scale(0.015625)"/>
      <path id="DejaVuSans-61" d="M 2194 1759 
Q 1497 1759 1228 1600 
Q 959 1441 959 1056 
Q 959 750 1161 570 
Q 1363 391 1709 391 
Q 2188 391 2477 730 
Q 2766 1069 2766 1631 
L 2766 1759 
L 2194 1759 
z
M 3341 1997 
L 3341 0 
L 2766 0 
L 2766 531 
Q 2569 213 2275 61 
Q 1981 -91 1556 -91 
Q 1019 -91 701 211 
Q 384 513 384 1019 
Q 384 1609 779 1909 
Q 1175 2209 1959 2209 
L 2766 2209 
L 2766 2266 
Q 2766 2663 2505 2880 
Q 2244 3097 1772 3097 
Q 1472 3097 1187 3025 
Q 903 2953 641 2809 
L 641 3341 
Q 956 3463 1253 3523 
Q 1550 3584 1831 3584 
Q 2591 3584 2966 3190 
Q 3341 2797 3341 1997 
z
" transform="scale(0.015625)"/>
      <path id="DejaVuSans-64" d="M 2906 2969 
L 2906 4863 
L 3481 4863 
L 3481 0 
L 2906 0 
L 2906 525 
Q 2725 213 2448 61 
Q 2172 -91 1784 -91 
Q 1150 -91 751 415 
Q 353 922 353 1747 
Q 353 2572 751 3078 
Q 1150 3584 1784 3584 
Q 2172 3584 2448 3432 
Q 2725 3281 2906 2969 
z
M 947 1747 
Q 947 1113 1208 752 
Q 1469 391 1925 391 
Q 2381 391 2643 752 
Q 2906 1113 2906 1747 
Q 2906 2381 2643 2742 
Q 2381 3103 1925 3103 
Q 1469 3103 1208 2742 
Q 947 2381 947 1747 
z
" transform="scale(0.015625)"/>
      <path id="DejaVuSans-6e" d="M 3513 2113 
L 3513 0 
L 2938 0 
L 2938 2094 
Q 2938 2591 2744 2837 
Q 2550 3084 2163 3084 
Q 1697 3084 1428 2787 
Q 1159 2491 1159 1978 
L 1159 0 
L 581 0 
L 581 3500 
L 1159 3500 
L 1159 2956 
Q 1366 3272 1645 3428 
Q 1925 3584 2291 3584 
Q 2894 3584 3203 3211 
Q 3513 2838 3513 2113 
z
" transform="scale(0.015625)"/>
      <path id="DejaVuSans-67" d="M 2906 1791 
Q 2906 2416 2648 2759 
Q 2391 3103 1925 3103 
Q 1463 3103 1205 2759 
Q 947 2416 947 1791 
Q 947 1169 1205 825 
Q 1463 481 1925 481 
Q 2391 481 2648 825 
Q 2906 1169 2906 1791 
z
M 3481 434 
Q 3481 -459 3084 -895 
Q 2688 -1331 1869 -1331 
Q 1566 -1331 1297 -1286 
Q 1028 -1241 775 -1147 
L 775 -588 
Q 1028 -725 1275 -790 
Q 1522 -856 1778 -856 
Q 2344 -856 2625 -561 
Q 2906 -266 2906 331 
L 2906 616 
Q 2728 306 2450 153 
Q 2172 0 1784 0 
Q 1141 0 747 490 
Q 353 981 353 1791 
Q 353 2603 747 3093 
Q 1141 3584 1784 3584 
Q 2172 3584 2450 3431 
Q 2728 3278 2906 2969 
L 2906 3500 
L 3481 3500 
L 3481 434 
z
" transform="scale(0.015625)"/>
      <path id="DejaVuSans-7a" d="M 353 3500 
L 3084 3500 
L 3084 2975 
L 922 459 
L 3084 459 
L 3084 0 
L 275 0 
L 275 525 
L 2438 3041 
L 353 3041 
L 353 3500 
z
" transform="scale(0.015625)"/>
      <path id="DejaVuSans-3a" d="M 750 794 
L 1409 794 
L 1409 0 
L 750 0 
L 750 794 
z
M 750 3309 
L 1409 3309 
L 1409 2516 
L 750 2516 
L 750 3309 
z
" transform="scale(0.015625)"/>
      <path id="DejaVuSans-66" d="M 2375 4863 
L 2375 4384 
L 1825 4384 
Q 1516 4384 1395 4259 
Q 1275 4134 1275 3809 
L 1275 3500 
L 2222 3500 
L 2222 3053 
L 1275 3053 
L 1275 0 
L 697 0 
L 697 3053 
L 147 3053 
L 147 3500 
L 697 3500 
L 697 3744 
Q 697 4328 969 4595 
Q 1241 4863 1831 4863 
L 2375 4863 
z
" transform="scale(0.015625)"/>
     </defs>
     <use xlink:href="#DejaVuSans-43"/>
     <use xlink:href="#DejaVuSans-6f" x="69.824219"/>
     <use xlink:href="#DejaVuSans-72" x="131.005859"/>
     <use xlink:href="#DejaVuSans-72" x="170.369141"/>
     <use xlink:href="#DejaVuSans-65" x="209.232422"/>
     <use xlink:href="#DejaVuSans-6c" x="270.755859"/>
     <use xlink:href="#DejaVuSans-61" x="298.539062"/>
     <use xlink:href="#DejaVuSans-74" x="359.818359"/>
     <use xlink:href="#DejaVuSans-65" x="399.027344"/>
     <use xlink:href="#DejaVuSans-64" x="460.550781"/>
     <use xlink:href="#DejaVuSans-20" x="524.027344"/>
     <use xlink:href="#DejaVuSans-72" x="555.814453"/>
     <use xlink:href="#DejaVuSans-61" x="596.927734"/>
     <use xlink:href="#DejaVuSans-6e" x="658.207031"/>
     <use xlink:href="#DejaVuSans-64" x="721.585938"/>
     <use xlink:href="#DejaVuSans-6f" x="785.0625"/>
     <use xlink:href="#DejaVuSans-6d" x="846.244141"/>
     <use xlink:href="#DejaVuSans-20" x="943.65625"/>
     <use xlink:href="#DejaVuSans-73" x="975.443359"/>
     <use xlink:href="#DejaVuSans-69" x="1027.542969"/>
     <use xlink:href="#DejaVuSans-67" x="1055.326172"/>
     <use xlink:href="#DejaVuSans-6e" x="1118.802734"/>
     <use xlink:href="#DejaVuSans-61" x="1182.181641"/>
     <use xlink:href="#DejaVuSans-6c" x="1243.460938"/>
     <use xlink:href="#DejaVuSans-20" x="1271.244141"/>
     <use xlink:href="#DejaVuSans-28" x="1303.03125"/>
     <use xlink:href="#DejaVuSans-7a" x="1342.044922"/>
     <use xlink:href="#DejaVuSans-6f" x="1394.535156"/>
     <use xlink:href="#DejaVuSans-6f" x="1455.716797"/>
     <use xlink:href="#DejaVuSans-6d" x="1516.898438"/>
     <use xlink:href="#DejaVuSans-3a" x="1614.310547"/>
     <use xlink:href="#DejaVuSans-20" x="1648.001953"/>
     <use xlink:href="#DejaVuSans-66" x="1679.789062"/>
     <use xlink:href="#DejaVuSans-69" x="1714.994141"/>
     <use xlink:href="#DejaVuSans-72" x="1742.777344"/>
     <use xlink:href="#DejaVuSans-73" x="1783.890625"/>
     <use xlink:href="#DejaVuSans-74" x="1835.990234"/>
     <use xlink:href="#DejaVuSans-20" x="1875.199219"/>
     <use xlink:href="#DejaVuSans-32" x="1906.986328"/>
     <use xlink:href="#DejaVuSans-2e" x="1970.609375"/>
     <use xlink:href="#DejaVuSans-30" x="2002.396484"/>
     <use xlink:href="#DejaVuSans-30" x="2066.019531"/>
     <use xlink:href="#DejaVuSans-20" x="2129.642578"/>
     <use xlink:href="#DejaVuSans-73" x="2161.429688"/>
     <use xlink:href="#DejaVuSans-29" x="2213.529297"/>
    </g>
    <!-- fs = 1000.0 Hz, T = 60.0 s, target correlation time = 0.050 s -->
    <g transform="translate(195.896875 31.968) scale(0.12 -0.12)">
     <defs>
      <path id="DejaVuSans-3d" d="M 678 2906 
L 4684 2906 
L 4684 2381 
L 678 2381 
L 678 2906 
z
M 678 1631 
L 4684 1631 
L 4684 1100 
L 678 1100 
L 678 1631 
z
" transform="scale(0.015625)"/>
      <path id="DejaVuSans-48" d="M 628 4666 
L 1259 4666 
L 1259 2753 
L 3553 2753 
L 3553 4666 
L 4184 4666 
L 4184 0 
L 3553 0 
L 3553 2222 
L 1259 2222 
L 1259 0 
L 628 0 
L 628 4666 
z
" transform="scale(0.015625)"/>
      <path id="DejaVuSans-2c" d="M 750 794 
L 1409 794 
L 1409 256 
L 897 -744 
L 494 -744 
L 750 256 
L 750 794 
z
" transform="scale(0.015625)"/>
      <path id="DejaVuSans-36" d="M 2113 2584 
Q 1688 2584 1439 2293 
Q 1191 2003 1191 1497 
Q 1191 994 1439 701 
Q 1688 409 2113 409 
Q 2538 409 2786 701 
Q 3034 994 3034 1497 
Q 3034 2003 2786 2293 
Q 2538 2584 2113 2584 
z
M 3366 4563 
L 3366 3988 
Q 3128 4100 2886 4159 
Q 2644 4219 2406 4219 
Q 1781 4219 1451 3797 
Q 1122 3375 1075 2522 
Q 1259 2794 1537 2939 
Q 1816 3084 2150 3084 
Q 2853 3084 3261 2657 
Q 3669 2231 3669 1497 
Q 3669 778 3244 343 
Q 2819 -91 2113 -91 
Q 1303 -91 875 529 
Q 447 1150 447 2328 
Q 447 3434 972 4092 
Q 1497 4750 2381 4750 
Q 2619 4750 2861 4703 
Q 3103 4656 3366 4563 
z
" transform="scale(0.015625)"/>
      <path id="DejaVuSans-63" d="M 3122 3366 
L 3122 2828 
Q 2878 2963 2633 3030 
Q 2388 3097 2138 3097 
Q 1578 3097 1268 2742 
Q 959 2388 959 1747 
Q 959 1106 1268 751 
Q 1578 397 2138 397 
Q 2388 397 2633 464 
Q 2878 531 3122 666 
L 3122 134 
Q 2881 22 2623 -34 
Q 2366 -91 2075 -91 
Q 1284 -91 818 406 
Q 353 903 353 1747 
Q 353 2603 823 3093 
Q 1294 3584 2113 3584 
Q 2378 3584 2631 3529 
Q 2884 3475 3122 3366 
z
" transform="scale(0.015625)"/>
     </defs>
     <use xlink:href="#DejaVuSans-66"/>
     <use xlink:href="#DejaVuSans-73" x="35.205078"/>
     <use xlink:href="#DejaVuSans-20" x="87.304688"/>
     <use xlink:href="#DejaVuSans-3d" x="119.091797"/>
     <use xlink:href="#DejaVuSans-20" x="202.880859"/>
     <use xlink:href="#DejaVuSans-31" x="234.667969"/>
     <use xlink:href="#DejaVuSans-30" x="298.291016"/>
     <use xlink:href="#DejaVuSans-30" x="361.914062"/>
     <use xlink:href="#DejaVuSans-30" x="425.537109"/>
     <use xlink:href="#DejaVuSans-2e" x="489.160156"/>
     <use xlink:href="#DejaVuSans-30" x="520.947266"/>
     <use xlink:href="#DejaVuSans-20" x="584.570312"/>
     <use xlink:href="#DejaVuSans-48" x="616.357422"/>
     <use xlink:href="#DejaVuSans-7a" x="691.552734"/>
     <use xlink:href="#DejaVuSans-2c" x="744.042969"/>
     <use xlink:href="#DejaVuSans-20" x="775.830078"/>
     <use xlink:href="#DejaVuSans-54" x="807.617188"/>
     <use xlink:href="#DejaVuSans-20" x="868.701172"/>
     <use xlink:href="#DejaVuSans-3d" x="900.488281"/>
     <use xlink:href="#DejaVuSans-20" x="984.277344"/>
     <use xlink:href="#DejaVuSans-36" x="1016.064453"/>
     <use xlink:href="#DejaVuSans-30" x="1079.6875"/>
     <use xlink:href="#DejaVuSans-2e" x="1143.310547"/>
     <use xlink:href="#DejaVuSans-30" x="1175.097656"/>
     <use xlink:href="#DejaVuSans-20" x="1238.720703"/>
     <use xlink:href="#DejaVuSans-73" x="1270.507812"/>
     <use xlink:href="#DejaVuSans-2c" x="1322.607422"/>
     <use xlink:href="#DejaVuSans-20" x="1354.394531"/>
     <use xlink:href="#DejaVuSans-74" x="1386.181641"/>
     <use xlink:href="#DejaVuSans-61" x="1425.390625"/>
     <use xlink:href="#DejaVuSans-72" x="1486.669922"/>
     <use xlink:href="#DejaVuSans-67" x="1526.033203"/>
     <use xlink:href="#DejaVuSans-65" x="1589.509766"/>
     <use xlink:href="#DejaVuSans-74" x="1651.033203"/>
     <use xlink:href="#DejaVuSans-20" x="1690.242188"/>
     <use xlink:href="#DejaVuSans-63" x="1722.029297"/>
     <use xlink:href="#DejaVuSans-6f" x="1777.009766"/>
     <use xlink:href="#DejaVuSans-72" x="1838.191406"/>
     <use xlink:href="#DejaVuSans-72" x="1877.554688"/>
     <use xlink:href="#DejaVuSans-65" x="1916.417969"/>
     <use xlink:href="#DejaVuSans-6c" x="1977.941406"/>
     <use xlink:href="#DejaVuSans-61" x="2005.724609"/>
     <use xlink:href="#DejaVuSans-74" x="2067.003906"/>
     <use xlink:href="#DejaVuSans-69" x="2106.212891"/>
     <use xlink:href="#DejaVuSans-6f" x="2133.996094"/>
     <use xlink:href="#DejaVuSans-6e" x="2195.177734"/>
     <use xlink:href="#DejaVuSans-20" x="2258.556641"/>
     <use xlink:href="#DejaVuSans-74" x="2290.34375"/>
     <use xlink:href="#DejaVuSans-69" x="2329.552734"/>
     <use xlink:href="#DejaVuSans-6d" x="2357.335938"/>
     <use xlink:href="#DejaVuSans-65" x="2454.748047"/>
     <use xlink:href="#DejaVuSans-20" x="2516.271484"/>
     <use xlink:href="#DejaVuSans-3d" x="2548.058594"/>
     <use xlink:href="#DejaVuSans-20" x="2631.847656"/>
     <use xlink:href="#DejaVuSans-30" x="2663.634766"/>
     <use xlink:href="#DejaVuSans-2e" x="2727.257812"/>
     <use xlink:href="#DejaVuSans-30" x="2759.044922"/>
     <use xlink:href="#DejaVuSans-35" x="2822.667969"/>
     <use xlink:href="#DejaVuSans-30" x="2886.291016"/>
     <use xlink:href="#DejaVuSans-20" x="2949.914062"/>
     <use xlink:href="#DejaVuSans-73" x="2981.701172"/>
    </g>
   </g>
  </g>
 </g>
 <defs>
  <clipPath id="pce6b83478f">
   <rect x="46.64" y="37.968" width="662.56" height="208.072"/>
  </clipPath>
 </defs>
</svg>
