<?xml version="1.0" encoding="utf-8" standalone="no"?>
<!DOCTYPE svg PUBLIC "-//W3C//DTD SVG 1.1//EN"
  "http://www.w3.org/Graphics/SVG/1.1/DTD/svg11.dtd">
<svg xmlns:xlink="http://www.w3.org/1999/xlink" width="1080pt" height="288pt" viewBox="0 0 1080 288" xmlns="http://www.w3.org/2000/svg" version="1.1">
 <metadata>
  <rdf:RDF xmlns:dc="http://purl.org/dc/elements/1.1/" xmlns:cc="http://creativecommons.org/ns#" xmlns:rdf="http://www.w3.org/1999/02/22-rdf-syntax-ns#">
   <cc:Work>
    <dc:type rdf:resource="http://purl.org/dc/dcmitype/StillImage"/>
    <dc:date>2025-09-16T13:05:16.226081</dc:date>
    <dc:format>image/svg+xml</dc:format>
    <dc:creator>
     <cc:Agent>
      <dc:title>Matplotlib v3.9.2, https://matplotlib.org/</dc:title>
     </cc:Agent>
    </dc:creator>
   </cc:Work>
  </rdf:RDF>
 </metadata>
 <defs>
  <style type="text/css">*{stroke-linejoin: round; stroke-linecap: butt}</style>
 </defs>
 <g id="figure_1">
  <g id="patch_1">
   <path d="M 0 288 
L 1080 288 
L 1080 0 
L 0 0 
z
" style="fill: #ffffff"/>
  </g>
  <g id="axes_1">
   <g id="patch_2">
    <path d="M 47.81 246.04 
L 356.4 246.04 
L 356.4 37.968 
L 47.81 37.968 
z
" style="fill: #ffffff"/>
   </g>
   <g id="patch_3">
    <path d="M 61.836818 236.582182 
L 96.903864 236.582182 
L 96.903864 99.826258 
L 61.836818 99.826258 
z
" clip-path="url(#p831865b217)" style="fill: #87ceeb; opacity: 0.5; stroke: #0000ff; stroke-linejoin: miter"/>
   </g>
   <g id="patch_4">
    <path d="M 96.903864 236.582182 
L 131.970909 236.582182 
L 131.970909 62.097546 
L 96.903864 62.097546 
z
" clip-path="url(#p831865b217)" style="fill: #87ceeb; opacity: 0.5; stroke: #0000ff; stroke-linejoin: miter"/>
   </g>
   <g id="patch_5">
    <path d="M 131.970909 236.582182 
L 167.037955 236.582182 
L 167.037955 47.427696 
L 131.970909 47.427696 
z
" clip-path="url(#p831865b217)" style="fill: #87ceeb; opacity: 0.5; stroke: #0000ff; stroke-linejoin: miter"/>
   </g>
   <g id="patch_6">
    <path d="M 167.037955 236.582182 
L 202.105 236.582182 
L 202.105 61.362995 
L 167.037955 61.362995 
z
" clip-path="url(#p831865b217)" style="fill: #87ceeb; opacity: 0.5; stroke: #0000ff; stroke-linejoin: miter"/>
   </g>
   <g id="patch_7">
    <path d="M 202.105 236.582182 
L 237.172045 236.582182 
L 237.172045 98.634872 
L 202.105 98.634872 
z
" clip-path="url(#p831865b217)" style="fill: #87ceeb; opacity: 0.5; stroke: #0000ff; stroke-linejoin: miter"/>
   </g>
   <g id="patch_8">
    <path d="M 237.172045 236.582182 
L 272.239091 236.582182 
L 272.239091 145.151807 
L 237.172045 145.151807 
z
" clip-path="url(#p831865b217)" style="fill: #87ceeb; opacity: 0.5; stroke: #0000ff; stroke-linejoin: miter"/>
   </g>
   <g id="patch_9">
    <path d="M 272.239091 236.582182 
L 307.306136 236.582182 
L 307.306136 183.326969 
L 272.239091 183.326969 
z
" clip-path="url(#p831865b217)" style="fill: #87ceeb; opacity: 0.5; stroke: #0000ff; stroke-linejoin: miter"/>
   </g>
   <g id="patch_10">
    <path d="M 307.306136 236.582182 
L 342.373182 236.582182 
L 342.373182 198.72733 
L 307.306136 198.72733 
z
" clip-path="url(#p831865b217)" style="fill: #87ceeb; opacity: 0.5; stroke: #0000ff; stroke-linejoin: miter"/>
   </g>
   <g id="matplotlib.axis_1">
    <g id="xtick_1">
     <g id="line2d_1">
      <defs>
       <path id="ma69273638d" d="M 0 0 
L 0 3.5 
" style="stroke: #000000; stroke-width: 0.8"/>
      </defs>
      <g>
       <use xlink:href="#ma69273638d" x="61.836818" y="246.04" style="stroke: #000000; stroke-width: 0.8"/>
      </g>
     </g>
     <g id="text_1">
      <!-- 0 -->
      <g transform="translate(58.655568 260.638438) scale(0.1 -0.1)">
       <defs>
        <path id="DejaVuSans-30" d="M 2034 4250 
Q 1547 4250 1301 3770 
Q 1056 3291 1056 2328 
Q 1056 1369 1301 889 
Q 1547 409 2034 409 
Q 2525 409 2770 889 
Q 3016 1369 3016 2328 
Q 3016 3291 2770 3770 
Q 2525 4250 2034 4250 
z
M 2034 4750 
Q 2819 4750 3233 4129 
Q 3647 3509 3647 2328 
Q 3647 1150 3233 529 
Q 2819 -91 2034 -91 
Q 1250 -91 836 529 
Q 422 1150 422 2328 
Q 422 3509 836 4129 
Q 1250 4750 2034 4750 
z
" transform="scale(0.015625)"/>
       </defs>
       <use xlink:href="#DejaVuSans-30"/>
      </g>
     </g>
    </g>
    <g id="xtick_2">
     <g id="line2d_2">
      <g>
       <use xlink:href="#ma69273638d" x="117.944091" y="246.04" style="stroke: #000000; stroke-width: 0.8"/>
      </g>
     </g>
     <g id="text_2">
      <!-- 1 -->
      <g transform="translate(114.762841 260.638438) scale(0.1 -0.1)">
       <defs>
        <path id="DejaVuSans-31" d="M 794 531 
L 1825 531 
L 1825 4091 
L 703 3866 
L 703 4441 
L 1819 4666 
L 2450 4666 
L 2450 531 
L 3481 531 
L 3481 0 
L 794 0 
L 794 531 
z
" transform="scale(0.015625)"/>
       </defs>
       <use xlink:href="#DejaVuSans-31"/>
      </g>
     </g>
    </g>
    <g id="xtick_3">
     <g id="line2d_3">
      <g>
       <use xlink:href="#ma69273638d" x="174.051364" y="246.04" style="stroke: #000000; stroke-width: 0.8"/>
      </g>
     </g>
     <g id="text_3">
      <!-- 2 -->
      <g transform="translate(170.870114 260.638438) scale(0.1 -0.1)">
       <defs>
        <path id="DejaVuSans-32" d="M 1228 531 
L 3431 531 
L 3431 0 
L 469 0 
L 469 531 
Q 828 903 1448 1529 
Q 2069 2156 2228 2338 
Q 2531 2678 2651 2914 
Q 2772 3150 2772 3378 
Q 2772 3750 2511 3984 
Q 2250 4219 1831 4219 
Q 1534 4219 1204 4116 
Q 875 4013 500 3803 
L 500 4441 
Q 881 4594 1212 4672 
Q 1544 4750 1819 4750 
Q 2544 4750 2975 4387 
Q 3406 4025 3406 3419 
Q 3406 3131 3298 2873 
Q 3191 2616 2906 2266 
Q 2828 2175 2409 1742 
Q 1991 1309 1228 531 
z
" transform="scale(0.015625)"/>
       </defs>
       <use xlink:href="#DejaVuSans-32"/>
      </g>
     </g>
    </g>
    <g id="xtick_4">
     <g id="line2d_4">
      <g>
       <use xlink:href="#ma69273638d" x="230.158636" y="246.04" style="stroke: #000000; stroke-width: 0.8"/>
      </g>
     </g>
     <g id="text_4">
      <!-- 3 -->
      <g transform="translate(226.977386 260.638438) scale(0.1 -0.1)">
       <defs>
        <path id="DejaVuSans-33" d="M 2597 2516 
Q 3050 2419 3304 2112 
Q 3559 1806 3559 1356 
Q 3559 666 3084 287 
Q 2609 -91 1734 -91 
Q 1441 -91 1130 -33 
Q 819 25 488 141 
L 488 750 
Q 750 597 1062 519 
Q 1375 441 1716 441 
Q 2309 441 2620 675 
Q 2931 909 2931 1356 
Q 2931 1769 2642 2001 
Q 2353 2234 1838 2234 
L 1294 2234 
L 1294 2753 
L 1863 2753 
Q 2328 2753 2575 2939 
Q 2822 3125 2822 3475 
Q 2822 3834 2567 4026 
Q 2313 4219 1838 4219 
Q 1578 4219 1281 4162 
Q 984 4106 628 3988 
L 628 4550 
Q 988 4650 1302 4700 
Q 1616 4750 1894 4750 
Q 2613 4750 3031 4423 
Q 3450 4097 3450 3541 
Q 3450 3153 3228 2886 
Q 3006 2619 2597 2516 
z
" transform="scale(0.015625)"/>
       </defs>
       <use xlink:href="#DejaVuSans-33"/>
      </g>
     </g>
    </g>
    <g id="xtick_5">
     <g id="line2d_5">
      <g>
       <use xlink:href="#ma69273638d" x="286.265909" y="246.04" style="stroke: #000000; stroke-width: 0.8"/>
      </g>
     </g>
     <g id="text_5">
      <!-- 4 -->
      <g transform="translate(283.084659 260.638438) scale(0.1 -0.1)">
       <defs>
        <path id="DejaVuSans-34" d="M 2419 4116 
L 825 1625 
L 2419 1625 
L 2419 4116 
z
M 2253 4666 
L 3047 4666 
L 3047 1625 
L 3713 1625 
L 3713 1100 
L 3047 1100 
L 3047 0 
L 2419 0 
L 2419 1100 
L 313 1100 
L 313 1709 
L 2253 4666 
z
" transform="scale(0.015625)"/>
       </defs>
       <use xlink:href="#DejaVuSans-34"/>
      </g>
     </g>
    </g>
    <g id="xtick_6">
     <g id="line2d_6">
      <g>
       <use xlink:href="#ma69273638d" x="342.373182" y="246.04" style="stroke: #000000; stroke-width: 0.8"/>
      </g>
     </g>
     <g id="text_6">
      <!-- 5 -->
      <g transform="translate(339.191932 260.638438) scale(0.1 -0.1)">
       <defs>
        <path id="DejaVuSans-35" d="M 691 4666 
L 3169 4666 
L 3169 4134 
L 1269 4134 
L 1269 2991 
Q 1406 3038 1543 3061 
Q 1681 3084 1819 3084 
Q 2600 3084 3056 2656 
Q 3513 2228 3513 1497 
Q 3513 744 3044 326 
Q 2575 -91 1722 -91 
Q 1428 -91 1123 -41 
Q 819 9 494 109 
L 494 744 
Q 775 591 1075 516 
Q 1375 441 1709 441 
Q 2250 441 2565 725 
Q 2881 1009 2881 1497 
Q 2881 1984 2565 2268 
Q 2250 2553 1709 2553 
Q 1456 2553 1204 2497 
Q 953 2441 691 2322 
L 691 4666 
z
" transform="scale(0.015625)"/>
       </defs>
       <use xlink:href="#DejaVuSans-35"/>
      </g>
     </g>
    </g>
    <g id="text_7">
     <!-- x -->
     <g transform="translate(199.145625 274.316562) scale(0.1 -0.1)">
      <defs>
       <path id="DejaVuSans-78" d="M 3513 3500 
L 2247 1797 
L 3578 0 
L 2900 0 
L 1881 1375 
L 863 0 
L 184 0 
L 1544 1831 
L 300 3500 
L 978 3500 
L 1906 2253 
L 2834 3500 
L 3513 3500 
z
" transform="scale(0.015625)"/>
      </defs>
      <use xlink:href="#DejaVuSans-78"/>
     </g>
    </g>
   </g>
   <g id="matplotlib.axis_2">
    <g id="ytick_1">
     <g id="line2d_7">
      <defs>
       <path id="maa4e489d05" d="M 0 0 
L -3.5 0 
" style="stroke: #000000; stroke-width: 0.8"/>
      </defs>
      <g>
       <use xlink:href="#maa4e489d05" x="47.81" y="236.582182" style="stroke: #000000; stroke-width: 0.8"/>
      </g>
     </g>
     <g id="text_8">
      <!-- 0.0 -->
      <g transform="translate(24.906875 240.381401) scale(0.1 -0.1)">
       <defs>
        <path id="DejaVuSans-2e" d="M 684 794 
L 1344 794 
L 1344 0 
L 684 0 
L 684 794 
z
" transform="scale(0.015625)"/>
       </defs>
       <use xlink:href="#DejaVuSans-30"/>
       <use xlink:href="#DejaVuSans-2e" x="63.623047"/>
       <use xlink:href="#DejaVuSans-30" x="95.410156"/>
      </g>
     </g>
    </g>
    <g id="ytick_2">
     <g id="line2d_8">
      <g>
       <use xlink:href="#maa4e489d05" x="47.81" y="198.750764" style="stroke: #000000; stroke-width: 0.8"/>
      </g>
     </g>
     <g id="text_9">
      <!-- 0.5 -->
      <g transform="translate(24.906875 202.549983) scale(0.1 -0.1)">
       <use xlink:href="#DejaVuSans-30"/>
       <use xlink:href="#DejaVuSans-2e" x="63.623047"/>
       <use xlink:href="#DejaVuSans-35" x="95.410156"/>
      </g>
     </g>
    </g>
    <g id="ytick_3">
     <g id="line2d_9">
      <g>
       <use xlink:href="#maa4e489d05" x="47.81" y="160.919346" style="stroke: #000000; stroke-width: 0.8"/>
      </g>
     </g>
     <g id="text_10">
      <!-- 1.0 -->
      <g transform="translate(24.906875 164.718565) scale(0.1 -0.1)">
       <use xlink:href="#DejaVuSans-31"/>
       <use xlink:href="#DejaVuSans-2e" x="63.623047"/>
       <use xlink:href="#DejaVuSans-30" x="95.410156"/>
      </g>
     </g>
    </g>
    <g id="ytick_4">
     <g id="line2d_10">
      <g>
       <use xlink:href="#maa4e489d05" x="47.81" y="123.087928" style="stroke: #000000; stroke-width: 0.8"/>
      </g>
     </g>
     <g id="text_11">
      <!-- 1.5 -->
      <g transform="translate(24.906875 126.887147) scale(0.1 -0.1)">
       <use xlink:href="#DejaVuSans-31"/>
       <use xlink:href="#DejaVuSans-2e" x="63.623047"/>
       <use xlink:href="#DejaVuSans-35" x="95.410156"/>
      </g>
     </g>
    </g>
    <g id="ytick_5">
     <g id="line2d_11">
      <g>
       <use xlink:href="#maa4e489d05" x="47.81" y="85.25651" style="stroke: #000000; stroke-width: 0.8"/>
      </g>
     </g>
     <g id="text_12">
      <!-- 2.0 -->
      <g transform="translate(24.906875 89.055729) scale(0.1 -0.1)">
       <use xlink:href="#DejaVuSans-32"/>
       <use xlink:href="#DejaVuSans-2e" x="63.623047"/>
       <use xlink:href="#DejaVuSans-30" x="95.410156"/>
      </g>
     </g>
    </g>
    <g id="ytick_6">
     <g id="line2d_12">
      <g>
       <use xlink:href="#maa4e489d05" x="47.81" y="47.425092" style="stroke: #000000; stroke-width: 0.8"/>
      </g>
     </g>
     <g id="text_13">
      <!-- 2.5 -->
      <g transform="translate(24.906875 51.224311) scale(0.1 -0.1)">
       <use xlink:href="#DejaVuSans-32"/>
       <use xlink:href="#DejaVuSans-2e" x="63.623047"/>
       <use xlink:href="#DejaVuSans-35" x="95.410156"/>
      </g>
     </g>
    </g>
    <g id="text_14">
     <!-- f(x) -->
     <g transform="translate(18.827188 150.625094) rotate(-90) scale(0.1 -0.1)">
      <defs>
       <path id="DejaVuSans-66" d="M 2375 4863 
L 2375 4384 
L 1825 4384 
Q 1516 4384 1395 4259 
Q 1275 4134 1275 3809 
L 1275 3500 
L 2222 3500 
L 2222 3053 
L 1275 3053 
L 1275 0 
L 697 0 
L 697 3053 
L 147 3053 
L 147 3500 
L 697 3500 
L 697 3744 
Q 697 4328 969 4595 
Q 1241 4863 1831 4863 
L 2375 4863 
z
" transform="scale(0.015625)"/>
       <path id="DejaVuSans-28" d="M 1984 4856 
Q 1566 4138 1362 3434 
Q 1159 2731 1159 2009 
Q 1159 1288 1364 580 
Q 1569 -128 1984 -844 
L 1484 -844 
Q 1016 -109 783 600 
Q 550 1309 550 2009 
Q 550 2706 781 3412 
Q 1013 4119 1484 4856 
L 1984 4856 
z
" transform="scale(0.015625)"/>
       <path id="DejaVuSans-29" d="M 513 4856 
L 1013 4856 
Q 1481 4119 1714 3412 
Q 1947 2706 1947 2009 
Q 1947 1309 1714 600 
Q 1481 -109 1013 -844 
L 513 -844 
Q 928 -128 1133 580 
Q 1338 1288 1338 2009 
Q 1338 2731 1133 3434 
Q 928 4138 513 4856 
z
" transform="scale(0.015625)"/>
      </defs>
      <use xlink:href="#DejaVuSans-66"/>
      <use xlink:href="#DejaVuSans-28" x="35.205078"/>
      <use xlink:href="#DejaVuSans-78" x="74.21875"/>
      <use xlink:href="#DejaVuSans-29" x="133.398438"/>
     </g>
    </g>
   </g>
   <g id="line2d_13">
    <path d="M 61.836818 123.087928 
L 75.195693 105.242695 
L 82.226679 96.19265 
L 88.554567 88.404326 
L 94.179356 81.848385 
L 99.101047 76.449491 
L 104.022738 71.409234 
L 108.241329 67.403921 
L 112.459921 63.713255 
L 116.678513 60.358089 
L 120.194007 57.832139 
L 123.7095 55.562291 
L 127.224993 53.557451 
L 130.740486 51.825489 
L 134.25598 50.373202 
L 137.771473 49.206288 
L 140.583868 48.481343 
L 143.396262 47.94381 
L 146.208657 47.595041 
L 149.021051 47.435912 
L 151.833446 47.466822 
L 154.645841 47.687694 
L 157.458235 48.097973 
L 160.27063 48.696629 
L 163.083025 49.482157 
L 166.598518 50.723805 
L 170.114011 52.249452 
L 173.629504 54.05311 
L 177.144998 56.127699 
L 180.660491 58.465079 
L 184.175984 61.056076 
L 187.691478 63.890521 
L 191.910069 67.597479 
L 196.128661 71.617991 
L 200.347253 75.929336 
L 205.268944 81.294236 
L 210.190635 86.980518 
L 215.815424 93.816464 
L 222.143312 101.854712 
L 230.580496 112.973885 
L 255.892047 146.677233 
L 262.219935 154.61827 
L 267.844724 161.343664 
L 272.766415 166.915473 
L 277.688105 172.15026 
L 281.906697 176.338388 
L 286.125289 180.22562 
L 290.343881 183.789992 
L 293.859375 186.499084 
L 297.374868 188.959315 
L 300.890361 191.161029 
L 304.405854 193.095585 
L 307.921348 194.755392 
L 311.436841 196.133934 
L 314.952334 197.225802 
L 317.764729 197.889973 
L 320.577123 198.36624 
L 323.389518 198.653406 
L 326.201913 198.75075 
L 329.014307 198.658027 
L 331.826702 198.375471 
L 334.639097 197.903791 
L 337.451491 197.244172 
L 340.263886 196.398271 
L 342.373182 195.642858 
L 342.373182 195.642858 
" clip-path="url(#p831865b217)" style="fill: none; stroke: #000000; stroke-width: 1.5; stroke-linecap: square"/>
   </g>
   <g id="line2d_14">
    <path d="M 61.836818 246.04 
L 61.836818 37.968 
" clip-path="url(#p831865b217)" style="fill: none; stroke-dasharray: 5.55,2.4; stroke-dashoffset: 0; stroke: #0000ff; stroke-opacity: 0.5; stroke-width: 1.5"/>
   </g>
   <g id="line2d_15">
    <path d="M 96.903864 246.04 
L 96.903864 37.968 
" clip-path="url(#p831865b217)" style="fill: none; stroke-dasharray: 5.55,2.4; stroke-dashoffset: 0; stroke: #0000ff; stroke-opacity: 0.5; stroke-width: 1.5"/>
   </g>
   <g id="line2d_16">
    <path d="M 131.970909 246.04 
L 131.970909 37.968 
" clip-path="url(#p831865b217)" style="fill: none; stroke-dasharray: 5.55,2.4; stroke-dashoffset: 0; stroke: #0000ff; stroke-opacity: 0.5; stroke-width: 1.5"/>
   </g>
   <g id="line2d_17">
    <path d="M 167.037955 246.04 
L 167.037955 37.968 
" clip-path="url(#p831865b217)" style="fill: none; stroke-dasharray: 5.55,2.4; stroke-dashoffset: 0; stroke: #0000ff; stroke-opacity: 0.5; stroke-width: 1.5"/>
   </g>
   <g id="line2d_18">
    <path d="M 202.105 246.04 
L 202.105 37.968 
" clip-path="url(#p831865b217)" style="fill: none; stroke-dasharray: 5.55,2.4; stroke-dashoffset: 0; stroke: #0000ff; stroke-opacity: 0.5; stroke-width: 1.5"/>
   </g>
   <g id="line2d_19">
    <path d="M 237.172045 246.04 
L 237.172045 37.968 
" clip-path="url(#p831865b217)" style="fill: none; stroke-dasharray: 5.55,2.4; stroke-dashoffset: 0; stroke: #0000ff; stroke-opacity: 0.5; stroke-width: 1.5"/>
   </g>
   <g id="line2d_20">
    <path d="M 272.239091 246.04 
L 272.239091 37.968 
" clip-path="url(#p831865b217)" style="fill: none; stroke-dasharray: 5.55,2.4; stroke-dashoffset: 0; stroke: #0000ff; stroke-opacity: 0.5; stroke-width: 1.5"/>
   </g>
   <g id="line2d_21">
    <path d="M 307.306136 246.04 
L 307.306136 37.968 
" clip-path="url(#p831865b217)" style="fill: none; stroke-dasharray: 5.55,2.4; stroke-dashoffset: 0; stroke: #0000ff; stroke-opacity: 0.5; stroke-width: 1.5"/>
   </g>
   <g id="line2d_22">
    <path d="M 342.373182 246.04 
L 342.373182 37.968 
" clip-path="url(#p831865b217)" style="fill: none; stroke-dasharray: 5.55,2.4; stroke-dashoffset: 0; stroke: #0000ff; stroke-opacity: 0.5; stroke-width: 1.5"/>
   </g>
   <g id="patch_11">
    <path d="M 47.81 246.04 
L 47.81 37.968 
" style="fill: none; stroke: #000000; stroke-width: 0.8; stroke-linejoin: miter; stroke-linecap: square"/>
   </g>
   <g id="patch_12">
    <path d="M 356.4 246.04 
L 356.4 37.968 
" style="fill: none; stroke: #000000; stroke-width: 0.8; stroke-linejoin: miter; stroke-linecap: square"/>
   </g>
   <g id="patch_13">
    <path d="M 47.81 246.04 
L 356.4 246.04 
" style="fill: none; stroke: #000000; stroke-width: 0.8; stroke-linejoin: miter; stroke-linecap: square"/>
   </g>
   <g id="patch_14">
    <path d="M 47.81 37.968 
L 356.4 37.968 
" style="fill: none; stroke: #000000; stroke-width: 0.8; stroke-linejoin: miter; stroke-linecap: square"/>
   </g>
   <g id="text_15">
    <!-- Lebesgue / Riemann -->
    <g transform="translate(140.755938 18.530625) scale(0.12 -0.12)">
     <defs>
      <path id="DejaVuSans-4c" d="M 628 4666 
L 1259 4666 
L 1259 531 
L 3531 531 
L 3531 0 
L 628 0 
L 628 4666 
z
" transform="scale(0.015625)"/>
      <path id="DejaVuSans-65" d="M 3597 1894 
L 3597 1613 
L 953 1613 
Q 991 1019 1311 708 
Q 1631 397 2203 397 
Q 2534 397 2845 478 
Q 3156 559 3463 722 
L 3463 178 
Q 3153 47 2828 -22 
Q 2503 -91 2169 -91 
Q 1331 -91 842 396 
Q 353 884 353 1716 
Q 353 2575 817 3079 
Q 1281 3584 2069 3584 
Q 2775 3584 3186 3129 
Q 3597 2675 3597 1894 
z
M 3022 2063 
Q 3016 2534 2758 2815 
Q 2500 3097 2075 3097 
Q 1594 3097 1305 2825 
Q 1016 2553 972 2059 
L 3022 2063 
z
" transform="scale(0.015625)"/>
      <path id="DejaVuSans-62" d="M 3116 1747 
Q 3116 2381 2855 2742 
Q 2594 3103 2138 3103 
Q 1681 3103 1420 2742 
Q 1159 2381 1159 1747 
Q 1159 1113 1420 752 
Q 1681 391 2138 391 
Q 2594 391 2855 752 
Q 3116 1113 3116 1747 
z
M 1159 2969 
Q 1341 3281 1617 3432 
Q 1894 3584 2278 3584 
Q 2916 3584 3314 3078 
Q 3713 2572 3713 1747 
Q 3713 922 3314 415 
Q 2916 -91 2278 -91 
Q 1894 -91 1617 61 
Q 1341 213 1159 525 
L 1159 0 
L 581 0 
L 581 4863 
L 1159 4863 
L 1159 2969 
z
" transform="scale(0.015625)"/>
      <path id="DejaVuSans-73" d="M 2834 3397 
L 2834 2853 
Q 2591 2978 2328 3040 
Q 2066 3103 1784 3103 
Q 1356 3103 1142 2972 
Q 928 2841 928 2578 
Q 928 2378 1081 2264 
Q 1234 2150 1697 2047 
L 1894 2003 
Q 2506 1872 2764 1633 
Q 3022 1394 3022 966 
Q 3022 478 2636 193 
Q 2250 -91 1575 -91 
Q 1294 -91 989 -36 
Q 684 19 347 128 
L 347 722 
Q 666 556 975 473 
Q 1284 391 1588 391 
Q 1994 391 2212 530 
Q 2431 669 2431 922 
Q 2431 1156 2273 1281 
Q 2116 1406 1581 1522 
L 1381 1569 
Q 847 1681 609 1914 
Q 372 2147 372 2553 
Q 372 3047 722 3315 
Q 1072 3584 1716 3584 
Q 2034 3584 2315 3537 
Q 2597 3491 2834 3397 
z
" transform="scale(0.015625)"/>
      <path id="DejaVuSans-67" d="M 2906 1791 
Q 2906 2416 2648 2759 
Q 2391 3103 1925 3103 
Q 1463 3103 1205 2759 
Q 947 2416 947 1791 
Q 947 1169 1205 825 
Q 1463 481 1925 481 
Q 2391 481 2648 825 
Q 2906 1169 2906 1791 
z
M 3481 434 
Q 3481 -459 3084 -895 
Q 2688 -1331 1869 -1331 
Q 1566 -1331 1297 -1286 
Q 1028 -1241 775 -1147 
L 775 -588 
Q 1028 -725 1275 -790 
Q 1522 -856 1778 -856 
Q 2344 -856 2625 -561 
Q 2906 -266 2906 331 
L 2906 616 
Q 2728 306 2450 153 
Q 2172 0 1784 0 
Q 1141 0 747 490 
Q 353 981 353 1791 
Q 353 2603 747 3093 
Q 1141 3584 1784 3584 
Q 2172 3584 2450 3431 
Q 2728 3278 2906 2969 
L 2906 3500 
L 3481 3500 
L 3481 434 
z
" transform="scale(0.015625)"/>
      <path id="DejaVuSans-75" d="M 544 1381 
L 544 3500 
L 1119 3500 
L 1119 1403 
Q 1119 906 1312 657 
Q 1506 409 1894 409 
Q 2359 409 2629 706 
Q 2900 1003 2900 1516 
L 2900 3500 
L 3475 3500 
L 3475 0 
L 2900 0 
L 2900 538 
Q 2691 219 2414 64 
Q 2138 -91 1772 -91 
Q 1169 -91 856 284 
Q 544 659 544 1381 
z
M 1991 3584 
L 1991 3584 
z
" transform="scale(0.015625)"/>
      <path id="DejaVuSans-20" transform="scale(0.015625)"/>
      <path id="DejaVuSans-2f" d="M 1625 4666 
L 2156 4666 
L 531 -594 
L 0 -594 
L 1625 4666 
z
" transform="scale(0.015625)"/>
      <path id="DejaVuSans-52" d="M 2841 2188 
Q 3044 2119 3236 1894 
Q 3428 1669 3622 1275 
L 4263 0 
L 3584 0 
L 2988 1197 
Q 2756 1666 2539 1819 
Q 2322 1972 1947 1972 
L 1259 1972 
L 1259 0 
L 628 0 
L 628 4666 
L 2053 4666 
Q 2853 4666 3247 4331 
Q 3641 3997 3641 3322 
Q 3641 2881 3436 2590 
Q 3231 2300 2841 2188 
z
M 1259 4147 
L 1259 2491 
L 2053 2491 
Q 2509 2491 2742 2702 
Q 2975 2913 2975 3322 
Q 2975 3731 2742 3939 
Q 2509 4147 2053 4147 
L 1259 4147 
z
" transform="scale(0.015625)"/>
      <path id="DejaVuSans-69" d="M 603 3500 
L 1178 3500 
L 1178 0 
L 603 0 
L 603 3500 
z
M 603 4863 
L 1178 4863 
L 1178 4134 
L 603 4134 
L 603 4863 
z
" transform="scale(0.015625)"/>
      <path id="DejaVuSans-6d" d="M 3328 2828 
Q 3544 3216 3844 3400 
Q 4144 3584 4550 3584 
Q 5097 3584 5394 3201 
Q 5691 2819 5691 2113 
L 5691 0 
L 5113 0 
L 5113 2094 
Q 5113 2597 4934 2840 
Q 4756 3084 4391 3084 
Q 3944 3084 3684 2787 
Q 3425 2491 3425 1978 
L 3425 0 
L 2847 0 
L 2847 2094 
Q 2847 2600 2669 2842 
Q 2491 3084 2119 3084 
Q 1678 3084 1418 2786 
Q 1159 2488 1159 1978 
L 1159 0 
L 581 0 
L 581 3500 
L 1159 3500 
L 1159 2956 
Q 1356 3278 1631 3431 
Q 1906 3584 2284 3584 
Q 2666 3584 2933 3390 
Q 3200 3197 3328 2828 
z
" transform="scale(0.015625)"/>
      <path id="DejaVuSans-61" d="M 2194 1759 
Q 1497 1759 1228 1600 
Q 959 1441 959 1056 
Q 959 750 1161 570 
Q 1363 391 1709 391 
Q 2188 391 2477 730 
Q 2766 1069 2766 1631 
L 2766 1759 
L 2194 1759 
z
M 3341 1997 
L 3341 0 
L 2766 0 
L 2766 531 
Q 2569 213 2275 61 
Q 1981 -91 1556 -91 
Q 1019 -91 701 211 
Q 384 513 384 1019 
Q 384 1609 779 1909 
Q 1175 2209 1959 2209 
L 2766 2209 
L 2766 2266 
Q 2766 2663 2505 2880 
Q 2244 3097 1772 3097 
Q 1472 3097 1187 3025 
Q 903 2953 641 2809 
L 641 3341 
Q 956 3463 1253 3523 
Q 1550 3584 1831 3584 
Q 2591 3584 2966 3190 
Q 3341 2797 3341 1997 
z
" transform="scale(0.015625)"/>
      <path id="DejaVuSans-6e" d="M 3513 2113 
L 3513 0 
L 2938 0 
L 2938 2094 
Q 2938 2591 2744 2837 
Q 2550 3084 2163 3084 
Q 1697 3084 1428 2787 
Q 1159 2491 1159 1978 
L 1159 0 
L 581 0 
L 581 3500 
L 1159 3500 
L 1159 2956 
Q 1366 3272 1645 3428 
Q 1925 3584 2291 3584 
Q 2894 3584 3203 3211 
Q 3513 2838 3513 2113 
z
" transform="scale(0.015625)"/>
     </defs>
     <use xlink:href="#DejaVuSans-4c"/>
     <use xlink:href="#DejaVuSans-65" x="53.962891"/>
     <use xlink:href="#DejaVuSans-62" x="115.486328"/>
     <use xlink:href="#DejaVuSans-65" x="178.962891"/>
     <use xlink:href="#DejaVuSans-73" x="240.486328"/>
     <use xlink:href="#DejaVuSans-67" x="292.585938"/>
     <use xlink:href="#DejaVuSans-75" x="356.0625"/>
     <use xlink:href="#DejaVuSans-65" x="419.441406"/>
     <use xlink:href="#DejaVuSans-20" x="480.964844"/>
     <use xlink:href="#DejaVuSans-2f" x="512.751953"/>
     <use xlink:href="#DejaVuSans-20" x="546.443359"/>
     <use xlink:href="#DejaVuSans-52" x="578.230469"/>
     <use xlink:href="#DejaVuSans-69" x="647.712891"/>
     <use xlink:href="#DejaVuSans-65" x="675.496094"/>
     <use xlink:href="#DejaVuSans-6d" x="737.019531"/>
     <use xlink:href="#DejaVuSans-61" x="834.431641"/>
     <use xlink:href="#DejaVuSans-6e" x="895.710938"/>
     <use xlink:href="#DejaVuSans-6e" x="959.089844"/>
    </g>
    <!-- (uniform Δx) -->
    <g transform="translate(164.599375 31.968) scale(0.12 -0.12)">
     <defs>
      <path id="DejaVuSans-6f" d="M 1959 3097 
Q 1497 3097 1228 2736 
Q 959 2375 959 1747 
Q 959 1119 1226 758 
Q 1494 397 1959 397 
Q 2419 397 2687 759 
Q 2956 1122 2956 1747 
Q 2956 2369 2687 2733 
Q 2419 3097 1959 3097 
z
M 1959 3584 
Q 2709 3584 3137 3096 
Q 3566 2609 3566 1747 
Q 3566 888 3137 398 
Q 2709 -91 1959 -91 
Q 1206 -91 779 398 
Q 353 888 353 1747 
Q 353 2609 779 3096 
Q 1206 3584 1959 3584 
z
" transform="scale(0.015625)"/>
      <path id="DejaVuSans-72" d="M 2631 2963 
Q 2534 3019 2420 3045 
Q 2306 3072 2169 3072 
Q 1681 3072 1420 2755 
Q 1159 2438 1159 1844 
L 1159 0 
L 581 0 
L 581 3500 
L 1159 3500 
L 1159 2956 
Q 1341 3275 1631 3429 
Q 1922 3584 2338 3584 
Q 2397 3584 2469 3576 
Q 2541 3569 2628 3553 
L 2631 2963 
z
" transform="scale(0.015625)"/>
      <path id="DejaVuSans-394" d="M 2188 4044 
L 906 525 
L 3472 525 
L 2188 4044 
z
M 50 0 
L 1831 4666 
L 2547 4666 
L 4325 0 
L 50 0 
z
" transform="scale(0.015625)"/>
     </defs>
     <use xlink:href="#DejaVuSans-28"/>
     <use xlink:href="#DejaVuSans-75" x="39.013672"/>
     <use xlink:href="#DejaVuSans-6e" x="102.392578"/>
     <use xlink:href="#DejaVuSans-69" x="165.771484"/>
     <use xlink:href="#DejaVuSans-66" x="193.554688"/>
     <use xlink:href="#DejaVuSans-6f" x="228.759766"/>
     <use xlink:href="#DejaVuSans-72" x="289.941406"/>
     <use xlink:href="#DejaVuSans-6d" x="329.304688"/>
     <use xlink:href="#DejaVuSans-20" x="426.716797"/>
     <use xlink:href="#DejaVuSans-394" x="458.503906"/>
     <use xlink:href="#DejaVuSans-78" x="526.912109"/>
     <use xlink:href="#DejaVuSans-29" x="586.091797"/>
    </g>
   </g>
   <g id="legend_1">
    <g id="patch_15">
     <path d="M 300.157813 60.646125 
L 349.4 60.646125 
Q 351.4 60.646125 351.4 58.646125 
L 351.4 44.968 
Q 351.4 42.968 349.4 42.968 
L 300.157813 42.968 
Q 298.157813 42.968 298.157813 44.968 
L 298.157813 58.646125 
Q 298.157813 60.646125 300.157813 60.646125 
z
" style="fill: #ffffff; opacity: 0.8; stroke: #cccccc; stroke-linejoin: miter"/>
    </g>
    <g id="line2d_23">
     <path d="M 302.157813 51.066437 
L 312.157813 51.066437 
L 322.157813 51.066437 
" style="fill: none; stroke: #000000; stroke-width: 1.5; stroke-linecap: square"/>
    </g>
    <g id="text_16">
     <!-- f(x) -->
     <g transform="translate(330.157813 54.566437) scale(0.1 -0.1)">
      <use xlink:href="#DejaVuSans-66"/>
      <use xlink:href="#DejaVuSans-28" x="35.205078"/>
      <use xlink:href="#DejaVuSans-78" x="74.21875"/>
      <use xlink:href="#DejaVuSans-29" x="133.398438"/>
     </g>
    </g>
   </g>
  </g>
  <g id="axes_2">
   <g id="patch_16">
    <path d="M 404.21 246.04 
L 712.8 246.04 
L 712.8 37.968 
L 404.21 37.968 
z
" style="fill: #ffffff"/>
   </g>
   <g id="patch_17">
    <path d="M 425.842171 236.582182 
L 455.696882 236.582182 
L 455.696882 93.511931 
L 425.842171 93.511931 
z
" clip-path="url(#p001b3d19b0)" style="fill: #90ee90; opacity: 0.5; stroke: #008000; stroke-linejoin: miter"/>
   </g>
   <g id="patch_18">
    <path d="M 455.696882 236.582182 
L 499.389051 236.582182 
L 499.389051 57.193799 
L 455.696882 57.193799 
z
" clip-path="url(#p001b3d19b0)" style="fill: #90ee90; opacity: 0.5; stroke: #008000; stroke-linejoin: miter"/>
   </g>
   <g id="patch_19">
    <path d="M 499.389051 236.582182 
L 543.275201 236.582182 
L 543.275201 50.099518 
L 499.389051 50.099518 
z
" clip-path="url(#p001b3d19b0)" style="fill: #90ee90; opacity: 0.5; stroke: #008000; stroke-linejoin: miter"/>
   </g>
   <g id="patch_20">
    <path d="M 543.275201 236.582182 
L 573.638515 236.582182 
L 573.638515 77.753834 
L 543.275201 77.753834 
z
" clip-path="url(#p001b3d19b0)" style="fill: #90ee90; opacity: 0.5; stroke: #008000; stroke-linejoin: miter"/>
   </g>
   <g id="patch_21">
    <path d="M 573.638515 236.582182 
L 581.874804 236.582182 
L 581.874804 100.838629 
L 573.638515 100.838629 
z
" clip-path="url(#p001b3d19b0)" style="fill: #90ee90; opacity: 0.5; stroke: #008000; stroke-linejoin: miter"/>
   </g>
   <g id="patch_22">
    <path d="M 581.874804 236.582182 
L 611.214786 236.582182 
L 611.214786 125.840741 
L 581.874804 125.840741 
z
" clip-path="url(#p001b3d19b0)" style="fill: #90ee90; opacity: 0.5; stroke: #008000; stroke-linejoin: miter"/>
   </g>
   <g id="patch_23">
    <path d="M 611.214786 236.582182 
L 654.703039 236.582182 
L 654.703039 170.981169 
L 611.214786 170.981169 
z
" clip-path="url(#p001b3d19b0)" style="fill: #90ee90; opacity: 0.5; stroke: #008000; stroke-linejoin: miter"/>
   </g>
   <g id="patch_24">
    <path d="M 654.703039 236.582182 
L 698.773182 236.582182 
L 698.773182 198.333103 
L 654.703039 198.333103 
z
" clip-path="url(#p001b3d19b0)" style="fill: #90ee90; opacity: 0.5; stroke: #008000; stroke-linejoin: miter"/>
   </g>
   <g id="matplotlib.axis_3">
    <g id="xtick_7">
     <g id="line2d_24">
      <g>
       <use xlink:href="#ma69273638d" x="418.236818" y="246.04" style="stroke: #000000; stroke-width: 0.8"/>
      </g>
     </g>
     <g id="text_17">
      <!-- 0 -->
      <g transform="translate(415.055568 260.638438) scale(0.1 -0.1)">
       <use xlink:href="#DejaVuSans-30"/>
      </g>
     </g>
    </g>
    <g id="xtick_8">
     <g id="line2d_25">
      <g>
       <use xlink:href="#ma69273638d" x="474.344091" y="246.04" style="stroke: #000000; stroke-width: 0.8"/>
      </g>
     </g>
     <g id="text_18">
      <!-- 1 -->
      <g transform="translate(471.162841 260.638438) scale(0.1 -0.1)">
       <use xlink:href="#DejaVuSans-31"/>
      </g>
     </g>
    </g>
    <g id="xtick_9">
     <g id="line2d_26">
      <g>
       <use xlink:href="#ma69273638d" x="530.451364" y="246.04" style="stroke: #000000; stroke-width: 0.8"/>
      </g>
     </g>
     <g id="text_19">
      <!-- 2 -->
      <g transform="translate(527.270114 260.638438) scale(0.1 -0.1)">
       <use xlink:href="#DejaVuSans-32"/>
      </g>
     </g>
    </g>
    <g id="xtick_10">
     <g id="line2d_27">
      <g>
       <use xlink:href="#ma69273638d" x="586.558636" y="246.04" style="stroke: #000000; stroke-width: 0.8"/>
      </g>
     </g>
     <g id="text_20">
      <!-- 3 -->
      <g transform="translate(583.377386 260.638438) scale(0.1 -0.1)">
       <use xlink:href="#DejaVuSans-33"/>
      </g>
     </g>
    </g>
    <g id="xtick_11">
     <g id="line2d_28">
      <g>
       <use xlink:href="#ma69273638d" x="642.665909" y="246.04" style="stroke: #000000; stroke-width: 0.8"/>
      </g>
     </g>
     <g id="text_21">
      <!-- 4 -->
      <g transform="translate(639.484659 260.638438) scale(0.1 -0.1)">
       <use xlink:href="#DejaVuSans-34"/>
      </g>
     </g>
    </g>
    <g id="xtick_12">
     <g id="line2d_29">
      <g>
       <use xlink:href="#ma69273638d" x="698.773182" y="246.04" style="stroke: #000000; stroke-width: 0.8"/>
      </g>
     </g>
     <g id="text_22">
      <!-- 5 -->
      <g transform="translate(695.591932 260.638438) scale(0.1 -0.1)">
       <use xlink:href="#DejaVuSans-35"/>
      </g>
     </g>
    </g>
    <g id="text_23">
     <!-- x -->
     <g transform="translate(555.545625 274.316562) scale(0.1 -0.1)">
      <use xlink:href="#DejaVuSans-78"/>
     </g>
    </g>
   </g>
   <g id="matplotlib.axis_4">
    <g id="ytick_7">
     <g id="line2d_30">
      <g>
       <use xlink:href="#maa4e489d05" x="404.21" y="236.582182" style="stroke: #000000; stroke-width: 0.8"/>
      </g>
     </g>
     <g id="text_24">
      <!-- 0.0 -->
      <g transform="translate(381.306875 240.381401) scale(0.1 -0.1)">
       <use xlink:href="#DejaVuSans-30"/>
       <use xlink:href="#DejaVuSans-2e" x="63.623047"/>
       <use xlink:href="#DejaVuSans-30" x="95.410156"/>
      </g>
     </g>
    </g>
    <g id="ytick_8">
     <g id="line2d_31">
      <g>
       <use xlink:href="#maa4e489d05" x="404.21" y="198.750764" style="stroke: #000000; stroke-width: 0.8"/>
      </g>
     </g>
     <g id="text_25">
      <!-- 0.5 -->
      <g transform="translate(381.306875 202.549983) scale(0.1 -0.1)">
       <use xlink:href="#DejaVuSans-30"/>
       <use xlink:href="#DejaVuSans-2e" x="63.623047"/>
       <use xlink:href="#DejaVuSans-35" x="95.410156"/>
      </g>
     </g>
    </g>
    <g id="ytick_9">
     <g id="line2d_32">
      <g>
       <use xlink:href="#maa4e489d05" x="404.21" y="160.919346" style="stroke: #000000; stroke-width: 0.8"/>
      </g>
     </g>
     <g id="text_26">
      <!-- 1.0 -->
      <g transform="translate(381.306875 164.718565) scale(0.1 -0.1)">
       <use xlink:href="#DejaVuSans-31"/>
       <use xlink:href="#DejaVuSans-2e" x="63.623047"/>
       <use xlink:href="#DejaVuSans-30" x="95.410156"/>
      </g>
     </g>
    </g>
    <g id="ytick_10">
     <g id="line2d_33">
      <g>
       <use xlink:href="#maa4e489d05" x="404.21" y="123.087928" style="stroke: #000000; stroke-width: 0.8"/>
      </g>
     </g>
     <g id="text_27">
      <!-- 1.5 -->
      <g transform="translate(381.306875 126.887147) scale(0.1 -0.1)">
       <use xlink:href="#DejaVuSans-31"/>
       <use xlink:href="#DejaVuSans-2e" x="63.623047"/>
       <use xlink:href="#DejaVuSans-35" x="95.410156"/>
      </g>
     </g>
    </g>
    <g id="ytick_11">
     <g id="line2d_34">
      <g>
       <use xlink:href="#maa4e489d05" x="404.21" y="85.25651" style="stroke: #000000; stroke-width: 0.8"/>
      </g>
     </g>
     <g id="text_28">
      <!-- 2.0 -->
      <g transform="translate(381.306875 89.055729) scale(0.1 -0.1)">
       <use xlink:href="#DejaVuSans-32"/>
       <use xlink:href="#DejaVuSans-2e" x="63.623047"/>
       <use xlink:href="#DejaVuSans-30" x="95.410156"/>
      </g>
     </g>
    </g>
    <g id="ytick_12">
     <g id="line2d_35">
      <g>
       <use xlink:href="#maa4e489d05" x="404.21" y="47.425092" style="stroke: #000000; stroke-width: 0.8"/>
      </g>
     </g>
     <g id="text_29">
      <!-- 2.5 -->
      <g transform="translate(381.306875 51.224311) scale(0.1 -0.1)">
       <use xlink:href="#DejaVuSans-32"/>
       <use xlink:href="#DejaVuSans-2e" x="63.623047"/>
       <use xlink:href="#DejaVuSans-35" x="95.410156"/>
      </g>
     </g>
    </g>
    <g id="text_30">
     <!-- f(x) -->
     <g transform="translate(375.227188 150.625094) rotate(-90) scale(0.1 -0.1)">
      <use xlink:href="#DejaVuSans-66"/>
      <use xlink:href="#DejaVuSans-28" x="35.205078"/>
      <use xlink:href="#DejaVuSans-78" x="74.21875"/>
      <use xlink:href="#DejaVuSans-29" x="133.398438"/>
     </g>
    </g>
   </g>
   <g id="line2d_36">
    <path d="M 418.236818 123.087928 
L 431.595693 105.242695 
L 438.626679 96.19265 
L 444.954567 88.404326 
L 450.579356 81.848385 
L 455.501047 76.449491 
L 460.422738 71.409234 
L 464.641329 67.403921 
L 468.859921 63.713255 
L 473.078513 60.358089 
L 476.594007 57.832139 
L 480.1095 55.562291 
L 483.624993 53.557451 
L 487.140486 51.825489 
L 490.65598 50.373202 
L 494.171473 49.206288 
L 496.983868 48.481343 
L 499.796262 47.94381 
L 502.608657 47.595041 
L 505.421051 47.435912 
L 508.233446 47.466822 
L 511.045841 47.687694 
L 513.858235 48.097973 
L 516.67063 48.696629 
L 519.483025 49.482157 
L 522.998518 50.723805 
L 526.514011 52.249452 
L 530.029504 54.05311 
L 533.544998 56.127699 
L 537.060491 58.465079 
L 540.575984 61.056076 
L 544.091478 63.890521 
L 548.310069 67.597479 
L 552.528661 71.617991 
L 556.747253 75.929336 
L 561.668944 81.294236 
L 566.590635 86.980518 
L 572.215424 93.816464 
L 578.543312 101.854712 
L 586.980496 112.973885 
L 612.292047 146.677233 
L 618.619935 154.61827 
L 624.244724 161.343664 
L 629.166415 166.915473 
L 634.088105 172.15026 
L 638.306697 176.338388 
L 642.525289 180.22562 
L 646.743881 183.789992 
L 650.259375 186.499084 
L 653.774868 188.959315 
L 657.290361 191.161029 
L 660.805854 193.095585 
L 664.321348 194.755392 
L 667.836841 196.133934 
L 671.352334 197.225802 
L 674.164729 197.889973 
L 676.977123 198.36624 
L 679.789518 198.653406 
L 682.601913 198.75075 
L 685.414307 198.658027 
L 688.226702 198.375471 
L 691.039097 197.903791 
L 693.851491 197.244172 
L 696.663886 196.398271 
L 698.773182 195.642858 
L 698.773182 195.642858 
" clip-path="url(#p001b3d19b0)" style="fill: none; stroke: #000000; stroke-width: 1.5; stroke-linecap: square"/>
   </g>
   <g id="line2d_37">
    <path d="M 425.842171 246.04 
L 425.842171 37.968 
" clip-path="url(#p001b3d19b0)" style="fill: none; stroke-dasharray: 5.55,2.4; stroke-dashoffset: 0; stroke: #008000; stroke-opacity: 0.5; stroke-width: 1.5"/>
   </g>
   <g id="line2d_38">
    <path d="M 455.696882 246.04 
L 455.696882 37.968 
" clip-path="url(#p001b3d19b0)" style="fill: none; stroke-dasharray: 5.55,2.4; stroke-dashoffset: 0; stroke: #008000; stroke-opacity: 0.5; stroke-width: 1.5"/>
   </g>
   <g id="line2d_39">
    <path d="M 499.389051 246.04 
L 499.389051 37.968 
" clip-path="url(#p001b3d19b0)" style="fill: none; stroke-dasharray: 5.55,2.4; stroke-dashoffset: 0; stroke: #008000; stroke-opacity: 0.5; stroke-width: 1.5"/>
   </g>
   <g id="line2d_40">
    <path d="M 543.275201 246.04 
L 543.275201 37.968 
" clip-path="url(#p001b3d19b0)" style="fill: none; stroke-dasharray: 5.55,2.4; stroke-dashoffset: 0; stroke: #008000; stroke-opacity: 0.5; stroke-width: 1.5"/>
   </g>
   <g id="line2d_41">
    <path d="M 573.638515 246.04 
L 573.638515 37.968 
" clip-path="url(#p001b3d19b0)" style="fill: none; stroke-dasharray: 5.55,2.4; stroke-dashoffset: 0; stroke: #008000; stroke-opacity: 0.5; stroke-width: 1.5"/>
   </g>
   <g id="line2d_42">
    <path d="M 581.874804 246.04 
L 581.874804 37.968 
" clip-path="url(#p001b3d19b0)" style="fill: none; stroke-dasharray: 5.55,2.4; stroke-dashoffset: 0; stroke: #008000; stroke-opacity: 0.5; stroke-width: 1.5"/>
   </g>
   <g id="line2d_43">
    <path d="M 611.214786 246.04 
L 611.214786 37.968 
" clip-path="url(#p001b3d19b0)" style="fill: none; stroke-dasharray: 5.55,2.4; stroke-dashoffset: 0; stroke: #008000; stroke-opacity: 0.5; stroke-width: 1.5"/>
   </g>
   <g id="line2d_44">
    <path d="M 654.703039 246.04 
L 654.703039 37.968 
" clip-path="url(#p001b3d19b0)" style="fill: none; stroke-dasharray: 5.55,2.4; stroke-dashoffset: 0; stroke: #008000; stroke-opacity: 0.5; stroke-width: 1.5"/>
   </g>
   <g id="line2d_45">
    <path d="M 698.773182 246.04 
L 698.773182 37.968 
" clip-path="url(#p001b3d19b0)" style="fill: none; stroke-dasharray: 5.55,2.4; stroke-dashoffset: 0; stroke: #008000; stroke-opacity: 0.5; stroke-width: 1.5"/>
   </g>
   <g id="line2d_46">
    <path d="M 418.236818 228.998216 
L 432.334123 228.699926 
L 446.431428 228.188306 
L 461.938463 227.404591 
L 480.264959 226.240799 
L 507.049838 224.278869 
L 538.063908 222.055835 
L 556.390404 220.981556 
L 571.897439 220.298199 
L 585.994744 219.890675 
L 618.418545 219.117111 
L 633.92558 218.393764 
L 650.842346 217.376504 
L 673.398033 215.775181 
L 698.773182 213.883331 
L 698.773182 213.883331 
" clip-path="url(#p001b3d19b0)" style="fill: none; stroke-dasharray: 5.55,2.4; stroke-dashoffset: 0; stroke: #008000; stroke-width: 1.5"/>
   </g>
   <g id="patch_25">
    <path d="M 404.21 246.04 
L 404.21 37.968 
" style="fill: none; stroke: #000000; stroke-width: 0.8; stroke-linejoin: miter; stroke-linecap: square"/>
   </g>
   <g id="patch_26">
    <path d="M 712.8 246.04 
L 712.8 37.968 
" style="fill: none; stroke: #000000; stroke-width: 0.8; stroke-linejoin: miter; stroke-linecap: square"/>
   </g>
   <g id="patch_27">
    <path d="M 404.21 246.04 
L 712.8 246.04 
" style="fill: none; stroke: #000000; stroke-width: 0.8; stroke-linejoin: miter; stroke-linecap: square"/>
   </g>
   <g id="patch_28">
    <path d="M 404.21 37.968 
L 712.8 37.968 
" style="fill: none; stroke: #000000; stroke-width: 0.8; stroke-linejoin: miter; stroke-linecap: square"/>
   </g>
   <g id="text_31">
    <!-- Stieltjes (deterministic) -->
    <g transform="translate(488.561875 18.530625) scale(0.12 -0.12)">
     <defs>
      <path id="DejaVuSans-53" d="M 3425 4513 
L 3425 3897 
Q 3066 4069 2747 4153 
Q 2428 4238 2131 4238 
Q 1616 4238 1336 4038 
Q 1056 3838 1056 3469 
Q 1056 3159 1242 3001 
Q 1428 2844 1947 2747 
L 2328 2669 
Q 3034 2534 3370 2195 
Q 3706 1856 3706 1288 
Q 3706 609 3251 259 
Q 2797 -91 1919 -91 
Q 1588 -91 1214 -16 
Q 841 59 441 206 
L 441 856 
Q 825 641 1194 531 
Q 1563 422 1919 422 
Q 2459 422 2753 634 
Q 3047 847 3047 1241 
Q 3047 1584 2836 1778 
Q 2625 1972 2144 2069 
L 1759 2144 
Q 1053 2284 737 2584 
Q 422 2884 422 3419 
Q 422 4038 858 4394 
Q 1294 4750 2059 4750 
Q 2388 4750 2728 4690 
Q 3069 4631 3425 4513 
z
" transform="scale(0.015625)"/>
      <path id="DejaVuSans-74" d="M 1172 4494 
L 1172 3500 
L 2356 3500 
L 2356 3053 
L 1172 3053 
L 1172 1153 
Q 1172 725 1289 603 
Q 1406 481 1766 481 
L 2356 481 
L 2356 0 
L 1766 0 
Q 1100 0 847 248 
Q 594 497 594 1153 
L 594 3053 
L 172 3053 
L 172 3500 
L 594 3500 
L 594 4494 
L 1172 4494 
z
" transform="scale(0.015625)"/>
      <path id="DejaVuSans-6c" d="M 603 4863 
L 1178 4863 
L 1178 0 
L 603 0 
L 603 4863 
z
" transform="scale(0.015625)"/>
      <path id="DejaVuSans-6a" d="M 603 3500 
L 1178 3500 
L 1178 -63 
Q 1178 -731 923 -1031 
Q 669 -1331 103 -1331 
L -116 -1331 
L -116 -844 
L 38 -844 
Q 366 -844 484 -692 
Q 603 -541 603 -63 
L 603 3500 
z
M 603 4863 
L 1178 4863 
L 1178 4134 
L 603 4134 
L 603 4863 
z
" transform="scale(0.015625)"/>
      <path id="DejaVuSans-64" d="M 2906 2969 
L 2906 4863 
L 3481 4863 
L 3481 0 
L 2906 0 
L 2906 525 
Q 2725 213 2448 61 
Q 2172 -91 1784 -91 
Q 1150 -91 751 415 
Q 353 922 353 1747 
Q 353 2572 751 3078 
Q 1150 3584 1784 3584 
Q 2172 3584 2448 3432 
Q 2725 3281 2906 2969 
z
M 947 1747 
Q 947 1113 1208 752 
Q 1469 391 1925 391 
Q 2381 391 2643 752 
Q 2906 1113 2906 1747 
Q 2906 2381 2643 2742 
Q 2381 3103 1925 3103 
Q 1469 3103 1208 2742 
Q 947 2381 947 1747 
z
" transform="scale(0.015625)"/>
      <path id="DejaVuSans-63" d="M 3122 3366 
L 3122 2828 
Q 2878 2963 2633 3030 
Q 2388 3097 2138 3097 
Q 1578 3097 1268 2742 
Q 959 2388 959 1747 
Q 959 1106 1268 751 
Q 1578 397 2138 397 
Q 2388 397 2633 464 
Q 2878 531 3122 666 
L 3122 134 
Q 2881 22 2623 -34 
Q 2366 -91 2075 -91 
Q 1284 -91 818 406 
Q 353 903 353 1747 
Q 353 2603 823 3093 
Q 1294 3584 2113 3584 
Q 2378 3584 2631 3529 
Q 2884 3475 3122 3366 
z
" transform="scale(0.015625)"/>
     </defs>
     <use xlink:href="#DejaVuSans-53"/>
     <use xlink:href="#DejaVuSans-74" x="63.476562"/>
     <use xlink:href="#DejaVuSans-69" x="102.685547"/>
     <use xlink:href="#DejaVuSans-65" x="130.46875"/>
     <use xlink:href="#DejaVuSans-6c" x="191.992188"/>
     <use xlink:href="#DejaVuSans-74" x="219.775391"/>
     <use xlink:href="#DejaVuSans-6a" x="258.984375"/>
     <use xlink:href="#DejaVuSans-65" x="286.767578"/>
     <use xlink:href="#DejaVuSans-73" x="348.291016"/>
     <use xlink:href="#DejaVuSans-20" x="400.390625"/>
     <use xlink:href="#DejaVuSans-28" x="432.177734"/>
     <use xlink:href="#DejaVuSans-64" x="471.191406"/>
     <use xlink:href="#DejaVuSans-65" x="534.667969"/>
     <use xlink:href="#DejaVuSans-74" x="596.191406"/>
     <use xlink:href="#DejaVuSans-65" x="635.400391"/>
     <use xlink:href="#DejaVuSans-72" x="696.923828"/>
     <use xlink:href="#DejaVuSans-6d" x="736.287109"/>
     <use xlink:href="#DejaVuSans-69" x="833.699219"/>
     <use xlink:href="#DejaVuSans-6e" x="861.482422"/>
     <use xlink:href="#DejaVuSans-69" x="924.861328"/>
     <use xlink:href="#DejaVuSans-73" x="952.644531"/>
     <use xlink:href="#DejaVuSans-74" x="1004.744141"/>
     <use xlink:href="#DejaVuSans-69" x="1043.953125"/>
     <use xlink:href="#DejaVuSans-63" x="1071.736328"/>
     <use xlink:href="#DejaVuSans-29" x="1126.716797"/>
    </g>
    <!-- (non-uniform Δg(x)) -->
    <g transform="translate(499.0675 31.968) scale(0.12 -0.12)">
     <defs>
      <path id="DejaVuSans-2d" d="M 313 2009 
L 1997 2009 
L 1997 1497 
L 313 1497 
L 313 2009 
z
" transform="scale(0.015625)"/>
     </defs>
     <use xlink:href="#DejaVuSans-28"/>
     <use xlink:href="#DejaVuSans-6e" x="39.013672"/>
     <use xlink:href="#DejaVuSans-6f" x="102.392578"/>
     <use xlink:href="#DejaVuSans-6e" x="163.574219"/>
     <use xlink:href="#DejaVuSans-2d" x="226.953125"/>
     <use xlink:href="#DejaVuSans-75" x="263.037109"/>
     <use xlink:href="#DejaVuSans-6e" x="326.416016"/>
     <use xlink:href="#DejaVuSans-69" x="389.794922"/>
     <use xlink:href="#DejaVuSans-66" x="417.578125"/>
     <use xlink:href="#DejaVuSans-6f" x="452.783203"/>
     <use xlink:href="#DejaVuSans-72" x="513.964844"/>
     <use xlink:href="#DejaVuSans-6d" x="553.328125"/>
     <use xlink:href="#DejaVuSans-20" x="650.740234"/>
     <use xlink:href="#DejaVuSans-394" x="682.527344"/>
     <use xlink:href="#DejaVuSans-67" x="750.935547"/>
     <use xlink:href="#DejaVuSans-28" x="814.412109"/>
     <use xlink:href="#DejaVuSans-78" x="853.425781"/>
     <use xlink:href="#DejaVuSans-29" x="912.605469"/>
     <use xlink:href="#DejaVuSans-29" x="951.619141"/>
    </g>
   </g>
   <g id="legend_2">
    <g id="patch_29">
     <path d="M 610.632812 75.32425 
L 705.8 75.32425 
Q 707.8 75.32425 707.8 73.32425 
L 707.8 44.968 
Q 707.8 42.968 705.8 42.968 
L 610.632812 42.968 
Q 608.632812 42.968 608.632812 44.968 
L 608.632812 73.32425 
Q 608.632812 75.32425 610.632812 75.32425 
z
" style="fill: #ffffff; opacity: 0.8; stroke: #cccccc; stroke-linejoin: miter"/>
    </g>
    <g id="line2d_47">
     <path d="M 612.632812 51.066437 
L 622.632812 51.066437 
L 632.632812 51.066437 
" style="fill: none; stroke: #000000; stroke-width: 1.5; stroke-linecap: square"/>
    </g>
    <g id="text_32">
     <!-- f(x) -->
     <g transform="translate(640.632812 54.566437) scale(0.1 -0.1)">
      <use xlink:href="#DejaVuSans-66"/>
      <use xlink:href="#DejaVuSans-28" x="35.205078"/>
      <use xlink:href="#DejaVuSans-78" x="74.21875"/>
      <use xlink:href="#DejaVuSans-29" x="133.398438"/>
     </g>
    </g>
    <g id="line2d_48">
     <path d="M 612.632812 65.744562 
L 622.632812 65.744562 
L 632.632812 65.744562 
" style="fill: none; stroke-dasharray: 5.55,2.4; stroke-dashoffset: 0; stroke: #008000; stroke-width: 1.5"/>
    </g>
    <g id="text_33">
     <!-- g(x) (scaled) -->
     <g transform="translate(640.632812 69.244562) scale(0.1 -0.1)">
      <use xlink:href="#DejaVuSans-67"/>
      <use xlink:href="#DejaVuSans-28" x="63.476562"/>
      <use xlink:href="#DejaVuSans-78" x="102.490234"/>
      <use xlink:href="#DejaVuSans-29" x="161.669922"/>
      <use xlink:href="#DejaVuSans-20" x="200.683594"/>
      <use xlink:href="#DejaVuSans-28" x="232.470703"/>
      <use xlink:href="#DejaVuSans-73" x="271.484375"/>
      <use xlink:href="#DejaVuSans-63" x="323.583984"/>
      <use xlink:href="#DejaVuSans-61" x="378.564453"/>
      <use xlink:href="#DejaVuSans-6c" x="439.84375"/>
      <use xlink:href="#DejaVuSans-65" x="467.626953"/>
      <use xlink:href="#DejaVuSans-64" x="529.150391"/>
      <use xlink:href="#DejaVuSans-29" x="592.626953"/>
     </g>
    </g>
   </g>
  </g>
  <g id="axes_3">
   <g id="patch_30">
    <path d="M 760.61 246.04 
L 1069.2 246.04 
L 1069.2 37.968 
L 760.61 37.968 
z
" style="fill: #ffffff"/>
   </g>
   <g id="patch_31">
    <path d="M 811.129744 236.582182 
L 858.047835 236.582182 
L 858.047835 56.770139 
L 811.129744 56.770139 
z
" clip-path="url(#p6fad4dbc19)" style="fill: #ffa500; opacity: 0.5"/>
   </g>
   <g id="patch_32">
    <path d="M 858.047835 236.582182 
L 877.321629 236.582182 
L 877.321629 47.715195 
L 858.047835 47.715195 
z
" clip-path="url(#p6fad4dbc19)" style="fill: #ffa500; opacity: 0.5"/>
   </g>
   <g id="patch_33">
    <path d="M 877.321629 236.582182 
L 911.166337 236.582182 
L 911.166337 59.020911 
L 877.321629 59.020911 
z
" clip-path="url(#p6fad4dbc19)" style="fill: #dc143c; opacity: 0.5"/>
   </g>
   <g id="patch_34">
    <path d="M 911.166337 236.582182 
L 970.328231 236.582182 
L 970.328231 109.467193 
L 911.166337 109.467193 
z
" clip-path="url(#p6fad4dbc19)" style="fill: #ffa500; opacity: 0.5"/>
   </g>
   <g id="patch_35">
    <path d="M 970.328231 236.582182 
L 1029.711822 236.582182 
L 1029.711822 181.182452 
L 970.328231 181.182452 
z
" clip-path="url(#p6fad4dbc19)" style="fill: #dc143c; opacity: 0.5"/>
   </g>
   <g id="patch_36">
    <path d="M 1029.711822 236.582182 
L 1038.032434 236.582182 
L 1038.032434 198.430523 
L 1029.711822 198.430523 
z
" clip-path="url(#p6fad4dbc19)" style="fill: #ffa500; opacity: 0.5"/>
   </g>
   <g id="patch_37">
    <path d="M 1038.032434 236.582182 
L 1051.76324 236.582182 
L 1051.76324 198.33822 
L 1038.032434 198.33822 
z
" clip-path="url(#p6fad4dbc19)" style="fill: #ffa500; opacity: 0.5"/>
   </g>
   <g id="patch_38">
    <path d="M 1051.76324 236.582182 
L 1055.173182 236.582182 
L 1055.173182 196.261463 
L 1051.76324 196.261463 
z
" clip-path="url(#p6fad4dbc19)" style="fill: #dc143c; opacity: 0.5"/>
   </g>
   <g id="matplotlib.axis_5">
    <g id="xtick_13">
     <g id="line2d_49">
      <g>
       <use xlink:href="#ma69273638d" x="774.636818" y="246.04" style="stroke: #000000; stroke-width: 0.8"/>
      </g>
     </g>
     <g id="text_34">
      <!-- 0 -->
      <g transform="translate(771.455568 260.638438) scale(0.1 -0.1)">
       <use xlink:href="#DejaVuSans-30"/>
      </g>
     </g>
    </g>
    <g id="xtick_14">
     <g id="line2d_50">
      <g>
       <use xlink:href="#ma69273638d" x="830.744091" y="246.04" style="stroke: #000000; stroke-width: 0.8"/>
      </g>
     </g>
     <g id="text_35">
      <!-- 1 -->
      <g transform="translate(827.562841 260.638438) scale(0.1 -0.1)">
       <use xlink:href="#DejaVuSans-31"/>
      </g>
     </g>
    </g>
    <g id="xtick_15">
     <g id="line2d_51">
      <g>
       <use xlink:href="#ma69273638d" x="886.851364" y="246.04" style="stroke: #000000; stroke-width: 0.8"/>
      </g>
     </g>
     <g id="text_36">
      <!-- 2 -->
      <g transform="translate(883.670114 260.638438) scale(0.1 -0.1)">
       <use xlink:href="#DejaVuSans-32"/>
      </g>
     </g>
    </g>
    <g id="xtick_16">
     <g id="line2d_52">
      <g>
       <use xlink:href="#ma69273638d" x="942.958636" y="246.04" style="stroke: #000000; stroke-width: 0.8"/>
      </g>
     </g>
     <g id="text_37">
      <!-- 3 -->
      <g transform="translate(939.777386 260.638438) scale(0.1 -0.1)">
       <use xlink:href="#DejaVuSans-33"/>
      </g>
     </g>
    </g>
    <g id="xtick_17">
     <g id="line2d_53">
      <g>
       <use xlink:href="#ma69273638d" x="999.065909" y="246.04" style="stroke: #000000; stroke-width: 0.8"/>
      </g>
     </g>
     <g id="text_38">
      <!-- 4 -->
      <g transform="translate(995.884659 260.638438) scale(0.1 -0.1)">
       <use xlink:href="#DejaVuSans-34"/>
      </g>
     </g>
    </g>
    <g id="xtick_18">
     <g id="line2d_54">
      <g>
       <use xlink:href="#ma69273638d" x="1055.173182" y="246.04" style="stroke: #000000; stroke-width: 0.8"/>
      </g>
     </g>
     <g id="text_39">
      <!-- 5 -->
      <g transform="translate(1051.991932 260.638438) scale(0.1 -0.1)">
       <use xlink:href="#DejaVuSans-35"/>
      </g>
     </g>
    </g>
    <g id="text_40">
     <!-- x -->
     <g transform="translate(911.945625 274.316562) scale(0.1 -0.1)">
      <use xlink:href="#DejaVuSans-78"/>
     </g>
    </g>
   </g>
   <g id="matplotlib.axis_6">
    <g id="ytick_13">
     <g id="line2d_55">
      <g>
       <use xlink:href="#maa4e489d05" x="760.61" y="236.582182" style="stroke: #000000; stroke-width: 0.8"/>
      </g>
     </g>
     <g id="text_41">
      <!-- 0.0 -->
      <g transform="translate(737.706875 240.381401) scale(0.1 -0.1)">
       <use xlink:href="#DejaVuSans-30"/>
       <use xlink:href="#DejaVuSans-2e" x="63.623047"/>
       <use xlink:href="#DejaVuSans-30" x="95.410156"/>
      </g>
     </g>
    </g>
    <g id="ytick_14">
     <g id="line2d_56">
      <g>
       <use xlink:href="#maa4e489d05" x="760.61" y="198.750764" style="stroke: #000000; stroke-width: 0.8"/>
      </g>
     </g>
     <g id="text_42">
      <!-- 0.5 -->
      <g transform="translate(737.706875 202.549983) scale(0.1 -0.1)">
       <use xlink:href="#DejaVuSans-30"/>
       <use xlink:href="#DejaVuSans-2e" x="63.623047"/>
       <use xlink:href="#DejaVuSans-35" x="95.410156"/>
      </g>
     </g>
    </g>
    <g id="ytick_15">
     <g id="line2d_57">
      <g>
       <use xlink:href="#maa4e489d05" x="760.61" y="160.919346" style="stroke: #000000; stroke-width: 0.8"/>
      </g>
     </g>
     <g id="text_43">
      <!-- 1.0 -->
      <g transform="translate(737.706875 164.718565) scale(0.1 -0.1)">
       <use xlink:href="#DejaVuSans-31"/>
       <use xlink:href="#DejaVuSans-2e" x="63.623047"/>
       <use xlink:href="#DejaVuSans-30" x="95.410156"/>
      </g>
     </g>
    </g>
    <g id="ytick_16">
     <g id="line2d_58">
      <g>
       <use xlink:href="#maa4e489d05" x="760.61" y="123.087928" style="stroke: #000000; stroke-width: 0.8"/>
      </g>
     </g>
     <g id="text_44">
      <!-- 1.5 -->
      <g transform="translate(737.706875 126.887147) scale(0.1 -0.1)">
       <use xlink:href="#DejaVuSans-31"/>
       <use xlink:href="#DejaVuSans-2e" x="63.623047"/>
       <use xlink:href="#DejaVuSans-35" x="95.410156"/>
      </g>
     </g>
    </g>
    <g id="ytick_17">
     <g id="line2d_59">
      <g>
       <use xlink:href="#maa4e489d05" x="760.61" y="85.25651" style="stroke: #000000; stroke-width: 0.8"/>
      </g>
     </g>
     <g id="text_45">
      <!-- 2.0 -->
      <g transform="translate(737.706875 89.055729) scale(0.1 -0.1)">
       <use xlink:href="#DejaVuSans-32"/>
       <use xlink:href="#DejaVuSans-2e" x="63.623047"/>
       <use xlink:href="#DejaVuSans-30" x="95.410156"/>
      </g>
     </g>
    </g>
    <g id="ytick_18">
     <g id="line2d_60">
      <g>
       <use xlink:href="#maa4e489d05" x="760.61" y="47.425092" style="stroke: #000000; stroke-width: 0.8"/>
      </g>
     </g>
     <g id="text_46">
      <!-- 2.5 -->
      <g transform="translate(737.706875 51.224311) scale(0.1 -0.1)">
       <use xlink:href="#DejaVuSans-32"/>
       <use xlink:href="#DejaVuSans-2e" x="63.623047"/>
       <use xlink:href="#DejaVuSans-35" x="95.410156"/>
      </g>
     </g>
    </g>
    <g id="text_47">
     <!-- f(x) -->
     <g transform="translate(731.627187 150.625094) rotate(-90) scale(0.1 -0.1)">
      <use xlink:href="#DejaVuSans-66"/>
      <use xlink:href="#DejaVuSans-28" x="35.205078"/>
      <use xlink:href="#DejaVuSans-78" x="74.21875"/>
      <use xlink:href="#DejaVuSans-29" x="133.398438"/>
     </g>
    </g>
   </g>
   <g id="line2d_61">
    <path d="M 774.636818 123.087928 
L 787.995693 105.242695 
L 795.026679 96.19265 
L 801.354567 88.404326 
L 806.979356 81.848385 
L 811.901047 76.449491 
L 816.822738 71.409234 
L 821.041329 67.403921 
L 825.259921 63.713255 
L 829.478513 60.358089 
L 832.994007 57.832139 
L 836.5095 55.562291 
L 840.024993 53.557451 
L 843.540486 51.825489 
L 847.05598 50.373202 
L 850.571473 49.206288 
L 853.383868 48.481343 
L 856.196262 47.94381 
L 859.008657 47.595041 
L 861.821051 47.435912 
L 864.633446 47.466822 
L 867.445841 47.687694 
L 870.258235 48.097973 
L 873.07063 48.696629 
L 875.883025 49.482157 
L 879.398518 50.723805 
L 882.914011 52.249452 
L 886.429504 54.05311 
L 889.944998 56.127699 
L 893.460491 58.465079 
L 896.975984 61.056076 
L 900.491478 63.890521 
L 904.710069 67.597479 
L 908.928661 71.617991 
L 913.147253 75.929336 
L 918.068944 81.294236 
L 922.990635 86.980518 
L 928.615424 93.816464 
L 934.943312 101.854712 
L 943.380496 112.973885 
L 968.692047 146.677233 
L 975.019935 154.61827 
L 980.644724 161.343664 
L 985.566415 166.915473 
L 990.488105 172.15026 
L 994.706697 176.338388 
L 998.925289 180.22562 
L 1003.143881 183.789992 
L 1006.659375 186.499084 
L 1010.174868 188.959315 
L 1013.690361 191.161029 
L 1017.205854 193.095585 
L 1020.721348 194.755392 
L 1024.236841 196.133934 
L 1027.752334 197.225802 
L 1030.564729 197.889973 
L 1033.377123 198.36624 
L 1036.189518 198.653406 
L 1039.001913 198.75075 
L 1041.814307 198.658027 
L 1044.626702 198.375471 
L 1047.439097 197.903791 
L 1050.251491 197.244172 
L 1053.063886 196.398271 
L 1055.173182 195.642858 
L 1055.173182 195.642858 
" clip-path="url(#p6fad4dbc19)" style="fill: none; stroke: #000000; stroke-width: 1.5; stroke-linecap: square"/>
   </g>
   <g id="line2d_62">
    <path d="M 811.129744 246.04 
L 811.129744 37.968 
" clip-path="url(#p6fad4dbc19)" style="fill: none; stroke-dasharray: 5.55,2.4; stroke-dashoffset: 0; stroke: #ff0000; stroke-opacity: 0.5; stroke-width: 1.5"/>
   </g>
   <g id="line2d_63">
    <path d="M 858.047835 246.04 
L 858.047835 37.968 
" clip-path="url(#p6fad4dbc19)" style="fill: none; stroke-dasharray: 5.55,2.4; stroke-dashoffset: 0; stroke: #ff0000; stroke-opacity: 0.5; stroke-width: 1.5"/>
   </g>
   <g id="line2d_64">
    <path d="M 877.321629 246.04 
L 877.321629 37.968 
" clip-path="url(#p6fad4dbc19)" style="fill: none; stroke-dasharray: 5.55,2.4; stroke-dashoffset: 0; stroke: #ff0000; stroke-opacity: 0.5; stroke-width: 1.5"/>
   </g>
   <g id="line2d_65">
    <path d="M 911.166337 246.04 
L 911.166337 37.968 
" clip-path="url(#p6fad4dbc19)" style="fill: none; stroke-dasharray: 5.55,2.4; stroke-dashoffset: 0; stroke: #ff0000; stroke-opacity: 0.5; stroke-width: 1.5"/>
   </g>
   <g id="line2d_66">
    <path d="M 970.328231 246.04 
L 970.328231 37.968 
" clip-path="url(#p6fad4dbc19)" style="fill: none; stroke-dasharray: 5.55,2.4; stroke-dashoffset: 0; stroke: #ff0000; stroke-opacity: 0.5; stroke-width: 1.5"/>
   </g>
   <g id="line2d_67">
    <path d="M 1029.711822 246.04 
L 1029.711822 37.968 
" clip-path="url(#p6fad4dbc19)" style="fill: none; stroke-dasharray: 5.55,2.4; stroke-dashoffset: 0; stroke: #ff0000; stroke-opacity: 0.5; stroke-width: 1.5"/>
   </g>
   <g id="line2d_68">
    <path d="M 1038.032434 246.04 
L 1038.032434 37.968 
" clip-path="url(#p6fad4dbc19)" style="fill: none; stroke-dasharray: 5.55,2.4; stroke-dashoffset: 0; stroke: #ff0000; stroke-opacity: 0.5; stroke-width: 1.5"/>
   </g>
   <g id="line2d_69">
    <path d="M 1051.76324 246.04 
L 1051.76324 37.968 
" clip-path="url(#p6fad4dbc19)" style="fill: none; stroke-dasharray: 5.55,2.4; stroke-dashoffset: 0; stroke: #ff0000; stroke-opacity: 0.5; stroke-width: 1.5"/>
   </g>
   <g id="line2d_70">
    <path d="M 1055.173182 246.04 
L 1055.173182 37.968 
" clip-path="url(#p6fad4dbc19)" style="fill: none; stroke-dasharray: 5.55,2.4; stroke-dashoffset: 0; stroke: #ff0000; stroke-opacity: 0.5; stroke-width: 1.5"/>
   </g>
   <g id="patch_39">
    <path d="M 760.61 246.04 
L 760.61 37.968 
" style="fill: none; stroke: #000000; stroke-width: 0.8; stroke-linejoin: miter; stroke-linecap: square"/>
   </g>
   <g id="patch_40">
    <path d="M 1069.2 246.04 
L 1069.2 37.968 
" style="fill: none; stroke: #000000; stroke-width: 0.8; stroke-linejoin: miter; stroke-linecap: square"/>
   </g>
   <g id="patch_41">
    <path d="M 760.61 246.04 
L 1069.2 246.04 
" style="fill: none; stroke: #000000; stroke-width: 0.8; stroke-linejoin: miter; stroke-linecap: square"/>
   </g>
   <g id="patch_42">
    <path d="M 760.61 37.968 
L 1069.2 37.968 
" style="fill: none; stroke: #000000; stroke-width: 0.8; stroke-linejoin: miter; stroke-linecap: square"/>
   </g>
   <g id="text_48">
    <!-- Stieltjes (stochastic) -->
    <g transform="translate(853.921562 18.530625) scale(0.12 -0.12)">
     <defs>
      <path id="DejaVuSans-68" d="M 3513 2113 
L 3513 0 
L 2938 0 
L 2938 2094 
Q 2938 2591 2744 2837 
Q 2550 3084 2163 3084 
Q 1697 3084 1428 2787 
Q 1159 2491 1159 1978 
L 1159 0 
L 581 0 
L 581 4863 
L 1159 4863 
L 1159 2956 
Q 1366 3272 1645 3428 
Q 1925 3584 2291 3584 
Q 2894 3584 3203 3211 
Q 3513 2838 3513 2113 
z
" transform="scale(0.015625)"/>
     </defs>
     <use xlink:href="#DejaVuSans-53"/>
     <use xlink:href="#DejaVuSans-74" x="63.476562"/>
     <use xlink:href="#DejaVuSans-69" x="102.685547"/>
     <use xlink:href="#DejaVuSans-65" x="130.46875"/>
     <use xlink:href="#DejaVuSans-6c" x="191.992188"/>
     <use xlink:href="#DejaVuSans-74" x="219.775391"/>
     <use xlink:href="#DejaVuSans-6a" x="258.984375"/>
     <use xlink:href="#DejaVuSans-65" x="286.767578"/>
     <use xlink:href="#DejaVuSans-73" x="348.291016"/>
     <use xlink:href="#DejaVuSans-20" x="400.390625"/>
     <use xlink:href="#DejaVuSans-28" x="432.177734"/>
     <use xlink:href="#DejaVuSans-73" x="471.191406"/>
     <use xlink:href="#DejaVuSans-74" x="523.291016"/>
     <use xlink:href="#DejaVuSans-6f" x="562.5"/>
     <use xlink:href="#DejaVuSans-63" x="623.681641"/>
     <use xlink:href="#DejaVuSans-68" x="678.662109"/>
     <use xlink:href="#DejaVuSans-61" x="742.041016"/>
     <use xlink:href="#DejaVuSans-73" x="803.320312"/>
     <use xlink:href="#DejaVuSans-74" x="855.419922"/>
     <use xlink:href="#DejaVuSans-69" x="894.628906"/>
     <use xlink:href="#DejaVuSans-63" x="922.412109"/>
     <use xlink:href="#DejaVuSans-29" x="977.392578"/>
    </g>
    <!-- (random ΔZ) -->
    <g transform="translate(876.83125 31.968) scale(0.12 -0.12)">
     <defs>
      <path id="DejaVuSans-5a" d="M 359 4666 
L 4025 4666 
L 4025 4184 
L 1075 531 
L 4097 531 
L 4097 0 
L 288 0 
L 288 481 
L 3238 4134 
L 359 4134 
L 359 4666 
z
" transform="scale(0.015625)"/>
     </defs>
     <use xlink:href="#DejaVuSans-28"/>
     <use xlink:href="#DejaVuSans-72" x="39.013672"/>
     <use xlink:href="#DejaVuSans-61" x="80.126953"/>
     <use xlink:href="#DejaVuSans-6e" x="141.40625"/>
     <use xlink:href="#DejaVuSans-64" x="204.785156"/>
     <use xlink:href="#DejaVuSans-6f" x="268.261719"/>
     <use xlink:href="#DejaVuSans-6d" x="329.443359"/>
     <use xlink:href="#DejaVuSans-20" x="426.855469"/>
     <use xlink:href="#DejaVuSans-394" x="458.642578"/>
     <use xlink:href="#DejaVuSans-5a" x="527.050781"/>
     <use xlink:href="#DejaVuSans-29" x="595.556641"/>
    </g>
   </g>
   <g id="legend_3">
    <g id="patch_43">
     <path d="M 767.61 60.646125 
L 816.852188 60.646125 
Q 818.852188 60.646125 818.852188 58.646125 
L 818.852188 44.968 
Q 818.852188 42.968 816.852188 42.968 
L 767.61 42.968 
Q 765.61 42.968 765.61 44.968 
L 765.61 58.646125 
Q 765.61 60.646125 767.61 60.646125 
z
" style="fill: #ffffff; opacity: 0.8; stroke: #cccccc; stroke-linejoin: miter"/>
    </g>
    <g id="line2d_71">
     <path d="M 769.61 51.066437 
L 779.61 51.066437 
L 789.61 51.066437 
" style="fill: none; stroke: #000000; stroke-width: 1.5; stroke-linecap: square"/>
    </g>
    <g id="text_49">
     <!-- f(x) -->
     <g transform="translate(797.61 54.566437) scale(0.1 -0.1)">
      <use xlink:href="#DejaVuSans-66"/>
      <use xlink:href="#DejaVuSans-28" x="35.205078"/>
      <use xlink:href="#DejaVuSans-78" x="74.21875"/>
      <use xlink:href="#DejaVuSans-29" x="133.398438"/>
     </g>
    </g>
   </g>
  </g>
 </g>
 <defs>
  <clipPath id="p831865b217">
   <rect x="47.81" y="37.968" width="308.59" height="208.072"/>
  </clipPath>
  <clipPath id="p001b3d19b0">
   <rect x="404.21" y="37.968" width="308.59" height="208.072"/>
  </clipPath>
  <clipPath id="p6fad4dbc19">
   <rect x="760.61" y="37.968" width="308.59" height="208.072"/>
  </clipPath>
 </defs>
</svg>
