<?xml version="1.0" encoding="utf-8" standalone="no"?>
<!DOCTYPE svg PUBLIC "-//W3C//DTD SVG 1.1//EN"
  "http://www.w3.org/Graphics/SVG/1.1/DTD/svg11.dtd">
<svg xmlns:xlink="http://www.w3.org/1999/xlink" width="720pt" height="288pt" viewBox="0 0 720 288" xmlns="http://www.w3.org/2000/svg" version="1.1">
 <metadata>
  <rdf:RDF xmlns:dc="http://purl.org/dc/elements/1.1/" xmlns:cc="http://creativecommons.org/ns#" xmlns:rdf="http://www.w3.org/1999/02/22-rdf-syntax-ns#">
   <cc:Work>
    <dc:type rdf:resource="http://purl.org/dc/dcmitype/StillImage"/>
    <dc:date>2026-04-24T12:43:14.971122</dc:date>
    <dc:format>image/svg+xml</dc:format>
    <dc:creator>
     <cc:Agent>
      <dc:title>Matplotlib v3.9.2, https://matplotlib.org/</dc:title>
     </cc:Agent>
    </dc:creator>
   </cc:Work>
  </rdf:RDF>
 </metadata>
 <defs>
  <style type="text/css">*{stroke-linejoin: round; stroke-linecap: butt}</style>
 </defs>
 <g id="figure_1">
  <g id="patch_1">
   <path d="M 0 288 
L 720 288 
L 720 0 
L 0 0 
z
" style="fill: #ffffff"/>
  </g>
  <g id="axes_1">
   <g id="patch_2">
    <path d="M 50.69 243.16 
L 709.2 243.16 
L 709.2 25.44 
L 50.69 25.44 
z
" style="fill: #ffffff"/>
   </g>
   <g id="PolyCollection_1">
    <path d="M 80.622273 221.106159 
L 80.622273 35.336364 
L 81.819564 38.924709 
L 83.016855 42.42791 
L 84.214145 45.855372 
L 85.411436 49.196885 
L 86.608727 52.485836 
L 87.806018 55.710667 
L 89.003309 58.857548 
L 90.2006 61.997408 
L 91.397891 65.03066 
L 92.595182 68.007019 
L 93.792473 70.918873 
L 94.989764 73.793233 
L 96.187055 76.575757 
L 97.384345 79.285377 
L 98.581636 81.923189 
L 99.778927 84.495857 
L 100.976218 87.044384 
L 102.173509 89.57021 
L 103.3708 92.05995 
L 104.568091 94.606914 
L 105.765382 97.131162 
L 106.962673 99.585839 
L 108.159964 101.999694 
L 109.357255 104.397385 
L 110.554545 106.7387 
L 111.751836 109.035601 
L 112.949127 111.299292 
L 114.146418 113.505008 
L 115.343709 115.675409 
L 116.541 117.83072 
L 117.738291 119.933416 
L 118.935582 122.008219 
L 120.132873 124.032805 
L 121.330164 126.027807 
L 122.527455 127.948557 
L 123.724745 129.818567 
L 124.922036 131.596065 
L 126.119327 133.376687 
L 127.316618 135.151361 
L 128.513909 136.895632 
L 129.7112 138.635889 
L 130.908491 140.379605 
L 132.105782 142.049577 
L 133.303073 143.672208 
L 134.500364 145.231307 
L 135.697655 146.766269 
L 136.894945 148.298664 
L 138.092236 149.80662 
L 139.289527 151.243552 
L 140.486818 152.643921 
L 141.684109 153.979316 
L 142.8814 155.308949 
L 144.078691 156.623491 
L 145.275982 157.908618 
L 146.473273 159.117964 
L 147.670564 160.360933 
L 148.867855 161.543177 
L 150.065145 162.732164 
L 151.262436 163.878863 
L 152.459727 164.983934 
L 153.657018 166.076544 
L 154.854309 167.154772 
L 156.0516 168.214194 
L 157.248891 169.230814 
L 158.446182 170.223742 
L 159.643473 171.198978 
L 160.840764 172.150861 
L 162.038055 173.151186 
L 163.235345 174.084187 
L 164.432636 174.989606 
L 165.629927 175.914483 
L 166.827218 176.802049 
L 168.024509 177.632219 
L 169.2218 178.436249 
L 170.419091 179.26243 
L 171.616382 180.123617 
L 172.813673 180.942163 
L 174.010964 181.785291 
L 175.208255 182.632126 
L 176.405545 183.453675 
L 177.602836 184.291317 
L 178.800127 185.125521 
L 179.997418 185.92599 
L 181.194709 186.773177 
L 182.392 187.575659 
L 183.589291 188.278706 
L 184.786582 188.922423 
L 185.983873 189.51281 
L 187.181164 190.116961 
L 188.378455 190.713241 
L 189.575745 191.325754 
L 190.773036 191.946325 
L 191.970327 192.518585 
L 193.167618 193.086812 
L 194.364909 193.643572 
L 195.5622 194.177592 
L 196.759491 194.683584 
L 197.956782 195.211821 
L 199.154073 195.739319 
L 200.351364 196.252006 
L 201.548655 196.795727 
L 202.745945 197.340075 
L 203.943236 197.90149 
L 205.140527 198.421577 
L 206.337818 198.928499 
L 207.535109 199.403125 
L 208.7324 199.866151 
L 209.929691 200.311846 
L 211.126982 200.816473 
L 212.324273 201.282698 
L 213.521564 201.759215 
L 214.718855 202.213471 
L 215.916145 202.684455 
L 217.113436 203.119555 
L 218.310727 203.568819 
L 219.508018 204.01852 
L 220.705309 204.494288 
L 221.9026 204.953708 
L 223.099891 205.410028 
L 224.297182 205.899014 
L 225.494473 206.39319 
L 226.691764 206.879545 
L 227.889055 207.415401 
L 229.086345 207.929605 
L 230.283636 208.435419 
L 231.480927 208.96466 
L 232.678218 209.494854 
L 233.875509 209.985627 
L 235.0728 210.505667 
L 236.270091 211.046089 
L 237.467382 211.562604 
L 238.664673 212.101293 
L 239.861964 212.659676 
L 241.059255 213.225514 
L 242.256545 213.791808 
L 243.453836 214.344993 
L 244.651127 214.921467 
L 245.848418 215.486851 
L 247.045709 216.057 
L 248.243 216.609328 
L 249.440291 217.123208 
L 250.637582 217.723571 
L 251.834873 218.272852 
L 253.032164 218.773174 
L 254.229455 219.253357 
L 255.426745 219.726373 
L 256.624036 220.204465 
L 257.821327 220.656895 
L 259.018618 221.095635 
L 259.018618 221.106159 
L 259.018618 221.106159 
L 257.821327 221.106159 
L 256.624036 221.106159 
L 255.426745 221.106159 
L 254.229455 221.106159 
L 253.032164 221.106159 
L 251.834873 221.106159 
L 250.637582 221.106159 
L 249.440291 221.106159 
L 248.243 221.106159 
L 247.045709 221.106159 
L 245.848418 221.106159 
L 244.651127 221.106159 
L 243.453836 221.106159 
L 242.256545 221.106159 
L 241.059255 221.106159 
L 239.861964 221.106159 
L 238.664673 221.106159 
L 237.467382 221.106159 
L 236.270091 221.106159 
L 235.0728 221.106159 
L 233.875509 221.106159 
L 232.678218 221.106159 
L 231.480927 221.106159 
L 230.283636 221.106159 
L 229.086345 221.106159 
L 227.889055 221.106159 
L 226.691764 221.106159 
L 225.494473 221.106159 
L 224.297182 221.106159 
L 223.099891 221.106159 
L 221.9026 221.106159 
L 220.705309 221.106159 
L 219.508018 221.106159 
L 218.310727 221.106159 
L 217.113436 221.106159 
L 215.916145 221.106159 
L 214.718855 221.106159 
L 213.521564 221.106159 
L 212.324273 221.106159 
L 211.126982 221.106159 
L 209.929691 221.106159 
L 208.7324 221.106159 
L 207.535109 221.106159 
L 206.337818 221.106159 
L 205.140527 221.106159 
L 203.943236 221.106159 
L 202.745945 221.106159 
L 201.548655 221.106159 
L 200.351364 221.106159 
L 199.154073 221.106159 
L 197.956782 221.106159 
L 196.759491 221.106159 
L 195.5622 221.106159 
L 194.364909 221.106159 
L 193.167618 221.106159 
L 191.970327 221.106159 
L 190.773036 221.106159 
L 189.575745 221.106159 
L 188.378455 221.106159 
L 187.181164 221.106159 
L 185.983873 221.106159 
L 184.786582 221.106159 
L 183.589291 221.106159 
L 182.392 221.106159 
L 181.194709 221.106159 
L 179.997418 221.106159 
L 178.800127 221.106159 
L 177.602836 221.106159 
L 176.405545 221.106159 
L 175.208255 221.106159 
L 174.010964 221.106159 
L 172.813673 221.106159 
L 171.616382 221.106159 
L 170.419091 221.106159 
L 169.2218 221.106159 
L 168.024509 221.106159 
L 166.827218 221.106159 
L 165.629927 221.106159 
L 164.432636 221.106159 
L 163.235345 221.106159 
L 162.038055 221.106159 
L 160.840764 221.106159 
L 159.643473 221.106159 
L 158.446182 221.106159 
L 157.248891 221.106159 
L 156.0516 221.106159 
L 154.854309 221.106159 
L 153.657018 221.106159 
L 152.459727 221.106159 
L 151.262436 221.106159 
L 150.065145 221.106159 
L 148.867855 221.106159 
L 147.670564 221.106159 
L 146.473273 221.106159 
L 145.275982 221.106159 
L 144.078691 221.106159 
L 142.8814 221.106159 
L 141.684109 221.106159 
L 140.486818 221.106159 
L 139.289527 221.106159 
L 138.092236 221.106159 
L 136.894945 221.106159 
L 135.697655 221.106159 
L 134.500364 221.106159 
L 133.303073 221.106159 
L 132.105782 221.106159 
L 130.908491 221.106159 
L 129.7112 221.106159 
L 128.513909 221.106159 
L 127.316618 221.106159 
L 126.119327 221.106159 
L 124.922036 221.106159 
L 123.724745 221.106159 
L 122.527455 221.106159 
L 121.330164 221.106159 
L 120.132873 221.106159 
L 118.935582 221.106159 
L 117.738291 221.106159 
L 116.541 221.106159 
L 115.343709 221.106159 
L 114.146418 221.106159 
L 112.949127 221.106159 
L 111.751836 221.106159 
L 110.554545 221.106159 
L 109.357255 221.106159 
L 108.159964 221.106159 
L 106.962673 221.106159 
L 105.765382 221.106159 
L 104.568091 221.106159 
L 103.3708 221.106159 
L 102.173509 221.106159 
L 100.976218 221.106159 
L 99.778927 221.106159 
L 98.581636 221.106159 
L 97.384345 221.106159 
L 96.187055 221.106159 
L 94.989764 221.106159 
L 93.792473 221.106159 
L 92.595182 221.106159 
L 91.397891 221.106159 
L 90.2006 221.106159 
L 89.003309 221.106159 
L 87.806018 221.106159 
L 86.608727 221.106159 
L 85.411436 221.106159 
L 84.214145 221.106159 
L 83.016855 221.106159 
L 81.819564 221.106159 
L 80.622273 221.106159 
z
" clip-path="url(#pabda620e82)" style="fill: #1f77b4; fill-opacity: 0.3"/>
   </g>
   <g id="matplotlib.axis_1">
    <g id="xtick_1">
     <g id="line2d_1">
      <path d="M 80.622273 243.16 
L 80.622273 25.44 
" clip-path="url(#pabda620e82)" style="fill: none; stroke: #b0b0b0; stroke-width: 0.8; stroke-linecap: square"/>
     </g>
     <g id="line2d_2">
      <defs>
       <path id="md391d6f01c" d="M 0 0 
L 0 3.5 
" style="stroke: #000000; stroke-width: 0.8"/>
      </defs>
      <g>
       <use xlink:href="#md391d6f01c" x="80.622273" y="243.16" style="stroke: #000000; stroke-width: 0.8"/>
      </g>
     </g>
     <g id="text_1">
      <!-- 0.0 -->
      <g transform="translate(72.67071 257.758438) scale(0.1 -0.1)">
       <defs>
        <path id="DejaVuSans-30" d="M 2034 4250 
Q 1547 4250 1301 3770 
Q 1056 3291 1056 2328 
Q 1056 1369 1301 889 
Q 1547 409 2034 409 
Q 2525 409 2770 889 
Q 3016 1369 3016 2328 
Q 3016 3291 2770 3770 
Q 2525 4250 2034 4250 
z
M 2034 4750 
Q 2819 4750 3233 4129 
Q 3647 3509 3647 2328 
Q 3647 1150 3233 529 
Q 2819 -91 2034 -91 
Q 1250 -91 836 529 
Q 422 1150 422 2328 
Q 422 3509 836 4129 
Q 1250 4750 2034 4750 
z
" transform="scale(0.015625)"/>
        <path id="DejaVuSans-2e" d="M 684 794 
L 1344 794 
L 1344 0 
L 684 0 
L 684 794 
z
" transform="scale(0.015625)"/>
       </defs>
       <use xlink:href="#DejaVuSans-30"/>
       <use xlink:href="#DejaVuSans-2e" x="63.623047"/>
       <use xlink:href="#DejaVuSans-30" x="95.410156"/>
      </g>
     </g>
    </g>
    <g id="xtick_2">
     <g id="line2d_3">
      <path d="M 200.351364 243.16 
L 200.351364 25.44 
" clip-path="url(#pabda620e82)" style="fill: none; stroke: #b0b0b0; stroke-width: 0.8; stroke-linecap: square"/>
     </g>
     <g id="line2d_4">
      <g>
       <use xlink:href="#md391d6f01c" x="200.351364" y="243.16" style="stroke: #000000; stroke-width: 0.8"/>
      </g>
     </g>
     <g id="text_2">
      <!-- 0.1 -->
      <g transform="translate(192.399801 257.758438) scale(0.1 -0.1)">
       <defs>
        <path id="DejaVuSans-31" d="M 794 531 
L 1825 531 
L 1825 4091 
L 703 3866 
L 703 4441 
L 1819 4666 
L 2450 4666 
L 2450 531 
L 3481 531 
L 3481 0 
L 794 0 
L 794 531 
z
" transform="scale(0.015625)"/>
       </defs>
       <use xlink:href="#DejaVuSans-30"/>
       <use xlink:href="#DejaVuSans-2e" x="63.623047"/>
       <use xlink:href="#DejaVuSans-31" x="95.410156"/>
      </g>
     </g>
    </g>
    <g id="xtick_3">
     <g id="line2d_5">
      <path d="M 320.080455 243.16 
L 320.080455 25.44 
" clip-path="url(#pabda620e82)" style="fill: none; stroke: #b0b0b0; stroke-width: 0.8; stroke-linecap: square"/>
     </g>
     <g id="line2d_6">
      <g>
       <use xlink:href="#md391d6f01c" x="320.080455" y="243.16" style="stroke: #000000; stroke-width: 0.8"/>
      </g>
     </g>
     <g id="text_3">
      <!-- 0.2 -->
      <g transform="translate(312.128892 257.758438) scale(0.1 -0.1)">
       <defs>
        <path id="DejaVuSans-32" d="M 1228 531 
L 3431 531 
L 3431 0 
L 469 0 
L 469 531 
Q 828 903 1448 1529 
Q 2069 2156 2228 2338 
Q 2531 2678 2651 2914 
Q 2772 3150 2772 3378 
Q 2772 3750 2511 3984 
Q 2250 4219 1831 4219 
Q 1534 4219 1204 4116 
Q 875 4013 500 3803 
L 500 4441 
Q 881 4594 1212 4672 
Q 1544 4750 1819 4750 
Q 2544 4750 2975 4387 
Q 3406 4025 3406 3419 
Q 3406 3131 3298 2873 
Q 3191 2616 2906 2266 
Q 2828 2175 2409 1742 
Q 1991 1309 1228 531 
z
" transform="scale(0.015625)"/>
       </defs>
       <use xlink:href="#DejaVuSans-30"/>
       <use xlink:href="#DejaVuSans-2e" x="63.623047"/>
       <use xlink:href="#DejaVuSans-32" x="95.410156"/>
      </g>
     </g>
    </g>
    <g id="xtick_4">
     <g id="line2d_7">
      <path d="M 439.809545 243.16 
L 439.809545 25.44 
" clip-path="url(#pabda620e82)" style="fill: none; stroke: #b0b0b0; stroke-width: 0.8; stroke-linecap: square"/>
     </g>
     <g id="line2d_8">
      <g>
       <use xlink:href="#md391d6f01c" x="439.809545" y="243.16" style="stroke: #000000; stroke-width: 0.8"/>
      </g>
     </g>
     <g id="text_4">
      <!-- 0.3 -->
      <g transform="translate(431.857983 257.758438) scale(0.1 -0.1)">
       <defs>
        <path id="DejaVuSans-33" d="M 2597 2516 
Q 3050 2419 3304 2112 
Q 3559 1806 3559 1356 
Q 3559 666 3084 287 
Q 2609 -91 1734 -91 
Q 1441 -91 1130 -33 
Q 819 25 488 141 
L 488 750 
Q 750 597 1062 519 
Q 1375 441 1716 441 
Q 2309 441 2620 675 
Q 2931 909 2931 1356 
Q 2931 1769 2642 2001 
Q 2353 2234 1838 2234 
L 1294 2234 
L 1294 2753 
L 1863 2753 
Q 2328 2753 2575 2939 
Q 2822 3125 2822 3475 
Q 2822 3834 2567 4026 
Q 2313 4219 1838 4219 
Q 1578 4219 1281 4162 
Q 984 4106 628 3988 
L 628 4550 
Q 988 4650 1302 4700 
Q 1616 4750 1894 4750 
Q 2613 4750 3031 4423 
Q 3450 4097 3450 3541 
Q 3450 3153 3228 2886 
Q 3006 2619 2597 2516 
z
" transform="scale(0.015625)"/>
       </defs>
       <use xlink:href="#DejaVuSans-30"/>
       <use xlink:href="#DejaVuSans-2e" x="63.623047"/>
       <use xlink:href="#DejaVuSans-33" x="95.410156"/>
      </g>
     </g>
    </g>
    <g id="xtick_5">
     <g id="line2d_9">
      <path d="M 559.538636 243.16 
L 559.538636 25.44 
" clip-path="url(#pabda620e82)" style="fill: none; stroke: #b0b0b0; stroke-width: 0.8; stroke-linecap: square"/>
     </g>
     <g id="line2d_10">
      <g>
       <use xlink:href="#md391d6f01c" x="559.538636" y="243.16" style="stroke: #000000; stroke-width: 0.8"/>
      </g>
     </g>
     <g id="text_5">
      <!-- 0.4 -->
      <g transform="translate(551.587074 257.758438) scale(0.1 -0.1)">
       <defs>
        <path id="DejaVuSans-34" d="M 2419 4116 
L 825 1625 
L 2419 1625 
L 2419 4116 
z
M 2253 4666 
L 3047 4666 
L 3047 1625 
L 3713 1625 
L 3713 1100 
L 3047 1100 
L 3047 0 
L 2419 0 
L 2419 1100 
L 313 1100 
L 313 1709 
L 2253 4666 
z
" transform="scale(0.015625)"/>
       </defs>
       <use xlink:href="#DejaVuSans-30"/>
       <use xlink:href="#DejaVuSans-2e" x="63.623047"/>
       <use xlink:href="#DejaVuSans-34" x="95.410156"/>
      </g>
     </g>
    </g>
    <g id="xtick_6">
     <g id="line2d_11">
      <path d="M 679.267727 243.16 
L 679.267727 25.44 
" clip-path="url(#pabda620e82)" style="fill: none; stroke: #b0b0b0; stroke-width: 0.8; stroke-linecap: square"/>
     </g>
     <g id="line2d_12">
      <g>
       <use xlink:href="#md391d6f01c" x="679.267727" y="243.16" style="stroke: #000000; stroke-width: 0.8"/>
      </g>
     </g>
     <g id="text_6">
      <!-- 0.5 -->
      <g transform="translate(671.316165 257.758438) scale(0.1 -0.1)">
       <defs>
        <path id="DejaVuSans-35" d="M 691 4666 
L 3169 4666 
L 3169 4134 
L 1269 4134 
L 1269 2991 
Q 1406 3038 1543 3061 
Q 1681 3084 1819 3084 
Q 2600 3084 3056 2656 
Q 3513 2228 3513 1497 
Q 3513 744 3044 326 
Q 2575 -91 1722 -91 
Q 1428 -91 1123 -41 
Q 819 9 494 109 
L 494 744 
Q 775 591 1075 516 
Q 1375 441 1709 441 
Q 2250 441 2565 725 
Q 2881 1009 2881 1497 
Q 2881 1984 2565 2268 
Q 2250 2553 1709 2553 
Q 1456 2553 1204 2497 
Q 953 2441 691 2322 
L 691 4666 
z
" transform="scale(0.015625)"/>
       </defs>
       <use xlink:href="#DejaVuSans-30"/>
       <use xlink:href="#DejaVuSans-2e" x="63.623047"/>
       <use xlink:href="#DejaVuSans-35" x="95.410156"/>
      </g>
     </g>
    </g>
    <g id="text_7">
     <!-- Lag $\tau$ [s] -->
     <g transform="translate(358.195 271.438125) scale(0.1 -0.1)">
      <defs>
       <path id="DejaVuSans-4c" d="M 628 4666 
L 1259 4666 
L 1259 531 
L 3531 531 
L 3531 0 
L 628 0 
L 628 4666 
z
" transform="scale(0.015625)"/>
       <path id="DejaVuSans-61" d="M 2194 1759 
Q 1497 1759 1228 1600 
Q 959 1441 959 1056 
Q 959 750 1161 570 
Q 1363 391 1709 391 
Q 2188 391 2477 730 
Q 2766 1069 2766 1631 
L 2766 1759 
L 2194 1759 
z
M 3341 1997 
L 3341 0 
L 2766 0 
L 2766 531 
Q 2569 213 2275 61 
Q 1981 -91 1556 -91 
Q 1019 -91 701 211 
Q 384 513 384 1019 
Q 384 1609 779 1909 
Q 1175 2209 1959 2209 
L 2766 2209 
L 2766 2266 
Q 2766 2663 2505 2880 
Q 2244 3097 1772 3097 
Q 1472 3097 1187 3025 
Q 903 2953 641 2809 
L 641 3341 
Q 956 3463 1253 3523 
Q 1550 3584 1831 3584 
Q 2591 3584 2966 3190 
Q 3341 2797 3341 1997 
z
" transform="scale(0.015625)"/>
       <path id="DejaVuSans-67" d="M 2906 1791 
Q 2906 2416 2648 2759 
Q 2391 3103 1925 3103 
Q 1463 3103 1205 2759 
Q 947 2416 947 1791 
Q 947 1169 1205 825 
Q 1463 481 1925 481 
Q 2391 481 2648 825 
Q 2906 1169 2906 1791 
z
M 3481 434 
Q 3481 -459 3084 -895 
Q 2688 -1331 1869 -1331 
Q 1566 -1331 1297 -1286 
Q 1028 -1241 775 -1147 
L 775 -588 
Q 1028 -725 1275 -790 
Q 1522 -856 1778 -856 
Q 2344 -856 2625 -561 
Q 2906 -266 2906 331 
L 2906 616 
Q 2728 306 2450 153 
Q 2172 0 1784 0 
Q 1141 0 747 490 
Q 353 981 353 1791 
Q 353 2603 747 3093 
Q 1141 3584 1784 3584 
Q 2172 3584 2450 3431 
Q 2728 3278 2906 2969 
L 2906 3500 
L 3481 3500 
L 3481 434 
z
" transform="scale(0.015625)"/>
       <path id="DejaVuSans-20" transform="scale(0.015625)"/>
       <path id="DejaVuSans-Oblique-3c4" d="M 2103 638 
Q 2188 488 2525 488 
L 2800 488 
L 2706 0 
L 2363 0 
Q 1800 0 1600 300 
Q 1403 606 1534 1269 
L 1856 2925 
L 541 2925 
L 653 3500 
L 3881 3500 
L 3769 2925 
L 2444 2925 
L 2113 1234 
Q 2025 781 2103 638 
z
" transform="scale(0.015625)"/>
       <path id="DejaVuSans-5b" d="M 550 4863 
L 1875 4863 
L 1875 4416 
L 1125 4416 
L 1125 -397 
L 1875 -397 
L 1875 -844 
L 550 -844 
L 550 4863 
z
" transform="scale(0.015625)"/>
       <path id="DejaVuSans-73" d="M 2834 3397 
L 2834 2853 
Q 2591 2978 2328 3040 
Q 2066 3103 1784 3103 
Q 1356 3103 1142 2972 
Q 928 2841 928 2578 
Q 928 2378 1081 2264 
Q 1234 2150 1697 2047 
L 1894 2003 
Q 2506 1872 2764 1633 
Q 3022 1394 3022 966 
Q 3022 478 2636 193 
Q 2250 -91 1575 -91 
Q 1294 -91 989 -36 
Q 684 19 347 128 
L 347 722 
Q 666 556 975 473 
Q 1284 391 1588 391 
Q 1994 391 2212 530 
Q 2431 669 2431 922 
Q 2431 1156 2273 1281 
Q 2116 1406 1581 1522 
L 1381 1569 
Q 847 1681 609 1914 
Q 372 2147 372 2553 
Q 372 3047 722 3315 
Q 1072 3584 1716 3584 
Q 2034 3584 2315 3537 
Q 2597 3491 2834 3397 
z
" transform="scale(0.015625)"/>
       <path id="DejaVuSans-5d" d="M 1947 4863 
L 1947 -844 
L 622 -844 
L 622 -397 
L 1369 -397 
L 1369 4416 
L 622 4416 
L 622 4863 
L 1947 4863 
z
" transform="scale(0.015625)"/>
      </defs>
      <use xlink:href="#DejaVuSans-4c" transform="translate(0 0.015625)"/>
      <use xlink:href="#DejaVuSans-61" transform="translate(55.712891 0.015625)"/>
      <use xlink:href="#DejaVuSans-67" transform="translate(116.992188 0.015625)"/>
      <use xlink:href="#DejaVuSans-20" transform="translate(180.46875 0.015625)"/>
      <use xlink:href="#DejaVuSans-Oblique-3c4" transform="translate(212.255859 0.015625)"/>
      <use xlink:href="#DejaVuSans-20" transform="translate(272.460938 0.015625)"/>
      <use xlink:href="#DejaVuSans-5b" transform="translate(304.248047 0.015625)"/>
      <use xlink:href="#DejaVuSans-73" transform="translate(343.261719 0.015625)"/>
      <use xlink:href="#DejaVuSans-5d" transform="translate(395.361328 0.015625)"/>
     </g>
    </g>
   </g>
   <g id="matplotlib.axis_2">
    <g id="ytick_1">
     <g id="line2d_13">
      <path d="M 50.69 221.106159 
L 709.2 221.106159 
" clip-path="url(#pabda620e82)" style="fill: none; stroke: #b0b0b0; stroke-width: 0.8; stroke-linecap: square"/>
     </g>
     <g id="line2d_14">
      <defs>
       <path id="m7a431de831" d="M 0 0 
L -3.5 0 
" style="stroke: #000000; stroke-width: 0.8"/>
      </defs>
      <g>
       <use xlink:href="#m7a431de831" x="50.69" y="221.106159" style="stroke: #000000; stroke-width: 0.8"/>
      </g>
     </g>
     <g id="text_8">
      <!-- 0.0 -->
      <g transform="translate(27.786875 224.905377) scale(0.1 -0.1)">
       <use xlink:href="#DejaVuSans-30"/>
       <use xlink:href="#DejaVuSans-2e" x="63.623047"/>
       <use xlink:href="#DejaVuSans-30" x="95.410156"/>
      </g>
     </g>
    </g>
    <g id="ytick_2">
     <g id="line2d_15">
      <path d="M 50.69 183.9522 
L 709.2 183.9522 
" clip-path="url(#pabda620e82)" style="fill: none; stroke: #b0b0b0; stroke-width: 0.8; stroke-linecap: square"/>
     </g>
     <g id="line2d_16">
      <g>
       <use xlink:href="#m7a431de831" x="50.69" y="183.9522" style="stroke: #000000; stroke-width: 0.8"/>
      </g>
     </g>
     <g id="text_9">
      <!-- 0.2 -->
      <g transform="translate(27.786875 187.751418) scale(0.1 -0.1)">
       <use xlink:href="#DejaVuSans-30"/>
       <use xlink:href="#DejaVuSans-2e" x="63.623047"/>
       <use xlink:href="#DejaVuSans-32" x="95.410156"/>
      </g>
     </g>
    </g>
    <g id="ytick_3">
     <g id="line2d_17">
      <path d="M 50.69 146.798241 
L 709.2 146.798241 
" clip-path="url(#pabda620e82)" style="fill: none; stroke: #b0b0b0; stroke-width: 0.8; stroke-linecap: square"/>
     </g>
     <g id="line2d_18">
      <g>
       <use xlink:href="#m7a431de831" x="50.69" y="146.798241" style="stroke: #000000; stroke-width: 0.8"/>
      </g>
     </g>
     <g id="text_10">
      <!-- 0.4 -->
      <g transform="translate(27.786875 150.597459) scale(0.1 -0.1)">
       <use xlink:href="#DejaVuSans-30"/>
       <use xlink:href="#DejaVuSans-2e" x="63.623047"/>
       <use xlink:href="#DejaVuSans-34" x="95.410156"/>
      </g>
     </g>
    </g>
    <g id="ytick_4">
     <g id="line2d_19">
      <path d="M 50.69 109.644282 
L 709.2 109.644282 
" clip-path="url(#pabda620e82)" style="fill: none; stroke: #b0b0b0; stroke-width: 0.8; stroke-linecap: square"/>
     </g>
     <g id="line2d_20">
      <g>
       <use xlink:href="#m7a431de831" x="50.69" y="109.644282" style="stroke: #000000; stroke-width: 0.8"/>
      </g>
     </g>
     <g id="text_11">
      <!-- 0.6 -->
      <g transform="translate(27.786875 113.4435) scale(0.1 -0.1)">
       <defs>
        <path id="DejaVuSans-36" d="M 2113 2584 
Q 1688 2584 1439 2293 
Q 1191 2003 1191 1497 
Q 1191 994 1439 701 
Q 1688 409 2113 409 
Q 2538 409 2786 701 
Q 3034 994 3034 1497 
Q 3034 2003 2786 2293 
Q 2538 2584 2113 2584 
z
M 3366 4563 
L 3366 3988 
Q 3128 4100 2886 4159 
Q 2644 4219 2406 4219 
Q 1781 4219 1451 3797 
Q 1122 3375 1075 2522 
Q 1259 2794 1537 2939 
Q 1816 3084 2150 3084 
Q 2853 3084 3261 2657 
Q 3669 2231 3669 1497 
Q 3669 778 3244 343 
Q 2819 -91 2113 -91 
Q 1303 -91 875 529 
Q 447 1150 447 2328 
Q 447 3434 972 4092 
Q 1497 4750 2381 4750 
Q 2619 4750 2861 4703 
Q 3103 4656 3366 4563 
z
" transform="scale(0.015625)"/>
       </defs>
       <use xlink:href="#DejaVuSans-30"/>
       <use xlink:href="#DejaVuSans-2e" x="63.623047"/>
       <use xlink:href="#DejaVuSans-36" x="95.410156"/>
      </g>
     </g>
    </g>
    <g id="ytick_5">
     <g id="line2d_21">
      <path d="M 50.69 72.490323 
L 709.2 72.490323 
" clip-path="url(#pabda620e82)" style="fill: none; stroke: #b0b0b0; stroke-width: 0.8; stroke-linecap: square"/>
     </g>
     <g id="line2d_22">
      <g>
       <use xlink:href="#m7a431de831" x="50.69" y="72.490323" style="stroke: #000000; stroke-width: 0.8"/>
      </g>
     </g>
     <g id="text_12">
      <!-- 0.8 -->
      <g transform="translate(27.786875 76.289541) scale(0.1 -0.1)">
       <defs>
        <path id="DejaVuSans-38" d="M 2034 2216 
Q 1584 2216 1326 1975 
Q 1069 1734 1069 1313 
Q 1069 891 1326 650 
Q 1584 409 2034 409 
Q 2484 409 2743 651 
Q 3003 894 3003 1313 
Q 3003 1734 2745 1975 
Q 2488 2216 2034 2216 
z
M 1403 2484 
Q 997 2584 770 2862 
Q 544 3141 544 3541 
Q 544 4100 942 4425 
Q 1341 4750 2034 4750 
Q 2731 4750 3128 4425 
Q 3525 4100 3525 3541 
Q 3525 3141 3298 2862 
Q 3072 2584 2669 2484 
Q 3125 2378 3379 2068 
Q 3634 1759 3634 1313 
Q 3634 634 3220 271 
Q 2806 -91 2034 -91 
Q 1263 -91 848 271 
Q 434 634 434 1313 
Q 434 1759 690 2068 
Q 947 2378 1403 2484 
z
M 1172 3481 
Q 1172 3119 1398 2916 
Q 1625 2713 2034 2713 
Q 2441 2713 2670 2916 
Q 2900 3119 2900 3481 
Q 2900 3844 2670 4047 
Q 2441 4250 2034 4250 
Q 1625 4250 1398 4047 
Q 1172 3844 1172 3481 
z
" transform="scale(0.015625)"/>
       </defs>
       <use xlink:href="#DejaVuSans-30"/>
       <use xlink:href="#DejaVuSans-2e" x="63.623047"/>
       <use xlink:href="#DejaVuSans-38" x="95.410156"/>
      </g>
     </g>
    </g>
    <g id="ytick_6">
     <g id="line2d_23">
      <path d="M 50.69 35.336364 
L 709.2 35.336364 
" clip-path="url(#pabda620e82)" style="fill: none; stroke: #b0b0b0; stroke-width: 0.8; stroke-linecap: square"/>
     </g>
     <g id="line2d_24">
      <g>
       <use xlink:href="#m7a431de831" x="50.69" y="35.336364" style="stroke: #000000; stroke-width: 0.8"/>
      </g>
     </g>
     <g id="text_13">
      <!-- 1.0 -->
      <g transform="translate(27.786875 39.135582) scale(0.1 -0.1)">
       <use xlink:href="#DejaVuSans-31"/>
       <use xlink:href="#DejaVuSans-2e" x="63.623047"/>
       <use xlink:href="#DejaVuSans-30" x="95.410156"/>
      </g>
     </g>
    </g>
    <g id="text_14">
     <!-- $\rho_{xx}(\tau)$ -->
     <g transform="translate(21.686875 148.7) rotate(-90) scale(0.1 -0.1)">
      <defs>
       <path id="DejaVuSans-Oblique-3c1" d="M 1203 2875 
Q 1453 3194 1981 3475 
Q 2188 3584 2756 3584 
Q 3394 3584 3694 3078 
Q 3994 2572 3834 1747 
Q 3672 922 3175 415 
Q 2678 -91 2041 -91 
Q 1656 -91 1409 63 
Q 1163 213 1044 525 
L 681 -1331 
L 103 -1331 
L 697 1716 
Q 838 2438 1203 2875 
z
M 3238 1747 
Q 3359 2381 3169 2744 
Q 2978 3103 2522 3103 
Q 2066 3103 1734 2744 
Q 1403 2381 1281 1747 
Q 1156 1113 1347 750 
Q 1538 391 1994 391 
Q 2450 391 2781 750 
Q 3113 1113 3238 1747 
z
" transform="scale(0.015625)"/>
       <path id="DejaVuSans-Oblique-78" d="M 3841 3500 
L 2234 1784 
L 3219 0 
L 2559 0 
L 1819 1388 
L 531 0 
L -166 0 
L 1556 1844 
L 641 3500 
L 1300 3500 
L 1972 2234 
L 3144 3500 
L 3841 3500 
z
" transform="scale(0.015625)"/>
       <path id="DejaVuSans-28" d="M 1984 4856 
Q 1566 4138 1362 3434 
Q 1159 2731 1159 2009 
Q 1159 1288 1364 580 
Q 1569 -128 1984 -844 
L 1484 -844 
Q 1016 -109 783 600 
Q 550 1309 550 2009 
Q 550 2706 781 3412 
Q 1013 4119 1484 4856 
L 1984 4856 
z
" transform="scale(0.015625)"/>
       <path id="DejaVuSans-29" d="M 513 4856 
L 1013 4856 
Q 1481 4119 1714 3412 
Q 1947 2706 1947 2009 
Q 1947 1309 1714 600 
Q 1481 -109 1013 -844 
L 513 -844 
Q 928 -128 1133 580 
Q 1338 1288 1338 2009 
Q 1338 2731 1133 3434 
Q 928 4138 513 4856 
z
" transform="scale(0.015625)"/>
      </defs>
      <use xlink:href="#DejaVuSans-Oblique-3c1" transform="translate(0 0.125)"/>
      <use xlink:href="#DejaVuSans-Oblique-78" transform="translate(63.476562 -16.28125) scale(0.7)"/>
      <use xlink:href="#DejaVuSans-Oblique-78" transform="translate(104.902344 -16.28125) scale(0.7)"/>
      <use xlink:href="#DejaVuSans-28" transform="translate(149.0625 0.125)"/>
      <use xlink:href="#DejaVuSans-Oblique-3c4" transform="translate(188.076172 0.125)"/>
      <use xlink:href="#DejaVuSans-29" transform="translate(248.28125 0.125)"/>
     </g>
    </g>
   </g>
   <g id="line2d_25">
    <path d="M 80.622273 35.336364 
L 84.214145 45.855372 
L 87.806018 55.710667 
L 92.595182 68.007019 
L 96.187055 76.575757 
L 99.778927 84.495857 
L 106.962673 99.585839 
L 111.751836 109.035601 
L 115.343709 115.675409 
L 118.935582 122.008219 
L 122.527455 127.948557 
L 126.119327 133.376687 
L 130.908491 140.379605 
L 134.500364 145.231307 
L 139.289527 151.243552 
L 142.8814 155.308949 
L 146.473273 159.117964 
L 150.065145 162.732164 
L 153.657018 166.076544 
L 157.248891 169.230814 
L 163.235345 174.084187 
L 168.024509 177.632219 
L 174.010964 181.785291 
L 181.194709 186.773177 
L 183.589291 188.278706 
L 187.181164 190.116961 
L 195.5622 194.177592 
L 201.548655 196.795727 
L 207.535109 199.403125 
L 226.691764 206.879545 
L 233.875509 209.985627 
L 241.059255 213.225514 
L 253.032164 218.773174 
L 259.018618 221.095635 
L 262.610491 222.42396 
L 266.202364 223.827583 
L 269.794236 224.959701 
L 276.977982 226.917604 
L 284.161727 228.361032 
L 290.148182 229.356295 
L 302.121091 231.418417 
L 304.515673 231.758689 
L 318.883164 232.871186 
L 322.475036 233.001764 
L 334.447945 233.170625 
L 336.842527 233.222574 
L 347.618145 233.017588 
L 358.393764 232.396276 
L 367.972091 231.759083 
L 373.958545 231.704953 
L 378.747709 231.799371 
L 387.128745 231.768056 
L 390.720618 231.595127 
L 399.101655 231.131084 
L 402.693527 230.945345 
L 406.2854 230.942453 
L 409.877273 231.196271 
L 412.271855 231.42011 
L 415.863727 231.530541 
L 419.4556 231.315445 
L 423.047473 230.903671 
L 425.442055 230.584013 
L 430.231218 230.116006 
L 436.217673 229.286533 
L 441.006836 228.659825 
L 446.993291 228.21634 
L 451.782455 228.202912 
L 457.768909 228.450616 
L 468.544527 229.790281 
L 476.925564 230.310537 
L 481.714727 230.699706 
L 487.701182 231.089694 
L 491.293055 231.22951 
L 494.884927 231.248178 
L 500.871382 231.184626 
L 510.449709 231.36247 
L 524.8172 231.671412 
L 537.9874 231.405648 
L 543.973855 231.341666 
L 553.552182 231.038762 
L 559.538636 230.611073 
L 563.130509 230.348917 
L 567.919673 230.248755 
L 577.498 230.513324 
L 582.287164 230.536191 
L 585.879036 230.638055 
L 599.049236 230.163515 
L 608.627564 229.727742 
L 624.192345 229.550331 
L 627.784218 229.677271 
L 643.349 229.335842 
L 646.940873 229.390469 
L 649.335455 229.301619 
L 652.927327 228.900192 
L 667.294818 226.943931 
L 674.478564 226.635074 
L 678.070436 226.663336 
L 679.267727 226.754699 
L 679.267727 226.754699 
" clip-path="url(#pabda620e82)" style="fill: none; stroke: #1f77b4; stroke-width: 1.5; stroke-linecap: square"/>
   </g>
   <g id="line2d_26">
    <path d="M 50.69 221.106159 
L 709.2 221.106159 
" clip-path="url(#pabda620e82)" style="fill: none; stroke: #1f77b4; stroke-linecap: square"/>
   </g>
   <g id="line2d_27">
    <path d="M 259.018618 243.16 
L 259.018618 25.44 
" clip-path="url(#pabda620e82)" style="fill: none; stroke-dasharray: 3.7,1.6; stroke-dashoffset: 0; stroke: #1f77b4"/>
   </g>
   <g id="patch_3">
    <path d="M 50.69 243.16 
L 50.69 25.44 
" style="fill: none; stroke: #000000; stroke-width: 0.8; stroke-linejoin: miter; stroke-linecap: square"/>
   </g>
   <g id="patch_4">
    <path d="M 709.2 243.16 
L 709.2 25.44 
" style="fill: none; stroke: #000000; stroke-width: 0.8; stroke-linejoin: miter; stroke-linecap: square"/>
   </g>
   <g id="patch_5">
    <path d="M 50.69 243.16 
L 709.2 243.16 
" style="fill: none; stroke: #000000; stroke-width: 0.8; stroke-linejoin: miter; stroke-linecap: square"/>
   </g>
   <g id="patch_6">
    <path d="M 50.69 25.44 
L 709.2 25.44 
" style="fill: none; stroke: #000000; stroke-width: 0.8; stroke-linejoin: miter; stroke-linecap: square"/>
   </g>
   <g id="text_15">
    <!-- Normalized autocorrelation and area defining the integral time scale -->
    <g transform="translate(173.947188 19.44) scale(0.12 -0.12)">
     <defs>
      <path id="DejaVuSans-4e" d="M 628 4666 
L 1478 4666 
L 3547 763 
L 3547 4666 
L 4159 4666 
L 4159 0 
L 3309 0 
L 1241 3903 
L 1241 0 
L 628 0 
L 628 4666 
z
" transform="scale(0.015625)"/>
      <path id="DejaVuSans-6f" d="M 1959 3097 
Q 1497 3097 1228 2736 
Q 959 2375 959 1747 
Q 959 1119 1226 758 
Q 1494 397 1959 397 
Q 2419 397 2687 759 
Q 2956 1122 2956 1747 
Q 2956 2369 2687 2733 
Q 2419 3097 1959 3097 
z
M 1959 3584 
Q 2709 3584 3137 3096 
Q 3566 2609 3566 1747 
Q 3566 888 3137 398 
Q 2709 -91 1959 -91 
Q 1206 -91 779 398 
Q 353 888 353 1747 
Q 353 2609 779 3096 
Q 1206 3584 1959 3584 
z
" transform="scale(0.015625)"/>
      <path id="DejaVuSans-72" d="M 2631 2963 
Q 2534 3019 2420 3045 
Q 2306 3072 2169 3072 
Q 1681 3072 1420 2755 
Q 1159 2438 1159 1844 
L 1159 0 
L 581 0 
L 581 3500 
L 1159 3500 
L 1159 2956 
Q 1341 3275 1631 3429 
Q 1922 3584 2338 3584 
Q 2397 3584 2469 3576 
Q 2541 3569 2628 3553 
L 2631 2963 
z
" transform="scale(0.015625)"/>
      <path id="DejaVuSans-6d" d="M 3328 2828 
Q 3544 3216 3844 3400 
Q 4144 3584 4550 3584 
Q 5097 3584 5394 3201 
Q 5691 2819 5691 2113 
L 5691 0 
L 5113 0 
L 5113 2094 
Q 5113 2597 4934 2840 
Q 4756 3084 4391 3084 
Q 3944 3084 3684 2787 
Q 3425 2491 3425 1978 
L 3425 0 
L 2847 0 
L 2847 2094 
Q 2847 2600 2669 2842 
Q 2491 3084 2119 3084 
Q 1678 3084 1418 2786 
Q 1159 2488 1159 1978 
L 1159 0 
L 581 0 
L 581 3500 
L 1159 3500 
L 1159 2956 
Q 1356 3278 1631 3431 
Q 1906 3584 2284 3584 
Q 2666 3584 2933 3390 
Q 3200 3197 3328 2828 
z
" transform="scale(0.015625)"/>
      <path id="DejaVuSans-6c" d="M 603 4863 
L 1178 4863 
L 1178 0 
L 603 0 
L 603 4863 
z
" transform="scale(0.015625)"/>
      <path id="DejaVuSans-69" d="M 603 3500 
L 1178 3500 
L 1178 0 
L 603 0 
L 603 3500 
z
M 603 4863 
L 1178 4863 
L 1178 4134 
L 603 4134 
L 603 4863 
z
" transform="scale(0.015625)"/>
      <path id="DejaVuSans-7a" d="M 353 3500 
L 3084 3500 
L 3084 2975 
L 922 459 
L 3084 459 
L 3084 0 
L 275 0 
L 275 525 
L 2438 3041 
L 353 3041 
L 353 3500 
z
" transform="scale(0.015625)"/>
      <path id="DejaVuSans-65" d="M 3597 1894 
L 3597 1613 
L 953 1613 
Q 991 1019 1311 708 
Q 1631 397 2203 397 
Q 2534 397 2845 478 
Q 3156 559 3463 722 
L 3463 178 
Q 3153 47 2828 -22 
Q 2503 -91 2169 -91 
Q 1331 -91 842 396 
Q 353 884 353 1716 
Q 353 2575 817 3079 
Q 1281 3584 2069 3584 
Q 2775 3584 3186 3129 
Q 3597 2675 3597 1894 
z
M 3022 2063 
Q 3016 2534 2758 2815 
Q 2500 3097 2075 3097 
Q 1594 3097 1305 2825 
Q 1016 2553 972 2059 
L 3022 2063 
z
" transform="scale(0.015625)"/>
      <path id="DejaVuSans-64" d="M 2906 2969 
L 2906 4863 
L 3481 4863 
L 3481 0 
L 2906 0 
L 2906 525 
Q 2725 213 2448 61 
Q 2172 -91 1784 -91 
Q 1150 -91 751 415 
Q 353 922 353 1747 
Q 353 2572 751 3078 
Q 1150 3584 1784 3584 
Q 2172 3584 2448 3432 
Q 2725 3281 2906 2969 
z
M 947 1747 
Q 947 1113 1208 752 
Q 1469 391 1925 391 
Q 2381 391 2643 752 
Q 2906 1113 2906 1747 
Q 2906 2381 2643 2742 
Q 2381 3103 1925 3103 
Q 1469 3103 1208 2742 
Q 947 2381 947 1747 
z
" transform="scale(0.015625)"/>
      <path id="DejaVuSans-75" d="M 544 1381 
L 544 3500 
L 1119 3500 
L 1119 1403 
Q 1119 906 1312 657 
Q 1506 409 1894 409 
Q 2359 409 2629 706 
Q 2900 1003 2900 1516 
L 2900 3500 
L 3475 3500 
L 3475 0 
L 2900 0 
L 2900 538 
Q 2691 219 2414 64 
Q 2138 -91 1772 -91 
Q 1169 -91 856 284 
Q 544 659 544 1381 
z
M 1991 3584 
L 1991 3584 
z
" transform="scale(0.015625)"/>
      <path id="DejaVuSans-74" d="M 1172 4494 
L 1172 3500 
L 2356 3500 
L 2356 3053 
L 1172 3053 
L 1172 1153 
Q 1172 725 1289 603 
Q 1406 481 1766 481 
L 2356 481 
L 2356 0 
L 1766 0 
Q 1100 0 847 248 
Q 594 497 594 1153 
L 594 3053 
L 172 3053 
L 172 3500 
L 594 3500 
L 594 4494 
L 1172 4494 
z
" transform="scale(0.015625)"/>
      <path id="DejaVuSans-63" d="M 3122 3366 
L 3122 2828 
Q 2878 2963 2633 3030 
Q 2388 3097 2138 3097 
Q 1578 3097 1268 2742 
Q 959 2388 959 1747 
Q 959 1106 1268 751 
Q 1578 397 2138 397 
Q 2388 397 2633 464 
Q 2878 531 3122 666 
L 3122 134 
Q 2881 22 2623 -34 
Q 2366 -91 2075 -91 
Q 1284 -91 818 406 
Q 353 903 353 1747 
Q 353 2603 823 3093 
Q 1294 3584 2113 3584 
Q 2378 3584 2631 3529 
Q 2884 3475 3122 3366 
z
" transform="scale(0.015625)"/>
      <path id="DejaVuSans-6e" d="M 3513 2113 
L 3513 0 
L 2938 0 
L 2938 2094 
Q 2938 2591 2744 2837 
Q 2550 3084 2163 3084 
Q 1697 3084 1428 2787 
Q 1159 2491 1159 1978 
L 1159 0 
L 581 0 
L 581 3500 
L 1159 3500 
L 1159 2956 
Q 1366 3272 1645 3428 
Q 1925 3584 2291 3584 
Q 2894 3584 3203 3211 
Q 3513 2838 3513 2113 
z
" transform="scale(0.015625)"/>
      <path id="DejaVuSans-66" d="M 2375 4863 
L 2375 4384 
L 1825 4384 
Q 1516 4384 1395 4259 
Q 1275 4134 1275 3809 
L 1275 3500 
L 2222 3500 
L 2222 3053 
L 1275 3053 
L 1275 0 
L 697 0 
L 697 3053 
L 147 3053 
L 147 3500 
L 697 3500 
L 697 3744 
Q 697 4328 969 4595 
Q 1241 4863 1831 4863 
L 2375 4863 
z
" transform="scale(0.015625)"/>
      <path id="DejaVuSans-68" d="M 3513 2113 
L 3513 0 
L 2938 0 
L 2938 2094 
Q 2938 2591 2744 2837 
Q 2550 3084 2163 3084 
Q 1697 3084 1428 2787 
Q 1159 2491 1159 1978 
L 1159 0 
L 581 0 
L 581 4863 
L 1159 4863 
L 1159 2956 
Q 1366 3272 1645 3428 
Q 1925 3584 2291 3584 
Q 2894 3584 3203 3211 
Q 3513 2838 3513 2113 
z
" transform="scale(0.015625)"/>
     </defs>
     <use xlink:href="#DejaVuSans-4e"/>
     <use xlink:href="#DejaVuSans-6f" x="74.804688"/>
     <use xlink:href="#DejaVuSans-72" x="135.986328"/>
     <use xlink:href="#DejaVuSans-6d" x="175.349609"/>
     <use xlink:href="#DejaVuSans-61" x="272.761719"/>
     <use xlink:href="#DejaVuSans-6c" x="334.041016"/>
     <use xlink:href="#DejaVuSans-69" x="361.824219"/>
     <use xlink:href="#DejaVuSans-7a" x="389.607422"/>
     <use xlink:href="#DejaVuSans-65" x="442.097656"/>
     <use xlink:href="#DejaVuSans-64" x="503.621094"/>
     <use xlink:href="#DejaVuSans-20" x="567.097656"/>
     <use xlink:href="#DejaVuSans-61" x="598.884766"/>
     <use xlink:href="#DejaVuSans-75" x="660.164062"/>
     <use xlink:href="#DejaVuSans-74" x="723.542969"/>
     <use xlink:href="#DejaVuSans-6f" x="762.751953"/>
     <use xlink:href="#DejaVuSans-63" x="823.933594"/>
     <use xlink:href="#DejaVuSans-6f" x="878.914062"/>
     <use xlink:href="#DejaVuSans-72" x="940.095703"/>
     <use xlink:href="#DejaVuSans-72" x="979.458984"/>
     <use xlink:href="#DejaVuSans-65" x="1018.322266"/>
     <use xlink:href="#DejaVuSans-6c" x="1079.845703"/>
     <use xlink:href="#DejaVuSans-61" x="1107.628906"/>
     <use xlink:href="#DejaVuSans-74" x="1168.908203"/>
     <use xlink:href="#DejaVuSans-69" x="1208.117188"/>
     <use xlink:href="#DejaVuSans-6f" x="1235.900391"/>
     <use xlink:href="#DejaVuSans-6e" x="1297.082031"/>
     <use xlink:href="#DejaVuSans-20" x="1360.460938"/>
     <use xlink:href="#DejaVuSans-61" x="1392.248047"/>
     <use xlink:href="#DejaVuSans-6e" x="1453.527344"/>
     <use xlink:href="#DejaVuSans-64" x="1516.90625"/>
     <use xlink:href="#DejaVuSans-20" x="1580.382812"/>
     <use xlink:href="#DejaVuSans-61" x="1612.169922"/>
     <use xlink:href="#DejaVuSans-72" x="1673.449219"/>
     <use xlink:href="#DejaVuSans-65" x="1712.3125"/>
     <use xlink:href="#DejaVuSans-61" x="1773.835938"/>
     <use xlink:href="#DejaVuSans-20" x="1835.115234"/>
     <use xlink:href="#DejaVuSans-64" x="1866.902344"/>
     <use xlink:href="#DejaVuSans-65" x="1930.378906"/>
     <use xlink:href="#DejaVuSans-66" x="1991.902344"/>
     <use xlink:href="#DejaVuSans-69" x="2027.107422"/>
     <use xlink:href="#DejaVuSans-6e" x="2054.890625"/>
     <use xlink:href="#DejaVuSans-69" x="2118.269531"/>
     <use xlink:href="#DejaVuSans-6e" x="2146.052734"/>
     <use xlink:href="#DejaVuSans-67" x="2209.431641"/>
     <use xlink:href="#DejaVuSans-20" x="2272.908203"/>
     <use xlink:href="#DejaVuSans-74" x="2304.695312"/>
     <use xlink:href="#DejaVuSans-68" x="2343.904297"/>
     <use xlink:href="#DejaVuSans-65" x="2407.283203"/>
     <use xlink:href="#DejaVuSans-20" x="2468.806641"/>
     <use xlink:href="#DejaVuSans-69" x="2500.59375"/>
     <use xlink:href="#DejaVuSans-6e" x="2528.376953"/>
     <use xlink:href="#DejaVuSans-74" x="2591.755859"/>
     <use xlink:href="#DejaVuSans-65" x="2630.964844"/>
     <use xlink:href="#DejaVuSans-67" x="2692.488281"/>
     <use xlink:href="#DejaVuSans-72" x="2755.964844"/>
     <use xlink:href="#DejaVuSans-61" x="2797.078125"/>
     <use xlink:href="#DejaVuSans-6c" x="2858.357422"/>
     <use xlink:href="#DejaVuSans-20" x="2886.140625"/>
     <use xlink:href="#DejaVuSans-74" x="2917.927734"/>
     <use xlink:href="#DejaVuSans-69" x="2957.136719"/>
     <use xlink:href="#DejaVuSans-6d" x="2984.919922"/>
     <use xlink:href="#DejaVuSans-65" x="3082.332031"/>
     <use xlink:href="#DejaVuSans-20" x="3143.855469"/>
     <use xlink:href="#DejaVuSans-73" x="3175.642578"/>
     <use xlink:href="#DejaVuSans-63" x="3227.742188"/>
     <use xlink:href="#DejaVuSans-61" x="3282.722656"/>
     <use xlink:href="#DejaVuSans-6c" x="3344.001953"/>
     <use xlink:href="#DejaVuSans-65" x="3371.785156"/>
    </g>
   </g>
   <g id="legend_1">
    <g id="line2d_28">
     <path d="M 538.2 38.54 
L 548.2 38.54 
L 558.2 38.54 
" style="fill: none; stroke: #1f77b4; stroke-width: 1.5; stroke-linecap: square"/>
    </g>
    <g id="text_16">
     <!-- $\rho_{xx}(\tau)$ -->
     <g transform="translate(566.2 42.04) scale(0.1 -0.1)">
      <use xlink:href="#DejaVuSans-Oblique-3c1" transform="translate(0 0.125)"/>
      <use xlink:href="#DejaVuSans-Oblique-78" transform="translate(63.476562 -16.28125) scale(0.7)"/>
      <use xlink:href="#DejaVuSans-Oblique-78" transform="translate(104.902344 -16.28125) scale(0.7)"/>
      <use xlink:href="#DejaVuSans-28" transform="translate(149.0625 0.125)"/>
      <use xlink:href="#DejaVuSans-Oblique-3c4" transform="translate(188.076172 0.125)"/>
      <use xlink:href="#DejaVuSans-29" transform="translate(248.28125 0.125)"/>
     </g>
    </g>
    <g id="line2d_29">
     <path d="M 538.2 53.24 
L 548.2 53.24 
L 558.2 53.24 
" style="fill: none; stroke-dasharray: 3.7,1.6; stroke-dashoffset: 0; stroke: #1f77b4"/>
    </g>
    <g id="text_17">
     <!-- truncation lag $\tau_m=0.149\,$s -->
     <g transform="translate(566.2 56.74) scale(0.1 -0.1)">
      <defs>
       <path id="DejaVuSans-Oblique-6d" d="M 5747 2113 
L 5338 0 
L 4763 0 
L 5166 2094 
Q 5191 2228 5203 2325 
Q 5216 2422 5216 2491 
Q 5216 2772 5059 2928 
Q 4903 3084 4622 3084 
Q 4203 3084 3875 2770 
Q 3547 2456 3450 1953 
L 3066 0 
L 2491 0 
L 2900 2094 
Q 2925 2209 2937 2307 
Q 2950 2406 2950 2484 
Q 2950 2769 2794 2926 
Q 2638 3084 2363 3084 
Q 1938 3084 1609 2770 
Q 1281 2456 1184 1953 
L 800 0 
L 225 0 
L 909 3500 
L 1484 3500 
L 1375 2956 
Q 1609 3263 1923 3423 
Q 2238 3584 2597 3584 
Q 2978 3584 3223 3384 
Q 3469 3184 3519 2828 
Q 3781 3197 4126 3390 
Q 4472 3584 4856 3584 
Q 5306 3584 5551 3325 
Q 5797 3066 5797 2591 
Q 5797 2488 5784 2364 
Q 5772 2241 5747 2113 
z
" transform="scale(0.015625)"/>
       <path id="DejaVuSans-3d" d="M 678 2906 
L 4684 2906 
L 4684 2381 
L 678 2381 
L 678 2906 
z
M 678 1631 
L 4684 1631 
L 4684 1100 
L 678 1100 
L 678 1631 
z
" transform="scale(0.015625)"/>
       <path id="DejaVuSans-39" d="M 703 97 
L 703 672 
Q 941 559 1184 500 
Q 1428 441 1663 441 
Q 2288 441 2617 861 
Q 2947 1281 2994 2138 
Q 2813 1869 2534 1725 
Q 2256 1581 1919 1581 
Q 1219 1581 811 2004 
Q 403 2428 403 3163 
Q 403 3881 828 4315 
Q 1253 4750 1959 4750 
Q 2769 4750 3195 4129 
Q 3622 3509 3622 2328 
Q 3622 1225 3098 567 
Q 2575 -91 1691 -91 
Q 1453 -91 1209 -44 
Q 966 3 703 97 
z
M 1959 2075 
Q 2384 2075 2632 2365 
Q 2881 2656 2881 3163 
Q 2881 3666 2632 3958 
Q 2384 4250 1959 4250 
Q 1534 4250 1286 3958 
Q 1038 3666 1038 3163 
Q 1038 2656 1286 2365 
Q 1534 2075 1959 2075 
z
" transform="scale(0.015625)"/>
      </defs>
      <use xlink:href="#DejaVuSans-74" transform="translate(0 0.015625)"/>
      <use xlink:href="#DejaVuSans-72" transform="translate(39.208984 0.015625)"/>
      <use xlink:href="#DejaVuSans-75" transform="translate(80.322266 0.015625)"/>
      <use xlink:href="#DejaVuSans-6e" transform="translate(143.701172 0.015625)"/>
      <use xlink:href="#DejaVuSans-63" transform="translate(207.080078 0.015625)"/>
      <use xlink:href="#DejaVuSans-61" transform="translate(262.060547 0.015625)"/>
      <use xlink:href="#DejaVuSans-74" transform="translate(323.339844 0.015625)"/>
      <use xlink:href="#DejaVuSans-69" transform="translate(362.548828 0.015625)"/>
      <use xlink:href="#DejaVuSans-6f" transform="translate(390.332031 0.015625)"/>
      <use xlink:href="#DejaVuSans-6e" transform="translate(451.513672 0.015625)"/>
      <use xlink:href="#DejaVuSans-20" transform="translate(514.892578 0.015625)"/>
      <use xlink:href="#DejaVuSans-6c" transform="translate(546.679688 0.015625)"/>
      <use xlink:href="#DejaVuSans-61" transform="translate(574.462891 0.015625)"/>
      <use xlink:href="#DejaVuSans-67" transform="translate(635.742188 0.015625)"/>
      <use xlink:href="#DejaVuSans-20" transform="translate(699.21875 0.015625)"/>
      <use xlink:href="#DejaVuSans-Oblique-3c4" transform="translate(731.005859 0.015625)"/>
      <use xlink:href="#DejaVuSans-Oblique-6d" transform="translate(791.210938 -16.390625) scale(0.7)"/>
      <use xlink:href="#DejaVuSans-3d" transform="translate(881.616211 0.015625)"/>
      <use xlink:href="#DejaVuSans-30" transform="translate(984.887695 0.015625)"/>
      <use xlink:href="#DejaVuSans-2e" transform="translate(1048.510742 0.015625)"/>
      <use xlink:href="#DejaVuSans-31" transform="translate(1080.297852 0.015625)"/>
      <use xlink:href="#DejaVuSans-34" transform="translate(1143.920898 0.015625)"/>
      <use xlink:href="#DejaVuSans-39" transform="translate(1207.543945 0.015625)"/>
      <use xlink:href="#DejaVuSans-73" transform="translate(1287.402668 0.015625)"/>
     </g>
    </g>
    <g id="patch_7">
     <path d="M 538.2 71.438437 
L 558.2 71.438437 
L 558.2 64.438437 
L 538.2 64.438437 
z
" style="fill: #1f77b4; fill-opacity: 0.3"/>
    </g>
    <g id="text_18">
     <!-- area $\approx \tau_{\mathrm{int},x}=0.047\,$s -->
     <g transform="translate(566.2 71.438437) scale(0.1 -0.1)">
      <defs>
       <path id="DejaVuSans-2248" d="M 4684 1947 
L 4684 1388 
Q 4356 1144 4076 1036 
Q 3797 928 3494 928 
Q 3150 928 2694 1113 
Q 2663 1125 2641 1134 
Q 2622 1141 2575 1159 
Q 2091 1350 1797 1350 
Q 1522 1350 1253 1231 
Q 984 1113 678 850 
L 678 1409 
Q 1006 1653 1286 1761 
Q 1566 1869 1869 1869 
Q 2213 1869 2672 1684 
Q 2706 1669 2722 1663 
Q 2741 1656 2788 1638 
Q 3272 1447 3566 1447 
Q 3834 1447 4098 1564 
Q 4363 1681 4684 1947 
z
M 4684 3163 
L 4684 2606 
Q 4356 2359 4076 2251 
Q 3797 2144 3494 2144 
Q 3150 2144 2694 2328 
Q 2663 2341 2641 2350 
Q 2622 2356 2575 2375 
Q 2091 2566 1797 2566 
Q 1522 2566 1253 2447 
Q 984 2328 678 2069 
L 678 2625 
Q 1006 2869 1286 2976 
Q 1566 3084 1869 3084 
Q 2213 3084 2672 2900 
Q 2703 2888 2719 2881 
Q 2741 2872 2788 2853 
Q 3272 2663 3566 2663 
Q 3834 2663 4098 2780 
Q 4363 2897 4684 3163 
z
" transform="scale(0.015625)"/>
       <path id="DejaVuSans-2c" d="M 750 794 
L 1409 794 
L 1409 256 
L 897 -744 
L 494 -744 
L 750 256 
L 750 794 
z
" transform="scale(0.015625)"/>
       <path id="DejaVuSans-37" d="M 525 4666 
L 3525 4666 
L 3525 4397 
L 1831 0 
L 1172 0 
L 2766 4134 
L 525 4134 
L 525 4666 
z
" transform="scale(0.015625)"/>
      </defs>
      <use xlink:href="#DejaVuSans-61" transform="translate(0 0.78125)"/>
      <use xlink:href="#DejaVuSans-72" transform="translate(61.279297 0.78125)"/>
      <use xlink:href="#DejaVuSans-65" transform="translate(102.392578 0.78125)"/>
      <use xlink:href="#DejaVuSans-61" transform="translate(163.916016 0.78125)"/>
      <use xlink:href="#DejaVuSans-20" transform="translate(225.195312 0.78125)"/>
      <use xlink:href="#DejaVuSans-2248" transform="translate(276.464844 0.78125)"/>
      <use xlink:href="#DejaVuSans-Oblique-3c4" transform="translate(379.736328 0.78125)"/>
      <use xlink:href="#DejaVuSans-69" transform="translate(439.941406 -15.625) scale(0.7)"/>
      <use xlink:href="#DejaVuSans-6e" transform="translate(459.389648 -15.625) scale(0.7)"/>
      <use xlink:href="#DejaVuSans-74" transform="translate(503.754883 -15.625) scale(0.7)"/>
      <use xlink:href="#DejaVuSans-2c" transform="translate(531.201172 -15.625) scale(0.7)"/>
      <use xlink:href="#DejaVuSans-Oblique-78" transform="translate(567.089844 -15.625) scale(0.7)"/>
      <use xlink:href="#DejaVuSans-3d" transform="translate(630.732422 0.78125)"/>
      <use xlink:href="#DejaVuSans-30" transform="translate(734.003906 0.78125)"/>
      <use xlink:href="#DejaVuSans-2e" transform="translate(797.626953 0.78125)"/>
      <use xlink:href="#DejaVuSans-30" transform="translate(829.414062 0.78125)"/>
      <use xlink:href="#DejaVuSans-34" transform="translate(893.037109 0.78125)"/>
      <use xlink:href="#DejaVuSans-37" transform="translate(956.660156 0.78125)"/>
      <use xlink:href="#DejaVuSans-73" transform="translate(1036.518879 0.78125)"/>
     </g>
    </g>
   </g>
  </g>
 </g>
 <defs>
  <clipPath id="pabda620e82">
   <rect x="50.69" y="25.44" width="658.51" height="217.72"/>
  </clipPath>
 </defs>
</svg>
