<?xml version="1.0" encoding="utf-8" standalone="no"?>
<!DOCTYPE svg PUBLIC "-//W3C//DTD SVG 1.1//EN"
  "http://www.w3.org/Graphics/SVG/1.1/DTD/svg11.dtd">
<svg xmlns:xlink="http://www.w3.org/1999/xlink" width="720pt" height="288pt" viewBox="0 0 720 288" xmlns="http://www.w3.org/2000/svg" version="1.1">
 <metadata>
  <rdf:RDF xmlns:dc="http://purl.org/dc/elements/1.1/" xmlns:cc="http://creativecommons.org/ns#" xmlns:rdf="http://www.w3.org/1999/02/22-rdf-syntax-ns#">
   <cc:Work>
    <dc:type rdf:resource="http://purl.org/dc/dcmitype/StillImage"/>
    <dc:date>2026-04-24T12:43:15.828901</dc:date>
    <dc:format>image/svg+xml</dc:format>
    <dc:creator>
     <cc:Agent>
      <dc:title>Matplotlib v3.9.2, https://matplotlib.org/</dc:title>
     </cc:Agent>
    </dc:creator>
   </cc:Work>
  </rdf:RDF>
 </metadata>
 <defs>
  <style type="text/css">*{stroke-linejoin: round; stroke-linecap: butt}</style>
 </defs>
 <g id="figure_1">
  <g id="patch_1">
   <path d="M 0 288 
L 720 288 
L 720 0 
L 0 0 
z
" style="fill: #ffffff"/>
  </g>
  <g id="axes_1">
   <g id="patch_2">
    <path d="M 46.64 246.04 
L 709.2 246.04 
L 709.2 39.3504 
L 46.64 39.3504 
z
" style="fill: #ffffff"/>
   </g>
   <g id="patch_3">
    <path d="M 76.756364 246.04 
L 104.966829 246.04 
L 104.966829 39.3504 
L 76.756364 39.3504 
z
" clip-path="url(#p6fb7d89c2c)" style="fill: #1f77b4; opacity: 0.15"/>
   </g>
   <g id="patch_4">
    <path d="M 133.177295 246.04 
L 161.38776 246.04 
L 161.38776 39.3504 
L 133.177295 39.3504 
z
" clip-path="url(#p6fb7d89c2c)" style="fill: #1f77b4; opacity: 0.15"/>
   </g>
   <g id="patch_5">
    <path d="M 189.598226 246.04 
L 217.808692 246.04 
L 217.808692 39.3504 
L 189.598226 39.3504 
z
" clip-path="url(#p6fb7d89c2c)" style="fill: #1f77b4; opacity: 0.15"/>
   </g>
   <g id="patch_6">
    <path d="M 246.019157 246.04 
L 274.229623 246.04 
L 274.229623 39.3504 
L 246.019157 39.3504 
z
" clip-path="url(#p6fb7d89c2c)" style="fill: #1f77b4; opacity: 0.15"/>
   </g>
   <g id="patch_7">
    <path d="M 302.440088 246.04 
L 330.650554 246.04 
L 330.650554 39.3504 
L 302.440088 39.3504 
z
" clip-path="url(#p6fb7d89c2c)" style="fill: #1f77b4; opacity: 0.15"/>
   </g>
   <g id="patch_8">
    <path d="M 358.86102 246.04 
L 387.071485 246.04 
L 387.071485 39.3504 
L 358.86102 39.3504 
z
" clip-path="url(#p6fb7d89c2c)" style="fill: #1f77b4; opacity: 0.15"/>
   </g>
   <g id="patch_9">
    <path d="M 415.281951 246.04 
L 443.492416 246.04 
L 443.492416 39.3504 
L 415.281951 39.3504 
z
" clip-path="url(#p6fb7d89c2c)" style="fill: #1f77b4; opacity: 0.15"/>
   </g>
   <g id="patch_10">
    <path d="M 471.702882 246.04 
L 499.913347 246.04 
L 499.913347 39.3504 
L 471.702882 39.3504 
z
" clip-path="url(#p6fb7d89c2c)" style="fill: #1f77b4; opacity: 0.15"/>
   </g>
   <g id="patch_11">
    <path d="M 528.123813 246.04 
L 556.334279 246.04 
L 556.334279 39.3504 
L 528.123813 39.3504 
z
" clip-path="url(#p6fb7d89c2c)" style="fill: #1f77b4; opacity: 0.15"/>
   </g>
   <g id="patch_12">
    <path d="M 584.544744 246.04 
L 612.75521 246.04 
L 612.75521 39.3504 
L 584.544744 39.3504 
z
" clip-path="url(#p6fb7d89c2c)" style="fill: #1f77b4; opacity: 0.15"/>
   </g>
   <g id="patch_13">
    <path d="M 640.965675 246.04 
L 669.176141 246.04 
L 669.176141 39.3504 
L 640.965675 39.3504 
z
" clip-path="url(#p6fb7d89c2c)" style="fill: #1f77b4; opacity: 0.15"/>
   </g>
   <g id="matplotlib.axis_1">
    <g id="xtick_1">
     <g id="line2d_1">
      <path d="M 76.756364 246.04 
L 76.756364 39.3504 
" clip-path="url(#p6fb7d89c2c)" style="fill: none; stroke: #b0b0b0; stroke-width: 0.8; stroke-linecap: square"/>
     </g>
     <g id="line2d_2">
      <defs>
       <path id="mace57e636d" d="M 0 0 
L 0 3.5 
" style="stroke: #000000; stroke-width: 0.8"/>
      </defs>
      <g>
       <use xlink:href="#mace57e636d" x="76.756364" y="246.04" style="stroke: #000000; stroke-width: 0.8"/>
      </g>
     </g>
     <g id="text_1">
      <!-- 0.00 -->
      <g transform="translate(65.623551 260.638438) scale(0.1 -0.1)">
       <defs>
        <path id="DejaVuSans-30" d="M 2034 4250 
Q 1547 4250 1301 3770 
Q 1056 3291 1056 2328 
Q 1056 1369 1301 889 
Q 1547 409 2034 409 
Q 2525 409 2770 889 
Q 3016 1369 3016 2328 
Q 3016 3291 2770 3770 
Q 2525 4250 2034 4250 
z
M 2034 4750 
Q 2819 4750 3233 4129 
Q 3647 3509 3647 2328 
Q 3647 1150 3233 529 
Q 2819 -91 2034 -91 
Q 1250 -91 836 529 
Q 422 1150 422 2328 
Q 422 3509 836 4129 
Q 1250 4750 2034 4750 
z
" transform="scale(0.015625)"/>
        <path id="DejaVuSans-2e" d="M 684 794 
L 1344 794 
L 1344 0 
L 684 0 
L 684 794 
z
" transform="scale(0.015625)"/>
       </defs>
       <use xlink:href="#DejaVuSans-30"/>
       <use xlink:href="#DejaVuSans-2e" x="63.623047"/>
       <use xlink:href="#DejaVuSans-30" x="95.410156"/>
       <use xlink:href="#DejaVuSans-30" x="159.033203"/>
      </g>
     </g>
    </g>
    <g id="xtick_2">
     <g id="line2d_3">
      <path d="M 152.047273 246.04 
L 152.047273 39.3504 
" clip-path="url(#p6fb7d89c2c)" style="fill: none; stroke: #b0b0b0; stroke-width: 0.8; stroke-linecap: square"/>
     </g>
     <g id="line2d_4">
      <g>
       <use xlink:href="#mace57e636d" x="152.047273" y="246.04" style="stroke: #000000; stroke-width: 0.8"/>
      </g>
     </g>
     <g id="text_2">
      <!-- 0.25 -->
      <g transform="translate(140.91446 260.638438) scale(0.1 -0.1)">
       <defs>
        <path id="DejaVuSans-32" d="M 1228 531 
L 3431 531 
L 3431 0 
L 469 0 
L 469 531 
Q 828 903 1448 1529 
Q 2069 2156 2228 2338 
Q 2531 2678 2651 2914 
Q 2772 3150 2772 3378 
Q 2772 3750 2511 3984 
Q 2250 4219 1831 4219 
Q 1534 4219 1204 4116 
Q 875 4013 500 3803 
L 500 4441 
Q 881 4594 1212 4672 
Q 1544 4750 1819 4750 
Q 2544 4750 2975 4387 
Q 3406 4025 3406 3419 
Q 3406 3131 3298 2873 
Q 3191 2616 2906 2266 
Q 2828 2175 2409 1742 
Q 1991 1309 1228 531 
z
" transform="scale(0.015625)"/>
        <path id="DejaVuSans-35" d="M 691 4666 
L 3169 4666 
L 3169 4134 
L 1269 4134 
L 1269 2991 
Q 1406 3038 1543 3061 
Q 1681 3084 1819 3084 
Q 2600 3084 3056 2656 
Q 3513 2228 3513 1497 
Q 3513 744 3044 326 
Q 2575 -91 1722 -91 
Q 1428 -91 1123 -41 
Q 819 9 494 109 
L 494 744 
Q 775 591 1075 516 
Q 1375 441 1709 441 
Q 2250 441 2565 725 
Q 2881 1009 2881 1497 
Q 2881 1984 2565 2268 
Q 2250 2553 1709 2553 
Q 1456 2553 1204 2497 
Q 953 2441 691 2322 
L 691 4666 
z
" transform="scale(0.015625)"/>
       </defs>
       <use xlink:href="#DejaVuSans-30"/>
       <use xlink:href="#DejaVuSans-2e" x="63.623047"/>
       <use xlink:href="#DejaVuSans-32" x="95.410156"/>
       <use xlink:href="#DejaVuSans-35" x="159.033203"/>
      </g>
     </g>
    </g>
    <g id="xtick_3">
     <g id="line2d_5">
      <path d="M 227.338182 246.04 
L 227.338182 39.3504 
" clip-path="url(#p6fb7d89c2c)" style="fill: none; stroke: #b0b0b0; stroke-width: 0.8; stroke-linecap: square"/>
     </g>
     <g id="line2d_6">
      <g>
       <use xlink:href="#mace57e636d" x="227.338182" y="246.04" style="stroke: #000000; stroke-width: 0.8"/>
      </g>
     </g>
     <g id="text_3">
      <!-- 0.50 -->
      <g transform="translate(216.205369 260.638438) scale(0.1 -0.1)">
       <use xlink:href="#DejaVuSans-30"/>
       <use xlink:href="#DejaVuSans-2e" x="63.623047"/>
       <use xlink:href="#DejaVuSans-35" x="95.410156"/>
       <use xlink:href="#DejaVuSans-30" x="159.033203"/>
      </g>
     </g>
    </g>
    <g id="xtick_4">
     <g id="line2d_7">
      <path d="M 302.629091 246.04 
L 302.629091 39.3504 
" clip-path="url(#p6fb7d89c2c)" style="fill: none; stroke: #b0b0b0; stroke-width: 0.8; stroke-linecap: square"/>
     </g>
     <g id="line2d_8">
      <g>
       <use xlink:href="#mace57e636d" x="302.629091" y="246.04" style="stroke: #000000; stroke-width: 0.8"/>
      </g>
     </g>
     <g id="text_4">
      <!-- 0.75 -->
      <g transform="translate(291.496278 260.638438) scale(0.1 -0.1)">
       <defs>
        <path id="DejaVuSans-37" d="M 525 4666 
L 3525 4666 
L 3525 4397 
L 1831 0 
L 1172 0 
L 2766 4134 
L 525 4134 
L 525 4666 
z
" transform="scale(0.015625)"/>
       </defs>
       <use xlink:href="#DejaVuSans-30"/>
       <use xlink:href="#DejaVuSans-2e" x="63.623047"/>
       <use xlink:href="#DejaVuSans-37" x="95.410156"/>
       <use xlink:href="#DejaVuSans-35" x="159.033203"/>
      </g>
     </g>
    </g>
    <g id="xtick_5">
     <g id="line2d_9">
      <path d="M 377.92 246.04 
L 377.92 39.3504 
" clip-path="url(#p6fb7d89c2c)" style="fill: none; stroke: #b0b0b0; stroke-width: 0.8; stroke-linecap: square"/>
     </g>
     <g id="line2d_10">
      <g>
       <use xlink:href="#mace57e636d" x="377.92" y="246.04" style="stroke: #000000; stroke-width: 0.8"/>
      </g>
     </g>
     <g id="text_5">
      <!-- 1.00 -->
      <g transform="translate(366.787188 260.638438) scale(0.1 -0.1)">
       <defs>
        <path id="DejaVuSans-31" d="M 794 531 
L 1825 531 
L 1825 4091 
L 703 3866 
L 703 4441 
L 1819 4666 
L 2450 4666 
L 2450 531 
L 3481 531 
L 3481 0 
L 794 0 
L 794 531 
z
" transform="scale(0.015625)"/>
       </defs>
       <use xlink:href="#DejaVuSans-31"/>
       <use xlink:href="#DejaVuSans-2e" x="63.623047"/>
       <use xlink:href="#DejaVuSans-30" x="95.410156"/>
       <use xlink:href="#DejaVuSans-30" x="159.033203"/>
      </g>
     </g>
    </g>
    <g id="xtick_6">
     <g id="line2d_11">
      <path d="M 453.210909 246.04 
L 453.210909 39.3504 
" clip-path="url(#p6fb7d89c2c)" style="fill: none; stroke: #b0b0b0; stroke-width: 0.8; stroke-linecap: square"/>
     </g>
     <g id="line2d_12">
      <g>
       <use xlink:href="#mace57e636d" x="453.210909" y="246.04" style="stroke: #000000; stroke-width: 0.8"/>
      </g>
     </g>
     <g id="text_6">
      <!-- 1.25 -->
      <g transform="translate(442.078097 260.638438) scale(0.1 -0.1)">
       <use xlink:href="#DejaVuSans-31"/>
       <use xlink:href="#DejaVuSans-2e" x="63.623047"/>
       <use xlink:href="#DejaVuSans-32" x="95.410156"/>
       <use xlink:href="#DejaVuSans-35" x="159.033203"/>
      </g>
     </g>
    </g>
    <g id="xtick_7">
     <g id="line2d_13">
      <path d="M 528.501818 246.04 
L 528.501818 39.3504 
" clip-path="url(#p6fb7d89c2c)" style="fill: none; stroke: #b0b0b0; stroke-width: 0.8; stroke-linecap: square"/>
     </g>
     <g id="line2d_14">
      <g>
       <use xlink:href="#mace57e636d" x="528.501818" y="246.04" style="stroke: #000000; stroke-width: 0.8"/>
      </g>
     </g>
     <g id="text_7">
      <!-- 1.50 -->
      <g transform="translate(517.369006 260.638438) scale(0.1 -0.1)">
       <use xlink:href="#DejaVuSans-31"/>
       <use xlink:href="#DejaVuSans-2e" x="63.623047"/>
       <use xlink:href="#DejaVuSans-35" x="95.410156"/>
       <use xlink:href="#DejaVuSans-30" x="159.033203"/>
      </g>
     </g>
    </g>
    <g id="xtick_8">
     <g id="line2d_15">
      <path d="M 603.792727 246.04 
L 603.792727 39.3504 
" clip-path="url(#p6fb7d89c2c)" style="fill: none; stroke: #b0b0b0; stroke-width: 0.8; stroke-linecap: square"/>
     </g>
     <g id="line2d_16">
      <g>
       <use xlink:href="#mace57e636d" x="603.792727" y="246.04" style="stroke: #000000; stroke-width: 0.8"/>
      </g>
     </g>
     <g id="text_8">
      <!-- 1.75 -->
      <g transform="translate(592.659915 260.638438) scale(0.1 -0.1)">
       <use xlink:href="#DejaVuSans-31"/>
       <use xlink:href="#DejaVuSans-2e" x="63.623047"/>
       <use xlink:href="#DejaVuSans-37" x="95.410156"/>
       <use xlink:href="#DejaVuSans-35" x="159.033203"/>
      </g>
     </g>
    </g>
    <g id="xtick_9">
     <g id="line2d_17">
      <path d="M 679.083636 246.04 
L 679.083636 39.3504 
" clip-path="url(#p6fb7d89c2c)" style="fill: none; stroke: #b0b0b0; stroke-width: 0.8; stroke-linecap: square"/>
     </g>
     <g id="line2d_18">
      <g>
       <use xlink:href="#mace57e636d" x="679.083636" y="246.04" style="stroke: #000000; stroke-width: 0.8"/>
      </g>
     </g>
     <g id="text_9">
      <!-- 2.00 -->
      <g transform="translate(667.950824 260.638438) scale(0.1 -0.1)">
       <use xlink:href="#DejaVuSans-32"/>
       <use xlink:href="#DejaVuSans-2e" x="63.623047"/>
       <use xlink:href="#DejaVuSans-30" x="95.410156"/>
       <use xlink:href="#DejaVuSans-30" x="159.033203"/>
      </g>
     </g>
    </g>
    <g id="text_10">
     <!-- Time [s] -->
     <g transform="translate(357.591094 274.316562) scale(0.1 -0.1)">
      <defs>
       <path id="DejaVuSans-54" d="M -19 4666 
L 3928 4666 
L 3928 4134 
L 2272 4134 
L 2272 0 
L 1638 0 
L 1638 4134 
L -19 4134 
L -19 4666 
z
" transform="scale(0.015625)"/>
       <path id="DejaVuSans-69" d="M 603 3500 
L 1178 3500 
L 1178 0 
L 603 0 
L 603 3500 
z
M 603 4863 
L 1178 4863 
L 1178 4134 
L 603 4134 
L 603 4863 
z
" transform="scale(0.015625)"/>
       <path id="DejaVuSans-6d" d="M 3328 2828 
Q 3544 3216 3844 3400 
Q 4144 3584 4550 3584 
Q 5097 3584 5394 3201 
Q 5691 2819 5691 2113 
L 5691 0 
L 5113 0 
L 5113 2094 
Q 5113 2597 4934 2840 
Q 4756 3084 4391 3084 
Q 3944 3084 3684 2787 
Q 3425 2491 3425 1978 
L 3425 0 
L 2847 0 
L 2847 2094 
Q 2847 2600 2669 2842 
Q 2491 3084 2119 3084 
Q 1678 3084 1418 2786 
Q 1159 2488 1159 1978 
L 1159 0 
L 581 0 
L 581 3500 
L 1159 3500 
L 1159 2956 
Q 1356 3278 1631 3431 
Q 1906 3584 2284 3584 
Q 2666 3584 2933 3390 
Q 3200 3197 3328 2828 
z
" transform="scale(0.015625)"/>
       <path id="DejaVuSans-65" d="M 3597 1894 
L 3597 1613 
L 953 1613 
Q 991 1019 1311 708 
Q 1631 397 2203 397 
Q 2534 397 2845 478 
Q 3156 559 3463 722 
L 3463 178 
Q 3153 47 2828 -22 
Q 2503 -91 2169 -91 
Q 1331 -91 842 396 
Q 353 884 353 1716 
Q 353 2575 817 3079 
Q 1281 3584 2069 3584 
Q 2775 3584 3186 3129 
Q 3597 2675 3597 1894 
z
M 3022 2063 
Q 3016 2534 2758 2815 
Q 2500 3097 2075 3097 
Q 1594 3097 1305 2825 
Q 1016 2553 972 2059 
L 3022 2063 
z
" transform="scale(0.015625)"/>
       <path id="DejaVuSans-20" transform="scale(0.015625)"/>
       <path id="DejaVuSans-5b" d="M 550 4863 
L 1875 4863 
L 1875 4416 
L 1125 4416 
L 1125 -397 
L 1875 -397 
L 1875 -844 
L 550 -844 
L 550 4863 
z
" transform="scale(0.015625)"/>
       <path id="DejaVuSans-73" d="M 2834 3397 
L 2834 2853 
Q 2591 2978 2328 3040 
Q 2066 3103 1784 3103 
Q 1356 3103 1142 2972 
Q 928 2841 928 2578 
Q 928 2378 1081 2264 
Q 1234 2150 1697 2047 
L 1894 2003 
Q 2506 1872 2764 1633 
Q 3022 1394 3022 966 
Q 3022 478 2636 193 
Q 2250 -91 1575 -91 
Q 1294 -91 989 -36 
Q 684 19 347 128 
L 347 722 
Q 666 556 975 473 
Q 1284 391 1588 391 
Q 1994 391 2212 530 
Q 2431 669 2431 922 
Q 2431 1156 2273 1281 
Q 2116 1406 1581 1522 
L 1381 1569 
Q 847 1681 609 1914 
Q 372 2147 372 2553 
Q 372 3047 722 3315 
Q 1072 3584 1716 3584 
Q 2034 3584 2315 3537 
Q 2597 3491 2834 3397 
z
" transform="scale(0.015625)"/>
       <path id="DejaVuSans-5d" d="M 1947 4863 
L 1947 -844 
L 622 -844 
L 622 -397 
L 1369 -397 
L 1369 4416 
L 622 4416 
L 622 4863 
L 1947 4863 
z
" transform="scale(0.015625)"/>
      </defs>
      <use xlink:href="#DejaVuSans-54"/>
      <use xlink:href="#DejaVuSans-69" x="57.958984"/>
      <use xlink:href="#DejaVuSans-6d" x="85.742188"/>
      <use xlink:href="#DejaVuSans-65" x="183.154297"/>
      <use xlink:href="#DejaVuSans-20" x="244.677734"/>
      <use xlink:href="#DejaVuSans-5b" x="276.464844"/>
      <use xlink:href="#DejaVuSans-73" x="315.478516"/>
      <use xlink:href="#DejaVuSans-5d" x="367.578125"/>
     </g>
    </g>
   </g>
   <g id="matplotlib.axis_2">
    <g id="ytick_1">
     <g id="line2d_19">
      <path d="M 46.64 219.836312 
L 709.2 219.836312 
" clip-path="url(#p6fb7d89c2c)" style="fill: none; stroke: #b0b0b0; stroke-width: 0.8; stroke-linecap: square"/>
     </g>
     <g id="line2d_20">
      <defs>
       <path id="m602dadadc4" d="M 0 0 
L -3.5 0 
" style="stroke: #000000; stroke-width: 0.8"/>
      </defs>
      <g>
       <use xlink:href="#m602dadadc4" x="46.64" y="219.836312" style="stroke: #000000; stroke-width: 0.8"/>
      </g>
     </g>
     <g id="text_11">
      <!-- −2 -->
      <g transform="translate(24.897813 223.635531) scale(0.1 -0.1)">
       <defs>
        <path id="DejaVuSans-2212" d="M 678 2272 
L 4684 2272 
L 4684 1741 
L 678 1741 
L 678 2272 
z
" transform="scale(0.015625)"/>
       </defs>
       <use xlink:href="#DejaVuSans-2212"/>
       <use xlink:href="#DejaVuSans-32" x="83.789062"/>
      </g>
     </g>
    </g>
    <g id="ytick_2">
     <g id="line2d_21">
      <path d="M 46.64 183.517057 
L 709.2 183.517057 
" clip-path="url(#p6fb7d89c2c)" style="fill: none; stroke: #b0b0b0; stroke-width: 0.8; stroke-linecap: square"/>
     </g>
     <g id="line2d_22">
      <g>
       <use xlink:href="#m602dadadc4" x="46.64" y="183.517057" style="stroke: #000000; stroke-width: 0.8"/>
      </g>
     </g>
     <g id="text_12">
      <!-- −1 -->
      <g transform="translate(24.897813 187.316276) scale(0.1 -0.1)">
       <use xlink:href="#DejaVuSans-2212"/>
       <use xlink:href="#DejaVuSans-31" x="83.789062"/>
      </g>
     </g>
    </g>
    <g id="ytick_3">
     <g id="line2d_23">
      <path d="M 46.64 147.197801 
L 709.2 147.197801 
" clip-path="url(#p6fb7d89c2c)" style="fill: none; stroke: #b0b0b0; stroke-width: 0.8; stroke-linecap: square"/>
     </g>
     <g id="line2d_24">
      <g>
       <use xlink:href="#m602dadadc4" x="46.64" y="147.197801" style="stroke: #000000; stroke-width: 0.8"/>
      </g>
     </g>
     <g id="text_13">
      <!-- 0 -->
      <g transform="translate(33.2775 150.99702) scale(0.1 -0.1)">
       <use xlink:href="#DejaVuSans-30"/>
      </g>
     </g>
    </g>
    <g id="ytick_4">
     <g id="line2d_25">
      <path d="M 46.64 110.878546 
L 709.2 110.878546 
" clip-path="url(#p6fb7d89c2c)" style="fill: none; stroke: #b0b0b0; stroke-width: 0.8; stroke-linecap: square"/>
     </g>
     <g id="line2d_26">
      <g>
       <use xlink:href="#m602dadadc4" x="46.64" y="110.878546" style="stroke: #000000; stroke-width: 0.8"/>
      </g>
     </g>
     <g id="text_14">
      <!-- 1 -->
      <g transform="translate(33.2775 114.677764) scale(0.1 -0.1)">
       <use xlink:href="#DejaVuSans-31"/>
      </g>
     </g>
    </g>
    <g id="ytick_5">
     <g id="line2d_27">
      <path d="M 46.64 74.55929 
L 709.2 74.55929 
" clip-path="url(#p6fb7d89c2c)" style="fill: none; stroke: #b0b0b0; stroke-width: 0.8; stroke-linecap: square"/>
     </g>
     <g id="line2d_28">
      <g>
       <use xlink:href="#m602dadadc4" x="46.64" y="74.55929" style="stroke: #000000; stroke-width: 0.8"/>
      </g>
     </g>
     <g id="text_15">
      <!-- 2 -->
      <g transform="translate(33.2775 78.358509) scale(0.1 -0.1)">
       <use xlink:href="#DejaVuSans-32"/>
      </g>
     </g>
    </g>
    <g id="text_16">
     <!-- x(t) -->
     <g transform="translate(18.818125 151.516294) rotate(-90) scale(0.1 -0.1)">
      <defs>
       <path id="DejaVuSans-78" d="M 3513 3500 
L 2247 1797 
L 3578 0 
L 2900 0 
L 1881 1375 
L 863 0 
L 184 0 
L 1544 1831 
L 300 3500 
L 978 3500 
L 1906 2253 
L 2834 3500 
L 3513 3500 
z
" transform="scale(0.015625)"/>
       <path id="DejaVuSans-28" d="M 1984 4856 
Q 1566 4138 1362 3434 
Q 1159 2731 1159 2009 
Q 1159 1288 1364 580 
Q 1569 -128 1984 -844 
L 1484 -844 
Q 1016 -109 783 600 
Q 550 1309 550 2009 
Q 550 2706 781 3412 
Q 1013 4119 1484 4856 
L 1984 4856 
z
" transform="scale(0.015625)"/>
       <path id="DejaVuSans-74" d="M 1172 4494 
L 1172 3500 
L 2356 3500 
L 2356 3053 
L 1172 3053 
L 1172 1153 
Q 1172 725 1289 603 
Q 1406 481 1766 481 
L 2356 481 
L 2356 0 
L 1766 0 
Q 1100 0 847 248 
Q 594 497 594 1153 
L 594 3053 
L 172 3053 
L 172 3500 
L 594 3500 
L 594 4494 
L 1172 4494 
z
" transform="scale(0.015625)"/>
       <path id="DejaVuSans-29" d="M 513 4856 
L 1013 4856 
Q 1481 4119 1714 3412 
Q 1947 2706 1947 2009 
Q 1947 1309 1714 600 
Q 1481 -109 1013 -844 
L 513 -844 
Q 928 -128 1133 580 
Q 1338 1288 1338 2009 
Q 1338 2731 1133 3434 
Q 928 4138 513 4856 
z
" transform="scale(0.015625)"/>
      </defs>
      <use xlink:href="#DejaVuSans-78"/>
      <use xlink:href="#DejaVuSans-28" x="59.179688"/>
      <use xlink:href="#DejaVuSans-74" x="98.193359"/>
      <use xlink:href="#DejaVuSans-29" x="137.402344"/>
     </g>
    </g>
   </g>
   <g id="line2d_29">
    <path d="M 76.756364 147.197801 
L 77.057527 132.51989 
L 77.358691 151.1904 
L 77.659855 148.104452 
L 78.262182 155.326711 
L 78.563345 156.716282 
L 78.864509 171.055169 
L 79.165673 172.250776 
L 79.466836 177.977145 
L 79.768 153.469278 
L 80.069164 151.721279 
L 80.671491 156.052716 
L 80.972655 160.681842 
L 81.273818 168.003287 
L 81.574982 170.401879 
L 81.876145 166.476346 
L 82.177309 167.810238 
L 82.478473 160.514062 
L 82.779636 161.687322 
L 83.0808 161.22594 
L 83.381964 149.830908 
L 83.683127 145.858471 
L 83.984291 149.518503 
L 84.285455 150.787494 
L 84.586618 146.829057 
L 84.887782 132.919564 
L 85.490109 137.131714 
L 85.791273 130.122583 
L 86.092436 136.83595 
L 86.3936 139.139126 
L 86.694764 132.951642 
L 86.995927 129.059966 
L 87.297091 128.760948 
L 87.598255 124.306756 
L 87.899418 145.099647 
L 88.200582 137.796144 
L 88.501745 144.883896 
L 88.802909 156.930119 
L 89.104073 154.74926 
L 89.405236 149.561542 
L 89.7064 152.713422 
L 90.007564 160.345516 
L 90.308727 159.897289 
L 90.609891 160.025171 
L 90.911055 149.662371 
L 91.212218 144.23835 
L 91.513382 142.903065 
L 91.814545 134.993447 
L 92.115709 136.713193 
L 92.416873 143.5797 
L 93.0192 135.414795 
L 93.320364 137.193123 
L 93.621527 143.021043 
L 93.922691 141.455716 
L 94.223855 159.505042 
L 94.826182 150.623668 
L 95.127345 162.342188 
L 95.428509 161.601066 
L 95.729673 168.249488 
L 96.030836 162.386843 
L 96.332 176.715434 
L 96.633164 182.70782 
L 96.934327 176.901507 
L 97.235491 167.996713 
L 97.536655 183.104841 
L 97.837818 185.975644 
L 98.138982 182.848731 
L 98.440145 186.524165 
L 98.741309 174.305862 
L 99.042473 182.336167 
L 99.343636 179.090653 
L 99.6448 185.99907 
L 99.945964 175.119329 
L 100.247127 174.722157 
L 100.548291 176.854296 
L 100.849455 188.623925 
L 101.150618 175.708255 
L 101.752945 163.864211 
L 102.054109 155.350763 
L 102.355273 152.677751 
L 102.9576 162.724375 
L 103.258764 168.171818 
L 103.559927 157.903198 
L 103.861091 168.194008 
L 104.162255 172.067234 
L 104.463418 173.885113 
L 104.764582 171.74125 
L 105.065745 167.117451 
L 105.366909 175.70629 
L 105.668073 187.583719 
L 105.969236 186.815771 
L 106.571564 171.262802 
L 106.872727 169.235363 
L 107.173891 171.079914 
L 107.475055 168.498134 
L 107.776218 169.82638 
L 108.077382 163.501106 
L 108.378545 168.891797 
L 108.679709 167.496798 
L 108.980873 167.891561 
L 109.282036 163.574058 
L 109.5832 161.634228 
L 109.884364 143.008992 
L 110.486691 121.844354 
L 110.787855 137.014119 
L 111.089018 139.663263 
L 111.390182 144.189472 
L 111.691345 140.417806 
L 111.992509 156.942394 
L 112.594836 140.607238 
L 113.197164 157.082024 
L 113.498327 162.648184 
L 113.799491 162.03087 
L 114.100655 157.127411 
L 114.401818 142.202775 
L 114.702982 143.721674 
L 115.004145 138.27077 
L 115.305309 137.329801 
L 115.606473 124.868137 
L 115.907636 119.972833 
L 116.2088 110.669563 
L 116.509964 119.14331 
L 116.811127 121.081386 
L 117.112291 127.451026 
L 117.413455 117.018736 
L 117.714618 112.886697 
L 118.316945 119.637207 
L 118.618109 116.697323 
L 119.220436 129.531014 
L 119.5216 126.419603 
L 119.822764 109.116651 
L 120.123927 111.640855 
L 120.425091 116.342613 
L 121.027418 135.409574 
L 121.328582 131.867415 
L 121.629745 126.052159 
L 121.930909 126.404888 
L 122.232073 124.424791 
L 122.8344 123.50341 
L 123.135564 134.948443 
L 123.436727 138.485698 
L 123.737891 137.856471 
L 124.039055 143.673832 
L 124.340218 147.170005 
L 124.641382 153.061516 
L 124.942545 155.343853 
L 125.243709 149.047154 
L 125.544873 151.934585 
L 125.846036 152.947399 
L 126.448364 142.348655 
L 126.749527 130.253056 
L 127.050691 145.622965 
L 127.351855 139.491779 
L 127.653018 143.112866 
L 127.954182 142.225074 
L 128.556509 128.724078 
L 128.857673 121.615065 
L 129.158836 121.006138 
L 129.46 109.948373 
L 129.761164 112.721059 
L 130.062327 114.41766 
L 130.363491 109.317965 
L 130.664655 114.033404 
L 130.965818 99.149266 
L 131.266982 92.770747 
L 131.568145 78.202141 
L 131.869309 79.759571 
L 132.170473 83.850039 
L 132.471636 83.903031 
L 132.7728 79.873413 
L 133.073964 85.431196 
L 133.375127 83.923513 
L 133.676291 85.297281 
L 133.977455 74.90331 
L 134.278618 81.100865 
L 134.579782 74.885871 
L 135.182109 89.168821 
L 135.483273 95.426213 
L 135.784436 105.010955 
L 136.0856 104.793786 
L 136.386764 98.216806 
L 136.687927 98.004972 
L 136.989091 94.489025 
L 137.290255 83.794435 
L 137.591418 83.107926 
L 137.892582 82.973419 
L 138.193745 86.223338 
L 138.494909 98.996893 
L 138.796073 94.487434 
L 139.097236 108.163306 
L 139.3984 104.242313 
L 139.699564 105.195878 
L 140.000727 97.923969 
L 140.301891 99.387047 
L 140.603055 106.254067 
L 140.904218 104.490783 
L 141.205382 109.365552 
L 141.506545 111.416089 
L 141.807709 111.823488 
L 142.410036 115.516861 
L 142.7112 122.130975 
L 143.012364 123.987547 
L 143.313527 139.825689 
L 143.614691 141.10317 
L 143.915855 149.840048 
L 144.518182 132.706172 
L 144.819345 147.024541 
L 145.120509 145.985757 
L 145.421673 146.918543 
L 145.722836 154.451857 
L 146.024 150.484666 
L 146.325164 153.739967 
L 146.626327 166.322668 
L 146.927491 167.86186 
L 147.228655 168.518893 
L 147.529818 167.331275 
L 147.830982 175.787404 
L 148.433309 165.036934 
L 148.734473 172.924272 
L 149.035636 177.153221 
L 149.3368 177.137835 
L 149.637964 180.615012 
L 149.939127 167.412548 
L 150.240291 165.513696 
L 150.842618 177.587456 
L 151.143782 177.399016 
L 151.444945 160.290177 
L 151.746109 161.312974 
L 152.047273 160.116689 
L 152.348436 156.163959 
L 152.6496 156.274995 
L 152.950764 139.693165 
L 153.251927 143.664396 
L 153.553091 138.382191 
L 153.854255 137.402912 
L 154.155418 133.129334 
L 154.456582 141.870106 
L 154.757745 129.259664 
L 155.058909 130.488866 
L 155.360073 130.574029 
L 155.9624 143.064717 
L 156.263564 139.088653 
L 157.167055 118.739669 
L 157.468218 114.164706 
L 157.769382 114.614113 
L 158.371709 105.725641 
L 158.672873 107.270163 
L 158.974036 102.839004 
L 159.2752 94.47087 
L 159.576364 93.827939 
L 159.877527 97.446494 
L 160.178691 93.262798 
L 160.479855 80.661144 
L 161.082182 85.418295 
L 161.383345 87.622557 
L 161.684509 80.006512 
L 161.985673 94.549777 
L 162.286836 92.961186 
L 162.588 85.460602 
L 162.889164 92.532781 
L 163.190327 82.906772 
L 163.491491 80.329977 
L 163.792655 85.602613 
L 164.093818 85.354144 
L 164.394982 97.614513 
L 164.696145 102.663809 
L 164.997309 90.406888 
L 165.298473 97.959497 
L 165.599636 85.668663 
L 165.9008 87.473684 
L 166.201964 81.50287 
L 166.503127 82.488017 
L 166.804291 99.889676 
L 167.105455 104.944841 
L 167.406618 104.416114 
L 168.008945 123.897449 
L 168.310109 121.725286 
L 168.611273 126.900148 
L 168.912436 139.498143 
L 169.2136 144.570635 
L 169.514764 138.432392 
L 169.815927 142.013052 
L 170.117091 135.393007 
L 170.418255 124.642895 
L 170.719418 124.855667 
L 171.321745 143.055927 
L 171.622909 143.326754 
L 171.924073 137.067017 
L 172.225236 135.332912 
L 172.5264 131.632081 
L 172.827564 135.128734 
L 173.128727 133.207133 
L 173.731055 139.419888 
L 174.333382 160.1415 
L 174.634545 163.35134 
L 175.236873 177.420991 
L 175.538036 171.996483 
L 175.8392 172.275542 
L 176.140364 150.821117 
L 176.441527 144.08729 
L 176.742691 148.70265 
L 177.043855 143.077568 
L 177.345018 140.593087 
L 177.646182 145.65516 
L 177.947345 137.756048 
L 178.248509 143.519027 
L 178.549673 165.587181 
L 178.850836 159.512281 
L 179.152 163.707651 
L 179.453164 152.693428 
L 179.754327 157.256929 
L 180.055491 165.553826 
L 180.356655 154.054103 
L 180.657818 161.653124 
L 180.958982 159.904119 
L 181.260145 149.226349 
L 181.561309 148.362737 
L 181.862473 148.919221 
L 182.163636 148.148525 
L 182.4648 142.095381 
L 182.765964 147.998859 
L 183.368291 139.512573 
L 183.669455 122.888319 
L 183.970618 125.789908 
L 184.271782 132.793099 
L 184.572945 127.787407 
L 184.874109 131.02804 
L 185.175273 129.268953 
L 185.476436 128.670502 
L 185.7776 120.634495 
L 186.078764 125.884337 
L 186.379927 126.970029 
L 186.681091 145.724886 
L 186.982255 152.155585 
L 187.283418 141.008351 
L 187.885745 151.100146 
L 188.186909 159.781837 
L 188.488073 155.362596 
L 188.789236 153.92085 
L 189.0904 162.323451 
L 189.391564 157.223764 
L 189.692727 155.154603 
L 189.993891 149.57418 
L 190.295055 154.140526 
L 190.596218 141.503614 
L 190.897382 138.668675 
L 191.198545 139.678211 
L 191.499709 143.558469 
L 191.800873 145.391285 
L 192.102036 139.250784 
L 192.4032 141.342504 
L 192.704364 133.704636 
L 193.005527 129.795703 
L 193.306691 120.456545 
L 193.607855 115.131171 
L 193.909018 116.21878 
L 194.210182 130.563824 
L 194.511345 128.745935 
L 194.812509 123.436418 
L 195.113673 122.735434 
L 195.414836 119.218068 
L 196.017164 126.376135 
L 196.318327 133.565918 
L 196.619491 124.041313 
L 196.920655 123.3607 
L 197.221818 127.374575 
L 197.522982 137.345537 
L 197.824145 138.643182 
L 198.125309 128.437439 
L 198.426473 125.486865 
L 198.727636 131.127395 
L 199.329964 111.406853 
L 200.233455 92.842245 
L 200.534618 90.011539 
L 200.835782 85.570241 
L 201.136945 92.400346 
L 201.438109 82.700867 
L 201.739273 82.315387 
L 202.040436 69.042389 
L 202.3416 85.277438 
L 202.642764 81.430374 
L 202.943927 75.674167 
L 203.245091 79.556738 
L 203.546255 77.642225 
L 204.148582 70.94186 
L 204.449745 76.332958 
L 204.750909 78.756967 
L 205.353236 65.070698 
L 205.955564 67.039216 
L 206.256727 67.18453 
L 206.557891 61.306203 
L 207.160218 81.662802 
L 207.461382 82.066431 
L 207.762545 91.314068 
L 208.063709 96.643023 
L 208.364873 97.023451 
L 208.666036 94.546884 
L 208.9672 103.299728 
L 209.268364 98.40397 
L 209.569527 112.126379 
L 209.870691 108.898309 
L 210.473018 130.691139 
L 210.774182 126.399252 
L 211.075345 129.733572 
L 211.376509 135.800895 
L 211.677673 139.22532 
L 211.978836 136.038758 
L 212.581164 137.068624 
L 212.882327 129.683439 
L 213.484655 138.814375 
L 213.785818 142.737597 
L 214.689309 118.675061 
L 214.990473 119.482577 
L 215.291636 121.15907 
L 215.5928 115.541687 
L 215.893964 119.005055 
L 216.496291 109.045825 
L 216.797455 114.823458 
L 217.399782 117.536978 
L 217.700945 105.65844 
L 218.002109 87.869829 
L 218.303273 89.76326 
L 218.604436 90.799389 
L 218.9056 108.324885 
L 219.206764 107.573319 
L 219.507927 108.408516 
L 219.809091 116.892289 
L 220.110255 111.84253 
L 220.411418 123.803222 
L 220.712582 125.811648 
L 221.013745 125.23649 
L 221.314909 134.653929 
L 221.917236 121.514863 
L 222.519564 142.420264 
L 222.820727 138.183527 
L 223.121891 138.581351 
L 223.423055 147.464154 
L 223.724218 149.582096 
L 224.326545 151.275245 
L 224.627709 145.243361 
L 224.928873 142.518979 
L 225.5312 120.344623 
L 225.832364 115.996894 
L 226.735855 95.961942 
L 227.037018 105.791791 
L 227.338182 100.430916 
L 227.639345 100.837192 
L 227.940509 90.113005 
L 228.241673 90.571111 
L 228.542836 87.909554 
L 228.844 86.712831 
L 229.145164 75.819452 
L 229.446327 75.958576 
L 229.747491 79.307688 
L 230.048655 78.429072 
L 230.349818 82.951646 
L 230.650982 83.058449 
L 230.952145 84.38223 
L 231.253309 83.672603 
L 231.554473 71.098584 
L 231.855636 75.523101 
L 232.1568 76.676451 
L 232.457964 79.507575 
L 232.759127 76.010634 
L 233.060291 85.917899 
L 233.361455 92.113305 
L 233.662618 93.488053 
L 233.963782 90.623783 
L 234.264945 92.076869 
L 234.566109 96.766303 
L 234.867273 103.998975 
L 235.168436 101.173939 
L 235.4696 91.713248 
L 235.770764 90.489856 
L 236.071927 90.259716 
L 236.373091 88.194913 
L 236.674255 96.142634 
L 237.276582 102.268536 
L 237.577745 101.03488 
L 237.878909 102.17929 
L 238.180073 111.81884 
L 238.481236 104.426951 
L 238.7824 93.102384 
L 239.083564 96.06641 
L 239.384727 94.210489 
L 239.685891 93.338332 
L 239.987055 88.761666 
L 240.288218 100.561104 
L 240.589382 89.884106 
L 240.890545 94.3837 
L 241.191709 86.33741 
L 241.492873 86.962355 
L 241.794036 90.956708 
L 242.0952 93.080466 
L 242.396364 87.69976 
L 242.697527 95.086422 
L 243.299855 103.242271 
L 243.601018 116.449835 
L 243.902182 107.706268 
L 244.203345 104.324992 
L 244.504509 105.327224 
L 244.805673 97.787471 
L 245.106836 105.644327 
L 245.408 106.995378 
L 245.709164 95.382662 
L 246.010327 89.363092 
L 246.311491 106.513322 
L 246.612655 131.282639 
L 246.913818 139.062192 
L 247.214982 131.590735 
L 247.516145 135.297518 
L 247.817309 137.099135 
L 248.118473 132.924526 
L 248.419636 139.573367 
L 248.7208 138.193362 
L 249.021964 132.675039 
L 249.624291 127.104752 
L 249.925455 131.832425 
L 250.226618 128.438022 
L 250.527782 131.884927 
L 250.828945 122.803206 
L 251.130109 104.802621 
L 251.431273 110.963368 
L 251.732436 127.319473 
L 252.0336 130.772775 
L 252.334764 128.387812 
L 252.937091 113.96248 
L 253.539418 126.496849 
L 253.840582 117.792563 
L 254.141745 126.231075 
L 254.442909 118.805502 
L 254.744073 120.999443 
L 255.948727 101.568054 
L 256.249891 109.5871 
L 256.551055 108.192125 
L 256.852218 108.863931 
L 257.153382 107.404979 
L 257.454545 99.323636 
L 257.755709 102.221368 
L 258.358036 114.24036 
L 258.6592 117.128309 
L 258.960364 112.311089 
L 259.261527 118.861895 
L 259.562691 111.085816 
L 259.863855 109.712008 
L 260.165018 112.080425 
L 260.466182 122.352782 
L 260.767345 121.083232 
L 261.068509 116.627416 
L 261.369673 129.93181 
L 261.670836 121.701348 
L 261.972 110.355921 
L 262.273164 108.650993 
L 262.574327 105.877474 
L 262.875491 89.336825 
L 263.176655 81.62302 
L 263.477818 89.377991 
L 263.778982 90.642609 
L 264.381309 95.051519 
L 264.682473 113.08746 
L 264.983636 108.318651 
L 265.2848 113.667798 
L 265.585964 113.154786 
L 265.887127 114.807971 
L 266.188291 109.184577 
L 266.489455 112.06469 
L 266.790618 118.480943 
L 267.091782 115.220492 
L 267.392945 105.750008 
L 267.694109 108.870748 
L 267.995273 99.777263 
L 268.296436 98.83068 
L 268.5976 103.619704 
L 268.898764 93.513957 
L 269.199927 100.464377 
L 269.501091 94.096914 
L 269.802255 98.731243 
L 270.103418 96.453057 
L 270.705745 113.166611 
L 271.006909 106.180815 
L 271.308073 105.640104 
L 271.609236 106.187605 
L 271.9104 110.162681 
L 272.211564 107.685019 
L 272.813891 127.138624 
L 273.115055 128.670621 
L 273.717382 140.316809 
L 274.018545 140.9673 
L 274.319709 142.0797 
L 274.620873 143.781272 
L 274.922036 131.872571 
L 275.524364 116.501975 
L 275.825527 117.312329 
L 276.126691 121.533696 
L 276.427855 132.498052 
L 276.729018 135.292867 
L 277.030182 150.530405 
L 277.331345 154.662574 
L 277.632509 149.018497 
L 277.933673 137.3207 
L 278.234836 130.571814 
L 278.536 137.097501 
L 278.837164 133.75468 
L 279.138327 139.696393 
L 279.439491 133.926256 
L 279.740655 134.989939 
L 280.041818 129.059655 
L 280.342982 110.915027 
L 280.644145 104.998851 
L 280.945309 89.059899 
L 281.246473 88.934974 
L 281.547636 92.459924 
L 282.149964 72.80315 
L 282.451127 78.267825 
L 282.752291 79.081607 
L 283.053455 90.747268 
L 283.354618 93.303756 
L 283.655782 87.982209 
L 283.956945 89.77602 
L 284.258109 95.006773 
L 284.559273 106.160833 
L 284.860436 104.325002 
L 285.462764 96.093957 
L 285.763927 95.269698 
L 286.065091 105.460785 
L 286.366255 93.616633 
L 286.667418 95.08421 
L 286.968582 97.157477 
L 287.269745 92.877256 
L 287.570909 109.510109 
L 287.872073 110.720011 
L 288.173236 112.426085 
L 288.4744 110.43722 
L 288.775564 101.476605 
L 289.076727 98.98597 
L 289.377891 113.11674 
L 289.679055 116.230167 
L 289.980218 115.365221 
L 290.281382 114.937149 
L 290.883709 137.199693 
L 291.184873 133.449285 
L 291.486036 131.250883 
L 291.7872 131.719847 
L 292.088364 144.435245 
L 292.389527 131.731307 
L 292.690691 152.895506 
L 292.991855 155.401204 
L 293.293018 140.199593 
L 293.594182 141.470345 
L 293.895345 139.91475 
L 294.196509 148.539166 
L 294.497673 138.741519 
L 294.798836 148.205268 
L 295.1 146.355584 
L 295.401164 145.402044 
L 295.702327 152.994218 
L 296.003491 146.500451 
L 296.304655 156.697566 
L 296.605818 161.424952 
L 296.906982 161.349656 
L 297.208145 164.036038 
L 297.509309 160.33824 
L 297.810473 153.432411 
L 298.111636 155.421724 
L 298.713964 162.634284 
L 299.015127 164.957905 
L 299.316291 158.783387 
L 299.617455 160.118808 
L 299.918618 156.931287 
L 300.219782 157.394105 
L 300.520945 163.265441 
L 300.822109 156.735569 
L 301.123273 164.012108 
L 301.424436 163.634589 
L 301.7256 152.61472 
L 302.026764 160.36888 
L 302.327927 160.504981 
L 302.629091 171.638933 
L 302.930255 174.818593 
L 303.231418 185.020548 
L 303.532582 186.872075 
L 303.833745 189.957807 
L 304.134909 188.161987 
L 304.436073 175.956844 
L 304.737236 173.352205 
L 305.0384 168.100844 
L 305.339564 168.051575 
L 305.640727 169.397211 
L 305.941891 174.955476 
L 306.243055 187.357265 
L 306.544218 186.06855 
L 306.845382 173.582503 
L 307.146545 169.634591 
L 307.447709 173.030662 
L 307.748873 160.656915 
L 308.050036 163.501754 
L 308.3512 167.629495 
L 308.953527 182.296024 
L 309.254691 183.372829 
L 309.555855 168.27993 
L 309.857018 169.345256 
L 310.158182 176.325181 
L 310.459345 180.102479 
L 310.760509 181.053703 
L 311.061673 192.693913 
L 311.362836 190.882342 
L 311.664 184.978252 
L 311.965164 181.922927 
L 312.266327 176.914966 
L 312.868655 197.056238 
L 313.470982 178.168495 
L 313.772145 188.63253 
L 314.073309 186.327809 
L 314.374473 185.369391 
L 314.675636 180.694822 
L 314.9768 178.531423 
L 315.277964 181.522215 
L 315.880291 177.67044 
L 316.181455 177.416763 
L 316.482618 190.140638 
L 316.783782 210.831242 
L 317.084945 215.254107 
L 317.386109 225.663475 
L 317.687273 222.293371 
L 317.988436 215.656345 
L 318.2896 212.408497 
L 318.590764 213.774815 
L 318.891927 211.949617 
L 319.193091 202.272145 
L 319.494255 206.423052 
L 320.096582 192.51012 
L 320.397745 189.730892 
L 320.698909 178.446668 
L 321.000073 182.990317 
L 321.301236 175.503249 
L 322.204727 193.302119 
L 322.505891 189.182854 
L 322.807055 195.110074 
L 323.108218 193.786223 
L 323.409382 201.038732 
L 323.710545 192.304283 
L 324.011709 178.205696 
L 324.312873 175.965797 
L 324.614036 163.577374 
L 324.9152 159.220848 
L 325.216364 143.381501 
L 325.517527 142.739942 
L 325.818691 154.122409 
L 326.119855 143.265289 
L 326.421018 144.251967 
L 326.722182 151.759903 
L 327.023345 156.38931 
L 327.324509 167.903581 
L 327.625673 168.69966 
L 327.926836 175.978224 
L 328.228 164.734383 
L 328.529164 159.608232 
L 329.131491 181.681615 
L 329.432655 185.076375 
L 329.733818 198.170866 
L 330.034982 197.951235 
L 330.336145 197.258721 
L 330.637309 201.825328 
L 330.938473 204.673916 
L 331.239636 199.948156 
L 331.841964 177.101147 
L 332.143127 176.262279 
L 332.444291 169.531656 
L 332.745455 174.399531 
L 333.046618 170.898205 
L 333.347782 177.330689 
L 333.648945 171.487061 
L 334.251273 186.205358 
L 334.552436 185.49297 
L 334.8536 180.728912 
L 335.154764 190.408036 
L 335.455927 193.411821 
L 336.058255 188.99975 
L 336.359418 194.204504 
L 336.660582 192.576947 
L 336.961745 193.600299 
L 337.262909 182.58539 
L 337.564073 177.87956 
L 337.865236 186.794668 
L 338.1664 201.843787 
L 338.467564 200.043393 
L 338.768727 190.495648 
L 339.069891 188.388787 
L 339.371055 181.229495 
L 339.672218 184.041304 
L 339.973382 193.120817 
L 340.274545 186.827733 
L 340.575709 185.331434 
L 340.876873 179.659416 
L 341.178036 188.952599 
L 341.4792 186.8201 
L 341.780364 190.534013 
L 342.081527 183.875061 
L 342.985018 194.245754 
L 343.286182 184.225724 
L 343.587345 183.284936 
L 343.888509 188.036121 
L 344.490836 201.152575 
L 344.792 189.565253 
L 345.093164 201.777842 
L 345.394327 206.812699 
L 345.695491 201.044656 
L 345.996655 191.502894 
L 346.297818 191.691978 
L 347.201309 171.225739 
L 347.502473 170.416146 
L 347.803636 158.054169 
L 348.1048 156.284865 
L 348.405964 144.970561 
L 348.707127 152.801877 
L 349.008291 145.782358 
L 349.610618 165.156258 
L 349.911782 161.021365 
L 350.212945 166.499253 
L 350.514109 162.686609 
L 350.815273 169.854054 
L 351.116436 157.608154 
L 351.4176 157.075413 
L 351.718764 164.749637 
L 352.019927 162.851107 
L 352.321091 155.89534 
L 352.622255 160.950747 
L 352.923418 156.638421 
L 353.224582 141.396516 
L 353.525745 134.927385 
L 353.826909 134.888092 
L 354.128073 138.868172 
L 354.429236 134.508466 
L 354.7304 145.291465 
L 355.031564 166.807409 
L 355.332727 170.83055 
L 355.633891 177.759128 
L 355.935055 164.20986 
L 356.236218 162.464219 
L 356.838545 176.358755 
L 357.139709 171.767279 
L 357.440873 176.827178 
L 357.742036 179.996768 
L 358.0432 179.565719 
L 358.946691 174.219656 
L 359.549018 150.797703 
L 359.850182 162.12483 
L 360.151345 142.797678 
L 360.452509 141.452697 
L 360.753673 132.110227 
L 361.054836 137.214671 
L 361.657164 132.737605 
L 361.958327 131.685318 
L 362.560655 120.692318 
L 362.861818 127.915726 
L 363.162982 128.609821 
L 363.765309 118.195173 
L 364.367636 122.650772 
L 364.6688 123.70291 
L 365.271127 140.596761 
L 365.572291 128.899653 
L 365.873455 131.562131 
L 366.174618 130.644213 
L 366.475782 135.810058 
L 367.078109 113.435298 
L 367.379273 115.14367 
L 367.680436 111.537049 
L 367.9816 117.131136 
L 368.282764 104.491057 
L 368.583927 98.13668 
L 368.885091 104.607151 
L 369.186255 95.934485 
L 370.089745 89.35857 
L 370.692073 99.152987 
L 370.993236 95.097333 
L 371.2944 95.959959 
L 371.595564 103.273205 
L 371.896727 89.016074 
L 372.197891 91.161448 
L 372.800218 101.312229 
L 373.101382 96.751892 
L 373.402545 90.237746 
L 373.703709 89.097368 
L 374.004873 83.498855 
L 374.306036 95.045522 
L 374.908364 102.121153 
L 375.209527 102.491053 
L 375.510691 99.38254 
L 375.811855 114.522008 
L 376.113018 92.218001 
L 376.414182 99.079226 
L 376.715345 97.09355 
L 377.317673 86.211629 
L 377.618836 85.250692 
L 377.92 106.981468 
L 378.221164 115.18119 
L 378.522327 109.953511 
L 379.124655 124.743777 
L 379.425818 141.765207 
L 379.726982 132.763851 
L 380.028145 129.04722 
L 380.329309 135.512293 
L 380.931636 137.050454 
L 381.2328 145.012558 
L 381.533964 146.775351 
L 381.835127 144.717887 
L 382.136291 140.568693 
L 382.437455 131.38178 
L 382.738618 131.284678 
L 383.039782 134.733621 
L 383.340945 131.902728 
L 383.642109 136.559936 
L 383.943273 145.605018 
L 384.244436 137.252215 
L 384.5456 140.035777 
L 384.846764 139.157158 
L 385.147927 134.497106 
L 385.449091 142.56971 
L 386.051418 134.710816 
L 386.352582 135.524036 
L 386.653745 132.779014 
L 386.954909 138.36903 
L 387.256073 154.269672 
L 387.557236 156.031308 
L 387.8584 162.27592 
L 388.159564 155.598158 
L 388.460727 153.397685 
L 388.761891 156.954336 
L 389.063055 156.289395 
L 389.665382 137.974931 
L 390.267709 132.383415 
L 390.568873 134.549566 
L 390.870036 135.611709 
L 391.1712 131.478076 
L 391.472364 132.52424 
L 391.773527 130.541214 
L 392.074691 138.774292 
L 392.677018 162.854084 
L 392.978182 165.573734 
L 393.580509 146.749481 
L 393.881673 153.816619 
L 394.182836 164.766755 
L 394.484 158.601424 
L 394.785164 154.93084 
L 395.086327 164.510166 
L 395.387491 156.446494 
L 395.688655 154.89514 
L 395.989818 145.109633 
L 396.290982 142.576509 
L 396.592145 136.152671 
L 396.893309 133.948856 
L 397.194473 140.954584 
L 397.495636 142.645235 
L 397.7968 147.50369 
L 398.097964 141.418736 
L 398.399127 148.593837 
L 398.700291 159.493672 
L 399.001455 154.238866 
L 399.904945 127.555611 
L 400.206109 138.692683 
L 400.808436 147.697542 
L 401.1096 147.759729 
L 401.410764 163.153262 
L 401.711927 162.819582 
L 402.013091 160.433247 
L 402.314255 166.92454 
L 402.615418 165.601637 
L 402.916582 156.585156 
L 403.217745 155.98545 
L 403.820073 140.734622 
L 404.4224 135.175392 
L 404.723564 138.005916 
L 405.024727 129.180563 
L 405.325891 132.843715 
L 405.627055 138.061885 
L 405.928218 133.083932 
L 406.229382 138.503789 
L 406.530545 135.530506 
L 406.831709 128.076179 
L 407.132873 127.790605 
L 407.434036 127.329738 
L 408.036364 116.036753 
L 408.638691 137.358646 
L 408.939855 127.880957 
L 409.241018 125.35707 
L 409.843345 150.381128 
L 410.144509 150.029743 
L 410.445673 156.911023 
L 410.746836 153.229057 
L 411.048 152.425103 
L 411.349164 148.669026 
L 411.650327 156.915109 
L 411.951491 152.124719 
L 412.252655 137.799387 
L 412.553818 143.565359 
L 413.156145 127.098084 
L 413.457309 122.713599 
L 413.758473 123.519024 
L 414.3608 138.645248 
L 414.963127 126.235498 
L 415.565455 111.203028 
L 415.866618 105.252518 
L 416.167782 109.040803 
L 416.468945 118.314409 
L 416.770109 117.248329 
L 417.071273 114.07239 
L 417.372436 113.939356 
L 417.6736 125.359811 
L 417.974764 129.36113 
L 418.275927 140.164308 
L 418.577091 139.081076 
L 418.878255 146.619536 
L 419.179418 147.65565 
L 419.480582 145.14913 
L 419.781745 144.023869 
L 420.082909 134.064137 
L 420.384073 142.089377 
L 420.685236 157.710909 
L 420.9864 150.520248 
L 421.588727 129.828412 
L 421.889891 127.929582 
L 422.191055 124.234864 
L 422.492218 123.606083 
L 422.793382 133.182824 
L 423.094545 137.36088 
L 423.395709 133.774728 
L 423.696873 137.980008 
L 423.998036 124.230255 
L 424.2992 135.551733 
L 424.600364 138.686302 
L 424.901527 130.652357 
L 425.202691 135.131639 
L 426.106182 157.822027 
L 426.407345 146.529357 
L 427.009673 139.513605 
L 427.310836 143.173439 
L 427.612 136.952596 
L 427.913164 136.156925 
L 428.214327 142.768008 
L 428.515491 145.875776 
L 428.816655 144.211265 
L 429.117818 135.615266 
L 429.418982 136.02646 
L 429.720145 132.414 
L 430.021309 117.943013 
L 430.322473 124.026598 
L 430.623636 133.16719 
L 430.9248 126.13121 
L 431.225964 123.152847 
L 431.527127 124.090689 
L 431.828291 122.403635 
L 432.129455 125.017944 
L 432.430618 121.498608 
L 432.731782 124.173854 
L 433.032945 118.627012 
L 433.635273 133.375191 
L 433.936436 132.559082 
L 434.2376 135.973978 
L 434.538764 130.938315 
L 434.839927 131.306849 
L 435.141091 135.263201 
L 435.442255 133.730585 
L 435.743418 137.531781 
L 436.345745 156.535309 
L 436.646909 161.845808 
L 436.948073 164.663366 
L 437.249236 163.338669 
L 437.5504 156.186916 
L 437.851564 151.756088 
L 438.453891 129.278002 
L 438.755055 130.686946 
L 439.357382 110.591326 
L 439.658545 114.262966 
L 439.959709 112.358857 
L 440.260873 104.858082 
L 440.562036 103.635103 
L 440.8632 96.863996 
L 441.164364 94.689253 
L 441.465527 90.340159 
L 441.766691 93.423647 
L 442.067855 91.430113 
L 442.369018 94.816761 
L 442.670182 90.657114 
L 442.971345 103.586089 
L 443.272509 101.704279 
L 443.573673 93.274967 
L 443.874836 89.83022 
L 444.176 90.810553 
L 444.477164 87.71162 
L 445.079491 101.313276 
L 445.380655 104.463422 
L 445.681818 106.033504 
L 445.982982 99.561958 
L 446.284145 106.596675 
L 446.585309 99.865212 
L 446.886473 111.775978 
L 447.187636 117.799628 
L 447.4888 118.309169 
L 447.789964 110.218265 
L 448.091127 115.02748 
L 448.392291 130.744679 
L 448.693455 127.714503 
L 448.994618 127.974189 
L 449.596945 143.201275 
L 449.898109 147.949315 
L 450.199273 146.89432 
L 450.500436 141.795566 
L 450.8016 152.201984 
L 451.102764 135.309922 
L 451.403927 135.48633 
L 451.705091 138.069627 
L 452.006255 133.082008 
L 452.307418 132.250272 
L 452.608582 115.416881 
L 452.909745 107.836755 
L 454.1144 120.768605 
L 454.415564 116.132373 
L 454.716727 121.07314 
L 455.017891 109.671262 
L 455.319055 110.68657 
L 455.620218 112.140814 
L 455.921382 105.695452 
L 456.222545 120.438088 
L 456.523709 127.386339 
L 456.824873 123.160313 
L 457.126036 123.243702 
L 457.4272 123.495768 
L 457.728364 120.802406 
L 458.029527 125.340735 
L 458.330691 126.696327 
L 458.933018 149.9798 
L 459.234182 140.527001 
L 459.836509 151.92282 
L 460.438836 133.687997 
L 461.041164 141.169165 
L 461.342327 141.588587 
L 461.643491 148.280281 
L 461.944655 144.0298 
L 462.546982 141.637533 
L 463.149309 130.818105 
L 463.751636 107.012241 
L 464.0528 119.826801 
L 464.353964 113.632688 
L 464.956291 132.554341 
L 465.257455 127.452497 
L 465.558618 132.617019 
L 465.859782 134.901184 
L 466.160945 127.172662 
L 466.763273 138.525626 
L 467.064436 136.070829 
L 467.3656 127.217967 
L 467.666764 123.53445 
L 467.967927 134.900303 
L 468.269091 139.549906 
L 468.570255 140.51907 
L 468.871418 126.492824 
L 469.774909 106.059724 
L 470.076073 108.820731 
L 470.6784 102.86992 
L 470.979564 110.496783 
L 471.280727 111.06743 
L 471.581891 107.448869 
L 471.883055 115.724502 
L 472.786545 98.376234 
L 473.087709 104.638791 
L 473.388873 104.433621 
L 473.690036 94.552683 
L 473.9912 89.618721 
L 474.292364 96.1529 
L 474.593527 95.270033 
L 474.894691 85.808801 
L 475.195855 87.300188 
L 475.497018 85.474934 
L 475.798182 67.953967 
L 476.400509 71.567816 
L 477.002836 85.842267 
L 477.304 76.117693 
L 477.605164 78.274126 
L 478.207491 95.554346 
L 478.508655 96.295852 
L 478.809818 91.566241 
L 479.110982 97.790756 
L 479.412145 93.415743 
L 479.713309 97.776819 
L 480.014473 95.987998 
L 480.6168 89.581207 
L 480.917964 93.64725 
L 481.219127 95.753955 
L 481.520291 92.972471 
L 481.821455 103.203114 
L 482.122618 102.699972 
L 482.423782 99.763725 
L 482.724945 93.085068 
L 483.026109 94.324808 
L 483.327273 96.608794 
L 483.628436 96.513825 
L 483.9296 102.719006 
L 484.230764 105.042756 
L 484.531927 102.885792 
L 484.833091 101.696356 
L 485.134255 110.071721 
L 485.435418 113.127367 
L 485.736582 128.989357 
L 486.037745 123.584212 
L 486.338909 127.880906 
L 486.640073 126.556551 
L 486.941236 134.891913 
L 487.2424 135.776029 
L 487.543564 132.839972 
L 487.844727 126.120656 
L 488.145891 136.389031 
L 488.447055 130.614983 
L 488.748218 132.20754 
L 489.049382 138.167189 
L 489.350545 135.014103 
L 489.952873 139.901706 
L 490.254036 145.21661 
L 490.5552 143.767427 
L 490.856364 143.692622 
L 491.157527 145.136633 
L 491.458691 152.175976 
L 491.759855 155.88923 
L 492.061018 152.95876 
L 492.362182 143.78842 
L 492.663345 144.187281 
L 492.964509 134.223993 
L 493.265673 134.699454 
L 493.566836 142.927503 
L 493.868 138.615937 
L 494.169164 145.870588 
L 494.470327 143.149057 
L 494.771491 135.67827 
L 495.072655 138.263182 
L 495.373818 139.216967 
L 495.674982 121.78231 
L 496.277309 119.472444 
L 496.578473 114.547744 
L 497.1808 117.425644 
L 497.481964 115.412095 
L 497.783127 133.362486 
L 498.084291 123.599981 
L 498.686618 140.04979 
L 498.987782 136.450226 
L 499.288945 136.599638 
L 499.590109 145.918118 
L 499.891273 144.550468 
L 500.192436 152.921117 
L 500.4936 157.938216 
L 500.794764 168.648878 
L 501.095927 174.290697 
L 501.397091 171.028413 
L 501.698255 169.80034 
L 501.999418 167.259342 
L 502.300582 160.369719 
L 502.601745 160.544765 
L 502.902909 165.148247 
L 503.204073 166.930326 
L 503.505236 154.83573 
L 503.8064 154.572983 
L 504.107564 152.263364 
L 504.408727 152.983388 
L 504.709891 151.238266 
L 505.011055 148.191723 
L 505.312218 148.367466 
L 505.613382 149.586958 
L 506.215709 161.324385 
L 506.516873 158.25428 
L 507.1192 146.189297 
L 507.420364 145.953444 
L 507.721527 152.03011 
L 508.323855 143.249222 
L 508.625018 154.243536 
L 509.227345 144.399259 
L 509.528509 132.627048 
L 510.130836 150.566349 
L 510.432 144.983905 
L 510.733164 158.036791 
L 511.034327 163.187335 
L 511.636655 177.74069 
L 511.937818 190.928882 
L 512.238982 191.882418 
L 512.540145 184.114212 
L 513.142473 176.578594 
L 513.443636 178.662534 
L 513.7448 167.765306 
L 514.045964 163.668592 
L 514.347127 155.897446 
L 514.648291 166.926586 
L 514.949455 164.144829 
L 515.250618 172.083696 
L 515.551782 169.161301 
L 515.852945 167.371445 
L 516.154109 175.112993 
L 516.455273 173.351252 
L 516.756436 164.563631 
L 517.358764 156.203659 
L 518.262255 174.446971 
L 518.563418 172.981169 
L 518.864582 163.964922 
L 519.165745 160.527176 
L 519.466909 160.287867 
L 519.768073 168.058879 
L 520.069236 164.468924 
L 520.3704 165.836765 
L 520.972727 190.865952 
L 521.273891 192.430373 
L 521.575055 197.940503 
L 521.876218 185.097803 
L 522.177382 184.089067 
L 522.478545 190.784362 
L 522.779709 193.405465 
L 523.080873 181.069618 
L 523.382036 187.173164 
L 523.6832 180.847096 
L 523.984364 177.024549 
L 524.285527 165.896041 
L 524.586691 161.700561 
L 524.887855 164.270106 
L 525.189018 160.130508 
L 525.490182 159.368722 
L 525.791345 152.120746 
L 526.092509 152.431804 
L 526.393673 138.123491 
L 526.694836 138.985688 
L 526.996 135.950118 
L 527.297164 140.81908 
L 527.598327 139.983547 
L 527.899491 139.865721 
L 528.200655 138.72228 
L 528.501818 132.366672 
L 528.802982 136.428762 
L 529.104145 142.622128 
L 529.405309 134.693182 
L 529.706473 136.900435 
L 530.007636 141.803782 
L 530.609964 128.163641 
L 530.911127 147.37015 
L 531.212291 149.969183 
L 531.814618 138.163256 
L 532.115782 141.898797 
L 532.416945 130.692234 
L 532.718109 136.565365 
L 533.019273 138.300688 
L 533.320436 137.425019 
L 533.6216 137.516838 
L 534.223927 124.646549 
L 534.525091 125.259281 
L 534.826255 115.532107 
L 535.127418 120.900792 
L 535.428582 122.783938 
L 535.729745 110.790016 
L 536.030909 110.63862 
L 536.332073 103.544626 
L 536.9344 109.803304 
L 537.235564 111.106076 
L 537.536727 110.39322 
L 537.837891 113.337491 
L 538.139055 113.678522 
L 538.440218 109.337184 
L 538.741382 101.24384 
L 539.042545 101.152673 
L 539.343709 97.197185 
L 539.644873 91.43369 
L 539.946036 100.009764 
L 540.2472 111.96573 
L 540.849527 92.103869 
L 541.150691 92.545072 
L 541.451855 90.874736 
L 541.753018 98.489594 
L 542.054182 109.110563 
L 542.355345 107.36494 
L 542.656509 118.548421 
L 542.957673 112.343116 
L 543.258836 117.663513 
L 543.56 115.934644 
L 544.162327 89.624544 
L 544.463491 92.480983 
L 544.764655 85.6981 
L 545.065818 94.067926 
L 545.366982 99.08781 
L 545.668145 97.168844 
L 545.969309 88.014151 
L 546.270473 93.079155 
L 546.571636 90.059561 
L 546.8728 90.251609 
L 547.173964 100.21345 
L 547.475127 101.897869 
L 547.776291 91.855493 
L 548.077455 93.410125 
L 548.378618 90.679561 
L 548.679782 85.664731 
L 548.980945 91.96036 
L 549.583273 74.330045 
L 550.1856 56.185043 
L 550.787927 66.846179 
L 551.691418 88.478649 
L 551.992582 82.360906 
L 552.293745 72.993883 
L 552.594909 78.888895 
L 552.896073 74.267512 
L 553.197236 84.623214 
L 553.4984 88.046581 
L 553.799564 96.208298 
L 554.100727 108.748635 
L 554.401891 108.983974 
L 554.703055 109.046335 
L 555.305382 116.910314 
L 555.606545 124.463001 
L 555.907709 125.751863 
L 556.208873 130.377299 
L 556.510036 128.881385 
L 556.8112 137.796984 
L 557.112364 136.259486 
L 557.413527 132.717126 
L 558.015855 116.830811 
L 558.317018 115.983367 
L 558.618182 121.426539 
L 558.919345 135.003275 
L 559.220509 135.225383 
L 559.822836 113.704514 
L 560.124 132.55806 
L 560.425164 138.222244 
L 560.726327 140.859851 
L 561.027491 148.406635 
L 561.328655 146.988984 
L 561.629818 146.662323 
L 561.930982 150.335191 
L 562.232145 150.479507 
L 562.533309 161.803402 
L 563.135636 174.413063 
L 563.4368 167.380833 
L 563.737964 178.62591 
L 564.039127 179.488363 
L 564.340291 173.213142 
L 564.641455 173.042737 
L 564.942618 166.656498 
L 565.243782 170.91817 
L 565.544945 167.275196 
L 565.846109 160.335375 
L 566.147273 143.982705 
L 566.448436 138.768837 
L 566.7496 128.620665 
L 567.050764 128.848481 
L 567.351927 128.441568 
L 567.653091 117.468606 
L 567.954255 113.79305 
L 568.255418 104.180261 
L 568.556582 99.848512 
L 569.158909 69.447119 
L 569.460073 76.897594 
L 569.761236 64.817909 
L 570.363564 61.324764 
L 570.664727 63.726787 
L 570.965891 60.077355 
L 571.568218 76.268452 
L 571.869382 83.015891 
L 572.170545 82.043921 
L 572.772873 72.467704 
L 573.074036 71.116447 
L 573.3752 76.698089 
L 573.676364 90.559521 
L 573.977527 88.581835 
L 574.278691 88.493846 
L 574.579855 86.883386 
L 574.881018 77.606298 
L 575.483345 82.658525 
L 575.784509 100.382173 
L 576.085673 97.076194 
L 576.386836 98.207704 
L 576.688 104.280377 
L 576.989164 102.143342 
L 577.290327 110.332473 
L 577.591491 114.747293 
L 577.892655 101.064071 
L 579.097309 82.415713 
L 579.398473 82.104686 
L 579.699636 66.759157 
L 580.0008 68.687668 
L 580.301964 64.762315 
L 580.904291 71.696173 
L 581.506618 105.32825 
L 582.108945 85.016085 
L 582.410109 89.228283 
L 582.711273 90.452939 
L 583.012436 87.018363 
L 583.3136 95.215353 
L 583.614764 83.377024 
L 584.217091 98.125334 
L 584.518255 118.842818 
L 584.819418 108.385963 
L 585.120582 108.616306 
L 585.421745 97.590013 
L 585.722909 105.66391 
L 586.024073 103.941699 
L 586.325236 104.150547 
L 586.6264 103.462621 
L 587.529891 65.470025 
L 587.831055 69.873006 
L 588.132218 64.88144 
L 588.433382 56.739437 
L 589.336873 50.39742 
L 589.638036 58.707616 
L 589.9392 58.609544 
L 590.240364 48.745382 
L 590.541527 57.773298 
L 590.842691 58.874705 
L 591.143855 54.538801 
L 591.445018 66.110694 
L 591.746182 68.631865 
L 592.047345 82.320089 
L 592.348509 87.895084 
L 592.950836 106.460027 
L 593.252 110.734724 
L 593.854327 115.493865 
L 594.155491 133.390323 
L 594.456655 122.206688 
L 594.757818 124.653682 
L 595.058982 132.963288 
L 595.360145 137.75243 
L 595.661309 135.69925 
L 595.962473 143.127081 
L 596.5648 149.580976 
L 596.865964 145.652077 
L 597.167127 151.066403 
L 597.769455 145.207437 
L 598.070618 146.314358 
L 598.371782 137.406064 
L 598.672945 137.452955 
L 598.974109 146.115173 
L 599.275273 143.994761 
L 599.576436 143.172233 
L 599.8776 143.543234 
L 600.178764 141.944751 
L 600.479927 125.151218 
L 600.781091 123.908344 
L 601.082255 121.077131 
L 601.383418 123.366812 
L 601.684582 114.414641 
L 601.985745 115.470564 
L 602.286909 121.86742 
L 602.588073 131.162015 
L 602.889236 127.688798 
L 603.1904 122.722696 
L 603.491564 134.631906 
L 603.792727 140.085544 
L 604.093891 135.613641 
L 604.395055 128.456195 
L 604.696218 138.329316 
L 604.997382 141.444304 
L 605.298545 135.576303 
L 606.202036 147.030083 
L 606.5032 156.441851 
L 606.804364 155.932229 
L 607.105527 153.580695 
L 607.406691 163.548637 
L 607.707855 162.516579 
L 608.009018 154.258682 
L 608.310182 152.639716 
L 608.611345 145.732933 
L 608.912509 149.726893 
L 609.213673 139.844121 
L 609.514836 145.657865 
L 609.816 132.143415 
L 610.117164 135.685767 
L 611.020655 150.630637 
L 611.321818 154.126762 
L 611.622982 158.964659 
L 611.924145 161.117796 
L 612.526473 149.5782 
L 612.827636 151.976491 
L 613.1288 143.020498 
L 614.032291 165.602267 
L 614.333455 160.932614 
L 614.935782 181.415074 
L 615.839273 148.934458 
L 616.140436 159.661719 
L 616.4416 159.367888 
L 616.742764 153.185317 
L 617.043927 152.414269 
L 617.345091 163.992115 
L 617.646255 166.167508 
L 618.248582 186.357746 
L 618.549745 170.154792 
L 618.850909 164.867773 
L 619.453236 185.422989 
L 619.7544 181.443245 
L 620.055564 185.209343 
L 620.356727 180.366776 
L 620.657891 184.430268 
L 620.959055 185.197439 
L 621.260218 182.797077 
L 621.561382 189.590237 
L 621.862545 202.632408 
L 622.163709 210.197288 
L 622.464873 214.047678 
L 622.766036 214.270766 
L 623.368364 212.708794 
L 623.669527 207.801635 
L 623.970691 213.110448 
L 624.874182 183.173051 
L 625.175345 181.20974 
L 625.476509 171.666755 
L 625.777673 166.624405 
L 626.078836 164.995987 
L 626.38 165.958182 
L 626.681164 171.009896 
L 626.982327 179.056276 
L 627.283491 173.751106 
L 627.584655 164.794824 
L 627.885818 172.160309 
L 628.186982 172.297997 
L 628.488145 170.347329 
L 628.789309 173.063966 
L 629.090473 178.142712 
L 629.391636 180.469442 
L 629.6928 194.097689 
L 629.993964 193.724704 
L 630.295127 195.037534 
L 630.596291 178.98553 
L 630.897455 171.741267 
L 631.198618 173.861129 
L 631.499782 173.512838 
L 632.102109 149.078196 
L 632.403273 147.836955 
L 632.704436 148.872473 
L 633.0056 159.356024 
L 633.306764 161.592751 
L 633.607927 162.647702 
L 633.909091 167.758643 
L 634.210255 155.034902 
L 634.511418 168.493957 
L 634.812582 169.173544 
L 635.414909 162.550769 
L 635.716073 150.242845 
L 636.017236 160.367228 
L 636.3184 165.612331 
L 636.920727 163.505913 
L 637.221891 166.08428 
L 637.523055 171.333568 
L 637.824218 163.266427 
L 638.125382 170.62698 
L 638.426545 174.427371 
L 639.330036 144.795654 
L 640.835855 174.338078 
L 641.137018 164.793146 
L 641.438182 162.977377 
L 642.040509 173.551204 
L 642.341673 181.625035 
L 642.642836 172.40939 
L 642.944 186.585096 
L 643.245164 183.994774 
L 644.148655 210.46952 
L 644.449818 202.47082 
L 644.750982 202.151856 
L 645.052145 181.52909 
L 645.654473 195.76931 
L 646.2568 186.081878 
L 646.557964 187.561181 
L 646.859127 201.52554 
L 647.160291 190.297776 
L 647.762618 182.226679 
L 648.063782 186.062461 
L 648.364945 180.952972 
L 648.666109 184.594194 
L 648.967273 183.833685 
L 649.268436 184.764602 
L 649.5696 175.280197 
L 650.171927 180.611776 
L 650.473091 172.331529 
L 650.774255 170.540315 
L 651.075418 170.563915 
L 651.376582 172.18694 
L 651.677745 165.211932 
L 651.978909 169.89806 
L 652.280073 166.429824 
L 652.581236 151.819757 
L 652.8824 149.236044 
L 653.183564 155.232054 
L 653.484727 164.113638 
L 653.785891 163.121402 
L 654.990545 196.080167 
L 655.291709 189.248589 
L 655.592873 199.296655 
L 655.894036 187.328538 
L 656.1952 192.396561 
L 656.496364 191.108439 
L 656.797527 185.869146 
L 657.098691 183.967057 
L 657.399855 178.526565 
L 657.701018 185.489016 
L 658.002182 201.567406 
L 658.303345 202.437943 
L 658.604509 213.950608 
L 658.905673 217.321606 
L 659.206836 209.661411 
L 659.508 210.376262 
L 659.809164 213.930672 
L 660.110327 221.281282 
L 660.411491 222.465749 
L 660.712655 222.779172 
L 661.013818 233.22832 
L 661.314982 229.973274 
L 661.616145 236.645018 
L 661.917309 233.878376 
L 662.218473 235.992226 
L 662.8208 220.520169 
L 663.121964 219.585516 
L 663.423127 219.514524 
L 663.724291 215.503324 
L 664.326618 196.493975 
L 664.627782 194.880682 
L 664.928945 192.14383 
L 665.230109 180.353673 
L 665.531273 191.890983 
L 665.832436 187.518701 
L 666.1336 193.600924 
L 666.434764 183.304542 
L 666.735927 186.49914 
L 667.037091 186.858054 
L 667.338255 194.204261 
L 667.639418 193.447298 
L 667.940582 187.087441 
L 668.241745 174.50632 
L 668.542909 183.282305 
L 668.844073 185.947489 
L 669.145236 157.229529 
L 669.4464 150.401934 
L 669.747564 150.522898 
L 670.048727 146.810218 
L 670.349891 166.105631 
L 670.651055 154.199015 
L 670.952218 152.999484 
L 671.253382 163.281284 
L 671.554545 154.605048 
L 671.855709 159.039884 
L 672.156873 166.243196 
L 672.7592 158.96649 
L 673.060364 162.057334 
L 673.361527 162.308327 
L 673.963855 181.62564 
L 674.265018 174.477326 
L 674.566182 164.463494 
L 675.168509 158.059045 
L 675.469673 160.692638 
L 675.770836 161.361747 
L 676.072 167.822349 
L 676.373164 154.768797 
L 676.674327 158.704139 
L 676.975491 155.523322 
L 677.276655 155.357267 
L 677.577818 165.266259 
L 677.878982 150.96216 
L 678.180145 153.59052 
L 678.481309 158.992469 
L 678.782473 157.934277 
L 679.083636 164.182063 
L 679.083636 164.182063 
" clip-path="url(#p6fb7d89c2c)" style="fill: none; stroke: #1f77b4; stroke-width: 1.5; stroke-linecap: square"/>
   </g>
   <g id="line2d_30">
    <path d="M 76.756364 246.04 
L 76.756364 39.3504 
" clip-path="url(#p6fb7d89c2c)" style="fill: none; stroke-dasharray: 2.96,1.28; stroke-dashoffset: 0; stroke: #1f77b4; stroke-width: 0.8"/>
   </g>
   <g id="line2d_31">
    <path d="M 90.861596 246.04 
L 90.861596 39.3504 
" clip-path="url(#p6fb7d89c2c)" style="fill: none; stroke-dasharray: 2.96,1.28; stroke-dashoffset: 0; stroke: #1f77b4; stroke-width: 0.8"/>
   </g>
   <g id="line2d_32">
    <path d="M 104.966829 246.04 
L 104.966829 39.3504 
" clip-path="url(#p6fb7d89c2c)" style="fill: none; stroke-dasharray: 2.96,1.28; stroke-dashoffset: 0; stroke: #1f77b4; stroke-width: 0.8"/>
   </g>
   <g id="line2d_33">
    <path d="M 119.072062 246.04 
L 119.072062 39.3504 
" clip-path="url(#p6fb7d89c2c)" style="fill: none; stroke-dasharray: 2.96,1.28; stroke-dashoffset: 0; stroke: #1f77b4; stroke-width: 0.8"/>
   </g>
   <g id="line2d_34">
    <path d="M 133.177295 246.04 
L 133.177295 39.3504 
" clip-path="url(#p6fb7d89c2c)" style="fill: none; stroke-dasharray: 2.96,1.28; stroke-dashoffset: 0; stroke: #1f77b4; stroke-width: 0.8"/>
   </g>
   <g id="line2d_35">
    <path d="M 147.282528 246.04 
L 147.282528 39.3504 
" clip-path="url(#p6fb7d89c2c)" style="fill: none; stroke-dasharray: 2.96,1.28; stroke-dashoffset: 0; stroke: #1f77b4; stroke-width: 0.8"/>
   </g>
   <g id="line2d_36">
    <path d="M 161.38776 246.04 
L 161.38776 39.3504 
" clip-path="url(#p6fb7d89c2c)" style="fill: none; stroke-dasharray: 2.96,1.28; stroke-dashoffset: 0; stroke: #1f77b4; stroke-width: 0.8"/>
   </g>
   <g id="line2d_37">
    <path d="M 175.492993 246.04 
L 175.492993 39.3504 
" clip-path="url(#p6fb7d89c2c)" style="fill: none; stroke-dasharray: 2.96,1.28; stroke-dashoffset: 0; stroke: #1f77b4; stroke-width: 0.8"/>
   </g>
   <g id="line2d_38">
    <path d="M 189.598226 246.04 
L 189.598226 39.3504 
" clip-path="url(#p6fb7d89c2c)" style="fill: none; stroke-dasharray: 2.96,1.28; stroke-dashoffset: 0; stroke: #1f77b4; stroke-width: 0.8"/>
   </g>
   <g id="line2d_39">
    <path d="M 203.703459 246.04 
L 203.703459 39.3504 
" clip-path="url(#p6fb7d89c2c)" style="fill: none; stroke-dasharray: 2.96,1.28; stroke-dashoffset: 0; stroke: #1f77b4; stroke-width: 0.8"/>
   </g>
   <g id="line2d_40">
    <path d="M 217.808692 246.04 
L 217.808692 39.3504 
" clip-path="url(#p6fb7d89c2c)" style="fill: none; stroke-dasharray: 2.96,1.28; stroke-dashoffset: 0; stroke: #1f77b4; stroke-width: 0.8"/>
   </g>
   <g id="line2d_41">
    <path d="M 231.913924 246.04 
L 231.913924 39.3504 
" clip-path="url(#p6fb7d89c2c)" style="fill: none; stroke-dasharray: 2.96,1.28; stroke-dashoffset: 0; stroke: #1f77b4; stroke-width: 0.8"/>
   </g>
   <g id="line2d_42">
    <path d="M 246.019157 246.04 
L 246.019157 39.3504 
" clip-path="url(#p6fb7d89c2c)" style="fill: none; stroke-dasharray: 2.96,1.28; stroke-dashoffset: 0; stroke: #1f77b4; stroke-width: 0.8"/>
   </g>
   <g id="line2d_43">
    <path d="M 260.12439 246.04 
L 260.12439 39.3504 
" clip-path="url(#p6fb7d89c2c)" style="fill: none; stroke-dasharray: 2.96,1.28; stroke-dashoffset: 0; stroke: #1f77b4; stroke-width: 0.8"/>
   </g>
   <g id="line2d_44">
    <path d="M 274.229623 246.04 
L 274.229623 39.3504 
" clip-path="url(#p6fb7d89c2c)" style="fill: none; stroke-dasharray: 2.96,1.28; stroke-dashoffset: 0; stroke: #1f77b4; stroke-width: 0.8"/>
   </g>
   <g id="line2d_45">
    <path d="M 288.334856 246.04 
L 288.334856 39.3504 
" clip-path="url(#p6fb7d89c2c)" style="fill: none; stroke-dasharray: 2.96,1.28; stroke-dashoffset: 0; stroke: #1f77b4; stroke-width: 0.8"/>
   </g>
   <g id="line2d_46">
    <path d="M 302.440088 246.04 
L 302.440088 39.3504 
" clip-path="url(#p6fb7d89c2c)" style="fill: none; stroke-dasharray: 2.96,1.28; stroke-dashoffset: 0; stroke: #1f77b4; stroke-width: 0.8"/>
   </g>
   <g id="line2d_47">
    <path d="M 316.545321 246.04 
L 316.545321 39.3504 
" clip-path="url(#p6fb7d89c2c)" style="fill: none; stroke-dasharray: 2.96,1.28; stroke-dashoffset: 0; stroke: #1f77b4; stroke-width: 0.8"/>
   </g>
   <g id="line2d_48">
    <path d="M 330.650554 246.04 
L 330.650554 39.3504 
" clip-path="url(#p6fb7d89c2c)" style="fill: none; stroke-dasharray: 2.96,1.28; stroke-dashoffset: 0; stroke: #1f77b4; stroke-width: 0.8"/>
   </g>
   <g id="line2d_49">
    <path d="M 344.755787 246.04 
L 344.755787 39.3504 
" clip-path="url(#p6fb7d89c2c)" style="fill: none; stroke-dasharray: 2.96,1.28; stroke-dashoffset: 0; stroke: #1f77b4; stroke-width: 0.8"/>
   </g>
   <g id="line2d_50">
    <path d="M 358.86102 246.04 
L 358.86102 39.3504 
" clip-path="url(#p6fb7d89c2c)" style="fill: none; stroke-dasharray: 2.96,1.28; stroke-dashoffset: 0; stroke: #1f77b4; stroke-width: 0.8"/>
   </g>
   <g id="line2d_51">
    <path d="M 372.966252 246.04 
L 372.966252 39.3504 
" clip-path="url(#p6fb7d89c2c)" style="fill: none; stroke-dasharray: 2.96,1.28; stroke-dashoffset: 0; stroke: #1f77b4; stroke-width: 0.8"/>
   </g>
   <g id="line2d_52">
    <path d="M 387.071485 246.04 
L 387.071485 39.3504 
" clip-path="url(#p6fb7d89c2c)" style="fill: none; stroke-dasharray: 2.96,1.28; stroke-dashoffset: 0; stroke: #1f77b4; stroke-width: 0.8"/>
   </g>
   <g id="line2d_53">
    <path d="M 401.176718 246.04 
L 401.176718 39.3504 
" clip-path="url(#p6fb7d89c2c)" style="fill: none; stroke-dasharray: 2.96,1.28; stroke-dashoffset: 0; stroke: #1f77b4; stroke-width: 0.8"/>
   </g>
   <g id="line2d_54">
    <path d="M 415.281951 246.04 
L 415.281951 39.3504 
" clip-path="url(#p6fb7d89c2c)" style="fill: none; stroke-dasharray: 2.96,1.28; stroke-dashoffset: 0; stroke: #1f77b4; stroke-width: 0.8"/>
   </g>
   <g id="line2d_55">
    <path d="M 429.387184 246.04 
L 429.387184 39.3504 
" clip-path="url(#p6fb7d89c2c)" style="fill: none; stroke-dasharray: 2.96,1.28; stroke-dashoffset: 0; stroke: #1f77b4; stroke-width: 0.8"/>
   </g>
   <g id="line2d_56">
    <path d="M 443.492416 246.04 
L 443.492416 39.3504 
" clip-path="url(#p6fb7d89c2c)" style="fill: none; stroke-dasharray: 2.96,1.28; stroke-dashoffset: 0; stroke: #1f77b4; stroke-width: 0.8"/>
   </g>
   <g id="line2d_57">
    <path d="M 457.597649 246.04 
L 457.597649 39.3504 
" clip-path="url(#p6fb7d89c2c)" style="fill: none; stroke-dasharray: 2.96,1.28; stroke-dashoffset: 0; stroke: #1f77b4; stroke-width: 0.8"/>
   </g>
   <g id="line2d_58">
    <path d="M 471.702882 246.04 
L 471.702882 39.3504 
" clip-path="url(#p6fb7d89c2c)" style="fill: none; stroke-dasharray: 2.96,1.28; stroke-dashoffset: 0; stroke: #1f77b4; stroke-width: 0.8"/>
   </g>
   <g id="line2d_59">
    <path d="M 485.808115 246.04 
L 485.808115 39.3504 
" clip-path="url(#p6fb7d89c2c)" style="fill: none; stroke-dasharray: 2.96,1.28; stroke-dashoffset: 0; stroke: #1f77b4; stroke-width: 0.8"/>
   </g>
   <g id="line2d_60">
    <path d="M 499.913347 246.04 
L 499.913347 39.3504 
" clip-path="url(#p6fb7d89c2c)" style="fill: none; stroke-dasharray: 2.96,1.28; stroke-dashoffset: 0; stroke: #1f77b4; stroke-width: 0.8"/>
   </g>
   <g id="line2d_61">
    <path d="M 514.01858 246.04 
L 514.01858 39.3504 
" clip-path="url(#p6fb7d89c2c)" style="fill: none; stroke-dasharray: 2.96,1.28; stroke-dashoffset: 0; stroke: #1f77b4; stroke-width: 0.8"/>
   </g>
   <g id="line2d_62">
    <path d="M 528.123813 246.04 
L 528.123813 39.3504 
" clip-path="url(#p6fb7d89c2c)" style="fill: none; stroke-dasharray: 2.96,1.28; stroke-dashoffset: 0; stroke: #1f77b4; stroke-width: 0.8"/>
   </g>
   <g id="line2d_63">
    <path d="M 542.229046 246.04 
L 542.229046 39.3504 
" clip-path="url(#p6fb7d89c2c)" style="fill: none; stroke-dasharray: 2.96,1.28; stroke-dashoffset: 0; stroke: #1f77b4; stroke-width: 0.8"/>
   </g>
   <g id="line2d_64">
    <path d="M 556.334279 246.04 
L 556.334279 39.3504 
" clip-path="url(#p6fb7d89c2c)" style="fill: none; stroke-dasharray: 2.96,1.28; stroke-dashoffset: 0; stroke: #1f77b4; stroke-width: 0.8"/>
   </g>
   <g id="line2d_65">
    <path d="M 570.439511 246.04 
L 570.439511 39.3504 
" clip-path="url(#p6fb7d89c2c)" style="fill: none; stroke-dasharray: 2.96,1.28; stroke-dashoffset: 0; stroke: #1f77b4; stroke-width: 0.8"/>
   </g>
   <g id="line2d_66">
    <path d="M 584.544744 246.04 
L 584.544744 39.3504 
" clip-path="url(#p6fb7d89c2c)" style="fill: none; stroke-dasharray: 2.96,1.28; stroke-dashoffset: 0; stroke: #1f77b4; stroke-width: 0.8"/>
   </g>
   <g id="line2d_67">
    <path d="M 598.649977 246.04 
L 598.649977 39.3504 
" clip-path="url(#p6fb7d89c2c)" style="fill: none; stroke-dasharray: 2.96,1.28; stroke-dashoffset: 0; stroke: #1f77b4; stroke-width: 0.8"/>
   </g>
   <g id="line2d_68">
    <path d="M 612.75521 246.04 
L 612.75521 39.3504 
" clip-path="url(#p6fb7d89c2c)" style="fill: none; stroke-dasharray: 2.96,1.28; stroke-dashoffset: 0; stroke: #1f77b4; stroke-width: 0.8"/>
   </g>
   <g id="line2d_69">
    <path d="M 626.860443 246.04 
L 626.860443 39.3504 
" clip-path="url(#p6fb7d89c2c)" style="fill: none; stroke-dasharray: 2.96,1.28; stroke-dashoffset: 0; stroke: #1f77b4; stroke-width: 0.8"/>
   </g>
   <g id="line2d_70">
    <path d="M 640.965675 246.04 
L 640.965675 39.3504 
" clip-path="url(#p6fb7d89c2c)" style="fill: none; stroke-dasharray: 2.96,1.28; stroke-dashoffset: 0; stroke: #1f77b4; stroke-width: 0.8"/>
   </g>
   <g id="line2d_71">
    <path d="M 655.070908 246.04 
L 655.070908 39.3504 
" clip-path="url(#p6fb7d89c2c)" style="fill: none; stroke-dasharray: 2.96,1.28; stroke-dashoffset: 0; stroke: #1f77b4; stroke-width: 0.8"/>
   </g>
   <g id="line2d_72">
    <path d="M 669.176141 246.04 
L 669.176141 39.3504 
" clip-path="url(#p6fb7d89c2c)" style="fill: none; stroke-dasharray: 2.96,1.28; stroke-dashoffset: 0; stroke: #1f77b4; stroke-width: 0.8"/>
   </g>
   <g id="patch_14">
    <path d="M 46.64 246.04 
L 46.64 39.3504 
" style="fill: none; stroke: #000000; stroke-width: 0.8; stroke-linejoin: miter; stroke-linecap: square"/>
   </g>
   <g id="patch_15">
    <path d="M 709.2 246.04 
L 709.2 39.3504 
" style="fill: none; stroke: #000000; stroke-width: 0.8; stroke-linejoin: miter; stroke-linecap: square"/>
   </g>
   <g id="patch_16">
    <path d="M 46.64 246.04 
L 709.2 246.04 
" style="fill: none; stroke: #000000; stroke-width: 0.8; stroke-linejoin: miter; stroke-linecap: square"/>
   </g>
   <g id="patch_17">
    <path d="M 46.64 39.3504 
L 709.2 39.3504 
" style="fill: none; stroke: #000000; stroke-width: 0.8; stroke-linejoin: miter; stroke-linecap: square"/>
   </g>
   <g id="text_17">
    <!-- Signal segmentation: -->
    <g transform="translate(314.073438 19.910775) scale(0.12 -0.12)">
     <defs>
      <path id="DejaVuSans-53" d="M 3425 4513 
L 3425 3897 
Q 3066 4069 2747 4153 
Q 2428 4238 2131 4238 
Q 1616 4238 1336 4038 
Q 1056 3838 1056 3469 
Q 1056 3159 1242 3001 
Q 1428 2844 1947 2747 
L 2328 2669 
Q 3034 2534 3370 2195 
Q 3706 1856 3706 1288 
Q 3706 609 3251 259 
Q 2797 -91 1919 -91 
Q 1588 -91 1214 -16 
Q 841 59 441 206 
L 441 856 
Q 825 641 1194 531 
Q 1563 422 1919 422 
Q 2459 422 2753 634 
Q 3047 847 3047 1241 
Q 3047 1584 2836 1778 
Q 2625 1972 2144 2069 
L 1759 2144 
Q 1053 2284 737 2584 
Q 422 2884 422 3419 
Q 422 4038 858 4394 
Q 1294 4750 2059 4750 
Q 2388 4750 2728 4690 
Q 3069 4631 3425 4513 
z
" transform="scale(0.015625)"/>
      <path id="DejaVuSans-67" d="M 2906 1791 
Q 2906 2416 2648 2759 
Q 2391 3103 1925 3103 
Q 1463 3103 1205 2759 
Q 947 2416 947 1791 
Q 947 1169 1205 825 
Q 1463 481 1925 481 
Q 2391 481 2648 825 
Q 2906 1169 2906 1791 
z
M 3481 434 
Q 3481 -459 3084 -895 
Q 2688 -1331 1869 -1331 
Q 1566 -1331 1297 -1286 
Q 1028 -1241 775 -1147 
L 775 -588 
Q 1028 -725 1275 -790 
Q 1522 -856 1778 -856 
Q 2344 -856 2625 -561 
Q 2906 -266 2906 331 
L 2906 616 
Q 2728 306 2450 153 
Q 2172 0 1784 0 
Q 1141 0 747 490 
Q 353 981 353 1791 
Q 353 2603 747 3093 
Q 1141 3584 1784 3584 
Q 2172 3584 2450 3431 
Q 2728 3278 2906 2969 
L 2906 3500 
L 3481 3500 
L 3481 434 
z
" transform="scale(0.015625)"/>
      <path id="DejaVuSans-6e" d="M 3513 2113 
L 3513 0 
L 2938 0 
L 2938 2094 
Q 2938 2591 2744 2837 
Q 2550 3084 2163 3084 
Q 1697 3084 1428 2787 
Q 1159 2491 1159 1978 
L 1159 0 
L 581 0 
L 581 3500 
L 1159 3500 
L 1159 2956 
Q 1366 3272 1645 3428 
Q 1925 3584 2291 3584 
Q 2894 3584 3203 3211 
Q 3513 2838 3513 2113 
z
" transform="scale(0.015625)"/>
      <path id="DejaVuSans-61" d="M 2194 1759 
Q 1497 1759 1228 1600 
Q 959 1441 959 1056 
Q 959 750 1161 570 
Q 1363 391 1709 391 
Q 2188 391 2477 730 
Q 2766 1069 2766 1631 
L 2766 1759 
L 2194 1759 
z
M 3341 1997 
L 3341 0 
L 2766 0 
L 2766 531 
Q 2569 213 2275 61 
Q 1981 -91 1556 -91 
Q 1019 -91 701 211 
Q 384 513 384 1019 
Q 384 1609 779 1909 
Q 1175 2209 1959 2209 
L 2766 2209 
L 2766 2266 
Q 2766 2663 2505 2880 
Q 2244 3097 1772 3097 
Q 1472 3097 1187 3025 
Q 903 2953 641 2809 
L 641 3341 
Q 956 3463 1253 3523 
Q 1550 3584 1831 3584 
Q 2591 3584 2966 3190 
Q 3341 2797 3341 1997 
z
" transform="scale(0.015625)"/>
      <path id="DejaVuSans-6c" d="M 603 4863 
L 1178 4863 
L 1178 0 
L 603 0 
L 603 4863 
z
" transform="scale(0.015625)"/>
      <path id="DejaVuSans-6f" d="M 1959 3097 
Q 1497 3097 1228 2736 
Q 959 2375 959 1747 
Q 959 1119 1226 758 
Q 1494 397 1959 397 
Q 2419 397 2687 759 
Q 2956 1122 2956 1747 
Q 2956 2369 2687 2733 
Q 2419 3097 1959 3097 
z
M 1959 3584 
Q 2709 3584 3137 3096 
Q 3566 2609 3566 1747 
Q 3566 888 3137 398 
Q 2709 -91 1959 -91 
Q 1206 -91 779 398 
Q 353 888 353 1747 
Q 353 2609 779 3096 
Q 1206 3584 1959 3584 
z
" transform="scale(0.015625)"/>
      <path id="DejaVuSans-3a" d="M 750 794 
L 1409 794 
L 1409 0 
L 750 0 
L 750 794 
z
M 750 3309 
L 1409 3309 
L 1409 2516 
L 750 2516 
L 750 3309 
z
" transform="scale(0.015625)"/>
     </defs>
     <use xlink:href="#DejaVuSans-53"/>
     <use xlink:href="#DejaVuSans-69" x="63.476562"/>
     <use xlink:href="#DejaVuSans-67" x="91.259766"/>
     <use xlink:href="#DejaVuSans-6e" x="154.736328"/>
     <use xlink:href="#DejaVuSans-61" x="218.115234"/>
     <use xlink:href="#DejaVuSans-6c" x="279.394531"/>
     <use xlink:href="#DejaVuSans-20" x="307.177734"/>
     <use xlink:href="#DejaVuSans-73" x="338.964844"/>
     <use xlink:href="#DejaVuSans-65" x="391.064453"/>
     <use xlink:href="#DejaVuSans-67" x="452.587891"/>
     <use xlink:href="#DejaVuSans-6d" x="516.064453"/>
     <use xlink:href="#DejaVuSans-65" x="613.476562"/>
     <use xlink:href="#DejaVuSans-6e" x="675"/>
     <use xlink:href="#DejaVuSans-74" x="738.378906"/>
     <use xlink:href="#DejaVuSans-61" x="777.587891"/>
     <use xlink:href="#DejaVuSans-74" x="838.867188"/>
     <use xlink:href="#DejaVuSans-69" x="878.076172"/>
     <use xlink:href="#DejaVuSans-6f" x="905.859375"/>
     <use xlink:href="#DejaVuSans-6e" x="967.041016"/>
     <use xlink:href="#DejaVuSans-3a" x="1030.419922"/>
    </g>
    <!-- solid lines every $\tau_{\mathrm{int},x}$, shaded blocks of width $2\tau_{\mathrm{int},x}$ -->
    <g transform="translate(221.02 33.3504) scale(0.12 -0.12)">
     <defs>
      <path id="DejaVuSans-64" d="M 2906 2969 
L 2906 4863 
L 3481 4863 
L 3481 0 
L 2906 0 
L 2906 525 
Q 2725 213 2448 61 
Q 2172 -91 1784 -91 
Q 1150 -91 751 415 
Q 353 922 353 1747 
Q 353 2572 751 3078 
Q 1150 3584 1784 3584 
Q 2172 3584 2448 3432 
Q 2725 3281 2906 2969 
z
M 947 1747 
Q 947 1113 1208 752 
Q 1469 391 1925 391 
Q 2381 391 2643 752 
Q 2906 1113 2906 1747 
Q 2906 2381 2643 2742 
Q 2381 3103 1925 3103 
Q 1469 3103 1208 2742 
Q 947 2381 947 1747 
z
" transform="scale(0.015625)"/>
      <path id="DejaVuSans-76" d="M 191 3500 
L 800 3500 
L 1894 563 
L 2988 3500 
L 3597 3500 
L 2284 0 
L 1503 0 
L 191 3500 
z
" transform="scale(0.015625)"/>
      <path id="DejaVuSans-72" d="M 2631 2963 
Q 2534 3019 2420 3045 
Q 2306 3072 2169 3072 
Q 1681 3072 1420 2755 
Q 1159 2438 1159 1844 
L 1159 0 
L 581 0 
L 581 3500 
L 1159 3500 
L 1159 2956 
Q 1341 3275 1631 3429 
Q 1922 3584 2338 3584 
Q 2397 3584 2469 3576 
Q 2541 3569 2628 3553 
L 2631 2963 
z
" transform="scale(0.015625)"/>
      <path id="DejaVuSans-79" d="M 2059 -325 
Q 1816 -950 1584 -1140 
Q 1353 -1331 966 -1331 
L 506 -1331 
L 506 -850 
L 844 -850 
Q 1081 -850 1212 -737 
Q 1344 -625 1503 -206 
L 1606 56 
L 191 3500 
L 800 3500 
L 1894 763 
L 2988 3500 
L 3597 3500 
L 2059 -325 
z
" transform="scale(0.015625)"/>
      <path id="DejaVuSans-Oblique-3c4" d="M 2103 638 
Q 2188 488 2525 488 
L 2800 488 
L 2706 0 
L 2363 0 
Q 1800 0 1600 300 
Q 1403 606 1534 1269 
L 1856 2925 
L 541 2925 
L 653 3500 
L 3881 3500 
L 3769 2925 
L 2444 2925 
L 2113 1234 
Q 2025 781 2103 638 
z
" transform="scale(0.015625)"/>
      <path id="DejaVuSans-2c" d="M 750 794 
L 1409 794 
L 1409 256 
L 897 -744 
L 494 -744 
L 750 256 
L 750 794 
z
" transform="scale(0.015625)"/>
      <path id="DejaVuSans-Oblique-78" d="M 3841 3500 
L 2234 1784 
L 3219 0 
L 2559 0 
L 1819 1388 
L 531 0 
L -166 0 
L 1556 1844 
L 641 3500 
L 1300 3500 
L 1972 2234 
L 3144 3500 
L 3841 3500 
z
" transform="scale(0.015625)"/>
      <path id="DejaVuSans-68" d="M 3513 2113 
L 3513 0 
L 2938 0 
L 2938 2094 
Q 2938 2591 2744 2837 
Q 2550 3084 2163 3084 
Q 1697 3084 1428 2787 
Q 1159 2491 1159 1978 
L 1159 0 
L 581 0 
L 581 4863 
L 1159 4863 
L 1159 2956 
Q 1366 3272 1645 3428 
Q 1925 3584 2291 3584 
Q 2894 3584 3203 3211 
Q 3513 2838 3513 2113 
z
" transform="scale(0.015625)"/>
      <path id="DejaVuSans-62" d="M 3116 1747 
Q 3116 2381 2855 2742 
Q 2594 3103 2138 3103 
Q 1681 3103 1420 2742 
Q 1159 2381 1159 1747 
Q 1159 1113 1420 752 
Q 1681 391 2138 391 
Q 2594 391 2855 752 
Q 3116 1113 3116 1747 
z
M 1159 2969 
Q 1341 3281 1617 3432 
Q 1894 3584 2278 3584 
Q 2916 3584 3314 3078 
Q 3713 2572 3713 1747 
Q 3713 922 3314 415 
Q 2916 -91 2278 -91 
Q 1894 -91 1617 61 
Q 1341 213 1159 525 
L 1159 0 
L 581 0 
L 581 4863 
L 1159 4863 
L 1159 2969 
z
" transform="scale(0.015625)"/>
      <path id="DejaVuSans-63" d="M 3122 3366 
L 3122 2828 
Q 2878 2963 2633 3030 
Q 2388 3097 2138 3097 
Q 1578 3097 1268 2742 
Q 959 2388 959 1747 
Q 959 1106 1268 751 
Q 1578 397 2138 397 
Q 2388 397 2633 464 
Q 2878 531 3122 666 
L 3122 134 
Q 2881 22 2623 -34 
Q 2366 -91 2075 -91 
Q 1284 -91 818 406 
Q 353 903 353 1747 
Q 353 2603 823 3093 
Q 1294 3584 2113 3584 
Q 2378 3584 2631 3529 
Q 2884 3475 3122 3366 
z
" transform="scale(0.015625)"/>
      <path id="DejaVuSans-6b" d="M 581 4863 
L 1159 4863 
L 1159 1991 
L 2875 3500 
L 3609 3500 
L 1753 1863 
L 3688 0 
L 2938 0 
L 1159 1709 
L 1159 0 
L 581 0 
L 581 4863 
z
" transform="scale(0.015625)"/>
      <path id="DejaVuSans-66" d="M 2375 4863 
L 2375 4384 
L 1825 4384 
Q 1516 4384 1395 4259 
Q 1275 4134 1275 3809 
L 1275 3500 
L 2222 3500 
L 2222 3053 
L 1275 3053 
L 1275 0 
L 697 0 
L 697 3053 
L 147 3053 
L 147 3500 
L 697 3500 
L 697 3744 
Q 697 4328 969 4595 
Q 1241 4863 1831 4863 
L 2375 4863 
z
" transform="scale(0.015625)"/>
      <path id="DejaVuSans-77" d="M 269 3500 
L 844 3500 
L 1563 769 
L 2278 3500 
L 2956 3500 
L 3675 769 
L 4391 3500 
L 4966 3500 
L 4050 0 
L 3372 0 
L 2619 2869 
L 1863 0 
L 1184 0 
L 269 3500 
z
" transform="scale(0.015625)"/>
     </defs>
     <use xlink:href="#DejaVuSans-73" transform="translate(0 0.015625)"/>
     <use xlink:href="#DejaVuSans-6f" transform="translate(52.099609 0.015625)"/>
     <use xlink:href="#DejaVuSans-6c" transform="translate(113.28125 0.015625)"/>
     <use xlink:href="#DejaVuSans-69" transform="translate(141.064453 0.015625)"/>
     <use xlink:href="#DejaVuSans-64" transform="translate(168.847656 0.015625)"/>
     <use xlink:href="#DejaVuSans-20" transform="translate(232.324219 0.015625)"/>
     <use xlink:href="#DejaVuSans-6c" transform="translate(264.111328 0.015625)"/>
     <use xlink:href="#DejaVuSans-69" transform="translate(291.894531 0.015625)"/>
     <use xlink:href="#DejaVuSans-6e" transform="translate(319.677734 0.015625)"/>
     <use xlink:href="#DejaVuSans-65" transform="translate(383.056641 0.015625)"/>
     <use xlink:href="#DejaVuSans-73" transform="translate(444.580078 0.015625)"/>
     <use xlink:href="#DejaVuSans-20" transform="translate(496.679688 0.015625)"/>
     <use xlink:href="#DejaVuSans-65" transform="translate(528.466797 0.015625)"/>
     <use xlink:href="#DejaVuSans-76" transform="translate(589.990234 0.015625)"/>
     <use xlink:href="#DejaVuSans-65" transform="translate(649.169922 0.015625)"/>
     <use xlink:href="#DejaVuSans-72" transform="translate(710.693359 0.015625)"/>
     <use xlink:href="#DejaVuSans-79" transform="translate(751.806641 0.015625)"/>
     <use xlink:href="#DejaVuSans-20" transform="translate(810.986328 0.015625)"/>
     <use xlink:href="#DejaVuSans-Oblique-3c4" transform="translate(842.773438 0.015625)"/>
     <use xlink:href="#DejaVuSans-69" transform="translate(902.978516 -16.390625) scale(0.7)"/>
     <use xlink:href="#DejaVuSans-6e" transform="translate(922.426758 -16.390625) scale(0.7)"/>
     <use xlink:href="#DejaVuSans-74" transform="translate(966.791992 -16.390625) scale(0.7)"/>
     <use xlink:href="#DejaVuSans-2c" transform="translate(994.238281 -16.390625) scale(0.7)"/>
     <use xlink:href="#DejaVuSans-Oblique-78" transform="translate(1030.126953 -16.390625) scale(0.7)"/>
     <use xlink:href="#DejaVuSans-2c" transform="translate(1074.287109 0.015625)"/>
     <use xlink:href="#DejaVuSans-20" transform="translate(1106.074219 0.015625)"/>
     <use xlink:href="#DejaVuSans-73" transform="translate(1137.861328 0.015625)"/>
     <use xlink:href="#DejaVuSans-68" transform="translate(1189.960938 0.015625)"/>
     <use xlink:href="#DejaVuSans-61" transform="translate(1253.339844 0.015625)"/>
     <use xlink:href="#DejaVuSans-64" transform="translate(1314.619141 0.015625)"/>
     <use xlink:href="#DejaVuSans-65" transform="translate(1378.095703 0.015625)"/>
     <use xlink:href="#DejaVuSans-64" transform="translate(1439.619141 0.015625)"/>
     <use xlink:href="#DejaVuSans-20" transform="translate(1503.095703 0.015625)"/>
     <use xlink:href="#DejaVuSans-62" transform="translate(1534.882812 0.015625)"/>
     <use xlink:href="#DejaVuSans-6c" transform="translate(1598.359375 0.015625)"/>
     <use xlink:href="#DejaVuSans-6f" transform="translate(1626.142578 0.015625)"/>
     <use xlink:href="#DejaVuSans-63" transform="translate(1687.324219 0.015625)"/>
     <use xlink:href="#DejaVuSans-6b" transform="translate(1742.304688 0.015625)"/>
     <use xlink:href="#DejaVuSans-73" transform="translate(1800.214844 0.015625)"/>
     <use xlink:href="#DejaVuSans-20" transform="translate(1852.314453 0.015625)"/>
     <use xlink:href="#DejaVuSans-6f" transform="translate(1884.101562 0.015625)"/>
     <use xlink:href="#DejaVuSans-66" transform="translate(1945.283203 0.015625)"/>
     <use xlink:href="#DejaVuSans-20" transform="translate(1980.488281 0.015625)"/>
     <use xlink:href="#DejaVuSans-77" transform="translate(2012.275391 0.015625)"/>
     <use xlink:href="#DejaVuSans-69" transform="translate(2094.0625 0.015625)"/>
     <use xlink:href="#DejaVuSans-64" transform="translate(2121.845703 0.015625)"/>
     <use xlink:href="#DejaVuSans-74" transform="translate(2185.322266 0.015625)"/>
     <use xlink:href="#DejaVuSans-68" transform="translate(2224.53125 0.015625)"/>
     <use xlink:href="#DejaVuSans-20" transform="translate(2287.910156 0.015625)"/>
     <use xlink:href="#DejaVuSans-32" transform="translate(2319.697266 0.015625)"/>
     <use xlink:href="#DejaVuSans-Oblique-3c4" transform="translate(2383.320312 0.015625)"/>
     <use xlink:href="#DejaVuSans-69" transform="translate(2443.525391 -16.390625) scale(0.7)"/>
     <use xlink:href="#DejaVuSans-6e" transform="translate(2462.973633 -16.390625) scale(0.7)"/>
     <use xlink:href="#DejaVuSans-74" transform="translate(2507.338867 -16.390625) scale(0.7)"/>
     <use xlink:href="#DejaVuSans-2c" transform="translate(2534.785156 -16.390625) scale(0.7)"/>
     <use xlink:href="#DejaVuSans-Oblique-78" transform="translate(2570.673828 -16.390625) scale(0.7)"/>
    </g>
   </g>
  </g>
 </g>
 <defs>
  <clipPath id="p6fb7d89c2c">
   <rect x="46.64" y="39.3504" width="662.56" height="206.6896"/>
  </clipPath>
 </defs>
</svg>
