<?xml version="1.0" encoding="utf-8" standalone="no"?>
<!DOCTYPE svg PUBLIC "-//W3C//DTD SVG 1.1//EN"
  "http://www.w3.org/Graphics/SVG/1.1/DTD/svg11.dtd">
<svg xmlns:xlink="http://www.w3.org/1999/xlink" width="432pt" height="432pt" viewBox="0 0 432 432" xmlns="http://www.w3.org/2000/svg" version="1.1">
 <metadata>
  <rdf:RDF xmlns:dc="http://purl.org/dc/elements/1.1/" xmlns:cc="http://creativecommons.org/ns#" xmlns:rdf="http://www.w3.org/1999/02/22-rdf-syntax-ns#">
   <cc:Work>
    <dc:type rdf:resource="http://purl.org/dc/dcmitype/StillImage"/>
    <dc:date>2025-09-17T12:40:35.874532</dc:date>
    <dc:format>image/svg+xml</dc:format>
    <dc:creator>
     <cc:Agent>
      <dc:title>Matplotlib v3.9.2, https://matplotlib.org/</dc:title>
     </cc:Agent>
    </dc:creator>
   </cc:Work>
  </rdf:RDF>
 </metadata>
 <defs>
  <style type="text/css">*{stroke-linejoin: round; stroke-linecap: butt}</style>
 </defs>
 <g id="figure_1">
  <g id="patch_1">
   <path d="M 0 432 
L 432 432 
L 432 0 
L 0 0 
z
" style="fill: #ffffff"/>
  </g>
  <g id="axes_1">
   <g id="patch_2">
    <path d="M 55.085181 384.48 
L 387.714819 384.48 
L 387.714819 51.84 
L 55.085181 51.84 
z
" style="fill: #ffffff"/>
   </g>
   <g id="patch_3">
    <path d="M 366.775304 145.467638 
L 358.322704 153.920238 
L 356.665994 150.606819 
L 221.42439 218.227621 
L 221.356769 218.092379 
L 356.598373 150.471577 
L 354.941664 147.158158 
z
" clip-path="url(#pdcfb78c215)" style="fill: #ff0000; stroke: #ff0000; stroke-linejoin: miter"/>
   </g>
   <g id="matplotlib.axis_1">
    <g id="xtick_1">
     <g id="line2d_1">
      <defs>
       <path id="m7f81d0f3b8" d="M 0 0 
L 0 3.5 
" style="stroke: #000000; stroke-width: 0.8"/>
      </defs>
      <g>
       <use xlink:href="#m7f81d0f3b8" x="70.185869" y="384.48" style="stroke: #000000; stroke-width: 0.8"/>
      </g>
     </g>
     <g id="text_1">
      <!-- −1.00 -->
      <g transform="translate(54.863212 399.078438) scale(0.1 -0.1)">
       <defs>
        <path id="DejaVuSans-2212" d="M 678 2272 
L 4684 2272 
L 4684 1741 
L 678 1741 
L 678 2272 
z
" transform="scale(0.015625)"/>
        <path id="DejaVuSans-31" d="M 794 531 
L 1825 531 
L 1825 4091 
L 703 3866 
L 703 4441 
L 1819 4666 
L 2450 4666 
L 2450 531 
L 3481 531 
L 3481 0 
L 794 0 
L 794 531 
z
" transform="scale(0.015625)"/>
        <path id="DejaVuSans-2e" d="M 684 794 
L 1344 794 
L 1344 0 
L 684 0 
L 684 794 
z
" transform="scale(0.015625)"/>
        <path id="DejaVuSans-30" d="M 2034 4250 
Q 1547 4250 1301 3770 
Q 1056 3291 1056 2328 
Q 1056 1369 1301 889 
Q 1547 409 2034 409 
Q 2525 409 2770 889 
Q 3016 1369 3016 2328 
Q 3016 3291 2770 3770 
Q 2525 4250 2034 4250 
z
M 2034 4750 
Q 2819 4750 3233 4129 
Q 3647 3509 3647 2328 
Q 3647 1150 3233 529 
Q 2819 -91 2034 -91 
Q 1250 -91 836 529 
Q 422 1150 422 2328 
Q 422 3509 836 4129 
Q 1250 4750 2034 4750 
z
" transform="scale(0.015625)"/>
       </defs>
       <use xlink:href="#DejaVuSans-2212"/>
       <use xlink:href="#DejaVuSans-31" x="83.789062"/>
       <use xlink:href="#DejaVuSans-2e" x="147.412109"/>
       <use xlink:href="#DejaVuSans-30" x="179.199219"/>
       <use xlink:href="#DejaVuSans-30" x="242.822266"/>
      </g>
     </g>
    </g>
    <g id="xtick_2">
     <g id="line2d_2">
      <g>
       <use xlink:href="#m7f81d0f3b8" x="107.987046" y="384.48" style="stroke: #000000; stroke-width: 0.8"/>
      </g>
     </g>
     <g id="text_2">
      <!-- −0.75 -->
      <g transform="translate(92.66439 399.078438) scale(0.1 -0.1)">
       <defs>
        <path id="DejaVuSans-37" d="M 525 4666 
L 3525 4666 
L 3525 4397 
L 1831 0 
L 1172 0 
L 2766 4134 
L 525 4134 
L 525 4666 
z
" transform="scale(0.015625)"/>
        <path id="DejaVuSans-35" d="M 691 4666 
L 3169 4666 
L 3169 4134 
L 1269 4134 
L 1269 2991 
Q 1406 3038 1543 3061 
Q 1681 3084 1819 3084 
Q 2600 3084 3056 2656 
Q 3513 2228 3513 1497 
Q 3513 744 3044 326 
Q 2575 -91 1722 -91 
Q 1428 -91 1123 -41 
Q 819 9 494 109 
L 494 744 
Q 775 591 1075 516 
Q 1375 441 1709 441 
Q 2250 441 2565 725 
Q 2881 1009 2881 1497 
Q 2881 1984 2565 2268 
Q 2250 2553 1709 2553 
Q 1456 2553 1204 2497 
Q 953 2441 691 2322 
L 691 4666 
z
" transform="scale(0.015625)"/>
       </defs>
       <use xlink:href="#DejaVuSans-2212"/>
       <use xlink:href="#DejaVuSans-30" x="83.789062"/>
       <use xlink:href="#DejaVuSans-2e" x="147.412109"/>
       <use xlink:href="#DejaVuSans-37" x="179.199219"/>
       <use xlink:href="#DejaVuSans-35" x="242.822266"/>
      </g>
     </g>
    </g>
    <g id="xtick_3">
     <g id="line2d_3">
      <g>
       <use xlink:href="#m7f81d0f3b8" x="145.788224" y="384.48" style="stroke: #000000; stroke-width: 0.8"/>
      </g>
     </g>
     <g id="text_3">
      <!-- −0.50 -->
      <g transform="translate(130.465568 399.078438) scale(0.1 -0.1)">
       <use xlink:href="#DejaVuSans-2212"/>
       <use xlink:href="#DejaVuSans-30" x="83.789062"/>
       <use xlink:href="#DejaVuSans-2e" x="147.412109"/>
       <use xlink:href="#DejaVuSans-35" x="179.199219"/>
       <use xlink:href="#DejaVuSans-30" x="242.822266"/>
      </g>
     </g>
    </g>
    <g id="xtick_4">
     <g id="line2d_4">
      <g>
       <use xlink:href="#m7f81d0f3b8" x="183.589402" y="384.48" style="stroke: #000000; stroke-width: 0.8"/>
      </g>
     </g>
     <g id="text_4">
      <!-- −0.25 -->
      <g transform="translate(168.266745 399.078438) scale(0.1 -0.1)">
       <defs>
        <path id="DejaVuSans-32" d="M 1228 531 
L 3431 531 
L 3431 0 
L 469 0 
L 469 531 
Q 828 903 1448 1529 
Q 2069 2156 2228 2338 
Q 2531 2678 2651 2914 
Q 2772 3150 2772 3378 
Q 2772 3750 2511 3984 
Q 2250 4219 1831 4219 
Q 1534 4219 1204 4116 
Q 875 4013 500 3803 
L 500 4441 
Q 881 4594 1212 4672 
Q 1544 4750 1819 4750 
Q 2544 4750 2975 4387 
Q 3406 4025 3406 3419 
Q 3406 3131 3298 2873 
Q 3191 2616 2906 2266 
Q 2828 2175 2409 1742 
Q 1991 1309 1228 531 
z
" transform="scale(0.015625)"/>
       </defs>
       <use xlink:href="#DejaVuSans-2212"/>
       <use xlink:href="#DejaVuSans-30" x="83.789062"/>
       <use xlink:href="#DejaVuSans-2e" x="147.412109"/>
       <use xlink:href="#DejaVuSans-32" x="179.199219"/>
       <use xlink:href="#DejaVuSans-35" x="242.822266"/>
      </g>
     </g>
    </g>
    <g id="xtick_5">
     <g id="line2d_5">
      <g>
       <use xlink:href="#m7f81d0f3b8" x="221.390579" y="384.48" style="stroke: #000000; stroke-width: 0.8"/>
      </g>
     </g>
     <g id="text_5">
      <!-- 0.00 -->
      <g transform="translate(210.257767 399.078438) scale(0.1 -0.1)">
       <use xlink:href="#DejaVuSans-30"/>
       <use xlink:href="#DejaVuSans-2e" x="63.623047"/>
       <use xlink:href="#DejaVuSans-30" x="95.410156"/>
       <use xlink:href="#DejaVuSans-30" x="159.033203"/>
      </g>
     </g>
    </g>
    <g id="xtick_6">
     <g id="line2d_6">
      <g>
       <use xlink:href="#m7f81d0f3b8" x="259.191757" y="384.48" style="stroke: #000000; stroke-width: 0.8"/>
      </g>
     </g>
     <g id="text_6">
      <!-- 0.25 -->
      <g transform="translate(248.058944 399.078438) scale(0.1 -0.1)">
       <use xlink:href="#DejaVuSans-30"/>
       <use xlink:href="#DejaVuSans-2e" x="63.623047"/>
       <use xlink:href="#DejaVuSans-32" x="95.410156"/>
       <use xlink:href="#DejaVuSans-35" x="159.033203"/>
      </g>
     </g>
    </g>
    <g id="xtick_7">
     <g id="line2d_7">
      <g>
       <use xlink:href="#m7f81d0f3b8" x="296.992934" y="384.48" style="stroke: #000000; stroke-width: 0.8"/>
      </g>
     </g>
     <g id="text_7">
      <!-- 0.50 -->
      <g transform="translate(285.860122 399.078438) scale(0.1 -0.1)">
       <use xlink:href="#DejaVuSans-30"/>
       <use xlink:href="#DejaVuSans-2e" x="63.623047"/>
       <use xlink:href="#DejaVuSans-35" x="95.410156"/>
       <use xlink:href="#DejaVuSans-30" x="159.033203"/>
      </g>
     </g>
    </g>
    <g id="xtick_8">
     <g id="line2d_8">
      <g>
       <use xlink:href="#m7f81d0f3b8" x="334.794112" y="384.48" style="stroke: #000000; stroke-width: 0.8"/>
      </g>
     </g>
     <g id="text_8">
      <!-- 0.75 -->
      <g transform="translate(323.6613 399.078438) scale(0.1 -0.1)">
       <use xlink:href="#DejaVuSans-30"/>
       <use xlink:href="#DejaVuSans-2e" x="63.623047"/>
       <use xlink:href="#DejaVuSans-37" x="95.410156"/>
       <use xlink:href="#DejaVuSans-35" x="159.033203"/>
      </g>
     </g>
    </g>
    <g id="xtick_9">
     <g id="line2d_9">
      <g>
       <use xlink:href="#m7f81d0f3b8" x="372.59529" y="384.48" style="stroke: #000000; stroke-width: 0.8"/>
      </g>
     </g>
     <g id="text_9">
      <!-- 1.00 -->
      <g transform="translate(361.462477 399.078438) scale(0.1 -0.1)">
       <use xlink:href="#DejaVuSans-31"/>
       <use xlink:href="#DejaVuSans-2e" x="63.623047"/>
       <use xlink:href="#DejaVuSans-30" x="95.410156"/>
       <use xlink:href="#DejaVuSans-30" x="159.033203"/>
      </g>
     </g>
    </g>
    <g id="text_10">
     <!-- u-component -->
     <g transform="translate(188.140625 412.756563) scale(0.1 -0.1)">
      <defs>
       <path id="DejaVuSans-75" d="M 544 1381 
L 544 3500 
L 1119 3500 
L 1119 1403 
Q 1119 906 1312 657 
Q 1506 409 1894 409 
Q 2359 409 2629 706 
Q 2900 1003 2900 1516 
L 2900 3500 
L 3475 3500 
L 3475 0 
L 2900 0 
L 2900 538 
Q 2691 219 2414 64 
Q 2138 -91 1772 -91 
Q 1169 -91 856 284 
Q 544 659 544 1381 
z
M 1991 3584 
L 1991 3584 
z
" transform="scale(0.015625)"/>
       <path id="DejaVuSans-2d" d="M 313 2009 
L 1997 2009 
L 1997 1497 
L 313 1497 
L 313 2009 
z
" transform="scale(0.015625)"/>
       <path id="DejaVuSans-63" d="M 3122 3366 
L 3122 2828 
Q 2878 2963 2633 3030 
Q 2388 3097 2138 3097 
Q 1578 3097 1268 2742 
Q 959 2388 959 1747 
Q 959 1106 1268 751 
Q 1578 397 2138 397 
Q 2388 397 2633 464 
Q 2878 531 3122 666 
L 3122 134 
Q 2881 22 2623 -34 
Q 2366 -91 2075 -91 
Q 1284 -91 818 406 
Q 353 903 353 1747 
Q 353 2603 823 3093 
Q 1294 3584 2113 3584 
Q 2378 3584 2631 3529 
Q 2884 3475 3122 3366 
z
" transform="scale(0.015625)"/>
       <path id="DejaVuSans-6f" d="M 1959 3097 
Q 1497 3097 1228 2736 
Q 959 2375 959 1747 
Q 959 1119 1226 758 
Q 1494 397 1959 397 
Q 2419 397 2687 759 
Q 2956 1122 2956 1747 
Q 2956 2369 2687 2733 
Q 2419 3097 1959 3097 
z
M 1959 3584 
Q 2709 3584 3137 3096 
Q 3566 2609 3566 1747 
Q 3566 888 3137 398 
Q 2709 -91 1959 -91 
Q 1206 -91 779 398 
Q 353 888 353 1747 
Q 353 2609 779 3096 
Q 1206 3584 1959 3584 
z
" transform="scale(0.015625)"/>
       <path id="DejaVuSans-6d" d="M 3328 2828 
Q 3544 3216 3844 3400 
Q 4144 3584 4550 3584 
Q 5097 3584 5394 3201 
Q 5691 2819 5691 2113 
L 5691 0 
L 5113 0 
L 5113 2094 
Q 5113 2597 4934 2840 
Q 4756 3084 4391 3084 
Q 3944 3084 3684 2787 
Q 3425 2491 3425 1978 
L 3425 0 
L 2847 0 
L 2847 2094 
Q 2847 2600 2669 2842 
Q 2491 3084 2119 3084 
Q 1678 3084 1418 2786 
Q 1159 2488 1159 1978 
L 1159 0 
L 581 0 
L 581 3500 
L 1159 3500 
L 1159 2956 
Q 1356 3278 1631 3431 
Q 1906 3584 2284 3584 
Q 2666 3584 2933 3390 
Q 3200 3197 3328 2828 
z
" transform="scale(0.015625)"/>
       <path id="DejaVuSans-70" d="M 1159 525 
L 1159 -1331 
L 581 -1331 
L 581 3500 
L 1159 3500 
L 1159 2969 
Q 1341 3281 1617 3432 
Q 1894 3584 2278 3584 
Q 2916 3584 3314 3078 
Q 3713 2572 3713 1747 
Q 3713 922 3314 415 
Q 2916 -91 2278 -91 
Q 1894 -91 1617 61 
Q 1341 213 1159 525 
z
M 3116 1747 
Q 3116 2381 2855 2742 
Q 2594 3103 2138 3103 
Q 1681 3103 1420 2742 
Q 1159 2381 1159 1747 
Q 1159 1113 1420 752 
Q 1681 391 2138 391 
Q 2594 391 2855 752 
Q 3116 1113 3116 1747 
z
" transform="scale(0.015625)"/>
       <path id="DejaVuSans-6e" d="M 3513 2113 
L 3513 0 
L 2938 0 
L 2938 2094 
Q 2938 2591 2744 2837 
Q 2550 3084 2163 3084 
Q 1697 3084 1428 2787 
Q 1159 2491 1159 1978 
L 1159 0 
L 581 0 
L 581 3500 
L 1159 3500 
L 1159 2956 
Q 1366 3272 1645 3428 
Q 1925 3584 2291 3584 
Q 2894 3584 3203 3211 
Q 3513 2838 3513 2113 
z
" transform="scale(0.015625)"/>
       <path id="DejaVuSans-65" d="M 3597 1894 
L 3597 1613 
L 953 1613 
Q 991 1019 1311 708 
Q 1631 397 2203 397 
Q 2534 397 2845 478 
Q 3156 559 3463 722 
L 3463 178 
Q 3153 47 2828 -22 
Q 2503 -91 2169 -91 
Q 1331 -91 842 396 
Q 353 884 353 1716 
Q 353 2575 817 3079 
Q 1281 3584 2069 3584 
Q 2775 3584 3186 3129 
Q 3597 2675 3597 1894 
z
M 3022 2063 
Q 3016 2534 2758 2815 
Q 2500 3097 2075 3097 
Q 1594 3097 1305 2825 
Q 1016 2553 972 2059 
L 3022 2063 
z
" transform="scale(0.015625)"/>
       <path id="DejaVuSans-74" d="M 1172 4494 
L 1172 3500 
L 2356 3500 
L 2356 3053 
L 1172 3053 
L 1172 1153 
Q 1172 725 1289 603 
Q 1406 481 1766 481 
L 2356 481 
L 2356 0 
L 1766 0 
Q 1100 0 847 248 
Q 594 497 594 1153 
L 594 3053 
L 172 3053 
L 172 3500 
L 594 3500 
L 594 4494 
L 1172 4494 
z
" transform="scale(0.015625)"/>
      </defs>
      <use xlink:href="#DejaVuSans-75"/>
      <use xlink:href="#DejaVuSans-2d" x="63.378906"/>
      <use xlink:href="#DejaVuSans-63" x="99.462891"/>
      <use xlink:href="#DejaVuSans-6f" x="154.443359"/>
      <use xlink:href="#DejaVuSans-6d" x="215.625"/>
      <use xlink:href="#DejaVuSans-70" x="313.037109"/>
      <use xlink:href="#DejaVuSans-6f" x="376.513672"/>
      <use xlink:href="#DejaVuSans-6e" x="437.695312"/>
      <use xlink:href="#DejaVuSans-65" x="501.074219"/>
      <use xlink:href="#DejaVuSans-6e" x="562.597656"/>
      <use xlink:href="#DejaVuSans-74" x="625.976562"/>
     </g>
    </g>
   </g>
   <g id="matplotlib.axis_2">
    <g id="ytick_1">
     <g id="line2d_10">
      <defs>
       <path id="m6bf46ad4f0" d="M 0 0 
L -3.5 0 
" style="stroke: #000000; stroke-width: 0.8"/>
      </defs>
      <g>
       <use xlink:href="#m6bf46ad4f0" x="55.085181" y="369.36471" style="stroke: #000000; stroke-width: 0.8"/>
      </g>
     </g>
     <g id="text_11">
      <!-- −1.00 -->
      <g transform="translate(17.439869 373.163929) scale(0.1 -0.1)">
       <use xlink:href="#DejaVuSans-2212"/>
       <use xlink:href="#DejaVuSans-31" x="83.789062"/>
       <use xlink:href="#DejaVuSans-2e" x="147.412109"/>
       <use xlink:href="#DejaVuSans-30" x="179.199219"/>
       <use xlink:href="#DejaVuSans-30" x="242.822266"/>
      </g>
     </g>
    </g>
    <g id="ytick_2">
     <g id="line2d_11">
      <g>
       <use xlink:href="#m6bf46ad4f0" x="55.085181" y="331.563533" style="stroke: #000000; stroke-width: 0.8"/>
      </g>
     </g>
     <g id="text_12">
      <!-- −0.75 -->
      <g transform="translate(17.439869 335.362752) scale(0.1 -0.1)">
       <use xlink:href="#DejaVuSans-2212"/>
       <use xlink:href="#DejaVuSans-30" x="83.789062"/>
       <use xlink:href="#DejaVuSans-2e" x="147.412109"/>
       <use xlink:href="#DejaVuSans-37" x="179.199219"/>
       <use xlink:href="#DejaVuSans-35" x="242.822266"/>
      </g>
     </g>
    </g>
    <g id="ytick_3">
     <g id="line2d_12">
      <g>
       <use xlink:href="#m6bf46ad4f0" x="55.085181" y="293.762355" style="stroke: #000000; stroke-width: 0.8"/>
      </g>
     </g>
     <g id="text_13">
      <!-- −0.50 -->
      <g transform="translate(17.439869 297.561574) scale(0.1 -0.1)">
       <use xlink:href="#DejaVuSans-2212"/>
       <use xlink:href="#DejaVuSans-30" x="83.789062"/>
       <use xlink:href="#DejaVuSans-2e" x="147.412109"/>
       <use xlink:href="#DejaVuSans-35" x="179.199219"/>
       <use xlink:href="#DejaVuSans-30" x="242.822266"/>
      </g>
     </g>
    </g>
    <g id="ytick_4">
     <g id="line2d_13">
      <g>
       <use xlink:href="#m6bf46ad4f0" x="55.085181" y="255.961178" style="stroke: #000000; stroke-width: 0.8"/>
      </g>
     </g>
     <g id="text_14">
      <!-- −0.25 -->
      <g transform="translate(17.439869 259.760396) scale(0.1 -0.1)">
       <use xlink:href="#DejaVuSans-2212"/>
       <use xlink:href="#DejaVuSans-30" x="83.789062"/>
       <use xlink:href="#DejaVuSans-2e" x="147.412109"/>
       <use xlink:href="#DejaVuSans-32" x="179.199219"/>
       <use xlink:href="#DejaVuSans-35" x="242.822266"/>
      </g>
     </g>
    </g>
    <g id="ytick_5">
     <g id="line2d_14">
      <g>
       <use xlink:href="#m6bf46ad4f0" x="55.085181" y="218.16" style="stroke: #000000; stroke-width: 0.8"/>
      </g>
     </g>
     <g id="text_15">
      <!-- 0.00 -->
      <g transform="translate(25.819556 221.959219) scale(0.1 -0.1)">
       <use xlink:href="#DejaVuSans-30"/>
       <use xlink:href="#DejaVuSans-2e" x="63.623047"/>
       <use xlink:href="#DejaVuSans-30" x="95.410156"/>
       <use xlink:href="#DejaVuSans-30" x="159.033203"/>
      </g>
     </g>
    </g>
    <g id="ytick_6">
     <g id="line2d_15">
      <g>
       <use xlink:href="#m6bf46ad4f0" x="55.085181" y="180.358822" style="stroke: #000000; stroke-width: 0.8"/>
      </g>
     </g>
     <g id="text_16">
      <!-- 0.25 -->
      <g transform="translate(25.819556 184.158041) scale(0.1 -0.1)">
       <use xlink:href="#DejaVuSans-30"/>
       <use xlink:href="#DejaVuSans-2e" x="63.623047"/>
       <use xlink:href="#DejaVuSans-32" x="95.410156"/>
       <use xlink:href="#DejaVuSans-35" x="159.033203"/>
      </g>
     </g>
    </g>
    <g id="ytick_7">
     <g id="line2d_16">
      <g>
       <use xlink:href="#m6bf46ad4f0" x="55.085181" y="142.557645" style="stroke: #000000; stroke-width: 0.8"/>
      </g>
     </g>
     <g id="text_17">
      <!-- 0.50 -->
      <g transform="translate(25.819556 146.356864) scale(0.1 -0.1)">
       <use xlink:href="#DejaVuSans-30"/>
       <use xlink:href="#DejaVuSans-2e" x="63.623047"/>
       <use xlink:href="#DejaVuSans-35" x="95.410156"/>
       <use xlink:href="#DejaVuSans-30" x="159.033203"/>
      </g>
     </g>
    </g>
    <g id="ytick_8">
     <g id="line2d_17">
      <g>
       <use xlink:href="#m6bf46ad4f0" x="55.085181" y="104.756467" style="stroke: #000000; stroke-width: 0.8"/>
      </g>
     </g>
     <g id="text_18">
      <!-- 0.75 -->
      <g transform="translate(25.819556 108.555686) scale(0.1 -0.1)">
       <use xlink:href="#DejaVuSans-30"/>
       <use xlink:href="#DejaVuSans-2e" x="63.623047"/>
       <use xlink:href="#DejaVuSans-37" x="95.410156"/>
       <use xlink:href="#DejaVuSans-35" x="159.033203"/>
      </g>
     </g>
    </g>
    <g id="ytick_9">
     <g id="line2d_18">
      <g>
       <use xlink:href="#m6bf46ad4f0" x="55.085181" y="66.95529" style="stroke: #000000; stroke-width: 0.8"/>
      </g>
     </g>
     <g id="text_19">
      <!-- 1.00 -->
      <g transform="translate(25.819556 70.754508) scale(0.1 -0.1)">
       <use xlink:href="#DejaVuSans-31"/>
       <use xlink:href="#DejaVuSans-2e" x="63.623047"/>
       <use xlink:href="#DejaVuSans-30" x="95.410156"/>
       <use xlink:href="#DejaVuSans-30" x="159.033203"/>
      </g>
     </g>
    </g>
    <g id="text_20">
     <!-- v-component -->
     <g transform="translate(11.360181 251.07875) rotate(-90) scale(0.1 -0.1)">
      <defs>
       <path id="DejaVuSans-76" d="M 191 3500 
L 800 3500 
L 1894 563 
L 2988 3500 
L 3597 3500 
L 2284 0 
L 1503 0 
L 191 3500 
z
" transform="scale(0.015625)"/>
      </defs>
      <use xlink:href="#DejaVuSans-76"/>
      <use xlink:href="#DejaVuSans-2d" x="56.554688"/>
      <use xlink:href="#DejaVuSans-63" x="92.638672"/>
      <use xlink:href="#DejaVuSans-6f" x="147.619141"/>
      <use xlink:href="#DejaVuSans-6d" x="208.800781"/>
      <use xlink:href="#DejaVuSans-70" x="306.212891"/>
      <use xlink:href="#DejaVuSans-6f" x="369.689453"/>
      <use xlink:href="#DejaVuSans-6e" x="430.871094"/>
      <use xlink:href="#DejaVuSans-65" x="494.25"/>
      <use xlink:href="#DejaVuSans-6e" x="555.773438"/>
      <use xlink:href="#DejaVuSans-74" x="619.152344"/>
     </g>
    </g>
   </g>
   <g id="line2d_19">
    <path d="M 372.59529 218.16 
L 372.519928 213.386687 
L 372.293916 208.618131 
L 371.917482 203.859088 
L 371.390998 199.114299 
L 370.714991 194.388496 
L 369.890135 189.686389 
L 368.91725 185.012665 
L 367.797308 180.371983 
L 366.531424 175.768969 
L 365.120861 171.208211 
L 363.567025 166.694256 
L 361.871463 162.231603 
L 360.035868 157.8247 
L 358.062068 153.477941 
L 355.95203 149.195659 
L 353.707859 144.982121 
L 351.331791 140.841529 
L 348.826195 136.77801 
L 346.193568 132.795614 
L 343.436535 128.898311 
L 340.557844 125.089987 
L 337.560365 121.374436 
L 334.447084 117.755363 
L 331.221107 114.236376 
L 327.885648 110.820982 
L 324.444033 107.512586 
L 320.899692 104.314486 
L 317.256157 101.22987 
L 313.517062 98.261812 
L 309.686133 95.413271 
L 305.76719 92.687086 
L 301.764138 90.085976 
L 297.680967 87.612533 
L 293.521749 85.269222 
L 289.290629 83.05838 
L 284.991825 80.98221 
L 280.629621 79.042782 
L 276.208367 77.242029 
L 271.732469 75.581746 
L 267.20639 74.063588 
L 262.63464 72.689068 
L 258.021777 71.459558 
L 253.372399 70.376281 
L 248.691142 69.440318 
L 243.98267 68.652603 
L 239.251678 68.013919 
L 234.502882 67.524905 
L 229.741015 67.186046 
L 224.970824 66.997682 
L 220.197065 66.96 
L 215.424495 67.073037 
L 210.657872 67.336681 
L 205.901948 67.750669 
L 201.161463 68.314588 
L 196.441143 69.027877 
L 191.745694 69.889823 
L 187.079795 70.899569 
L 182.448097 72.056107 
L 177.855219 73.358284 
L 173.305737 74.804803 
L 168.804187 76.394222 
L 164.355057 78.124956 
L 159.962781 79.995279 
L 155.631737 82.003329 
L 151.366243 84.147102 
L 147.170551 86.424462 
L 143.048844 88.833139 
L 139.005229 91.370732 
L 135.043737 94.034711 
L 131.168318 96.822421 
L 127.382834 99.731083 
L 123.69106 102.757798 
L 120.096674 105.899547 
L 116.60326 109.153201 
L 113.214301 112.515515 
L 109.933174 115.983137 
L 106.76315 119.552612 
L 103.707389 123.220381 
L 100.768938 126.982787 
L 97.950725 130.836081 
L 95.255559 134.776422 
L 92.686127 138.799881 
L 90.244991 142.902448 
L 87.934584 147.080033 
L 85.757208 151.328472 
L 83.715035 155.64353 
L 81.8101 160.020907 
L 80.044301 164.456237 
L 78.4194 168.945101 
L 76.937015 173.483023 
L 75.598625 178.06548 
L 74.405563 182.687904 
L 73.35902 187.345687 
L 72.460037 192.034187 
L 71.709512 196.74873 
L 71.108192 201.484615 
L 70.656676 206.237124 
L 70.355416 211.001517 
L 70.20471 215.773046 
L 70.20471 220.546954 
L 70.355416 225.318483 
L 70.656676 230.082876 
L 71.108192 234.835385 
L 71.709512 239.57127 
L 72.460037 244.285813 
L 73.35902 248.974313 
L 74.405563 253.632096 
L 75.598625 258.25452 
L 76.937015 262.836977 
L 78.4194 267.374899 
L 80.044301 271.863763 
L 81.8101 276.299093 
L 83.715035 280.67647 
L 85.757208 284.991528 
L 87.934584 289.239967 
L 90.244991 293.417552 
L 92.686127 297.520119 
L 95.255559 301.543578 
L 97.950725 305.483919 
L 100.768938 309.337213 
L 103.707389 313.099619 
L 106.76315 316.767388 
L 109.933174 320.336863 
L 113.214301 323.804485 
L 116.60326 327.166799 
L 120.096674 330.420453 
L 123.69106 333.562202 
L 127.382834 336.588917 
L 131.168318 339.497579 
L 135.043737 342.285289 
L 139.005229 344.949268 
L 143.048844 347.486861 
L 147.170551 349.895538 
L 151.366243 352.172898 
L 155.631737 354.316671 
L 159.962781 356.324721 
L 164.355057 358.195044 
L 168.804187 359.925778 
L 173.305737 361.515197 
L 177.855219 362.961716 
L 182.448097 364.263893 
L 187.079795 365.420431 
L 191.745694 366.430177 
L 196.441143 367.292123 
L 201.161463 368.005412 
L 205.901948 368.569331 
L 210.657872 368.983319 
L 215.424495 369.246963 
L 220.197065 369.36 
L 224.970824 369.322318 
L 229.741015 369.133954 
L 234.502882 368.795095 
L 239.251678 368.306081 
L 243.98267 367.667397 
L 248.691142 366.879682 
L 253.372399 365.943719 
L 258.021777 364.860442 
L 262.63464 363.630932 
L 267.20639 362.256412 
L 271.732469 360.738254 
L 276.208367 359.077971 
L 280.629621 357.277218 
L 284.991825 355.33779 
L 289.290629 353.26162 
L 293.521749 351.050778 
L 297.680967 348.707467 
L 301.764138 346.234024 
L 305.76719 343.632914 
L 309.686133 340.906729 
L 313.517062 338.058188 
L 317.256157 335.09013 
L 320.899692 332.005514 
L 324.444033 328.807414 
L 327.885648 325.499018 
L 331.221107 322.083624 
L 334.447084 318.564637 
L 337.560365 314.945564 
L 340.557844 311.230013 
L 343.436535 307.421689 
L 346.193568 303.524386 
L 348.826195 299.54199 
L 351.331791 295.478471 
L 353.707859 291.337879 
L 355.95203 287.124341 
L 358.062068 282.842059 
L 360.035868 278.4953 
L 361.871463 274.088397 
L 363.567025 269.625744 
L 365.120861 265.111789 
L 366.531424 260.551031 
L 367.797308 255.948017 
L 368.91725 251.307335 
L 369.890135 246.633611 
L 370.714991 241.931504 
L 371.390998 237.205701 
L 371.917482 232.460912 
L 372.293916 227.701869 
L 372.519928 222.933313 
L 372.59529 218.16 
L 372.59529 218.16 
" clip-path="url(#pdcfb78c215)" style="fill: none; stroke-dasharray: 5.55,2.4; stroke-dashoffset: 0; stroke: #000000; stroke-width: 1.5"/>
   </g>
   <g id="line2d_20">
    <path d="M 289.011381 353.401604 
L 289.011381 353.401604 
L 153.769777 82.918396 
L 289.011381 353.401604 
L 289.011381 353.401604 
" clip-path="url(#pdcfb78c215)" style="fill: none; stroke: #0000ff; stroke-width: 1.5; stroke-linecap: square"/>
   </g>
   <g id="patch_4">
    <path d="M 55.085181 384.48 
L 55.085181 51.84 
" style="fill: none; stroke: #000000; stroke-width: 0.8; stroke-linejoin: miter; stroke-linecap: square"/>
   </g>
   <g id="patch_5">
    <path d="M 387.714819 384.48 
L 387.714819 51.84 
" style="fill: none; stroke: #000000; stroke-width: 0.8; stroke-linejoin: miter; stroke-linecap: square"/>
   </g>
   <g id="patch_6">
    <path d="M 55.085181 384.48 
L 387.714819 384.48 
" style="fill: none; stroke: #000000; stroke-width: 0.8; stroke-linejoin: miter; stroke-linecap: square"/>
   </g>
   <g id="patch_7">
    <path d="M 55.085181 51.84 
L 387.714819 51.84 
" style="fill: none; stroke: #000000; stroke-width: 0.8; stroke-linejoin: miter; stroke-linecap: square"/>
   </g>
   <g id="text_21">
    <!-- Incompressibility in Fourier Space -->
    <g transform="translate(120.074062 45.84) scale(0.12 -0.12)">
     <defs>
      <path id="DejaVuSans-49" d="M 628 4666 
L 1259 4666 
L 1259 0 
L 628 0 
L 628 4666 
z
" transform="scale(0.015625)"/>
      <path id="DejaVuSans-72" d="M 2631 2963 
Q 2534 3019 2420 3045 
Q 2306 3072 2169 3072 
Q 1681 3072 1420 2755 
Q 1159 2438 1159 1844 
L 1159 0 
L 581 0 
L 581 3500 
L 1159 3500 
L 1159 2956 
Q 1341 3275 1631 3429 
Q 1922 3584 2338 3584 
Q 2397 3584 2469 3576 
Q 2541 3569 2628 3553 
L 2631 2963 
z
" transform="scale(0.015625)"/>
      <path id="DejaVuSans-73" d="M 2834 3397 
L 2834 2853 
Q 2591 2978 2328 3040 
Q 2066 3103 1784 3103 
Q 1356 3103 1142 2972 
Q 928 2841 928 2578 
Q 928 2378 1081 2264 
Q 1234 2150 1697 2047 
L 1894 2003 
Q 2506 1872 2764 1633 
Q 3022 1394 3022 966 
Q 3022 478 2636 193 
Q 2250 -91 1575 -91 
Q 1294 -91 989 -36 
Q 684 19 347 128 
L 347 722 
Q 666 556 975 473 
Q 1284 391 1588 391 
Q 1994 391 2212 530 
Q 2431 669 2431 922 
Q 2431 1156 2273 1281 
Q 2116 1406 1581 1522 
L 1381 1569 
Q 847 1681 609 1914 
Q 372 2147 372 2553 
Q 372 3047 722 3315 
Q 1072 3584 1716 3584 
Q 2034 3584 2315 3537 
Q 2597 3491 2834 3397 
z
" transform="scale(0.015625)"/>
      <path id="DejaVuSans-69" d="M 603 3500 
L 1178 3500 
L 1178 0 
L 603 0 
L 603 3500 
z
M 603 4863 
L 1178 4863 
L 1178 4134 
L 603 4134 
L 603 4863 
z
" transform="scale(0.015625)"/>
      <path id="DejaVuSans-62" d="M 3116 1747 
Q 3116 2381 2855 2742 
Q 2594 3103 2138 3103 
Q 1681 3103 1420 2742 
Q 1159 2381 1159 1747 
Q 1159 1113 1420 752 
Q 1681 391 2138 391 
Q 2594 391 2855 752 
Q 3116 1113 3116 1747 
z
M 1159 2969 
Q 1341 3281 1617 3432 
Q 1894 3584 2278 3584 
Q 2916 3584 3314 3078 
Q 3713 2572 3713 1747 
Q 3713 922 3314 415 
Q 2916 -91 2278 -91 
Q 1894 -91 1617 61 
Q 1341 213 1159 525 
L 1159 0 
L 581 0 
L 581 4863 
L 1159 4863 
L 1159 2969 
z
" transform="scale(0.015625)"/>
      <path id="DejaVuSans-6c" d="M 603 4863 
L 1178 4863 
L 1178 0 
L 603 0 
L 603 4863 
z
" transform="scale(0.015625)"/>
      <path id="DejaVuSans-79" d="M 2059 -325 
Q 1816 -950 1584 -1140 
Q 1353 -1331 966 -1331 
L 506 -1331 
L 506 -850 
L 844 -850 
Q 1081 -850 1212 -737 
Q 1344 -625 1503 -206 
L 1606 56 
L 191 3500 
L 800 3500 
L 1894 763 
L 2988 3500 
L 3597 3500 
L 2059 -325 
z
" transform="scale(0.015625)"/>
      <path id="DejaVuSans-20" transform="scale(0.015625)"/>
      <path id="DejaVuSans-46" d="M 628 4666 
L 3309 4666 
L 3309 4134 
L 1259 4134 
L 1259 2759 
L 3109 2759 
L 3109 2228 
L 1259 2228 
L 1259 0 
L 628 0 
L 628 4666 
z
" transform="scale(0.015625)"/>
      <path id="DejaVuSans-53" d="M 3425 4513 
L 3425 3897 
Q 3066 4069 2747 4153 
Q 2428 4238 2131 4238 
Q 1616 4238 1336 4038 
Q 1056 3838 1056 3469 
Q 1056 3159 1242 3001 
Q 1428 2844 1947 2747 
L 2328 2669 
Q 3034 2534 3370 2195 
Q 3706 1856 3706 1288 
Q 3706 609 3251 259 
Q 2797 -91 1919 -91 
Q 1588 -91 1214 -16 
Q 841 59 441 206 
L 441 856 
Q 825 641 1194 531 
Q 1563 422 1919 422 
Q 2459 422 2753 634 
Q 3047 847 3047 1241 
Q 3047 1584 2836 1778 
Q 2625 1972 2144 2069 
L 1759 2144 
Q 1053 2284 737 2584 
Q 422 2884 422 3419 
Q 422 4038 858 4394 
Q 1294 4750 2059 4750 
Q 2388 4750 2728 4690 
Q 3069 4631 3425 4513 
z
" transform="scale(0.015625)"/>
      <path id="DejaVuSans-61" d="M 2194 1759 
Q 1497 1759 1228 1600 
Q 959 1441 959 1056 
Q 959 750 1161 570 
Q 1363 391 1709 391 
Q 2188 391 2477 730 
Q 2766 1069 2766 1631 
L 2766 1759 
L 2194 1759 
z
M 3341 1997 
L 3341 0 
L 2766 0 
L 2766 531 
Q 2569 213 2275 61 
Q 1981 -91 1556 -91 
Q 1019 -91 701 211 
Q 384 513 384 1019 
Q 384 1609 779 1909 
Q 1175 2209 1959 2209 
L 2766 2209 
L 2766 2266 
Q 2766 2663 2505 2880 
Q 2244 3097 1772 3097 
Q 1472 3097 1187 3025 
Q 903 2953 641 2809 
L 641 3341 
Q 956 3463 1253 3523 
Q 1550 3584 1831 3584 
Q 2591 3584 2966 3190 
Q 3341 2797 3341 1997 
z
" transform="scale(0.015625)"/>
     </defs>
     <use xlink:href="#DejaVuSans-49"/>
     <use xlink:href="#DejaVuSans-6e" x="29.492188"/>
     <use xlink:href="#DejaVuSans-63" x="92.871094"/>
     <use xlink:href="#DejaVuSans-6f" x="147.851562"/>
     <use xlink:href="#DejaVuSans-6d" x="209.033203"/>
     <use xlink:href="#DejaVuSans-70" x="306.445312"/>
     <use xlink:href="#DejaVuSans-72" x="369.921875"/>
     <use xlink:href="#DejaVuSans-65" x="408.785156"/>
     <use xlink:href="#DejaVuSans-73" x="470.308594"/>
     <use xlink:href="#DejaVuSans-73" x="522.408203"/>
     <use xlink:href="#DejaVuSans-69" x="574.507812"/>
     <use xlink:href="#DejaVuSans-62" x="602.291016"/>
     <use xlink:href="#DejaVuSans-69" x="665.767578"/>
     <use xlink:href="#DejaVuSans-6c" x="693.550781"/>
     <use xlink:href="#DejaVuSans-69" x="721.333984"/>
     <use xlink:href="#DejaVuSans-74" x="749.117188"/>
     <use xlink:href="#DejaVuSans-79" x="788.326172"/>
     <use xlink:href="#DejaVuSans-20" x="847.505859"/>
     <use xlink:href="#DejaVuSans-69" x="879.292969"/>
     <use xlink:href="#DejaVuSans-6e" x="907.076172"/>
     <use xlink:href="#DejaVuSans-20" x="970.455078"/>
     <use xlink:href="#DejaVuSans-46" x="1002.242188"/>
     <use xlink:href="#DejaVuSans-6f" x="1056.136719"/>
     <use xlink:href="#DejaVuSans-75" x="1117.318359"/>
     <use xlink:href="#DejaVuSans-72" x="1180.697266"/>
     <use xlink:href="#DejaVuSans-69" x="1221.810547"/>
     <use xlink:href="#DejaVuSans-65" x="1249.59375"/>
     <use xlink:href="#DejaVuSans-72" x="1311.117188"/>
     <use xlink:href="#DejaVuSans-20" x="1352.230469"/>
     <use xlink:href="#DejaVuSans-53" x="1384.017578"/>
     <use xlink:href="#DejaVuSans-70" x="1447.494141"/>
     <use xlink:href="#DejaVuSans-61" x="1510.970703"/>
     <use xlink:href="#DejaVuSans-63" x="1572.25"/>
     <use xlink:href="#DejaVuSans-65" x="1627.230469"/>
    </g>
   </g>
   <g id="legend_1">
    <g id="patch_8">
     <path d="M 135.157031 241.677188 
L 307.642969 241.677188 
Q 309.642969 241.677188 309.642969 239.677188 
L 309.642969 196.642812 
Q 309.642969 194.642812 307.642969 194.642812 
L 135.157031 194.642812 
Q 133.157031 194.642812 133.157031 196.642812 
L 133.157031 239.677188 
Q 133.157031 241.677188 135.157031 241.677188 
z
" style="fill: #ffffff; opacity: 0.8; stroke: #cccccc; stroke-linejoin: miter"/>
    </g>
    <g id="line2d_21">
     <path d="M 137.157031 202.74125 
L 147.157031 202.74125 
L 157.157031 202.74125 
" style="fill: none; stroke-dasharray: 5.55,2.4; stroke-dashoffset: 0; stroke: #000000; stroke-width: 1.5"/>
    </g>
    <g id="text_22">
     <!-- All velocity directions -->
     <g transform="translate(165.157031 206.24125) scale(0.1 -0.1)">
      <defs>
       <path id="DejaVuSans-41" d="M 2188 4044 
L 1331 1722 
L 3047 1722 
L 2188 4044 
z
M 1831 4666 
L 2547 4666 
L 4325 0 
L 3669 0 
L 3244 1197 
L 1141 1197 
L 716 0 
L 50 0 
L 1831 4666 
z
" transform="scale(0.015625)"/>
       <path id="DejaVuSans-64" d="M 2906 2969 
L 2906 4863 
L 3481 4863 
L 3481 0 
L 2906 0 
L 2906 525 
Q 2725 213 2448 61 
Q 2172 -91 1784 -91 
Q 1150 -91 751 415 
Q 353 922 353 1747 
Q 353 2572 751 3078 
Q 1150 3584 1784 3584 
Q 2172 3584 2448 3432 
Q 2725 3281 2906 2969 
z
M 947 1747 
Q 947 1113 1208 752 
Q 1469 391 1925 391 
Q 2381 391 2643 752 
Q 2906 1113 2906 1747 
Q 2906 2381 2643 2742 
Q 2381 3103 1925 3103 
Q 1469 3103 1208 2742 
Q 947 2381 947 1747 
z
" transform="scale(0.015625)"/>
      </defs>
      <use xlink:href="#DejaVuSans-41"/>
      <use xlink:href="#DejaVuSans-6c" x="68.408203"/>
      <use xlink:href="#DejaVuSans-6c" x="96.191406"/>
      <use xlink:href="#DejaVuSans-20" x="123.974609"/>
      <use xlink:href="#DejaVuSans-76" x="155.761719"/>
      <use xlink:href="#DejaVuSans-65" x="214.941406"/>
      <use xlink:href="#DejaVuSans-6c" x="276.464844"/>
      <use xlink:href="#DejaVuSans-6f" x="304.248047"/>
      <use xlink:href="#DejaVuSans-63" x="365.429688"/>
      <use xlink:href="#DejaVuSans-69" x="420.410156"/>
      <use xlink:href="#DejaVuSans-74" x="448.193359"/>
      <use xlink:href="#DejaVuSans-79" x="487.402344"/>
      <use xlink:href="#DejaVuSans-20" x="546.582031"/>
      <use xlink:href="#DejaVuSans-64" x="578.369141"/>
      <use xlink:href="#DejaVuSans-69" x="641.845703"/>
      <use xlink:href="#DejaVuSans-72" x="669.628906"/>
      <use xlink:href="#DejaVuSans-65" x="708.492188"/>
      <use xlink:href="#DejaVuSans-63" x="770.015625"/>
      <use xlink:href="#DejaVuSans-74" x="824.996094"/>
      <use xlink:href="#DejaVuSans-69" x="864.205078"/>
      <use xlink:href="#DejaVuSans-6f" x="891.988281"/>
      <use xlink:href="#DejaVuSans-6e" x="953.169922"/>
      <use xlink:href="#DejaVuSans-73" x="1016.548828"/>
     </g>
    </g>
    <g id="patch_9">
     <path d="M 137.157031 220.919375 
L 157.157031 220.919375 
L 157.157031 213.919375 
L 137.157031 213.919375 
z
" style="fill: #ff0000; stroke: #ff0000; stroke-linejoin: miter"/>
    </g>
    <g id="text_23">
     <!-- $\mathbf{k}$ -->
     <g transform="translate(165.157031 220.919375) scale(0.1 -0.1)">
      <defs>
       <path id="DejaVuSans-Bold-6b" d="M 538 4863 
L 1656 4863 
L 1656 2216 
L 2944 3500 
L 4244 3500 
L 2534 1894 
L 4378 0 
L 3022 0 
L 1656 1459 
L 1656 0 
L 538 0 
L 538 4863 
z
" transform="scale(0.015625)"/>
      </defs>
      <use xlink:href="#DejaVuSans-Bold-6b" transform="translate(0 0.015625)"/>
     </g>
    </g>
    <g id="line2d_22">
     <path d="M 137.157031 232.0975 
L 147.157031 232.0975 
L 157.157031 232.0975 
" style="fill: none; stroke: #0000ff; stroke-width: 1.5; stroke-linecap: square"/>
    </g>
    <g id="text_24">
     <!-- Allowed (div-free) directions -->
     <g transform="translate(165.157031 235.5975) scale(0.1 -0.1)">
      <defs>
       <path id="DejaVuSans-77" d="M 269 3500 
L 844 3500 
L 1563 769 
L 2278 3500 
L 2956 3500 
L 3675 769 
L 4391 3500 
L 4966 3500 
L 4050 0 
L 3372 0 
L 2619 2869 
L 1863 0 
L 1184 0 
L 269 3500 
z
" transform="scale(0.015625)"/>
       <path id="DejaVuSans-28" d="M 1984 4856 
Q 1566 4138 1362 3434 
Q 1159 2731 1159 2009 
Q 1159 1288 1364 580 
Q 1569 -128 1984 -844 
L 1484 -844 
Q 1016 -109 783 600 
Q 550 1309 550 2009 
Q 550 2706 781 3412 
Q 1013 4119 1484 4856 
L 1984 4856 
z
" transform="scale(0.015625)"/>
       <path id="DejaVuSans-66" d="M 2375 4863 
L 2375 4384 
L 1825 4384 
Q 1516 4384 1395 4259 
Q 1275 4134 1275 3809 
L 1275 3500 
L 2222 3500 
L 2222 3053 
L 1275 3053 
L 1275 0 
L 697 0 
L 697 3053 
L 147 3053 
L 147 3500 
L 697 3500 
L 697 3744 
Q 697 4328 969 4595 
Q 1241 4863 1831 4863 
L 2375 4863 
z
" transform="scale(0.015625)"/>
       <path id="DejaVuSans-29" d="M 513 4856 
L 1013 4856 
Q 1481 4119 1714 3412 
Q 1947 2706 1947 2009 
Q 1947 1309 1714 600 
Q 1481 -109 1013 -844 
L 513 -844 
Q 928 -128 1133 580 
Q 1338 1288 1338 2009 
Q 1338 2731 1133 3434 
Q 928 4138 513 4856 
z
" transform="scale(0.015625)"/>
      </defs>
      <use xlink:href="#DejaVuSans-41"/>
      <use xlink:href="#DejaVuSans-6c" x="68.408203"/>
      <use xlink:href="#DejaVuSans-6c" x="96.191406"/>
      <use xlink:href="#DejaVuSans-6f" x="123.974609"/>
      <use xlink:href="#DejaVuSans-77" x="185.15625"/>
      <use xlink:href="#DejaVuSans-65" x="266.943359"/>
      <use xlink:href="#DejaVuSans-64" x="328.466797"/>
      <use xlink:href="#DejaVuSans-20" x="391.943359"/>
      <use xlink:href="#DejaVuSans-28" x="423.730469"/>
      <use xlink:href="#DejaVuSans-64" x="462.744141"/>
      <use xlink:href="#DejaVuSans-69" x="526.220703"/>
      <use xlink:href="#DejaVuSans-76" x="554.003906"/>
      <use xlink:href="#DejaVuSans-2d" x="610.558594"/>
      <use xlink:href="#DejaVuSans-66" x="646.642578"/>
      <use xlink:href="#DejaVuSans-72" x="681.847656"/>
      <use xlink:href="#DejaVuSans-65" x="720.710938"/>
      <use xlink:href="#DejaVuSans-65" x="782.234375"/>
      <use xlink:href="#DejaVuSans-29" x="843.757812"/>
      <use xlink:href="#DejaVuSans-20" x="882.771484"/>
      <use xlink:href="#DejaVuSans-64" x="914.558594"/>
      <use xlink:href="#DejaVuSans-69" x="978.035156"/>
      <use xlink:href="#DejaVuSans-72" x="1005.818359"/>
      <use xlink:href="#DejaVuSans-65" x="1044.681641"/>
      <use xlink:href="#DejaVuSans-63" x="1106.205078"/>
      <use xlink:href="#DejaVuSans-74" x="1161.185547"/>
      <use xlink:href="#DejaVuSans-69" x="1200.394531"/>
      <use xlink:href="#DejaVuSans-6f" x="1228.177734"/>
      <use xlink:href="#DejaVuSans-6e" x="1289.359375"/>
      <use xlink:href="#DejaVuSans-73" x="1352.738281"/>
     </g>
    </g>
   </g>
  </g>
 </g>
 <defs>
  <clipPath id="pdcfb78c215">
   <rect x="55.085181" y="51.84" width="332.629637" height="332.64"/>
  </clipPath>
 </defs>
</svg>
