<?xml version="1.0" encoding="utf-8" standalone="no"?>
<!DOCTYPE svg PUBLIC "-//W3C//DTD SVG 1.1//EN"
  "http://www.w3.org/Graphics/SVG/1.1/DTD/svg11.dtd">
<svg xmlns:xlink="http://www.w3.org/1999/xlink" width="576pt" height="324pt" viewBox="0 0 576 324" xmlns="http://www.w3.org/2000/svg" version="1.1">
 <metadata>
  <rdf:RDF xmlns:dc="http://purl.org/dc/elements/1.1/" xmlns:cc="http://creativecommons.org/ns#" xmlns:rdf="http://www.w3.org/1999/02/22-rdf-syntax-ns#">
   <cc:Work>
    <dc:type rdf:resource="http://purl.org/dc/dcmitype/StillImage"/>
    <dc:date>2025-09-17T13:28:39.561311</dc:date>
    <dc:format>image/svg+xml</dc:format>
    <dc:creator>
     <cc:Agent>
      <dc:title>Matplotlib v3.9.2, https://matplotlib.org/</dc:title>
     </cc:Agent>
    </dc:creator>
   </cc:Work>
  </rdf:RDF>
 </metadata>
 <defs>
  <style type="text/css">*{stroke-linejoin: round; stroke-linecap: butt}</style>
 </defs>
 <g id="figure_1">
  <g id="patch_1">
   <path d="M 0 324 
L 576 324 
L 576 0 
L 0 0 
z
" style="fill: #ffffff"/>
  </g>
  <g id="axes_1">
   <g id="patch_2">
    <path d="M 72 288.36 
L 518.4 288.36 
L 518.4 38.88 
L 72 38.88 
z
" style="fill: #ffffff"/>
   </g>
   <g id="matplotlib.axis_1">
    <g id="xtick_1">
     <g id="line2d_1">
      <defs>
       <path id="m623bb180e5" d="M 0 0 
L 0 3.5 
" style="stroke: #000000; stroke-width: 0.8"/>
      </defs>
      <g>
       <use xlink:href="#m623bb180e5" x="92.290909" y="288.36" style="stroke: #000000; stroke-width: 0.8"/>
      </g>
     </g>
     <g id="text_1">
      <!-- 0 -->
      <g transform="translate(89.109659 302.958438) scale(0.1 -0.1)">
       <defs>
        <path id="DejaVuSans-30" d="M 2034 4250 
Q 1547 4250 1301 3770 
Q 1056 3291 1056 2328 
Q 1056 1369 1301 889 
Q 1547 409 2034 409 
Q 2525 409 2770 889 
Q 3016 1369 3016 2328 
Q 3016 3291 2770 3770 
Q 2525 4250 2034 4250 
z
M 2034 4750 
Q 2819 4750 3233 4129 
Q 3647 3509 3647 2328 
Q 3647 1150 3233 529 
Q 2819 -91 2034 -91 
Q 1250 -91 836 529 
Q 422 1150 422 2328 
Q 422 3509 836 4129 
Q 1250 4750 2034 4750 
z
" transform="scale(0.015625)"/>
       </defs>
       <use xlink:href="#DejaVuSans-30"/>
      </g>
     </g>
    </g>
    <g id="xtick_2">
     <g id="line2d_2">
      <g>
       <use xlink:href="#m623bb180e5" x="143.018182" y="288.36" style="stroke: #000000; stroke-width: 0.8"/>
      </g>
     </g>
     <g id="text_2">
      <!-- 25 -->
      <g transform="translate(136.655682 302.958438) scale(0.1 -0.1)">
       <defs>
        <path id="DejaVuSans-32" d="M 1228 531 
L 3431 531 
L 3431 0 
L 469 0 
L 469 531 
Q 828 903 1448 1529 
Q 2069 2156 2228 2338 
Q 2531 2678 2651 2914 
Q 2772 3150 2772 3378 
Q 2772 3750 2511 3984 
Q 2250 4219 1831 4219 
Q 1534 4219 1204 4116 
Q 875 4013 500 3803 
L 500 4441 
Q 881 4594 1212 4672 
Q 1544 4750 1819 4750 
Q 2544 4750 2975 4387 
Q 3406 4025 3406 3419 
Q 3406 3131 3298 2873 
Q 3191 2616 2906 2266 
Q 2828 2175 2409 1742 
Q 1991 1309 1228 531 
z
" transform="scale(0.015625)"/>
        <path id="DejaVuSans-35" d="M 691 4666 
L 3169 4666 
L 3169 4134 
L 1269 4134 
L 1269 2991 
Q 1406 3038 1543 3061 
Q 1681 3084 1819 3084 
Q 2600 3084 3056 2656 
Q 3513 2228 3513 1497 
Q 3513 744 3044 326 
Q 2575 -91 1722 -91 
Q 1428 -91 1123 -41 
Q 819 9 494 109 
L 494 744 
Q 775 591 1075 516 
Q 1375 441 1709 441 
Q 2250 441 2565 725 
Q 2881 1009 2881 1497 
Q 2881 1984 2565 2268 
Q 2250 2553 1709 2553 
Q 1456 2553 1204 2497 
Q 953 2441 691 2322 
L 691 4666 
z
" transform="scale(0.015625)"/>
       </defs>
       <use xlink:href="#DejaVuSans-32"/>
       <use xlink:href="#DejaVuSans-35" x="63.623047"/>
      </g>
     </g>
    </g>
    <g id="xtick_3">
     <g id="line2d_3">
      <g>
       <use xlink:href="#m623bb180e5" x="193.745455" y="288.36" style="stroke: #000000; stroke-width: 0.8"/>
      </g>
     </g>
     <g id="text_3">
      <!-- 50 -->
      <g transform="translate(187.382955 302.958438) scale(0.1 -0.1)">
       <use xlink:href="#DejaVuSans-35"/>
       <use xlink:href="#DejaVuSans-30" x="63.623047"/>
      </g>
     </g>
    </g>
    <g id="xtick_4">
     <g id="line2d_4">
      <g>
       <use xlink:href="#m623bb180e5" x="244.472727" y="288.36" style="stroke: #000000; stroke-width: 0.8"/>
      </g>
     </g>
     <g id="text_4">
      <!-- 75 -->
      <g transform="translate(238.110227 302.958438) scale(0.1 -0.1)">
       <defs>
        <path id="DejaVuSans-37" d="M 525 4666 
L 3525 4666 
L 3525 4397 
L 1831 0 
L 1172 0 
L 2766 4134 
L 525 4134 
L 525 4666 
z
" transform="scale(0.015625)"/>
       </defs>
       <use xlink:href="#DejaVuSans-37"/>
       <use xlink:href="#DejaVuSans-35" x="63.623047"/>
      </g>
     </g>
    </g>
    <g id="xtick_5">
     <g id="line2d_5">
      <g>
       <use xlink:href="#m623bb180e5" x="295.2" y="288.36" style="stroke: #000000; stroke-width: 0.8"/>
      </g>
     </g>
     <g id="text_5">
      <!-- 100 -->
      <g transform="translate(285.65625 302.958438) scale(0.1 -0.1)">
       <defs>
        <path id="DejaVuSans-31" d="M 794 531 
L 1825 531 
L 1825 4091 
L 703 3866 
L 703 4441 
L 1819 4666 
L 2450 4666 
L 2450 531 
L 3481 531 
L 3481 0 
L 794 0 
L 794 531 
z
" transform="scale(0.015625)"/>
       </defs>
       <use xlink:href="#DejaVuSans-31"/>
       <use xlink:href="#DejaVuSans-30" x="63.623047"/>
       <use xlink:href="#DejaVuSans-30" x="127.246094"/>
      </g>
     </g>
    </g>
    <g id="xtick_6">
     <g id="line2d_6">
      <g>
       <use xlink:href="#m623bb180e5" x="345.927273" y="288.36" style="stroke: #000000; stroke-width: 0.8"/>
      </g>
     </g>
     <g id="text_6">
      <!-- 125 -->
      <g transform="translate(336.383523 302.958438) scale(0.1 -0.1)">
       <use xlink:href="#DejaVuSans-31"/>
       <use xlink:href="#DejaVuSans-32" x="63.623047"/>
       <use xlink:href="#DejaVuSans-35" x="127.246094"/>
      </g>
     </g>
    </g>
    <g id="xtick_7">
     <g id="line2d_7">
      <g>
       <use xlink:href="#m623bb180e5" x="396.654545" y="288.36" style="stroke: #000000; stroke-width: 0.8"/>
      </g>
     </g>
     <g id="text_7">
      <!-- 150 -->
      <g transform="translate(387.110795 302.958438) scale(0.1 -0.1)">
       <use xlink:href="#DejaVuSans-31"/>
       <use xlink:href="#DejaVuSans-35" x="63.623047"/>
       <use xlink:href="#DejaVuSans-30" x="127.246094"/>
      </g>
     </g>
    </g>
    <g id="xtick_8">
     <g id="line2d_8">
      <g>
       <use xlink:href="#m623bb180e5" x="447.381818" y="288.36" style="stroke: #000000; stroke-width: 0.8"/>
      </g>
     </g>
     <g id="text_8">
      <!-- 175 -->
      <g transform="translate(437.838068 302.958438) scale(0.1 -0.1)">
       <use xlink:href="#DejaVuSans-31"/>
       <use xlink:href="#DejaVuSans-37" x="63.623047"/>
       <use xlink:href="#DejaVuSans-35" x="127.246094"/>
      </g>
     </g>
    </g>
    <g id="xtick_9">
     <g id="line2d_9">
      <g>
       <use xlink:href="#m623bb180e5" x="498.109091" y="288.36" style="stroke: #000000; stroke-width: 0.8"/>
      </g>
     </g>
     <g id="text_9">
      <!-- 200 -->
      <g transform="translate(488.565341 302.958438) scale(0.1 -0.1)">
       <use xlink:href="#DejaVuSans-32"/>
       <use xlink:href="#DejaVuSans-30" x="63.623047"/>
       <use xlink:href="#DejaVuSans-30" x="127.246094"/>
      </g>
     </g>
    </g>
    <g id="text_10">
     <!-- Transverse separation $\rho = \sqrt{(\Delta{}y^2 + \Delta{}z^{2})}$ -->
     <g transform="translate(195.4 321.838125) scale(0.1 -0.1)">
      <defs>
       <path id="DejaVuSans-54" d="M -19 4666 
L 3928 4666 
L 3928 4134 
L 2272 4134 
L 2272 0 
L 1638 0 
L 1638 4134 
L -19 4134 
L -19 4666 
z
" transform="scale(0.015625)"/>
       <path id="DejaVuSans-72" d="M 2631 2963 
Q 2534 3019 2420 3045 
Q 2306 3072 2169 3072 
Q 1681 3072 1420 2755 
Q 1159 2438 1159 1844 
L 1159 0 
L 581 0 
L 581 3500 
L 1159 3500 
L 1159 2956 
Q 1341 3275 1631 3429 
Q 1922 3584 2338 3584 
Q 2397 3584 2469 3576 
Q 2541 3569 2628 3553 
L 2631 2963 
z
" transform="scale(0.015625)"/>
       <path id="DejaVuSans-61" d="M 2194 1759 
Q 1497 1759 1228 1600 
Q 959 1441 959 1056 
Q 959 750 1161 570 
Q 1363 391 1709 391 
Q 2188 391 2477 730 
Q 2766 1069 2766 1631 
L 2766 1759 
L 2194 1759 
z
M 3341 1997 
L 3341 0 
L 2766 0 
L 2766 531 
Q 2569 213 2275 61 
Q 1981 -91 1556 -91 
Q 1019 -91 701 211 
Q 384 513 384 1019 
Q 384 1609 779 1909 
Q 1175 2209 1959 2209 
L 2766 2209 
L 2766 2266 
Q 2766 2663 2505 2880 
Q 2244 3097 1772 3097 
Q 1472 3097 1187 3025 
Q 903 2953 641 2809 
L 641 3341 
Q 956 3463 1253 3523 
Q 1550 3584 1831 3584 
Q 2591 3584 2966 3190 
Q 3341 2797 3341 1997 
z
" transform="scale(0.015625)"/>
       <path id="DejaVuSans-6e" d="M 3513 2113 
L 3513 0 
L 2938 0 
L 2938 2094 
Q 2938 2591 2744 2837 
Q 2550 3084 2163 3084 
Q 1697 3084 1428 2787 
Q 1159 2491 1159 1978 
L 1159 0 
L 581 0 
L 581 3500 
L 1159 3500 
L 1159 2956 
Q 1366 3272 1645 3428 
Q 1925 3584 2291 3584 
Q 2894 3584 3203 3211 
Q 3513 2838 3513 2113 
z
" transform="scale(0.015625)"/>
       <path id="DejaVuSans-73" d="M 2834 3397 
L 2834 2853 
Q 2591 2978 2328 3040 
Q 2066 3103 1784 3103 
Q 1356 3103 1142 2972 
Q 928 2841 928 2578 
Q 928 2378 1081 2264 
Q 1234 2150 1697 2047 
L 1894 2003 
Q 2506 1872 2764 1633 
Q 3022 1394 3022 966 
Q 3022 478 2636 193 
Q 2250 -91 1575 -91 
Q 1294 -91 989 -36 
Q 684 19 347 128 
L 347 722 
Q 666 556 975 473 
Q 1284 391 1588 391 
Q 1994 391 2212 530 
Q 2431 669 2431 922 
Q 2431 1156 2273 1281 
Q 2116 1406 1581 1522 
L 1381 1569 
Q 847 1681 609 1914 
Q 372 2147 372 2553 
Q 372 3047 722 3315 
Q 1072 3584 1716 3584 
Q 2034 3584 2315 3537 
Q 2597 3491 2834 3397 
z
" transform="scale(0.015625)"/>
       <path id="DejaVuSans-76" d="M 191 3500 
L 800 3500 
L 1894 563 
L 2988 3500 
L 3597 3500 
L 2284 0 
L 1503 0 
L 191 3500 
z
" transform="scale(0.015625)"/>
       <path id="DejaVuSans-65" d="M 3597 1894 
L 3597 1613 
L 953 1613 
Q 991 1019 1311 708 
Q 1631 397 2203 397 
Q 2534 397 2845 478 
Q 3156 559 3463 722 
L 3463 178 
Q 3153 47 2828 -22 
Q 2503 -91 2169 -91 
Q 1331 -91 842 396 
Q 353 884 353 1716 
Q 353 2575 817 3079 
Q 1281 3584 2069 3584 
Q 2775 3584 3186 3129 
Q 3597 2675 3597 1894 
z
M 3022 2063 
Q 3016 2534 2758 2815 
Q 2500 3097 2075 3097 
Q 1594 3097 1305 2825 
Q 1016 2553 972 2059 
L 3022 2063 
z
" transform="scale(0.015625)"/>
       <path id="DejaVuSans-20" transform="scale(0.015625)"/>
       <path id="DejaVuSans-70" d="M 1159 525 
L 1159 -1331 
L 581 -1331 
L 581 3500 
L 1159 3500 
L 1159 2969 
Q 1341 3281 1617 3432 
Q 1894 3584 2278 3584 
Q 2916 3584 3314 3078 
Q 3713 2572 3713 1747 
Q 3713 922 3314 415 
Q 2916 -91 2278 -91 
Q 1894 -91 1617 61 
Q 1341 213 1159 525 
z
M 3116 1747 
Q 3116 2381 2855 2742 
Q 2594 3103 2138 3103 
Q 1681 3103 1420 2742 
Q 1159 2381 1159 1747 
Q 1159 1113 1420 752 
Q 1681 391 2138 391 
Q 2594 391 2855 752 
Q 3116 1113 3116 1747 
z
" transform="scale(0.015625)"/>
       <path id="DejaVuSans-74" d="M 1172 4494 
L 1172 3500 
L 2356 3500 
L 2356 3053 
L 1172 3053 
L 1172 1153 
Q 1172 725 1289 603 
Q 1406 481 1766 481 
L 2356 481 
L 2356 0 
L 1766 0 
Q 1100 0 847 248 
Q 594 497 594 1153 
L 594 3053 
L 172 3053 
L 172 3500 
L 594 3500 
L 594 4494 
L 1172 4494 
z
" transform="scale(0.015625)"/>
       <path id="DejaVuSans-69" d="M 603 3500 
L 1178 3500 
L 1178 0 
L 603 0 
L 603 3500 
z
M 603 4863 
L 1178 4863 
L 1178 4134 
L 603 4134 
L 603 4863 
z
" transform="scale(0.015625)"/>
       <path id="DejaVuSans-6f" d="M 1959 3097 
Q 1497 3097 1228 2736 
Q 959 2375 959 1747 
Q 959 1119 1226 758 
Q 1494 397 1959 397 
Q 2419 397 2687 759 
Q 2956 1122 2956 1747 
Q 2956 2369 2687 2733 
Q 2419 3097 1959 3097 
z
M 1959 3584 
Q 2709 3584 3137 3096 
Q 3566 2609 3566 1747 
Q 3566 888 3137 398 
Q 2709 -91 1959 -91 
Q 1206 -91 779 398 
Q 353 888 353 1747 
Q 353 2609 779 3096 
Q 1206 3584 1959 3584 
z
" transform="scale(0.015625)"/>
       <path id="DejaVuSans-Oblique-3c1" d="M 1203 2875 
Q 1453 3194 1981 3475 
Q 2188 3584 2756 3584 
Q 3394 3584 3694 3078 
Q 3994 2572 3834 1747 
Q 3672 922 3175 415 
Q 2678 -91 2041 -91 
Q 1656 -91 1409 63 
Q 1163 213 1044 525 
L 681 -1331 
L 103 -1331 
L 697 1716 
Q 838 2438 1203 2875 
z
M 3238 1747 
Q 3359 2381 3169 2744 
Q 2978 3103 2522 3103 
Q 2066 3103 1734 2744 
Q 1403 2381 1281 1747 
Q 1156 1113 1347 750 
Q 1538 391 1994 391 
Q 2450 391 2781 750 
Q 3113 1113 3238 1747 
z
" transform="scale(0.015625)"/>
       <path id="DejaVuSans-3d" d="M 678 2906 
L 4684 2906 
L 4684 2381 
L 678 2381 
L 678 2906 
z
M 678 1631 
L 4684 1631 
L 4684 1100 
L 678 1100 
L 678 1631 
z
" transform="scale(0.015625)"/>
       <path id="STIXSizeOneSym-Regular-221a" d="M 6970 9933 
L 3373 -1888 
L 3104 -1888 
L 1626 2918 
Q 1555 3149 1465 3251 
Q 1376 3354 1229 3354 
Q 1011 3354 794 3181 
L 717 3309 
L 1766 4115 
L 1926 4115 
L 3379 -602 
L 3405 -602 
L 6605 9933 
L 6970 9933 
z
" transform="scale(0.015625)"/>
       <path id="DejaVuSans-28" d="M 1984 4856 
Q 1566 4138 1362 3434 
Q 1159 2731 1159 2009 
Q 1159 1288 1364 580 
Q 1569 -128 1984 -844 
L 1484 -844 
Q 1016 -109 783 600 
Q 550 1309 550 2009 
Q 550 2706 781 3412 
Q 1013 4119 1484 4856 
L 1984 4856 
z
" transform="scale(0.015625)"/>
       <path id="DejaVuSans-394" d="M 2188 4044 
L 906 525 
L 3472 525 
L 2188 4044 
z
M 50 0 
L 1831 4666 
L 2547 4666 
L 4325 0 
L 50 0 
z
" transform="scale(0.015625)"/>
       <path id="DejaVuSans-Oblique-79" d="M 1588 -325 
Q 1188 -997 936 -1164 
Q 684 -1331 294 -1331 
L -159 -1331 
L -63 -850 
L 269 -850 
Q 509 -850 678 -719 
Q 847 -588 1056 -206 
L 1234 128 
L 459 3500 
L 1069 3500 
L 1650 819 
L 3256 3500 
L 3859 3500 
L 1588 -325 
z
" transform="scale(0.015625)"/>
       <path id="DejaVuSans-2b" d="M 2944 4013 
L 2944 2272 
L 4684 2272 
L 4684 1741 
L 2944 1741 
L 2944 0 
L 2419 0 
L 2419 1741 
L 678 1741 
L 678 2272 
L 2419 2272 
L 2419 4013 
L 2944 4013 
z
" transform="scale(0.015625)"/>
       <path id="DejaVuSans-Oblique-7a" d="M 744 3500 
L 3475 3500 
L 3372 2975 
L 738 459 
L 2913 459 
L 2822 0 
L -19 0 
L 84 525 
L 2719 3041 
L 653 3041 
L 744 3500 
z
" transform="scale(0.015625)"/>
       <path id="DejaVuSans-29" d="M 513 4856 
L 1013 4856 
Q 1481 4119 1714 3412 
Q 1947 2706 1947 2009 
Q 1947 1309 1714 600 
Q 1481 -109 1013 -844 
L 513 -844 
Q 928 -128 1133 580 
Q 1338 1288 1338 2009 
Q 1338 2731 1133 3434 
Q 928 4138 513 4856 
z
" transform="scale(0.015625)"/>
      </defs>
      <use xlink:href="#DejaVuSans-54" transform="translate(0 0.53125)"/>
      <use xlink:href="#DejaVuSans-72" transform="translate(61.083984 0.53125)"/>
      <use xlink:href="#DejaVuSans-61" transform="translate(102.197266 0.53125)"/>
      <use xlink:href="#DejaVuSans-6e" transform="translate(163.476562 0.53125)"/>
      <use xlink:href="#DejaVuSans-73" transform="translate(226.855469 0.53125)"/>
      <use xlink:href="#DejaVuSans-76" transform="translate(278.955078 0.53125)"/>
      <use xlink:href="#DejaVuSans-65" transform="translate(338.134766 0.53125)"/>
      <use xlink:href="#DejaVuSans-72" transform="translate(399.658203 0.53125)"/>
      <use xlink:href="#DejaVuSans-73" transform="translate(440.771484 0.53125)"/>
      <use xlink:href="#DejaVuSans-65" transform="translate(492.871094 0.53125)"/>
      <use xlink:href="#DejaVuSans-20" transform="translate(554.394531 0.53125)"/>
      <use xlink:href="#DejaVuSans-73" transform="translate(586.181641 0.53125)"/>
      <use xlink:href="#DejaVuSans-65" transform="translate(638.28125 0.53125)"/>
      <use xlink:href="#DejaVuSans-70" transform="translate(699.804688 0.53125)"/>
      <use xlink:href="#DejaVuSans-61" transform="translate(763.28125 0.53125)"/>
      <use xlink:href="#DejaVuSans-72" transform="translate(824.560547 0.53125)"/>
      <use xlink:href="#DejaVuSans-61" transform="translate(865.673828 0.53125)"/>
      <use xlink:href="#DejaVuSans-74" transform="translate(926.953125 0.53125)"/>
      <use xlink:href="#DejaVuSans-69" transform="translate(966.162109 0.53125)"/>
      <use xlink:href="#DejaVuSans-6f" transform="translate(993.945312 0.53125)"/>
      <use xlink:href="#DejaVuSans-6e" transform="translate(1055.126953 0.53125)"/>
      <use xlink:href="#DejaVuSans-20" transform="translate(1118.505859 0.53125)"/>
      <use xlink:href="#DejaVuSans-Oblique-3c1" transform="translate(1150.292969 0.53125)"/>
      <use xlink:href="#DejaVuSans-3d" transform="translate(1233.251953 0.53125)"/>
      <use xlink:href="#STIXSizeOneSym-Regular-221a" transform="translate(1336.523438 2.453125) scale(0.770324)"/>
      <use xlink:href="#DejaVuSans-28" transform="translate(1430.445465 0.515625)"/>
      <use xlink:href="#DejaVuSans-394" transform="translate(1469.459137 0.515625)"/>
      <use xlink:href="#DejaVuSans-Oblique-79" transform="translate(1537.86734 0.515625)"/>
      <use xlink:href="#DejaVuSans-32" transform="translate(1601.513173 38.796875) scale(0.7)"/>
      <use xlink:href="#DejaVuSans-2b" transform="translate(1668.266103 0.515625)"/>
      <use xlink:href="#DejaVuSans-394" transform="translate(1771.537587 0.515625)"/>
      <use xlink:href="#DejaVuSans-Oblique-7a" transform="translate(1839.945791 0.515625)"/>
      <use xlink:href="#DejaVuSans-32" transform="translate(1896.902171 38.796875) scale(0.7)"/>
      <use xlink:href="#DejaVuSans-29" transform="translate(1944.172679 0.515625)"/>
      <path d="M 1417.945465 115.5 
L 1417.945465 121.75 
L 1995.686351 121.75 
L 1995.686351 115.5 
L 1417.945465 115.5 
z
"/>
     </g>
    </g>
   </g>
   <g id="matplotlib.axis_2">
    <g id="ytick_1">
     <g id="line2d_10">
      <defs>
       <path id="m092b3f7428" d="M 0 0 
L -3.5 0 
" style="stroke: #000000; stroke-width: 0.8"/>
      </defs>
      <g>
       <use xlink:href="#m092b3f7428" x="72" y="277.020355" style="stroke: #000000; stroke-width: 0.8"/>
      </g>
     </g>
     <g id="text_11">
      <!-- 0.0 -->
      <g transform="translate(49.096875 280.819574) scale(0.1 -0.1)">
       <defs>
        <path id="DejaVuSans-2e" d="M 684 794 
L 1344 794 
L 1344 0 
L 684 0 
L 684 794 
z
" transform="scale(0.015625)"/>
       </defs>
       <use xlink:href="#DejaVuSans-30"/>
       <use xlink:href="#DejaVuSans-2e" x="63.623047"/>
       <use xlink:href="#DejaVuSans-30" x="95.410156"/>
      </g>
     </g>
    </g>
    <g id="ytick_2">
     <g id="line2d_11">
      <g>
       <use xlink:href="#m092b3f7428" x="72" y="231.660284" style="stroke: #000000; stroke-width: 0.8"/>
      </g>
     </g>
     <g id="text_12">
      <!-- 0.2 -->
      <g transform="translate(49.096875 235.459503) scale(0.1 -0.1)">
       <use xlink:href="#DejaVuSans-30"/>
       <use xlink:href="#DejaVuSans-2e" x="63.623047"/>
       <use xlink:href="#DejaVuSans-32" x="95.410156"/>
      </g>
     </g>
    </g>
    <g id="ytick_3">
     <g id="line2d_12">
      <g>
       <use xlink:href="#m092b3f7428" x="72" y="186.300213" style="stroke: #000000; stroke-width: 0.8"/>
      </g>
     </g>
     <g id="text_13">
      <!-- 0.4 -->
      <g transform="translate(49.096875 190.099432) scale(0.1 -0.1)">
       <defs>
        <path id="DejaVuSans-34" d="M 2419 4116 
L 825 1625 
L 2419 1625 
L 2419 4116 
z
M 2253 4666 
L 3047 4666 
L 3047 1625 
L 3713 1625 
L 3713 1100 
L 3047 1100 
L 3047 0 
L 2419 0 
L 2419 1100 
L 313 1100 
L 313 1709 
L 2253 4666 
z
" transform="scale(0.015625)"/>
       </defs>
       <use xlink:href="#DejaVuSans-30"/>
       <use xlink:href="#DejaVuSans-2e" x="63.623047"/>
       <use xlink:href="#DejaVuSans-34" x="95.410156"/>
      </g>
     </g>
    </g>
    <g id="ytick_4">
     <g id="line2d_13">
      <g>
       <use xlink:href="#m092b3f7428" x="72" y="140.940142" style="stroke: #000000; stroke-width: 0.8"/>
      </g>
     </g>
     <g id="text_14">
      <!-- 0.6 -->
      <g transform="translate(49.096875 144.739361) scale(0.1 -0.1)">
       <defs>
        <path id="DejaVuSans-36" d="M 2113 2584 
Q 1688 2584 1439 2293 
Q 1191 2003 1191 1497 
Q 1191 994 1439 701 
Q 1688 409 2113 409 
Q 2538 409 2786 701 
Q 3034 994 3034 1497 
Q 3034 2003 2786 2293 
Q 2538 2584 2113 2584 
z
M 3366 4563 
L 3366 3988 
Q 3128 4100 2886 4159 
Q 2644 4219 2406 4219 
Q 1781 4219 1451 3797 
Q 1122 3375 1075 2522 
Q 1259 2794 1537 2939 
Q 1816 3084 2150 3084 
Q 2853 3084 3261 2657 
Q 3669 2231 3669 1497 
Q 3669 778 3244 343 
Q 2819 -91 2113 -91 
Q 1303 -91 875 529 
Q 447 1150 447 2328 
Q 447 3434 972 4092 
Q 1497 4750 2381 4750 
Q 2619 4750 2861 4703 
Q 3103 4656 3366 4563 
z
" transform="scale(0.015625)"/>
       </defs>
       <use xlink:href="#DejaVuSans-30"/>
       <use xlink:href="#DejaVuSans-2e" x="63.623047"/>
       <use xlink:href="#DejaVuSans-36" x="95.410156"/>
      </g>
     </g>
    </g>
    <g id="ytick_5">
     <g id="line2d_14">
      <g>
       <use xlink:href="#m092b3f7428" x="72" y="95.580071" style="stroke: #000000; stroke-width: 0.8"/>
      </g>
     </g>
     <g id="text_15">
      <!-- 0.8 -->
      <g transform="translate(49.096875 99.37929) scale(0.1 -0.1)">
       <defs>
        <path id="DejaVuSans-38" d="M 2034 2216 
Q 1584 2216 1326 1975 
Q 1069 1734 1069 1313 
Q 1069 891 1326 650 
Q 1584 409 2034 409 
Q 2484 409 2743 651 
Q 3003 894 3003 1313 
Q 3003 1734 2745 1975 
Q 2488 2216 2034 2216 
z
M 1403 2484 
Q 997 2584 770 2862 
Q 544 3141 544 3541 
Q 544 4100 942 4425 
Q 1341 4750 2034 4750 
Q 2731 4750 3128 4425 
Q 3525 4100 3525 3541 
Q 3525 3141 3298 2862 
Q 3072 2584 2669 2484 
Q 3125 2378 3379 2068 
Q 3634 1759 3634 1313 
Q 3634 634 3220 271 
Q 2806 -91 2034 -91 
Q 1263 -91 848 271 
Q 434 634 434 1313 
Q 434 1759 690 2068 
Q 947 2378 1403 2484 
z
M 1172 3481 
Q 1172 3119 1398 2916 
Q 1625 2713 2034 2713 
Q 2441 2713 2670 2916 
Q 2900 3119 2900 3481 
Q 2900 3844 2670 4047 
Q 2441 4250 2034 4250 
Q 1625 4250 1398 4047 
Q 1172 3844 1172 3481 
z
" transform="scale(0.015625)"/>
       </defs>
       <use xlink:href="#DejaVuSans-30"/>
       <use xlink:href="#DejaVuSans-2e" x="63.623047"/>
       <use xlink:href="#DejaVuSans-38" x="95.410156"/>
      </g>
     </g>
    </g>
    <g id="ytick_6">
     <g id="line2d_15">
      <g>
       <use xlink:href="#m092b3f7428" x="72" y="50.22" style="stroke: #000000; stroke-width: 0.8"/>
      </g>
     </g>
     <g id="text_16">
      <!-- 1.0 -->
      <g transform="translate(49.096875 54.019219) scale(0.1 -0.1)">
       <use xlink:href="#DejaVuSans-31"/>
       <use xlink:href="#DejaVuSans-2e" x="63.623047"/>
       <use xlink:href="#DejaVuSans-30" x="95.410156"/>
      </g>
     </g>
    </g>
    <g id="text_17">
     <!-- Coherence $|\chi_{11}(k1; \rho)| / \chi_{11}(k1; 0)$ -->
     <g transform="translate(42.696875 243.92) rotate(-90) scale(0.1 -0.1)">
      <defs>
       <path id="DejaVuSans-43" d="M 4122 4306 
L 4122 3641 
Q 3803 3938 3442 4084 
Q 3081 4231 2675 4231 
Q 1875 4231 1450 3742 
Q 1025 3253 1025 2328 
Q 1025 1406 1450 917 
Q 1875 428 2675 428 
Q 3081 428 3442 575 
Q 3803 722 4122 1019 
L 4122 359 
Q 3791 134 3420 21 
Q 3050 -91 2638 -91 
Q 1578 -91 968 557 
Q 359 1206 359 2328 
Q 359 3453 968 4101 
Q 1578 4750 2638 4750 
Q 3056 4750 3426 4639 
Q 3797 4528 4122 4306 
z
" transform="scale(0.015625)"/>
       <path id="DejaVuSans-68" d="M 3513 2113 
L 3513 0 
L 2938 0 
L 2938 2094 
Q 2938 2591 2744 2837 
Q 2550 3084 2163 3084 
Q 1697 3084 1428 2787 
Q 1159 2491 1159 1978 
L 1159 0 
L 581 0 
L 581 4863 
L 1159 4863 
L 1159 2956 
Q 1366 3272 1645 3428 
Q 1925 3584 2291 3584 
Q 2894 3584 3203 3211 
Q 3513 2838 3513 2113 
z
" transform="scale(0.015625)"/>
       <path id="DejaVuSans-63" d="M 3122 3366 
L 3122 2828 
Q 2878 2963 2633 3030 
Q 2388 3097 2138 3097 
Q 1578 3097 1268 2742 
Q 959 2388 959 1747 
Q 959 1106 1268 751 
Q 1578 397 2138 397 
Q 2388 397 2633 464 
Q 2878 531 3122 666 
L 3122 134 
Q 2881 22 2623 -34 
Q 2366 -91 2075 -91 
Q 1284 -91 818 406 
Q 353 903 353 1747 
Q 353 2603 823 3093 
Q 1294 3584 2113 3584 
Q 2378 3584 2631 3529 
Q 2884 3475 3122 3366 
z
" transform="scale(0.015625)"/>
       <path id="DejaVuSans-7c" d="M 1344 4891 
L 1344 -1509 
L 813 -1509 
L 813 4891 
L 1344 4891 
z
" transform="scale(0.015625)"/>
       <path id="DejaVuSans-Oblique-3c7" d="M 1922 -781 
L 1691 416 
L 394 -1334 
L -284 -1334 
L 1553 1141 
L 1269 2613 
Q 1194 3006 713 3006 
L 559 3006 
L 653 3500 
L 872 3494 
Q 1675 3472 1775 2950 
L 2006 1753 
L 3303 3503 
L 3981 3503 
L 2144 1028 
L 2428 -444 
Q 2503 -838 2984 -838 
L 3138 -838 
L 3044 -1331 
L 2825 -1325 
Q 2022 -1303 1922 -781 
z
" transform="scale(0.015625)"/>
       <path id="DejaVuSans-Oblique-6b" d="M 1172 4863 
L 1747 4863 
L 1197 2028 
L 3169 3500 
L 3916 3500 
L 1716 1825 
L 3322 0 
L 2625 0 
L 1131 1709 
L 800 0 
L 225 0 
L 1172 4863 
z
" transform="scale(0.015625)"/>
       <path id="DejaVuSans-3b" d="M 750 3309 
L 1409 3309 
L 1409 2516 
L 750 2516 
L 750 3309 
z
M 750 794 
L 1409 794 
L 1409 256 
L 897 -744 
L 494 -744 
L 750 256 
L 750 794 
z
" transform="scale(0.015625)"/>
       <path id="DejaVuSans-2f" d="M 1625 4666 
L 2156 4666 
L 531 -594 
L 0 -594 
L 1625 4666 
z
" transform="scale(0.015625)"/>
      </defs>
      <use xlink:href="#DejaVuSans-43" transform="translate(0 0.578125)"/>
      <use xlink:href="#DejaVuSans-6f" transform="translate(69.824219 0.578125)"/>
      <use xlink:href="#DejaVuSans-68" transform="translate(131.005859 0.578125)"/>
      <use xlink:href="#DejaVuSans-65" transform="translate(194.384766 0.578125)"/>
      <use xlink:href="#DejaVuSans-72" transform="translate(255.908203 0.578125)"/>
      <use xlink:href="#DejaVuSans-65" transform="translate(297.021484 0.578125)"/>
      <use xlink:href="#DejaVuSans-6e" transform="translate(358.544922 0.578125)"/>
      <use xlink:href="#DejaVuSans-63" transform="translate(421.923828 0.578125)"/>
      <use xlink:href="#DejaVuSans-65" transform="translate(476.904297 0.578125)"/>
      <use xlink:href="#DejaVuSans-20" transform="translate(538.427734 0.578125)"/>
      <use xlink:href="#DejaVuSans-7c" transform="translate(570.214844 0.578125)"/>
      <use xlink:href="#DejaVuSans-Oblique-3c7" transform="translate(603.90625 0.578125)"/>
      <use xlink:href="#DejaVuSans-31" transform="translate(663.085938 -15.828125) scale(0.7)"/>
      <use xlink:href="#DejaVuSans-31" transform="translate(707.62207 -15.828125) scale(0.7)"/>
      <use xlink:href="#DejaVuSans-28" transform="translate(754.892578 0.578125)"/>
      <use xlink:href="#DejaVuSans-Oblique-6b" transform="translate(793.90625 0.578125)"/>
      <use xlink:href="#DejaVuSans-31" transform="translate(851.816406 0.578125)"/>
      <use xlink:href="#DejaVuSans-3b" transform="translate(915.439453 0.578125)"/>
      <use xlink:href="#DejaVuSans-Oblique-3c1" transform="translate(968.613281 0.578125)"/>
      <use xlink:href="#DejaVuSans-29" transform="translate(1032.089844 0.578125)"/>
      <use xlink:href="#DejaVuSans-7c" transform="translate(1071.103516 0.578125)"/>
      <use xlink:href="#DejaVuSans-2f" transform="translate(1104.794922 0.578125)"/>
      <use xlink:href="#DejaVuSans-Oblique-3c7" transform="translate(1138.486328 0.578125)"/>
      <use xlink:href="#DejaVuSans-31" transform="translate(1197.666016 -15.828125) scale(0.7)"/>
      <use xlink:href="#DejaVuSans-31" transform="translate(1242.202148 -15.828125) scale(0.7)"/>
      <use xlink:href="#DejaVuSans-28" transform="translate(1289.472656 0.578125)"/>
      <use xlink:href="#DejaVuSans-Oblique-6b" transform="translate(1328.486328 0.578125)"/>
      <use xlink:href="#DejaVuSans-31" transform="translate(1386.396484 0.578125)"/>
      <use xlink:href="#DejaVuSans-3b" transform="translate(1450.019531 0.578125)"/>
      <use xlink:href="#DejaVuSans-30" transform="translate(1503.193359 0.578125)"/>
      <use xlink:href="#DejaVuSans-29" transform="translate(1566.816406 0.578125)"/>
     </g>
    </g>
   </g>
   <g id="line2d_16">
    <path d="M 92.290909 50.22 
L 97.427848 123.799023 
L 102.564787 200.317987 
L 107.701726 246.559572 
L 112.838665 270.708496 
L 117.975604 272.398281 
L 123.112543 268.585476 
L 128.249482 268.241005 
L 133.386421 269.349524 
L 138.52336 270.881732 
L 143.660299 272.363353 
L 148.797238 273.612572 
L 153.934177 274.59097 
L 159.071116 275.322479 
L 164.208055 275.852043 
L 169.344994 276.226527 
L 174.481933 276.486531 
L 179.618872 276.664738 
L 184.755811 276.785558 
L 189.89275 276.866586 
L 195.029689 276.920671 
L 200.166628 276.956716 
L 205.303567 276.980659 
L 210.440506 276.996754 
L 215.577445 277.007637 
L 220.714384 277.015222 
L 225.851323 277.02 
L 230.988262 277.015812 
L 236.125201 277.012447 
L 241.26214 277.009539 
L 246.399079 277.00689 
L 251.536018 277.004358 
L 256.672957 277.001852 
L 261.809896 276.999331 
L 266.946835 276.996621 
L 272.083774 276.993851 
L 277.220713 276.99104 
L 282.357652 276.988146 
L 287.494591 276.985142 
L 292.63153 276.982037 
L 297.76847 276.97886 
L 302.905409 276.975546 
L 308.042348 276.972144 
L 313.179287 276.96865 
L 318.316226 276.965044 
L 323.453165 276.961374 
L 328.590104 276.957613 
L 333.727043 276.953743 
L 338.863982 276.949803 
L 344.000921 276.945797 
L 349.13786 276.941687 
L 354.274799 276.937399 
L 359.411738 276.933091 
L 364.548677 276.928746 
L 369.685616 276.924342 
L 374.822555 276.919843 
L 379.959494 276.915277 
L 385.096433 276.910636 
L 390.233372 276.905911 
L 395.370311 276.901142 
L 400.50725 276.896314 
L 405.644189 276.89141 
L 410.781128 276.886442 
L 415.918067 276.881433 
L 421.055006 276.876338 
L 426.191945 276.87121 
L 431.328884 276.866009 
L 436.465823 276.860746 
L 441.602762 276.855361 
L 446.739701 276.84998 
L 451.87664 276.84456 
L 457.013579 276.839106 
L 462.150518 276.833576 
L 467.287457 276.828004 
L 472.424396 276.822386 
L 477.561335 276.816711 
L 482.698274 276.811 
L 487.835213 276.805252 
L 492.972152 276.799452 
L 498.109091 276.793604 
" clip-path="url(#pc0362a5eef)" style="fill: none; stroke: #1f77b4; stroke-width: 1.5; stroke-linecap: square"/>
   </g>
   <g id="line2d_17">
    <path d="M 92.290909 50.22 
L 97.427848 125.124611 
L 102.564787 202.202099 
L 107.701726 248.150511 
L 112.838665 271.744704 
L 117.975604 271.874346 
L 123.112543 268.431159 
L 128.249482 268.311625 
L 133.386421 269.533317 
L 138.52336 271.104592 
L 143.660299 272.582119 
L 148.797238 273.805821 
L 153.934177 274.750936 
L 159.071116 275.449097 
L 164.208055 275.949007 
L 169.344994 276.298909 
L 174.481933 276.53947 
L 179.618872 276.70282 
L 184.755811 276.812578 
L 189.89275 276.885536 
L 195.029689 276.933838 
L 200.166628 276.965799 
L 205.303567 276.986895 
L 210.440506 277.001032 
L 215.577445 277.010584 
L 220.714384 277.017278 
L 225.851323 277.018531 
L 230.988262 277.014719 
L 236.125201 277.011587 
L 241.26214 277.008812 
L 246.399079 277.00623 
L 251.536018 277.00372 
L 256.672957 277.001203 
L 261.809896 276.998649 
L 266.946835 276.995887 
L 272.083774 276.993055 
L 277.220713 276.990174 
L 282.357652 276.987204 
L 287.494591 276.984119 
L 292.63153 276.980929 
L 297.76847 276.977663 
L 302.905409 276.974256 
L 308.042348 276.970759 
L 313.179287 276.967166 
L 318.316226 276.96346 
L 323.453165 276.959687 
L 328.590104 276.955819 
L 333.727043 276.951842 
L 338.863982 276.947792 
L 344.000921 276.943674 
L 349.13786 276.93945 
L 354.274799 276.935042 
L 359.411738 276.930616 
L 364.548677 276.92615 
L 369.685616 276.921625 
L 374.822555 276.917003 
L 379.959494 276.912312 
L 385.096433 276.907543 
L 390.233372 276.90269 
L 395.370311 276.897791 
L 400.50725 276.892833 
L 405.644189 276.887797 
L 410.781128 276.882695 
L 415.918067 276.877552 
L 421.055006 276.872321 
L 426.191945 276.867056 
L 431.328884 276.861716 
L 436.465823 276.856314 
L 441.602762 276.850787 
L 446.739701 276.845265 
L 451.87664 276.839702 
L 457.013579 276.834106 
L 462.150518 276.828433 
L 467.287457 276.822716 
L 472.424396 276.816953 
L 477.561335 276.811132 
L 482.698274 276.805275 
L 487.835213 276.79938 
L 492.972152 276.793433 
L 498.109091 276.787437 
" clip-path="url(#pc0362a5eef)" style="fill: none; stroke: #ff7f0e; stroke-width: 1.5; stroke-linecap: square"/>
   </g>
   <g id="line2d_18">
    <path d="M 92.290909 50.22 
L 97.427848 129.551159 
L 102.564787 208.301039 
L 107.701726 253.113155 
L 112.838665 274.820354 
L 117.975604 270.450209 
L 123.112543 268.141068 
L 128.249482 268.670993 
L 133.386421 270.188111 
L 138.52336 271.832762 
L 143.660299 273.263043 
L 148.797238 274.386158 
L 153.934177 275.217146 
L 159.071116 275.808386 
L 164.208055 276.217427 
L 169.344994 276.494646 
L 174.481933 276.679448 
L 179.618872 276.801352 
L 184.755811 276.881041 
L 189.89275 276.932585 
L 195.029689 276.965894 
L 200.166628 276.987516 
L 205.303567 277.001565 
L 210.440506 277.010973 
L 215.577445 277.017387 
L 220.714384 277.018668 
L 225.851323 277.015059 
L 230.988262 277.012034 
L 236.125201 277.009351 
L 241.26214 277.006795 
L 246.399079 277.004278 
L 251.536018 277.001727 
L 256.672957 276.999096 
L 261.809896 276.996378 
L 266.946835 276.993401 
L 272.083774 276.990328 
L 277.220713 276.98719 
L 282.357652 276.983948 
L 287.494591 276.980574 
L 292.63153 276.977083 
L 297.76847 276.973507 
L 302.905409 276.969777 
L 308.042348 276.965947 
L 313.179287 276.962013 
L 318.316226 276.957955 
L 323.453165 276.953825 
L 328.590104 276.949592 
L 333.727043 276.94524 
L 338.863982 276.940809 
L 344.000921 276.936305 
L 349.13786 276.931685 
L 354.274799 276.926866 
L 359.411738 276.922027 
L 364.548677 276.917147 
L 369.685616 276.912204 
L 374.822555 276.907155 
L 379.959494 276.902033 
L 385.096433 276.896828 
L 390.233372 276.891531 
L 395.370311 276.886186 
L 400.50725 276.880778 
L 405.644189 276.875286 
L 410.781128 276.869725 
L 415.918067 276.864119 
L 421.055006 276.85842 
L 426.191945 276.852686 
L 431.328884 276.846872 
L 436.465823 276.840992 
L 441.602762 276.834977 
L 446.739701 276.82897 
L 451.87664 276.822921 
L 457.013579 276.816838 
L 462.150518 276.810672 
L 467.287457 276.804461 
L 472.424396 276.798203 
L 477.561335 276.791883 
L 482.698274 276.785526 
L 487.835213 276.779132 
L 492.972152 276.772683 
L 498.109091 276.766182 
" clip-path="url(#pc0362a5eef)" style="fill: none; stroke: #2ca02c; stroke-width: 1.5; stroke-linecap: square"/>
   </g>
   <g id="line2d_19">
    <path d="M 92.290909 50.22 
L 97.427848 143.886112 
L 102.564787 226.090167 
L 107.701726 265.873688 
L 112.838665 272.612103 
L 117.975604 268.409839 
L 123.112543 268.753172 
L 128.249482 270.484082 
L 133.386421 272.311661 
L 138.52336 273.807978 
L 143.660299 274.905304 
L 148.797238 275.661732 
L 153.934177 276.163132 
L 159.071116 276.486731 
L 164.208055 276.691515 
L 169.344994 276.819358 
L 174.481933 276.898234 
L 179.618872 276.946886 
L 184.755811 276.976896 
L 189.89275 276.99522 
L 195.029689 277.006665 
L 200.166628 277.014122 
L 205.303567 277.019106 
L 210.440506 277.017847 
L 215.577445 277.014877 
L 220.714384 277.0122 
L 225.851323 277.00961 
L 230.988262 277.006971 
L 236.125201 277.004268 
L 241.26214 277.001407 
L 246.399079 276.998395 
L 251.536018 276.995212 
L 256.672957 276.991845 
L 261.809896 276.988316 
L 266.946835 276.984415 
L 272.083774 276.98037 
L 277.220713 276.97623 
L 282.357652 276.971949 
L 287.494591 276.967492 
L 292.63153 276.96288 
L 297.76847 276.958159 
L 302.905409 276.953236 
L 308.042348 276.948185 
L 313.179287 276.943 
L 318.316226 276.937655 
L 323.453165 276.93222 
L 328.590104 276.926655 
L 333.727043 276.920937 
L 338.863982 276.915122 
L 344.000921 276.909217 
L 349.13786 276.903164 
L 354.274799 276.896853 
L 359.411738 276.890525 
L 364.548677 276.88415 
L 369.685616 276.877699 
L 374.822555 276.871116 
L 379.959494 276.864445 
L 385.096433 276.857672 
L 390.233372 276.850787 
L 395.370311 276.843848 
L 400.50725 276.836835 
L 405.644189 276.829721 
L 410.781128 276.822525 
L 415.918067 276.815281 
L 421.055006 276.807923 
L 426.191945 276.80053 
L 431.328884 276.793043 
L 436.465823 276.785479 
L 441.602762 276.777748 
L 446.739701 276.770039 
L 451.87664 276.762288 
L 457.013579 276.754504 
L 462.150518 276.746623 
L 467.287457 276.738696 
L 472.424396 276.730718 
L 477.561335 276.722673 
L 482.698274 276.714592 
L 487.835213 276.706475 
L 492.972152 276.698299 
L 498.109091 276.690071 
" clip-path="url(#pc0362a5eef)" style="fill: none; stroke: #d62728; stroke-width: 1.5; stroke-linecap: square"/>
   </g>
   <g id="patch_3">
    <path d="M 72 288.36 
L 72 38.88 
" style="fill: none; stroke: #000000; stroke-width: 0.8; stroke-linejoin: miter; stroke-linecap: square"/>
   </g>
   <g id="patch_4">
    <path d="M 518.4 288.36 
L 518.4 38.88 
" style="fill: none; stroke: #000000; stroke-width: 0.8; stroke-linejoin: miter; stroke-linecap: square"/>
   </g>
   <g id="patch_5">
    <path d="M 72 288.36 
L 518.4 288.36 
" style="fill: none; stroke: #000000; stroke-width: 0.8; stroke-linejoin: miter; stroke-linecap: square"/>
   </g>
   <g id="patch_6">
    <path d="M 72 38.88 
L 518.4 38.88 
" style="fill: none; stroke: #000000; stroke-width: 0.8; stroke-linejoin: miter; stroke-linecap: square"/>
   </g>
   <g id="text_18">
    <!-- Coherence vs separation at fixed k1=0.2 (effect of spectral width) -->
    <g transform="translate(96.364688 32.88) scale(0.12 -0.12)">
     <defs>
      <path id="DejaVuSans-66" d="M 2375 4863 
L 2375 4384 
L 1825 4384 
Q 1516 4384 1395 4259 
Q 1275 4134 1275 3809 
L 1275 3500 
L 2222 3500 
L 2222 3053 
L 1275 3053 
L 1275 0 
L 697 0 
L 697 3053 
L 147 3053 
L 147 3500 
L 697 3500 
L 697 3744 
Q 697 4328 969 4595 
Q 1241 4863 1831 4863 
L 2375 4863 
z
" transform="scale(0.015625)"/>
      <path id="DejaVuSans-78" d="M 3513 3500 
L 2247 1797 
L 3578 0 
L 2900 0 
L 1881 1375 
L 863 0 
L 184 0 
L 1544 1831 
L 300 3500 
L 978 3500 
L 1906 2253 
L 2834 3500 
L 3513 3500 
z
" transform="scale(0.015625)"/>
      <path id="DejaVuSans-64" d="M 2906 2969 
L 2906 4863 
L 3481 4863 
L 3481 0 
L 2906 0 
L 2906 525 
Q 2725 213 2448 61 
Q 2172 -91 1784 -91 
Q 1150 -91 751 415 
Q 353 922 353 1747 
Q 353 2572 751 3078 
Q 1150 3584 1784 3584 
Q 2172 3584 2448 3432 
Q 2725 3281 2906 2969 
z
M 947 1747 
Q 947 1113 1208 752 
Q 1469 391 1925 391 
Q 2381 391 2643 752 
Q 2906 1113 2906 1747 
Q 2906 2381 2643 2742 
Q 2381 3103 1925 3103 
Q 1469 3103 1208 2742 
Q 947 2381 947 1747 
z
" transform="scale(0.015625)"/>
      <path id="DejaVuSans-6b" d="M 581 4863 
L 1159 4863 
L 1159 1991 
L 2875 3500 
L 3609 3500 
L 1753 1863 
L 3688 0 
L 2938 0 
L 1159 1709 
L 1159 0 
L 581 0 
L 581 4863 
z
" transform="scale(0.015625)"/>
      <path id="DejaVuSans-6c" d="M 603 4863 
L 1178 4863 
L 1178 0 
L 603 0 
L 603 4863 
z
" transform="scale(0.015625)"/>
      <path id="DejaVuSans-77" d="M 269 3500 
L 844 3500 
L 1563 769 
L 2278 3500 
L 2956 3500 
L 3675 769 
L 4391 3500 
L 4966 3500 
L 4050 0 
L 3372 0 
L 2619 2869 
L 1863 0 
L 1184 0 
L 269 3500 
z
" transform="scale(0.015625)"/>
     </defs>
     <use xlink:href="#DejaVuSans-43"/>
     <use xlink:href="#DejaVuSans-6f" x="69.824219"/>
     <use xlink:href="#DejaVuSans-68" x="131.005859"/>
     <use xlink:href="#DejaVuSans-65" x="194.384766"/>
     <use xlink:href="#DejaVuSans-72" x="255.908203"/>
     <use xlink:href="#DejaVuSans-65" x="294.771484"/>
     <use xlink:href="#DejaVuSans-6e" x="356.294922"/>
     <use xlink:href="#DejaVuSans-63" x="419.673828"/>
     <use xlink:href="#DejaVuSans-65" x="474.654297"/>
     <use xlink:href="#DejaVuSans-20" x="536.177734"/>
     <use xlink:href="#DejaVuSans-76" x="567.964844"/>
     <use xlink:href="#DejaVuSans-73" x="627.144531"/>
     <use xlink:href="#DejaVuSans-20" x="679.244141"/>
     <use xlink:href="#DejaVuSans-73" x="711.03125"/>
     <use xlink:href="#DejaVuSans-65" x="763.130859"/>
     <use xlink:href="#DejaVuSans-70" x="824.654297"/>
     <use xlink:href="#DejaVuSans-61" x="888.130859"/>
     <use xlink:href="#DejaVuSans-72" x="949.410156"/>
     <use xlink:href="#DejaVuSans-61" x="990.523438"/>
     <use xlink:href="#DejaVuSans-74" x="1051.802734"/>
     <use xlink:href="#DejaVuSans-69" x="1091.011719"/>
     <use xlink:href="#DejaVuSans-6f" x="1118.794922"/>
     <use xlink:href="#DejaVuSans-6e" x="1179.976562"/>
     <use xlink:href="#DejaVuSans-20" x="1243.355469"/>
     <use xlink:href="#DejaVuSans-61" x="1275.142578"/>
     <use xlink:href="#DejaVuSans-74" x="1336.421875"/>
     <use xlink:href="#DejaVuSans-20" x="1375.630859"/>
     <use xlink:href="#DejaVuSans-66" x="1407.417969"/>
     <use xlink:href="#DejaVuSans-69" x="1442.623047"/>
     <use xlink:href="#DejaVuSans-78" x="1470.40625"/>
     <use xlink:href="#DejaVuSans-65" x="1526.460938"/>
     <use xlink:href="#DejaVuSans-64" x="1587.984375"/>
     <use xlink:href="#DejaVuSans-20" x="1651.460938"/>
     <use xlink:href="#DejaVuSans-6b" x="1683.248047"/>
     <use xlink:href="#DejaVuSans-31" x="1741.158203"/>
     <use xlink:href="#DejaVuSans-3d" x="1804.78125"/>
     <use xlink:href="#DejaVuSans-30" x="1888.570312"/>
     <use xlink:href="#DejaVuSans-2e" x="1952.193359"/>
     <use xlink:href="#DejaVuSans-32" x="1983.980469"/>
     <use xlink:href="#DejaVuSans-20" x="2047.603516"/>
     <use xlink:href="#DejaVuSans-28" x="2079.390625"/>
     <use xlink:href="#DejaVuSans-65" x="2118.404297"/>
     <use xlink:href="#DejaVuSans-66" x="2179.927734"/>
     <use xlink:href="#DejaVuSans-66" x="2215.132812"/>
     <use xlink:href="#DejaVuSans-65" x="2250.337891"/>
     <use xlink:href="#DejaVuSans-63" x="2311.861328"/>
     <use xlink:href="#DejaVuSans-74" x="2366.841797"/>
     <use xlink:href="#DejaVuSans-20" x="2406.050781"/>
     <use xlink:href="#DejaVuSans-6f" x="2437.837891"/>
     <use xlink:href="#DejaVuSans-66" x="2499.019531"/>
     <use xlink:href="#DejaVuSans-20" x="2534.224609"/>
     <use xlink:href="#DejaVuSans-73" x="2566.011719"/>
     <use xlink:href="#DejaVuSans-70" x="2618.111328"/>
     <use xlink:href="#DejaVuSans-65" x="2681.587891"/>
     <use xlink:href="#DejaVuSans-63" x="2743.111328"/>
     <use xlink:href="#DejaVuSans-74" x="2798.091797"/>
     <use xlink:href="#DejaVuSans-72" x="2837.300781"/>
     <use xlink:href="#DejaVuSans-61" x="2878.414062"/>
     <use xlink:href="#DejaVuSans-6c" x="2939.693359"/>
     <use xlink:href="#DejaVuSans-20" x="2967.476562"/>
     <use xlink:href="#DejaVuSans-77" x="2999.263672"/>
     <use xlink:href="#DejaVuSans-69" x="3081.050781"/>
     <use xlink:href="#DejaVuSans-64" x="3108.833984"/>
     <use xlink:href="#DejaVuSans-74" x="3172.310547"/>
     <use xlink:href="#DejaVuSans-68" x="3211.519531"/>
     <use xlink:href="#DejaVuSans-29" x="3274.898438"/>
    </g>
   </g>
   <g id="legend_1">
    <g id="patch_7">
     <path d="M 436.601562 105.5925 
L 511.4 105.5925 
Q 513.4 105.5925 513.4 103.5925 
L 513.4 45.88 
Q 513.4 43.88 511.4 43.88 
L 436.601562 43.88 
Q 434.601562 43.88 434.601562 45.88 
L 434.601562 103.5925 
Q 434.601562 105.5925 436.601562 105.5925 
z
" style="fill: #ffffff; opacity: 0.8; stroke: #cccccc; stroke-linejoin: miter"/>
    </g>
    <g id="line2d_20">
     <path d="M 438.601562 51.978437 
L 448.601562 51.978437 
L 458.601562 51.978437 
" style="fill: none; stroke: #1f77b4; stroke-width: 1.5; stroke-linecap: square"/>
    </g>
    <g id="text_19">
     <!-- k0=0.02 -->
     <g transform="translate(466.601562 55.478437) scale(0.1 -0.1)">
      <use xlink:href="#DejaVuSans-6b"/>
      <use xlink:href="#DejaVuSans-30" x="57.910156"/>
      <use xlink:href="#DejaVuSans-3d" x="121.533203"/>
      <use xlink:href="#DejaVuSans-30" x="205.322266"/>
      <use xlink:href="#DejaVuSans-2e" x="268.945312"/>
      <use xlink:href="#DejaVuSans-30" x="300.732422"/>
      <use xlink:href="#DejaVuSans-32" x="364.355469"/>
     </g>
    </g>
    <g id="line2d_21">
     <path d="M 438.601562 66.656562 
L 448.601562 66.656562 
L 458.601562 66.656562 
" style="fill: none; stroke: #ff7f0e; stroke-width: 1.5; stroke-linecap: square"/>
    </g>
    <g id="text_20">
     <!-- k0=0.05 -->
     <g transform="translate(466.601562 70.156562) scale(0.1 -0.1)">
      <use xlink:href="#DejaVuSans-6b"/>
      <use xlink:href="#DejaVuSans-30" x="57.910156"/>
      <use xlink:href="#DejaVuSans-3d" x="121.533203"/>
      <use xlink:href="#DejaVuSans-30" x="205.322266"/>
      <use xlink:href="#DejaVuSans-2e" x="268.945312"/>
      <use xlink:href="#DejaVuSans-30" x="300.732422"/>
      <use xlink:href="#DejaVuSans-35" x="364.355469"/>
     </g>
    </g>
    <g id="line2d_22">
     <path d="M 438.601562 81.334687 
L 448.601562 81.334687 
L 458.601562 81.334687 
" style="fill: none; stroke: #2ca02c; stroke-width: 1.5; stroke-linecap: square"/>
    </g>
    <g id="text_21">
     <!-- k0=0.1 -->
     <g transform="translate(466.601562 84.834687) scale(0.1 -0.1)">
      <use xlink:href="#DejaVuSans-6b"/>
      <use xlink:href="#DejaVuSans-30" x="57.910156"/>
      <use xlink:href="#DejaVuSans-3d" x="121.533203"/>
      <use xlink:href="#DejaVuSans-30" x="205.322266"/>
      <use xlink:href="#DejaVuSans-2e" x="268.945312"/>
      <use xlink:href="#DejaVuSans-31" x="300.732422"/>
     </g>
    </g>
    <g id="line2d_23">
     <path d="M 438.601562 96.012812 
L 448.601562 96.012812 
L 458.601562 96.012812 
" style="fill: none; stroke: #d62728; stroke-width: 1.5; stroke-linecap: square"/>
    </g>
    <g id="text_22">
     <!-- k0=0.2 -->
     <g transform="translate(466.601562 99.512812) scale(0.1 -0.1)">
      <use xlink:href="#DejaVuSans-6b"/>
      <use xlink:href="#DejaVuSans-30" x="57.910156"/>
      <use xlink:href="#DejaVuSans-3d" x="121.533203"/>
      <use xlink:href="#DejaVuSans-30" x="205.322266"/>
      <use xlink:href="#DejaVuSans-2e" x="268.945312"/>
      <use xlink:href="#DejaVuSans-32" x="300.732422"/>
     </g>
    </g>
   </g>
  </g>
 </g>
 <defs>
  <clipPath id="pc0362a5eef">
   <rect x="72" y="38.88" width="446.4" height="249.48"/>
  </clipPath>
 </defs>
</svg>
