<?xml version="1.0" encoding="utf-8" standalone="no"?>
<!DOCTYPE svg PUBLIC "-//W3C//DTD SVG 1.1//EN"
  "http://www.w3.org/Graphics/SVG/1.1/DTD/svg11.dtd">
<svg xmlns:xlink="http://www.w3.org/1999/xlink" width="720pt" height="252pt" viewBox="0 0 720 252" xmlns="http://www.w3.org/2000/svg" version="1.1">
 <metadata>
  <rdf:RDF xmlns:dc="http://purl.org/dc/elements/1.1/" xmlns:cc="http://creativecommons.org/ns#" xmlns:rdf="http://www.w3.org/1999/02/22-rdf-syntax-ns#">
   <cc:Work>
    <dc:type rdf:resource="http://purl.org/dc/dcmitype/StillImage"/>
    <dc:date>2025-09-17T14:44:39.261044</dc:date>
    <dc:format>image/svg+xml</dc:format>
    <dc:creator>
     <cc:Agent>
      <dc:title>Matplotlib v3.9.2, https://matplotlib.org/</dc:title>
     </cc:Agent>
    </dc:creator>
   </cc:Work>
  </rdf:RDF>
 </metadata>
 <defs>
  <style type="text/css">*{stroke-linejoin: round; stroke-linecap: butt}</style>
 </defs>
 <g id="figure_1">
  <g id="patch_1">
   <path d="M 0 252 
L 720 252 
L 720 0 
L 0 0 
z
" style="fill: #ffffff"/>
  </g>
  <g id="axes_1">
   <g id="patch_2">
    <path d="M 90 224.28 
L 648 224.28 
L 648 30.24 
L 90 30.24 
z
" style="fill: #ffffff"/>
   </g>
   <g id="matplotlib.axis_1">
    <g id="xtick_1">
     <g id="line2d_1">
      <defs>
       <path id="mba3f01b323" d="M 0 0 
L 0 3.5 
" style="stroke: #000000; stroke-width: 0.8"/>
      </defs>
      <g>
       <use xlink:href="#mba3f01b323" x="115.363636" y="224.28" style="stroke: #000000; stroke-width: 0.8"/>
      </g>
     </g>
     <g id="text_1">
      <!-- 0 -->
      <g transform="translate(112.182386 238.878438) scale(0.1 -0.1)">
       <defs>
        <path id="DejaVuSans-30" d="M 2034 4250 
Q 1547 4250 1301 3770 
Q 1056 3291 1056 2328 
Q 1056 1369 1301 889 
Q 1547 409 2034 409 
Q 2525 409 2770 889 
Q 3016 1369 3016 2328 
Q 3016 3291 2770 3770 
Q 2525 4250 2034 4250 
z
M 2034 4750 
Q 2819 4750 3233 4129 
Q 3647 3509 3647 2328 
Q 3647 1150 3233 529 
Q 2819 -91 2034 -91 
Q 1250 -91 836 529 
Q 422 1150 422 2328 
Q 422 3509 836 4129 
Q 1250 4750 2034 4750 
z
" transform="scale(0.015625)"/>
       </defs>
       <use xlink:href="#DejaVuSans-30"/>
      </g>
     </g>
    </g>
    <g id="xtick_2">
     <g id="line2d_2">
      <g>
       <use xlink:href="#mba3f01b323" x="180.375811" y="224.28" style="stroke: #000000; stroke-width: 0.8"/>
      </g>
     </g>
     <g id="text_2">
      <!-- 200 -->
      <g transform="translate(170.832061 238.878438) scale(0.1 -0.1)">
       <defs>
        <path id="DejaVuSans-32" d="M 1228 531 
L 3431 531 
L 3431 0 
L 469 0 
L 469 531 
Q 828 903 1448 1529 
Q 2069 2156 2228 2338 
Q 2531 2678 2651 2914 
Q 2772 3150 2772 3378 
Q 2772 3750 2511 3984 
Q 2250 4219 1831 4219 
Q 1534 4219 1204 4116 
Q 875 4013 500 3803 
L 500 4441 
Q 881 4594 1212 4672 
Q 1544 4750 1819 4750 
Q 2544 4750 2975 4387 
Q 3406 4025 3406 3419 
Q 3406 3131 3298 2873 
Q 3191 2616 2906 2266 
Q 2828 2175 2409 1742 
Q 1991 1309 1228 531 
z
" transform="scale(0.015625)"/>
       </defs>
       <use xlink:href="#DejaVuSans-32"/>
       <use xlink:href="#DejaVuSans-30" x="63.623047"/>
       <use xlink:href="#DejaVuSans-30" x="127.246094"/>
      </g>
     </g>
    </g>
    <g id="xtick_3">
     <g id="line2d_3">
      <g>
       <use xlink:href="#mba3f01b323" x="245.387985" y="224.28" style="stroke: #000000; stroke-width: 0.8"/>
      </g>
     </g>
     <g id="text_3">
      <!-- 400 -->
      <g transform="translate(235.844235 238.878438) scale(0.1 -0.1)">
       <defs>
        <path id="DejaVuSans-34" d="M 2419 4116 
L 825 1625 
L 2419 1625 
L 2419 4116 
z
M 2253 4666 
L 3047 4666 
L 3047 1625 
L 3713 1625 
L 3713 1100 
L 3047 1100 
L 3047 0 
L 2419 0 
L 2419 1100 
L 313 1100 
L 313 1709 
L 2253 4666 
z
" transform="scale(0.015625)"/>
       </defs>
       <use xlink:href="#DejaVuSans-34"/>
       <use xlink:href="#DejaVuSans-30" x="63.623047"/>
       <use xlink:href="#DejaVuSans-30" x="127.246094"/>
      </g>
     </g>
    </g>
    <g id="xtick_4">
     <g id="line2d_4">
      <g>
       <use xlink:href="#mba3f01b323" x="310.400159" y="224.28" style="stroke: #000000; stroke-width: 0.8"/>
      </g>
     </g>
     <g id="text_4">
      <!-- 600 -->
      <g transform="translate(300.856409 238.878438) scale(0.1 -0.1)">
       <defs>
        <path id="DejaVuSans-36" d="M 2113 2584 
Q 1688 2584 1439 2293 
Q 1191 2003 1191 1497 
Q 1191 994 1439 701 
Q 1688 409 2113 409 
Q 2538 409 2786 701 
Q 3034 994 3034 1497 
Q 3034 2003 2786 2293 
Q 2538 2584 2113 2584 
z
M 3366 4563 
L 3366 3988 
Q 3128 4100 2886 4159 
Q 2644 4219 2406 4219 
Q 1781 4219 1451 3797 
Q 1122 3375 1075 2522 
Q 1259 2794 1537 2939 
Q 1816 3084 2150 3084 
Q 2853 3084 3261 2657 
Q 3669 2231 3669 1497 
Q 3669 778 3244 343 
Q 2819 -91 2113 -91 
Q 1303 -91 875 529 
Q 447 1150 447 2328 
Q 447 3434 972 4092 
Q 1497 4750 2381 4750 
Q 2619 4750 2861 4703 
Q 3103 4656 3366 4563 
z
" transform="scale(0.015625)"/>
       </defs>
       <use xlink:href="#DejaVuSans-36"/>
       <use xlink:href="#DejaVuSans-30" x="63.623047"/>
       <use xlink:href="#DejaVuSans-30" x="127.246094"/>
      </g>
     </g>
    </g>
    <g id="xtick_5">
     <g id="line2d_5">
      <g>
       <use xlink:href="#mba3f01b323" x="375.412334" y="224.28" style="stroke: #000000; stroke-width: 0.8"/>
      </g>
     </g>
     <g id="text_5">
      <!-- 800 -->
      <g transform="translate(365.868584 238.878438) scale(0.1 -0.1)">
       <defs>
        <path id="DejaVuSans-38" d="M 2034 2216 
Q 1584 2216 1326 1975 
Q 1069 1734 1069 1313 
Q 1069 891 1326 650 
Q 1584 409 2034 409 
Q 2484 409 2743 651 
Q 3003 894 3003 1313 
Q 3003 1734 2745 1975 
Q 2488 2216 2034 2216 
z
M 1403 2484 
Q 997 2584 770 2862 
Q 544 3141 544 3541 
Q 544 4100 942 4425 
Q 1341 4750 2034 4750 
Q 2731 4750 3128 4425 
Q 3525 4100 3525 3541 
Q 3525 3141 3298 2862 
Q 3072 2584 2669 2484 
Q 3125 2378 3379 2068 
Q 3634 1759 3634 1313 
Q 3634 634 3220 271 
Q 2806 -91 2034 -91 
Q 1263 -91 848 271 
Q 434 634 434 1313 
Q 434 1759 690 2068 
Q 947 2378 1403 2484 
z
M 1172 3481 
Q 1172 3119 1398 2916 
Q 1625 2713 2034 2713 
Q 2441 2713 2670 2916 
Q 2900 3119 2900 3481 
Q 2900 3844 2670 4047 
Q 2441 4250 2034 4250 
Q 1625 4250 1398 4047 
Q 1172 3844 1172 3481 
z
" transform="scale(0.015625)"/>
       </defs>
       <use xlink:href="#DejaVuSans-38"/>
       <use xlink:href="#DejaVuSans-30" x="63.623047"/>
       <use xlink:href="#DejaVuSans-30" x="127.246094"/>
      </g>
     </g>
    </g>
    <g id="xtick_6">
     <g id="line2d_6">
      <g>
       <use xlink:href="#mba3f01b323" x="440.424508" y="224.28" style="stroke: #000000; stroke-width: 0.8"/>
      </g>
     </g>
     <g id="text_6">
      <!-- 1000 -->
      <g transform="translate(427.699508 238.878438) scale(0.1 -0.1)">
       <defs>
        <path id="DejaVuSans-31" d="M 794 531 
L 1825 531 
L 1825 4091 
L 703 3866 
L 703 4441 
L 1819 4666 
L 2450 4666 
L 2450 531 
L 3481 531 
L 3481 0 
L 794 0 
L 794 531 
z
" transform="scale(0.015625)"/>
       </defs>
       <use xlink:href="#DejaVuSans-31"/>
       <use xlink:href="#DejaVuSans-30" x="63.623047"/>
       <use xlink:href="#DejaVuSans-30" x="127.246094"/>
       <use xlink:href="#DejaVuSans-30" x="190.869141"/>
      </g>
     </g>
    </g>
    <g id="xtick_7">
     <g id="line2d_7">
      <g>
       <use xlink:href="#mba3f01b323" x="505.436682" y="224.28" style="stroke: #000000; stroke-width: 0.8"/>
      </g>
     </g>
     <g id="text_7">
      <!-- 1200 -->
      <g transform="translate(492.711682 238.878438) scale(0.1 -0.1)">
       <use xlink:href="#DejaVuSans-31"/>
       <use xlink:href="#DejaVuSans-32" x="63.623047"/>
       <use xlink:href="#DejaVuSans-30" x="127.246094"/>
       <use xlink:href="#DejaVuSans-30" x="190.869141"/>
      </g>
     </g>
    </g>
    <g id="xtick_8">
     <g id="line2d_8">
      <g>
       <use xlink:href="#mba3f01b323" x="570.448857" y="224.28" style="stroke: #000000; stroke-width: 0.8"/>
      </g>
     </g>
     <g id="text_8">
      <!-- 1400 -->
      <g transform="translate(557.723857 238.878438) scale(0.1 -0.1)">
       <use xlink:href="#DejaVuSans-31"/>
       <use xlink:href="#DejaVuSans-34" x="63.623047"/>
       <use xlink:href="#DejaVuSans-30" x="127.246094"/>
       <use xlink:href="#DejaVuSans-30" x="190.869141"/>
      </g>
     </g>
    </g>
    <g id="xtick_9">
     <g id="line2d_9">
      <g>
       <use xlink:href="#mba3f01b323" x="635.461031" y="224.28" style="stroke: #000000; stroke-width: 0.8"/>
      </g>
     </g>
     <g id="text_9">
      <!-- 1600 -->
      <g transform="translate(622.736031 238.878438) scale(0.1 -0.1)">
       <use xlink:href="#DejaVuSans-31"/>
       <use xlink:href="#DejaVuSans-36" x="63.623047"/>
       <use xlink:href="#DejaVuSans-30" x="127.246094"/>
       <use xlink:href="#DejaVuSans-30" x="190.869141"/>
      </g>
     </g>
    </g>
    <g id="text_10">
     <!-- x -->
     <g transform="translate(366.040625 252.556563) scale(0.1 -0.1)">
      <defs>
       <path id="DejaVuSans-78" d="M 3513 3500 
L 2247 1797 
L 3578 0 
L 2900 0 
L 1881 1375 
L 863 0 
L 184 0 
L 1544 1831 
L 300 3500 
L 978 3500 
L 1906 2253 
L 2834 3500 
L 3513 3500 
z
" transform="scale(0.015625)"/>
      </defs>
      <use xlink:href="#DejaVuSans-78"/>
     </g>
    </g>
   </g>
   <g id="matplotlib.axis_2">
    <g id="ytick_1">
     <g id="line2d_10">
      <defs>
       <path id="mc5ee8338d2" d="M 0 0 
L -3.5 0 
" style="stroke: #000000; stroke-width: 0.8"/>
      </defs>
      <g>
       <use xlink:href="#mc5ee8338d2" x="90" y="211.805815" style="stroke: #000000; stroke-width: 0.8"/>
      </g>
     </g>
     <g id="text_11">
      <!-- −0.8 -->
      <g transform="translate(58.717187 215.605033) scale(0.1 -0.1)">
       <defs>
        <path id="DejaVuSans-2212" d="M 678 2272 
L 4684 2272 
L 4684 1741 
L 678 1741 
L 678 2272 
z
" transform="scale(0.015625)"/>
        <path id="DejaVuSans-2e" d="M 684 794 
L 1344 794 
L 1344 0 
L 684 0 
L 684 794 
z
" transform="scale(0.015625)"/>
       </defs>
       <use xlink:href="#DejaVuSans-2212"/>
       <use xlink:href="#DejaVuSans-30" x="83.789062"/>
       <use xlink:href="#DejaVuSans-2e" x="147.412109"/>
       <use xlink:href="#DejaVuSans-38" x="179.199219"/>
      </g>
     </g>
    </g>
    <g id="ytick_2">
     <g id="line2d_11">
      <g>
       <use xlink:href="#mc5ee8338d2" x="90" y="189.823032" style="stroke: #000000; stroke-width: 0.8"/>
      </g>
     </g>
     <g id="text_12">
      <!-- −0.6 -->
      <g transform="translate(58.717187 193.622251) scale(0.1 -0.1)">
       <use xlink:href="#DejaVuSans-2212"/>
       <use xlink:href="#DejaVuSans-30" x="83.789062"/>
       <use xlink:href="#DejaVuSans-2e" x="147.412109"/>
       <use xlink:href="#DejaVuSans-36" x="179.199219"/>
      </g>
     </g>
    </g>
    <g id="ytick_3">
     <g id="line2d_12">
      <g>
       <use xlink:href="#mc5ee8338d2" x="90" y="167.840249" style="stroke: #000000; stroke-width: 0.8"/>
      </g>
     </g>
     <g id="text_13">
      <!-- −0.4 -->
      <g transform="translate(58.717187 171.639468) scale(0.1 -0.1)">
       <use xlink:href="#DejaVuSans-2212"/>
       <use xlink:href="#DejaVuSans-30" x="83.789062"/>
       <use xlink:href="#DejaVuSans-2e" x="147.412109"/>
       <use xlink:href="#DejaVuSans-34" x="179.199219"/>
      </g>
     </g>
    </g>
    <g id="ytick_4">
     <g id="line2d_13">
      <g>
       <use xlink:href="#mc5ee8338d2" x="90" y="145.857467" style="stroke: #000000; stroke-width: 0.8"/>
      </g>
     </g>
     <g id="text_14">
      <!-- −0.2 -->
      <g transform="translate(58.717187 149.656686) scale(0.1 -0.1)">
       <use xlink:href="#DejaVuSans-2212"/>
       <use xlink:href="#DejaVuSans-30" x="83.789062"/>
       <use xlink:href="#DejaVuSans-2e" x="147.412109"/>
       <use xlink:href="#DejaVuSans-32" x="179.199219"/>
      </g>
     </g>
    </g>
    <g id="ytick_5">
     <g id="line2d_14">
      <g>
       <use xlink:href="#mc5ee8338d2" x="90" y="123.874684" style="stroke: #000000; stroke-width: 0.8"/>
      </g>
     </g>
     <g id="text_15">
      <!-- 0.0 -->
      <g transform="translate(67.096875 127.673903) scale(0.1 -0.1)">
       <use xlink:href="#DejaVuSans-30"/>
       <use xlink:href="#DejaVuSans-2e" x="63.623047"/>
       <use xlink:href="#DejaVuSans-30" x="95.410156"/>
      </g>
     </g>
    </g>
    <g id="ytick_6">
     <g id="line2d_15">
      <g>
       <use xlink:href="#mc5ee8338d2" x="90" y="101.891902" style="stroke: #000000; stroke-width: 0.8"/>
      </g>
     </g>
     <g id="text_16">
      <!-- 0.2 -->
      <g transform="translate(67.096875 105.691121) scale(0.1 -0.1)">
       <use xlink:href="#DejaVuSans-30"/>
       <use xlink:href="#DejaVuSans-2e" x="63.623047"/>
       <use xlink:href="#DejaVuSans-32" x="95.410156"/>
      </g>
     </g>
    </g>
    <g id="ytick_7">
     <g id="line2d_16">
      <g>
       <use xlink:href="#mc5ee8338d2" x="90" y="79.909119" style="stroke: #000000; stroke-width: 0.8"/>
      </g>
     </g>
     <g id="text_17">
      <!-- 0.4 -->
      <g transform="translate(67.096875 83.708338) scale(0.1 -0.1)">
       <use xlink:href="#DejaVuSans-30"/>
       <use xlink:href="#DejaVuSans-2e" x="63.623047"/>
       <use xlink:href="#DejaVuSans-34" x="95.410156"/>
      </g>
     </g>
    </g>
    <g id="ytick_8">
     <g id="line2d_17">
      <g>
       <use xlink:href="#mc5ee8338d2" x="90" y="57.926337" style="stroke: #000000; stroke-width: 0.8"/>
      </g>
     </g>
     <g id="text_18">
      <!-- 0.6 -->
      <g transform="translate(67.096875 61.725556) scale(0.1 -0.1)">
       <use xlink:href="#DejaVuSans-30"/>
       <use xlink:href="#DejaVuSans-2e" x="63.623047"/>
       <use xlink:href="#DejaVuSans-36" x="95.410156"/>
      </g>
     </g>
    </g>
    <g id="ytick_9">
     <g id="line2d_18">
      <g>
       <use xlink:href="#mc5ee8338d2" x="90" y="35.943554" style="stroke: #000000; stroke-width: 0.8"/>
      </g>
     </g>
     <g id="text_19">
      <!-- 0.8 -->
      <g transform="translate(67.096875 39.742773) scale(0.1 -0.1)">
       <use xlink:href="#DejaVuSans-30"/>
       <use xlink:href="#DejaVuSans-2e" x="63.623047"/>
       <use xlink:href="#DejaVuSans-38" x="95.410156"/>
      </g>
     </g>
    </g>
    <g id="text_20">
     <!-- u(x) -->
     <g transform="translate(52.6375 137.289688) rotate(-90) scale(0.1 -0.1)">
      <defs>
       <path id="DejaVuSans-75" d="M 544 1381 
L 544 3500 
L 1119 3500 
L 1119 1403 
Q 1119 906 1312 657 
Q 1506 409 1894 409 
Q 2359 409 2629 706 
Q 2900 1003 2900 1516 
L 2900 3500 
L 3475 3500 
L 3475 0 
L 2900 0 
L 2900 538 
Q 2691 219 2414 64 
Q 2138 -91 1772 -91 
Q 1169 -91 856 284 
Q 544 659 544 1381 
z
M 1991 3584 
L 1991 3584 
z
" transform="scale(0.015625)"/>
       <path id="DejaVuSans-28" d="M 1984 4856 
Q 1566 4138 1362 3434 
Q 1159 2731 1159 2009 
Q 1159 1288 1364 580 
Q 1569 -128 1984 -844 
L 1484 -844 
Q 1016 -109 783 600 
Q 550 1309 550 2009 
Q 550 2706 781 3412 
Q 1013 4119 1484 4856 
L 1984 4856 
z
" transform="scale(0.015625)"/>
       <path id="DejaVuSans-29" d="M 513 4856 
L 1013 4856 
Q 1481 4119 1714 3412 
Q 1947 2706 1947 2009 
Q 1947 1309 1714 600 
Q 1481 -109 1013 -844 
L 513 -844 
Q 928 -128 1133 580 
Q 1338 1288 1338 2009 
Q 1338 2731 1133 3434 
Q 928 4138 513 4856 
z
" transform="scale(0.015625)"/>
      </defs>
      <use xlink:href="#DejaVuSans-75"/>
      <use xlink:href="#DejaVuSans-28" x="63.378906"/>
      <use xlink:href="#DejaVuSans-78" x="102.392578"/>
      <use xlink:href="#DejaVuSans-29" x="161.572266"/>
     </g>
    </g>
   </g>
   <g id="line2d_19">
    <path d="M 115.363636 203.114503 
L 115.998521 177.44917 
L 116.633405 156.671217 
L 117.26829 144.990374 
L 117.903174 141.714114 
L 118.538059 142.268481 
L 119.172943 141.011974 
L 119.807828 134.359013 
L 121.077597 110.399463 
L 121.712482 103.356769 
L 122.347366 106.138878 
L 122.982251 119.297539 
L 124.25202 157.87216 
L 124.886904 170.094716 
L 125.521789 172.333065 
L 126.156673 165.546472 
L 128.061327 131.20598 
L 128.696211 125.938549 
L 129.331096 125.173501 
L 129.96598 127.947444 
L 130.600865 133.126607 
L 131.870634 147.802787 
L 133.140403 163.664773 
L 133.775287 169.008894 
L 134.410172 171.042685 
L 135.045056 169.42314 
L 135.679941 164.398479 
L 136.314825 156.374354 
L 137.584594 133.779371 
L 138.219479 122.038171 
L 138.854363 112.895356 
L 139.489248 108.03109 
L 140.124132 107.689555 
L 140.759017 110.811862 
L 141.393901 116.015547 
L 142.028786 122.535859 
L 143.298555 139.308771 
L 144.568324 156.253408 
L 145.203209 160.403479 
L 145.838093 160.001997 
L 146.472978 155.43894 
L 147.107862 148.026452 
L 148.377631 128.894139 
L 149.6474 104.162407 
L 151.552054 60.917459 
L 152.186938 51.456496 
L 152.821823 47.334164 
L 153.456707 48.73897 
L 154.091592 54.807353 
L 154.726476 64.229381 
L 156.63113 97.392555 
L 157.266014 103.30742 
L 157.900899 103.770539 
L 158.535783 99.455037 
L 159.805552 87.671996 
L 160.440437 85.333655 
L 161.075321 85.811938 
L 161.710206 87.397965 
L 162.34509 88.15373 
L 162.979975 86.802786 
L 163.614859 82.87294 
L 164.249744 76.521105 
L 166.154398 52.285272 
L 166.789282 46.385262 
L 167.424167 42.455083 
L 168.059051 40.483474 
L 168.693936 40.85679 
L 169.32882 44.354629 
L 169.963705 51.408226 
L 171.233474 73.067045 
L 173.773012 120.237131 
L 174.407896 129.952262 
L 175.042781 136.185259 
L 175.677665 137.707165 
L 176.31255 134.743357 
L 177.582319 123.177505 
L 178.217203 119.162156 
L 178.852088 117.825745 
L 179.486972 118.615415 
L 180.121857 120.089684 
L 180.756741 120.506157 
L 181.391626 118.299592 
L 182.02651 112.5947 
L 183.296279 94.500936 
L 183.931164 88.401371 
L 184.566048 89.594489 
L 185.200933 99.920571 
L 186.470702 135.584148 
L 187.105587 147.263563 
L 187.740471 146.601684 
L 188.375356 132.611161 
L 190.280009 64.71907 
L 190.914894 54.916572 
L 191.549778 56.069775 
L 192.184663 66.531022 
L 192.819547 83.452011 
L 195.99397 185.235903 
L 196.628854 200.228205 
L 197.263739 211.020351 
L 197.898623 215.46 
L 198.533508 211.294459 
L 199.168392 197.518032 
L 199.803277 175.335093 
L 201.70793 93.121162 
L 202.342815 72.100545 
L 202.977699 58.196313 
L 203.612584 52.427678 
L 204.247468 54.533406 
L 204.882353 62.702898 
L 206.152122 84.720463 
L 206.787006 92.682154 
L 207.421891 96.775327 
L 208.056776 97.493818 
L 208.69166 96.167699 
L 209.326545 94.232852 
L 209.961429 92.865595 
L 210.596314 92.996688 
L 211.231198 95.352832 
L 211.866083 100.21964 
L 213.770736 120.811825 
L 215.67539 136.011016 
L 216.310274 144.767411 
L 218.214928 178.117001 
L 218.849812 186.368374 
L 219.484697 192.635172 
L 220.119581 197.50746 
L 220.754466 201.320555 
L 221.38935 203.960794 
L 222.024235 204.959938 
L 222.659119 203.635385 
L 223.294004 199.284321 
L 223.928888 191.501614 
L 224.563773 180.455391 
L 225.833542 151.249339 
L 227.103311 115.362685 
L 228.37308 78.344821 
L 229.007965 66.173335 
L 229.642849 63.06964 
L 230.277734 70.565203 
L 230.912618 87.041692 
L 232.182387 128.744829 
L 232.817272 144.480747 
L 233.452156 153.477217 
L 234.087041 156.226081 
L 234.721925 154.92495 
L 235.35681 152.526351 
L 235.991694 151.836379 
L 236.626579 154.667615 
L 237.261463 161.167265 
L 238.531232 177.764329 
L 239.166117 183.083741 
L 239.801001 184.87823 
L 240.435886 183.680249 
L 241.07077 180.379844 
L 241.705655 175.274877 
L 242.340539 168.010443 
L 242.975424 158.335906 
L 245.514962 114.146295 
L 246.149846 106.898665 
L 246.784731 101.98675 
L 247.419615 99.398121 
L 248.0545 98.674296 
L 248.689384 98.771463 
L 249.324269 98.495186 
L 250.594038 96.019001 
L 251.228923 96.102993 
L 251.863807 98.975097 
L 252.498692 104.866955 
L 253.768461 120.538319 
L 254.403345 126.837943 
L 255.03823 130.818785 
L 255.673114 132.809908 
L 256.307999 133.900551 
L 256.942883 135.348793 
L 257.577768 138.061388 
L 258.212652 142.395965 
L 259.482421 155.080576 
L 260.75219 167.950178 
L 261.387075 171.585498 
L 262.021959 172.162806 
L 262.656844 169.477702 
L 263.291728 163.745978 
L 263.926613 155.303584 
L 265.196382 132.055313 
L 266.466151 108.469409 
L 267.101035 102.317067 
L 267.73592 102.912733 
L 268.370804 110.506406 
L 270.275458 148.108986 
L 270.910342 154.816694 
L 271.545227 156.491336 
L 272.180112 153.855918 
L 272.814996 147.874154 
L 274.71965 122.382224 
L 275.354534 118.43627 
L 275.989419 119.855045 
L 276.624303 125.938066 
L 277.894072 141.672975 
L 278.528957 146.658986 
L 279.163841 148.771497 
L 279.798726 148.436837 
L 280.43361 146.000238 
L 281.068495 141.428873 
L 281.703379 134.682255 
L 283.608033 109.840763 
L 284.242917 105.034484 
L 284.877802 104.052212 
L 285.512686 107.199453 
L 286.147571 113.817467 
L 287.41734 129.145934 
L 288.052224 132.122354 
L 288.687109 129.325613 
L 289.321993 121.24041 
L 290.591762 99.504606 
L 291.226647 91.07063 
L 291.861531 85.607 
L 292.496416 82.577287 
L 293.1313 81.195312 
L 293.766185 81.07302 
L 294.40107 82.267352 
L 295.035954 84.985659 
L 295.670839 89.428636 
L 296.305723 95.951406 
L 296.940608 105.241674 
L 297.575492 118.055838 
L 300.11503 181.342348 
L 300.749915 184.080837 
L 301.384799 177.164572 
L 302.019684 162.645002 
L 303.924337 110.945656 
L 305.194106 86.768834 
L 307.733644 44.39801 
L 308.368529 39.06 
L 309.003413 39.309307 
L 309.638298 45.862238 
L 310.273182 57.976699 
L 312.177836 103.249989 
L 312.81272 110.822468 
L 313.447605 110.619778 
L 314.082489 103.119023 
L 315.352259 81.610734 
L 315.987143 78.191933 
L 316.622028 84.239489 
L 317.256912 98.937162 
L 318.526681 137.635882 
L 319.161566 153.007284 
L 319.79645 163.372676 
L 320.431335 169.829289 
L 321.066219 174.213406 
L 321.701104 177.528895 
L 322.335988 179.218329 
L 322.970873 177.584199 
L 323.605757 171.002312 
L 324.240642 159.153946 
L 326.145295 111.769673 
L 326.78018 100.25397 
L 327.415064 92.765267 
L 328.049949 88.84275 
L 328.684833 87.524472 
L 329.319718 87.70681 
L 331.224371 89.718233 
L 332.49414 91.060853 
L 333.129025 91.213952 
L 333.763909 90.063304 
L 334.398794 87.090086 
L 336.303447 72.39522 
L 336.938332 69.765422 
L 337.573217 70.028432 
L 338.208101 72.893931 
L 338.842986 76.858537 
L 339.47787 79.866094 
L 340.112755 80.512231 
L 340.747639 78.95088 
L 341.382524 76.723174 
L 342.017408 75.6062 
L 342.652293 76.450339 
L 343.287177 78.937266 
L 344.556946 86.065994 
L 345.191831 90.45426 
L 345.826715 95.817752 
L 347.096484 109.970011 
L 348.366253 126.548274 
L 349.001138 132.830447 
L 349.636022 135.097051 
L 350.270907 132.312945 
L 351.540676 119.456812 
L 352.17556 117.208344 
L 352.810445 120.935535 
L 354.080214 135.963747 
L 354.715098 137.696969 
L 355.349983 131.479199 
L 355.984867 118.37002 
L 357.254636 88.139711 
L 357.889521 79.826865 
L 358.524406 78.876149 
L 359.15929 84.371617 
L 359.794175 94.009304 
L 361.063944 117.995171 
L 363.603482 172.127806 
L 364.238366 181.088194 
L 364.873251 184.697013 
L 365.508135 182.401844 
L 366.14302 174.583261 
L 366.777904 162.156862 
L 369.317442 100.727896 
L 369.952327 92.283808 
L 370.587211 88.023558 
L 371.222096 87.229187 
L 371.85698 89.528646 
L 372.491865 95.251858 
L 373.126749 104.84261 
L 375.031403 144.418388 
L 375.666287 151.736143 
L 376.301172 152.066319 
L 376.936056 145.160553 
L 377.570941 132.327803 
L 379.475594 84.991057 
L 380.110479 74.84515 
L 380.745364 69.097274 
L 381.380248 67.099788 
L 382.015133 68.636806 
L 382.650017 74.845862 
L 383.284902 87.750773 
L 383.919786 108.473479 
L 385.82444 185.679218 
L 386.459324 196.306955 
L 387.094209 192.537309 
L 387.729093 175.768116 
L 390.268631 74.850273 
L 390.903516 61.900093 
L 391.5384 58.306284 
L 392.173285 63.936024 
L 392.808169 76.547857 
L 394.077938 105.981044 
L 394.712823 115.303572 
L 395.347707 119.524349 
L 395.982592 120.378038 
L 396.617476 120.632019 
L 397.252361 122.756473 
L 397.887245 127.995702 
L 399.157014 145.397308 
L 399.791899 154.167284 
L 400.426783 161.003227 
L 401.061668 165.477825 
L 401.696553 167.821513 
L 402.331437 168.339146 
L 402.966322 167.064661 
L 403.601206 163.913071 
L 404.870975 153.559137 
L 405.50586 148.62813 
L 406.140744 145.828928 
L 406.775629 146.209835 
L 407.410513 149.927386 
L 408.680282 162.381128 
L 409.315167 166.233189 
L 409.950051 164.870847 
L 410.584936 156.890265 
L 411.21982 143.187485 
L 412.489589 112.866212 
L 413.124474 104.10396 
L 413.759358 101.533567 
L 414.394243 103.150031 
L 415.029127 105.725031 
L 415.664012 106.899596 
L 416.298896 106.283994 
L 417.568665 103.698699 
L 418.20355 102.526618 
L 418.838434 100.387806 
L 419.473319 96.497358 
L 420.743088 84.961166 
L 422.012857 73.73272 
L 423.282626 63.959642 
L 423.917511 61.096148 
L 424.552395 61.9674 
L 425.18728 68.12494 
L 425.822164 79.629493 
L 427.726818 125.396599 
L 428.361702 136.550426 
L 428.996587 143.468789 
L 429.631471 145.489507 
L 430.266356 141.901471 
L 430.90124 132.378736 
L 431.536125 117.800325 
L 432.805894 84.391404 
L 433.440778 72.180682 
L 434.075663 65.339721 
L 434.710547 62.775675 
L 435.345432 61.688657 
L 435.980316 59.400474 
L 437.250085 51.155923 
L 437.88497 50.767056 
L 438.519854 57.240901 
L 439.154739 71.583624 
L 441.059392 134.433577 
L 441.694277 147.542588 
L 442.329161 151.894797 
L 442.964046 148.101856 
L 444.8687 119.395275 
L 445.503584 115.324123 
L 446.138469 117.497117 
L 446.773353 125.809677 
L 448.043122 149.857001 
L 448.678007 156.664033 
L 449.312891 155.520735 
L 449.947776 146.940639 
L 451.217545 123.345567 
L 451.852429 116.654729 
L 452.487314 115.346398 
L 453.122198 117.965022 
L 454.391967 127.437561 
L 455.026852 133.123423 
L 456.931505 154.116714 
L 457.56639 156.938752 
L 458.201274 153.972696 
L 458.836159 144.953231 
L 460.105928 115.705028 
L 462.010581 69.19698 
L 462.645466 56.766583 
L 463.28035 48.559737 
L 463.915235 46.261984 
L 464.550119 49.800131 
L 465.819888 64.045384 
L 466.454773 68.820094 
L 467.089658 70.715984 
L 467.724542 70.924363 
L 468.359427 70.958506 
L 468.994311 71.632912 
L 470.898965 75.649885 
L 472.168734 77.266774 
L 472.803618 78.776612 
L 473.438503 81.754813 
L 474.073387 86.446685 
L 474.708272 92.575514 
L 475.978041 108.263819 
L 477.24781 129.499103 
L 477.882694 140.675437 
L 478.517579 149.272818 
L 479.152463 152.864236 
L 479.787348 150.502926 
L 480.422232 143.453051 
L 481.692001 127.362475 
L 482.326886 123.396928 
L 482.96177 122.560598 
L 483.596655 122.873374 
L 484.231539 121.809337 
L 484.866424 117.676479 
L 485.501308 110.400863 
L 486.771077 93.039453 
L 487.405962 87.685627 
L 488.040847 87.498011 
L 488.675731 93.993288 
L 489.310616 107.713478 
L 489.9455 127.788494 
L 491.215269 174.805715 
L 491.850154 192.022598 
L 492.485038 198.054439 
L 493.119923 189.554172 
L 493.754807 166.548427 
L 495.659461 66.406642 
L 496.294345 48.851537 
L 496.92923 47.55392 
L 497.564114 61.417461 
L 499.468768 136.11001 
L 500.103652 149.238911 
L 500.738537 150.259294 
L 501.373421 141.425064 
L 502.64319 117.023794 
L 503.278075 111.803609 
L 503.912959 113.269412 
L 504.547844 119.225185 
L 505.817613 133.433429 
L 507.087382 146.207153 
L 507.722266 154.446549 
L 509.62692 183.516653 
L 510.261805 187.979606 
L 510.896689 186.703597 
L 511.531574 180.11179 
L 512.801343 163.393879 
L 513.436227 160.711811 
L 514.071112 163.287481 
L 514.705996 168.142816 
L 515.340881 170.782798 
L 515.975765 168.005116 
L 516.61065 159.694563 
L 517.880419 138.347725 
L 518.515303 131.975447 
L 519.150188 130.3763 
L 519.785072 132.324416 
L 520.419957 134.942831 
L 521.054841 134.838406 
L 521.689726 129.702053 
L 522.32461 119.701701 
L 522.959495 107.686289 
L 523.594379 97.834155 
L 524.229264 93.589559 
L 524.864148 96.319356 
L 525.499033 105.387276 
L 526.768802 134.892712 
L 527.403686 150.010414 
L 528.038571 160.836341 
L 528.673455 164.227038 
L 529.30834 158.932475 
L 529.943224 146.377295 
L 531.847878 99.024354 
L 532.482763 88.648 
L 533.117647 82.935999 
L 533.752532 82.346277 
L 534.387416 86.697804 
L 536.29207 109.902829 
L 536.926954 111.961673 
L 537.561839 109.58242 
L 538.196723 104.983916 
L 538.831608 101.295145 
L 539.466492 100.783976 
L 540.101377 103.799411 
L 542.00603 119.311375 
L 543.275799 126.205609 
L 544.545568 131.804272 
L 545.180453 132.485732 
L 545.815337 129.536872 
L 546.450222 121.770691 
L 548.354875 84.781983 
L 548.98976 80.010659 
L 549.624644 83.657451 
L 550.259529 95.051953 
L 552.799067 161.944727 
L 553.433952 172.101496 
L 554.068836 176.427923 
L 554.703721 174.324006 
L 555.338605 166.551279 
L 556.608374 142.13764 
L 557.878143 116.713071 
L 558.513028 105.647542 
L 559.147912 97.507636 
L 559.782797 94.232536 
L 560.417681 96.778415 
L 561.052566 104.133983 
L 562.322335 122.575449 
L 562.957219 129.199098 
L 563.592104 133.415842 
L 564.226988 135.998951 
L 564.861873 137.73239 
L 565.496757 138.895414 
L 566.131642 139.274653 
L 566.766526 138.47379 
L 567.401411 136.195516 
L 568.036295 132.294498 
L 568.67118 126.64278 
L 569.306064 119.042045 
L 569.940949 109.360715 
L 571.210718 85.126414 
L 572.480487 61.548866 
L 573.115371 53.889131 
L 573.750256 51.073271 
L 574.385141 53.929548 
L 575.020025 61.940951 
L 576.289794 83.749811 
L 576.924679 91.165842 
L 577.559563 93.504932 
L 578.194448 91.15004 
L 579.464217 82.348183 
L 580.099101 82.122213 
L 580.733986 87.342592 
L 581.36887 97.78355 
L 583.273524 138.788074 
L 583.908408 147.593708 
L 584.543293 150.982971 
L 585.178177 148.022857 
L 585.813062 138.689851 
L 586.447946 124.200018 
L 587.717715 90.606415 
L 588.3526 78.301437 
L 588.987484 72.467699 
L 589.622369 73.310831 
L 591.527022 88.628175 
L 592.161907 88.82715 
L 593.431676 84.857288 
L 594.06656 86.2764 
L 594.701445 92.440249 
L 595.33633 102.953765 
L 596.606099 126.305028 
L 597.240983 131.409428 
L 597.875868 128.084907 
L 598.510752 116.54048 
L 599.780521 86.809418 
L 600.415406 81.454131 
L 601.05029 87.869813 
L 601.685175 104.89864 
L 603.589828 172.09048 
L 604.224713 187.662059 
L 604.859597 197.979251 
L 605.494482 202.58439 
L 606.129366 200.426082 
L 606.764251 190.588734 
L 607.399135 173.601262 
L 608.668904 131.005994 
L 609.303789 114.755942 
L 609.938673 106.660381 
L 610.573558 106.958065 
L 611.843327 119.35573 
L 612.478211 122.237973 
L 613.113096 119.604586 
L 613.74798 113.394075 
L 614.382865 108.435043 
L 615.017749 109.847198 
L 615.652634 120.126314 
L 617.557288 172.789613 
L 618.192172 180.43842 
L 618.827057 179.893522 
L 620.096826 168.746692 
L 620.73171 166.222787 
L 621.366595 167.391394 
L 622.001479 170.161789 
L 622.636364 171.580247 
L 622.636364 171.580247 
" clip-path="url(#pf9afe7c63e)" style="fill: none; stroke: #1f77b4; stroke-linecap: square"/>
   </g>
   <g id="patch_3">
    <path d="M 90 224.28 
L 90 30.24 
" style="fill: none; stroke: #000000; stroke-width: 0.8; stroke-linejoin: miter; stroke-linecap: square"/>
   </g>
   <g id="patch_4">
    <path d="M 648 224.28 
L 648 30.24 
" style="fill: none; stroke: #000000; stroke-width: 0.8; stroke-linejoin: miter; stroke-linecap: square"/>
   </g>
   <g id="patch_5">
    <path d="M 90 224.28 
L 648 224.28 
" style="fill: none; stroke: #000000; stroke-width: 0.8; stroke-linejoin: miter; stroke-linecap: square"/>
   </g>
   <g id="patch_6">
    <path d="M 90 30.24 
L 648 30.24 
" style="fill: none; stroke: #000000; stroke-width: 0.8; stroke-linejoin: miter; stroke-linecap: square"/>
   </g>
   <g id="text_21">
    <!-- u(x) built from Gaussian dZ(k) (snippet) -->
    <g transform="translate(249.632812 24.24) scale(0.12 -0.12)">
     <defs>
      <path id="DejaVuSans-20" transform="scale(0.015625)"/>
      <path id="DejaVuSans-62" d="M 3116 1747 
Q 3116 2381 2855 2742 
Q 2594 3103 2138 3103 
Q 1681 3103 1420 2742 
Q 1159 2381 1159 1747 
Q 1159 1113 1420 752 
Q 1681 391 2138 391 
Q 2594 391 2855 752 
Q 3116 1113 3116 1747 
z
M 1159 2969 
Q 1341 3281 1617 3432 
Q 1894 3584 2278 3584 
Q 2916 3584 3314 3078 
Q 3713 2572 3713 1747 
Q 3713 922 3314 415 
Q 2916 -91 2278 -91 
Q 1894 -91 1617 61 
Q 1341 213 1159 525 
L 1159 0 
L 581 0 
L 581 4863 
L 1159 4863 
L 1159 2969 
z
" transform="scale(0.015625)"/>
      <path id="DejaVuSans-69" d="M 603 3500 
L 1178 3500 
L 1178 0 
L 603 0 
L 603 3500 
z
M 603 4863 
L 1178 4863 
L 1178 4134 
L 603 4134 
L 603 4863 
z
" transform="scale(0.015625)"/>
      <path id="DejaVuSans-6c" d="M 603 4863 
L 1178 4863 
L 1178 0 
L 603 0 
L 603 4863 
z
" transform="scale(0.015625)"/>
      <path id="DejaVuSans-74" d="M 1172 4494 
L 1172 3500 
L 2356 3500 
L 2356 3053 
L 1172 3053 
L 1172 1153 
Q 1172 725 1289 603 
Q 1406 481 1766 481 
L 2356 481 
L 2356 0 
L 1766 0 
Q 1100 0 847 248 
Q 594 497 594 1153 
L 594 3053 
L 172 3053 
L 172 3500 
L 594 3500 
L 594 4494 
L 1172 4494 
z
" transform="scale(0.015625)"/>
      <path id="DejaVuSans-66" d="M 2375 4863 
L 2375 4384 
L 1825 4384 
Q 1516 4384 1395 4259 
Q 1275 4134 1275 3809 
L 1275 3500 
L 2222 3500 
L 2222 3053 
L 1275 3053 
L 1275 0 
L 697 0 
L 697 3053 
L 147 3053 
L 147 3500 
L 697 3500 
L 697 3744 
Q 697 4328 969 4595 
Q 1241 4863 1831 4863 
L 2375 4863 
z
" transform="scale(0.015625)"/>
      <path id="DejaVuSans-72" d="M 2631 2963 
Q 2534 3019 2420 3045 
Q 2306 3072 2169 3072 
Q 1681 3072 1420 2755 
Q 1159 2438 1159 1844 
L 1159 0 
L 581 0 
L 581 3500 
L 1159 3500 
L 1159 2956 
Q 1341 3275 1631 3429 
Q 1922 3584 2338 3584 
Q 2397 3584 2469 3576 
Q 2541 3569 2628 3553 
L 2631 2963 
z
" transform="scale(0.015625)"/>
      <path id="DejaVuSans-6f" d="M 1959 3097 
Q 1497 3097 1228 2736 
Q 959 2375 959 1747 
Q 959 1119 1226 758 
Q 1494 397 1959 397 
Q 2419 397 2687 759 
Q 2956 1122 2956 1747 
Q 2956 2369 2687 2733 
Q 2419 3097 1959 3097 
z
M 1959 3584 
Q 2709 3584 3137 3096 
Q 3566 2609 3566 1747 
Q 3566 888 3137 398 
Q 2709 -91 1959 -91 
Q 1206 -91 779 398 
Q 353 888 353 1747 
Q 353 2609 779 3096 
Q 1206 3584 1959 3584 
z
" transform="scale(0.015625)"/>
      <path id="DejaVuSans-6d" d="M 3328 2828 
Q 3544 3216 3844 3400 
Q 4144 3584 4550 3584 
Q 5097 3584 5394 3201 
Q 5691 2819 5691 2113 
L 5691 0 
L 5113 0 
L 5113 2094 
Q 5113 2597 4934 2840 
Q 4756 3084 4391 3084 
Q 3944 3084 3684 2787 
Q 3425 2491 3425 1978 
L 3425 0 
L 2847 0 
L 2847 2094 
Q 2847 2600 2669 2842 
Q 2491 3084 2119 3084 
Q 1678 3084 1418 2786 
Q 1159 2488 1159 1978 
L 1159 0 
L 581 0 
L 581 3500 
L 1159 3500 
L 1159 2956 
Q 1356 3278 1631 3431 
Q 1906 3584 2284 3584 
Q 2666 3584 2933 3390 
Q 3200 3197 3328 2828 
z
" transform="scale(0.015625)"/>
      <path id="DejaVuSans-47" d="M 3809 666 
L 3809 1919 
L 2778 1919 
L 2778 2438 
L 4434 2438 
L 4434 434 
Q 4069 175 3628 42 
Q 3188 -91 2688 -91 
Q 1594 -91 976 548 
Q 359 1188 359 2328 
Q 359 3472 976 4111 
Q 1594 4750 2688 4750 
Q 3144 4750 3555 4637 
Q 3966 4525 4313 4306 
L 4313 3634 
Q 3963 3931 3569 4081 
Q 3175 4231 2741 4231 
Q 1884 4231 1454 3753 
Q 1025 3275 1025 2328 
Q 1025 1384 1454 906 
Q 1884 428 2741 428 
Q 3075 428 3337 486 
Q 3600 544 3809 666 
z
" transform="scale(0.015625)"/>
      <path id="DejaVuSans-61" d="M 2194 1759 
Q 1497 1759 1228 1600 
Q 959 1441 959 1056 
Q 959 750 1161 570 
Q 1363 391 1709 391 
Q 2188 391 2477 730 
Q 2766 1069 2766 1631 
L 2766 1759 
L 2194 1759 
z
M 3341 1997 
L 3341 0 
L 2766 0 
L 2766 531 
Q 2569 213 2275 61 
Q 1981 -91 1556 -91 
Q 1019 -91 701 211 
Q 384 513 384 1019 
Q 384 1609 779 1909 
Q 1175 2209 1959 2209 
L 2766 2209 
L 2766 2266 
Q 2766 2663 2505 2880 
Q 2244 3097 1772 3097 
Q 1472 3097 1187 3025 
Q 903 2953 641 2809 
L 641 3341 
Q 956 3463 1253 3523 
Q 1550 3584 1831 3584 
Q 2591 3584 2966 3190 
Q 3341 2797 3341 1997 
z
" transform="scale(0.015625)"/>
      <path id="DejaVuSans-73" d="M 2834 3397 
L 2834 2853 
Q 2591 2978 2328 3040 
Q 2066 3103 1784 3103 
Q 1356 3103 1142 2972 
Q 928 2841 928 2578 
Q 928 2378 1081 2264 
Q 1234 2150 1697 2047 
L 1894 2003 
Q 2506 1872 2764 1633 
Q 3022 1394 3022 966 
Q 3022 478 2636 193 
Q 2250 -91 1575 -91 
Q 1294 -91 989 -36 
Q 684 19 347 128 
L 347 722 
Q 666 556 975 473 
Q 1284 391 1588 391 
Q 1994 391 2212 530 
Q 2431 669 2431 922 
Q 2431 1156 2273 1281 
Q 2116 1406 1581 1522 
L 1381 1569 
Q 847 1681 609 1914 
Q 372 2147 372 2553 
Q 372 3047 722 3315 
Q 1072 3584 1716 3584 
Q 2034 3584 2315 3537 
Q 2597 3491 2834 3397 
z
" transform="scale(0.015625)"/>
      <path id="DejaVuSans-6e" d="M 3513 2113 
L 3513 0 
L 2938 0 
L 2938 2094 
Q 2938 2591 2744 2837 
Q 2550 3084 2163 3084 
Q 1697 3084 1428 2787 
Q 1159 2491 1159 1978 
L 1159 0 
L 581 0 
L 581 3500 
L 1159 3500 
L 1159 2956 
Q 1366 3272 1645 3428 
Q 1925 3584 2291 3584 
Q 2894 3584 3203 3211 
Q 3513 2838 3513 2113 
z
" transform="scale(0.015625)"/>
      <path id="DejaVuSans-64" d="M 2906 2969 
L 2906 4863 
L 3481 4863 
L 3481 0 
L 2906 0 
L 2906 525 
Q 2725 213 2448 61 
Q 2172 -91 1784 -91 
Q 1150 -91 751 415 
Q 353 922 353 1747 
Q 353 2572 751 3078 
Q 1150 3584 1784 3584 
Q 2172 3584 2448 3432 
Q 2725 3281 2906 2969 
z
M 947 1747 
Q 947 1113 1208 752 
Q 1469 391 1925 391 
Q 2381 391 2643 752 
Q 2906 1113 2906 1747 
Q 2906 2381 2643 2742 
Q 2381 3103 1925 3103 
Q 1469 3103 1208 2742 
Q 947 2381 947 1747 
z
" transform="scale(0.015625)"/>
      <path id="DejaVuSans-5a" d="M 359 4666 
L 4025 4666 
L 4025 4184 
L 1075 531 
L 4097 531 
L 4097 0 
L 288 0 
L 288 481 
L 3238 4134 
L 359 4134 
L 359 4666 
z
" transform="scale(0.015625)"/>
      <path id="DejaVuSans-6b" d="M 581 4863 
L 1159 4863 
L 1159 1991 
L 2875 3500 
L 3609 3500 
L 1753 1863 
L 3688 0 
L 2938 0 
L 1159 1709 
L 1159 0 
L 581 0 
L 581 4863 
z
" transform="scale(0.015625)"/>
      <path id="DejaVuSans-70" d="M 1159 525 
L 1159 -1331 
L 581 -1331 
L 581 3500 
L 1159 3500 
L 1159 2969 
Q 1341 3281 1617 3432 
Q 1894 3584 2278 3584 
Q 2916 3584 3314 3078 
Q 3713 2572 3713 1747 
Q 3713 922 3314 415 
Q 2916 -91 2278 -91 
Q 1894 -91 1617 61 
Q 1341 213 1159 525 
z
M 3116 1747 
Q 3116 2381 2855 2742 
Q 2594 3103 2138 3103 
Q 1681 3103 1420 2742 
Q 1159 2381 1159 1747 
Q 1159 1113 1420 752 
Q 1681 391 2138 391 
Q 2594 391 2855 752 
Q 3116 1113 3116 1747 
z
" transform="scale(0.015625)"/>
      <path id="DejaVuSans-65" d="M 3597 1894 
L 3597 1613 
L 953 1613 
Q 991 1019 1311 708 
Q 1631 397 2203 397 
Q 2534 397 2845 478 
Q 3156 559 3463 722 
L 3463 178 
Q 3153 47 2828 -22 
Q 2503 -91 2169 -91 
Q 1331 -91 842 396 
Q 353 884 353 1716 
Q 353 2575 817 3079 
Q 1281 3584 2069 3584 
Q 2775 3584 3186 3129 
Q 3597 2675 3597 1894 
z
M 3022 2063 
Q 3016 2534 2758 2815 
Q 2500 3097 2075 3097 
Q 1594 3097 1305 2825 
Q 1016 2553 972 2059 
L 3022 2063 
z
" transform="scale(0.015625)"/>
     </defs>
     <use xlink:href="#DejaVuSans-75"/>
     <use xlink:href="#DejaVuSans-28" x="63.378906"/>
     <use xlink:href="#DejaVuSans-78" x="102.392578"/>
     <use xlink:href="#DejaVuSans-29" x="161.572266"/>
     <use xlink:href="#DejaVuSans-20" x="200.585938"/>
     <use xlink:href="#DejaVuSans-62" x="232.373047"/>
     <use xlink:href="#DejaVuSans-75" x="295.849609"/>
     <use xlink:href="#DejaVuSans-69" x="359.228516"/>
     <use xlink:href="#DejaVuSans-6c" x="387.011719"/>
     <use xlink:href="#DejaVuSans-74" x="414.794922"/>
     <use xlink:href="#DejaVuSans-20" x="454.003906"/>
     <use xlink:href="#DejaVuSans-66" x="485.791016"/>
     <use xlink:href="#DejaVuSans-72" x="520.996094"/>
     <use xlink:href="#DejaVuSans-6f" x="559.859375"/>
     <use xlink:href="#DejaVuSans-6d" x="621.041016"/>
     <use xlink:href="#DejaVuSans-20" x="718.453125"/>
     <use xlink:href="#DejaVuSans-47" x="750.240234"/>
     <use xlink:href="#DejaVuSans-61" x="827.730469"/>
     <use xlink:href="#DejaVuSans-75" x="889.009766"/>
     <use xlink:href="#DejaVuSans-73" x="952.388672"/>
     <use xlink:href="#DejaVuSans-73" x="1004.488281"/>
     <use xlink:href="#DejaVuSans-69" x="1056.587891"/>
     <use xlink:href="#DejaVuSans-61" x="1084.371094"/>
     <use xlink:href="#DejaVuSans-6e" x="1145.650391"/>
     <use xlink:href="#DejaVuSans-20" x="1209.029297"/>
     <use xlink:href="#DejaVuSans-64" x="1240.816406"/>
     <use xlink:href="#DejaVuSans-5a" x="1304.292969"/>
     <use xlink:href="#DejaVuSans-28" x="1372.798828"/>
     <use xlink:href="#DejaVuSans-6b" x="1411.8125"/>
     <use xlink:href="#DejaVuSans-29" x="1469.722656"/>
     <use xlink:href="#DejaVuSans-20" x="1508.736328"/>
     <use xlink:href="#DejaVuSans-28" x="1540.523438"/>
     <use xlink:href="#DejaVuSans-73" x="1579.537109"/>
     <use xlink:href="#DejaVuSans-6e" x="1631.636719"/>
     <use xlink:href="#DejaVuSans-69" x="1695.015625"/>
     <use xlink:href="#DejaVuSans-70" x="1722.798828"/>
     <use xlink:href="#DejaVuSans-70" x="1786.275391"/>
     <use xlink:href="#DejaVuSans-65" x="1849.751953"/>
     <use xlink:href="#DejaVuSans-74" x="1911.275391"/>
     <use xlink:href="#DejaVuSans-29" x="1950.484375"/>
    </g>
   </g>
  </g>
 </g>
 <defs>
  <clipPath id="pf9afe7c63e">
   <rect x="90" y="30.24" width="558" height="194.04"/>
  </clipPath>
 </defs>
</svg>
