<?xml version="1.0" encoding="utf-8" standalone="no"?>
<!DOCTYPE svg PUBLIC "-//W3C//DTD SVG 1.1//EN"
  "http://www.w3.org/Graphics/SVG/1.1/DTD/svg11.dtd">
<svg xmlns:xlink="http://www.w3.org/1999/xlink" width="648pt" height="288pt" viewBox="0 0 648 288" xmlns="http://www.w3.org/2000/svg" version="1.1">
 <metadata>
  <rdf:RDF xmlns:dc="http://purl.org/dc/elements/1.1/" xmlns:cc="http://creativecommons.org/ns#" xmlns:rdf="http://www.w3.org/1999/02/22-rdf-syntax-ns#">
   <cc:Work>
    <dc:type rdf:resource="http://purl.org/dc/dcmitype/StillImage"/>
    <dc:date>2025-09-17T14:44:41.130879</dc:date>
    <dc:format>image/svg+xml</dc:format>
    <dc:creator>
     <cc:Agent>
      <dc:title>Matplotlib v3.9.2, https://matplotlib.org/</dc:title>
     </cc:Agent>
    </dc:creator>
   </cc:Work>
  </rdf:RDF>
 </metadata>
 <defs>
  <style type="text/css">*{stroke-linejoin: round; stroke-linecap: butt}</style>
 </defs>
 <g id="figure_1">
  <g id="patch_1">
   <path d="M 0 288 
L 648 288 
L 648 0 
L 0 0 
z
" style="fill: #ffffff"/>
  </g>
  <g id="axes_1">
   <g id="patch_2">
    <path d="M 81 256.32 
L 583.2 256.32 
L 583.2 34.56 
L 81 34.56 
z
" style="fill: #ffffff"/>
   </g>
   <g id="matplotlib.axis_1">
    <g id="xtick_1">
     <g id="line2d_1">
      <defs>
       <path id="m2226245044" d="M 0 0 
L 0 3.5 
" style="stroke: #000000; stroke-width: 0.8"/>
      </defs>
      <g>
       <use xlink:href="#m2226245044" x="103.827273" y="256.32" style="stroke: #000000; stroke-width: 0.8"/>
      </g>
     </g>
     <g id="text_1">
      <!-- 0 -->
      <g transform="translate(100.646023 270.918437) scale(0.1 -0.1)">
       <defs>
        <path id="DejaVuSans-30" d="M 2034 4250 
Q 1547 4250 1301 3770 
Q 1056 3291 1056 2328 
Q 1056 1369 1301 889 
Q 1547 409 2034 409 
Q 2525 409 2770 889 
Q 3016 1369 3016 2328 
Q 3016 3291 2770 3770 
Q 2525 4250 2034 4250 
z
M 2034 4750 
Q 2819 4750 3233 4129 
Q 3647 3509 3647 2328 
Q 3647 1150 3233 529 
Q 2819 -91 2034 -91 
Q 1250 -91 836 529 
Q 422 1150 422 2328 
Q 422 3509 836 4129 
Q 1250 4750 2034 4750 
z
" transform="scale(0.015625)"/>
       </defs>
       <use xlink:href="#DejaVuSans-30"/>
      </g>
     </g>
    </g>
    <g id="xtick_2">
     <g id="line2d_2">
      <g>
       <use xlink:href="#m2226245044" x="160.95124" y="256.32" style="stroke: #000000; stroke-width: 0.8"/>
      </g>
     </g>
     <g id="text_2">
      <!-- 250 -->
      <g transform="translate(151.40749 270.918437) scale(0.1 -0.1)">
       <defs>
        <path id="DejaVuSans-32" d="M 1228 531 
L 3431 531 
L 3431 0 
L 469 0 
L 469 531 
Q 828 903 1448 1529 
Q 2069 2156 2228 2338 
Q 2531 2678 2651 2914 
Q 2772 3150 2772 3378 
Q 2772 3750 2511 3984 
Q 2250 4219 1831 4219 
Q 1534 4219 1204 4116 
Q 875 4013 500 3803 
L 500 4441 
Q 881 4594 1212 4672 
Q 1544 4750 1819 4750 
Q 2544 4750 2975 4387 
Q 3406 4025 3406 3419 
Q 3406 3131 3298 2873 
Q 3191 2616 2906 2266 
Q 2828 2175 2409 1742 
Q 1991 1309 1228 531 
z
" transform="scale(0.015625)"/>
        <path id="DejaVuSans-35" d="M 691 4666 
L 3169 4666 
L 3169 4134 
L 1269 4134 
L 1269 2991 
Q 1406 3038 1543 3061 
Q 1681 3084 1819 3084 
Q 2600 3084 3056 2656 
Q 3513 2228 3513 1497 
Q 3513 744 3044 326 
Q 2575 -91 1722 -91 
Q 1428 -91 1123 -41 
Q 819 9 494 109 
L 494 744 
Q 775 591 1075 516 
Q 1375 441 1709 441 
Q 2250 441 2565 725 
Q 2881 1009 2881 1497 
Q 2881 1984 2565 2268 
Q 2250 2553 1709 2553 
Q 1456 2553 1204 2497 
Q 953 2441 691 2322 
L 691 4666 
z
" transform="scale(0.015625)"/>
       </defs>
       <use xlink:href="#DejaVuSans-32"/>
       <use xlink:href="#DejaVuSans-35" x="63.623047"/>
       <use xlink:href="#DejaVuSans-30" x="127.246094"/>
      </g>
     </g>
    </g>
    <g id="xtick_3">
     <g id="line2d_3">
      <g>
       <use xlink:href="#m2226245044" x="218.075207" y="256.32" style="stroke: #000000; stroke-width: 0.8"/>
      </g>
     </g>
     <g id="text_3">
      <!-- 500 -->
      <g transform="translate(208.531457 270.918437) scale(0.1 -0.1)">
       <use xlink:href="#DejaVuSans-35"/>
       <use xlink:href="#DejaVuSans-30" x="63.623047"/>
       <use xlink:href="#DejaVuSans-30" x="127.246094"/>
      </g>
     </g>
    </g>
    <g id="xtick_4">
     <g id="line2d_4">
      <g>
       <use xlink:href="#m2226245044" x="275.199174" y="256.32" style="stroke: #000000; stroke-width: 0.8"/>
      </g>
     </g>
     <g id="text_4">
      <!-- 750 -->
      <g transform="translate(265.655424 270.918437) scale(0.1 -0.1)">
       <defs>
        <path id="DejaVuSans-37" d="M 525 4666 
L 3525 4666 
L 3525 4397 
L 1831 0 
L 1172 0 
L 2766 4134 
L 525 4134 
L 525 4666 
z
" transform="scale(0.015625)"/>
       </defs>
       <use xlink:href="#DejaVuSans-37"/>
       <use xlink:href="#DejaVuSans-35" x="63.623047"/>
       <use xlink:href="#DejaVuSans-30" x="127.246094"/>
      </g>
     </g>
    </g>
    <g id="xtick_5">
     <g id="line2d_5">
      <g>
       <use xlink:href="#m2226245044" x="332.32314" y="256.32" style="stroke: #000000; stroke-width: 0.8"/>
      </g>
     </g>
     <g id="text_5">
      <!-- 1000 -->
      <g transform="translate(319.59814 270.918437) scale(0.1 -0.1)">
       <defs>
        <path id="DejaVuSans-31" d="M 794 531 
L 1825 531 
L 1825 4091 
L 703 3866 
L 703 4441 
L 1819 4666 
L 2450 4666 
L 2450 531 
L 3481 531 
L 3481 0 
L 794 0 
L 794 531 
z
" transform="scale(0.015625)"/>
       </defs>
       <use xlink:href="#DejaVuSans-31"/>
       <use xlink:href="#DejaVuSans-30" x="63.623047"/>
       <use xlink:href="#DejaVuSans-30" x="127.246094"/>
       <use xlink:href="#DejaVuSans-30" x="190.869141"/>
      </g>
     </g>
    </g>
    <g id="xtick_6">
     <g id="line2d_6">
      <g>
       <use xlink:href="#m2226245044" x="389.447107" y="256.32" style="stroke: #000000; stroke-width: 0.8"/>
      </g>
     </g>
     <g id="text_6">
      <!-- 1250 -->
      <g transform="translate(376.722107 270.918437) scale(0.1 -0.1)">
       <use xlink:href="#DejaVuSans-31"/>
       <use xlink:href="#DejaVuSans-32" x="63.623047"/>
       <use xlink:href="#DejaVuSans-35" x="127.246094"/>
       <use xlink:href="#DejaVuSans-30" x="190.869141"/>
      </g>
     </g>
    </g>
    <g id="xtick_7">
     <g id="line2d_7">
      <g>
       <use xlink:href="#m2226245044" x="446.571074" y="256.32" style="stroke: #000000; stroke-width: 0.8"/>
      </g>
     </g>
     <g id="text_7">
      <!-- 1500 -->
      <g transform="translate(433.846074 270.918437) scale(0.1 -0.1)">
       <use xlink:href="#DejaVuSans-31"/>
       <use xlink:href="#DejaVuSans-35" x="63.623047"/>
       <use xlink:href="#DejaVuSans-30" x="127.246094"/>
       <use xlink:href="#DejaVuSans-30" x="190.869141"/>
      </g>
     </g>
    </g>
    <g id="xtick_8">
     <g id="line2d_8">
      <g>
       <use xlink:href="#m2226245044" x="503.695041" y="256.32" style="stroke: #000000; stroke-width: 0.8"/>
      </g>
     </g>
     <g id="text_8">
      <!-- 1750 -->
      <g transform="translate(490.970041 270.918437) scale(0.1 -0.1)">
       <use xlink:href="#DejaVuSans-31"/>
       <use xlink:href="#DejaVuSans-37" x="63.623047"/>
       <use xlink:href="#DejaVuSans-35" x="127.246094"/>
       <use xlink:href="#DejaVuSans-30" x="190.869141"/>
      </g>
     </g>
    </g>
    <g id="xtick_9">
     <g id="line2d_9">
      <g>
       <use xlink:href="#m2226245044" x="560.819008" y="256.32" style="stroke: #000000; stroke-width: 0.8"/>
      </g>
     </g>
     <g id="text_9">
      <!-- 2000 -->
      <g transform="translate(548.094008 270.918437) scale(0.1 -0.1)">
       <use xlink:href="#DejaVuSans-32"/>
       <use xlink:href="#DejaVuSans-30" x="63.623047"/>
       <use xlink:href="#DejaVuSans-30" x="127.246094"/>
       <use xlink:href="#DejaVuSans-30" x="190.869141"/>
      </g>
     </g>
    </g>
    <g id="text_10">
     <!-- r -->
     <g transform="translate(330.044531 284.596563) scale(0.1 -0.1)">
      <defs>
       <path id="DejaVuSans-72" d="M 2631 2963 
Q 2534 3019 2420 3045 
Q 2306 3072 2169 3072 
Q 1681 3072 1420 2755 
Q 1159 2438 1159 1844 
L 1159 0 
L 581 0 
L 581 3500 
L 1159 3500 
L 1159 2956 
Q 1341 3275 1631 3429 
Q 1922 3584 2338 3584 
Q 2397 3584 2469 3576 
Q 2541 3569 2628 3553 
L 2631 2963 
z
" transform="scale(0.015625)"/>
      </defs>
      <use xlink:href="#DejaVuSans-72"/>
     </g>
    </g>
   </g>
   <g id="matplotlib.axis_2">
    <g id="ytick_1">
     <g id="line2d_10">
      <defs>
       <path id="m1964dd71af" d="M 0 0 
L -3.5 0 
" style="stroke: #000000; stroke-width: 0.8"/>
      </defs>
      <g>
       <use xlink:href="#m1964dd71af" x="81" y="231.322474" style="stroke: #000000; stroke-width: 0.8"/>
      </g>
     </g>
     <g id="text_11">
      <!-- 0.00 -->
      <g transform="translate(51.734375 235.121692) scale(0.1 -0.1)">
       <defs>
        <path id="DejaVuSans-2e" d="M 684 794 
L 1344 794 
L 1344 0 
L 684 0 
L 684 794 
z
" transform="scale(0.015625)"/>
       </defs>
       <use xlink:href="#DejaVuSans-30"/>
       <use xlink:href="#DejaVuSans-2e" x="63.623047"/>
       <use xlink:href="#DejaVuSans-30" x="95.410156"/>
       <use xlink:href="#DejaVuSans-30" x="159.033203"/>
      </g>
     </g>
    </g>
    <g id="ytick_2">
     <g id="line2d_11">
      <g>
       <use xlink:href="#m1964dd71af" x="81" y="201.920964" style="stroke: #000000; stroke-width: 0.8"/>
      </g>
     </g>
     <g id="text_12">
      <!-- 0.05 -->
      <g transform="translate(51.734375 205.720182) scale(0.1 -0.1)">
       <use xlink:href="#DejaVuSans-30"/>
       <use xlink:href="#DejaVuSans-2e" x="63.623047"/>
       <use xlink:href="#DejaVuSans-30" x="95.410156"/>
       <use xlink:href="#DejaVuSans-35" x="159.033203"/>
      </g>
     </g>
    </g>
    <g id="ytick_3">
     <g id="line2d_12">
      <g>
       <use xlink:href="#m1964dd71af" x="81" y="172.519454" style="stroke: #000000; stroke-width: 0.8"/>
      </g>
     </g>
     <g id="text_13">
      <!-- 0.10 -->
      <g transform="translate(51.734375 176.318673) scale(0.1 -0.1)">
       <use xlink:href="#DejaVuSans-30"/>
       <use xlink:href="#DejaVuSans-2e" x="63.623047"/>
       <use xlink:href="#DejaVuSans-31" x="95.410156"/>
       <use xlink:href="#DejaVuSans-30" x="159.033203"/>
      </g>
     </g>
    </g>
    <g id="ytick_4">
     <g id="line2d_13">
      <g>
       <use xlink:href="#m1964dd71af" x="81" y="143.117944" style="stroke: #000000; stroke-width: 0.8"/>
      </g>
     </g>
     <g id="text_14">
      <!-- 0.15 -->
      <g transform="translate(51.734375 146.917163) scale(0.1 -0.1)">
       <use xlink:href="#DejaVuSans-30"/>
       <use xlink:href="#DejaVuSans-2e" x="63.623047"/>
       <use xlink:href="#DejaVuSans-31" x="95.410156"/>
       <use xlink:href="#DejaVuSans-35" x="159.033203"/>
      </g>
     </g>
    </g>
    <g id="ytick_5">
     <g id="line2d_14">
      <g>
       <use xlink:href="#m1964dd71af" x="81" y="113.716434" style="stroke: #000000; stroke-width: 0.8"/>
      </g>
     </g>
     <g id="text_15">
      <!-- 0.20 -->
      <g transform="translate(51.734375 117.515653) scale(0.1 -0.1)">
       <use xlink:href="#DejaVuSans-30"/>
       <use xlink:href="#DejaVuSans-2e" x="63.623047"/>
       <use xlink:href="#DejaVuSans-32" x="95.410156"/>
       <use xlink:href="#DejaVuSans-30" x="159.033203"/>
      </g>
     </g>
    </g>
    <g id="ytick_6">
     <g id="line2d_15">
      <g>
       <use xlink:href="#m1964dd71af" x="81" y="84.314925" style="stroke: #000000; stroke-width: 0.8"/>
      </g>
     </g>
     <g id="text_16">
      <!-- 0.25 -->
      <g transform="translate(51.734375 88.114143) scale(0.1 -0.1)">
       <use xlink:href="#DejaVuSans-30"/>
       <use xlink:href="#DejaVuSans-2e" x="63.623047"/>
       <use xlink:href="#DejaVuSans-32" x="95.410156"/>
       <use xlink:href="#DejaVuSans-35" x="159.033203"/>
      </g>
     </g>
    </g>
    <g id="ytick_7">
     <g id="line2d_16">
      <g>
       <use xlink:href="#m1964dd71af" x="81" y="54.913415" style="stroke: #000000; stroke-width: 0.8"/>
      </g>
     </g>
     <g id="text_17">
      <!-- 0.30 -->
      <g transform="translate(51.734375 58.712634) scale(0.1 -0.1)">
       <defs>
        <path id="DejaVuSans-33" d="M 2597 2516 
Q 3050 2419 3304 2112 
Q 3559 1806 3559 1356 
Q 3559 666 3084 287 
Q 2609 -91 1734 -91 
Q 1441 -91 1130 -33 
Q 819 25 488 141 
L 488 750 
Q 750 597 1062 519 
Q 1375 441 1716 441 
Q 2309 441 2620 675 
Q 2931 909 2931 1356 
Q 2931 1769 2642 2001 
Q 2353 2234 1838 2234 
L 1294 2234 
L 1294 2753 
L 1863 2753 
Q 2328 2753 2575 2939 
Q 2822 3125 2822 3475 
Q 2822 3834 2567 4026 
Q 2313 4219 1838 4219 
Q 1578 4219 1281 4162 
Q 984 4106 628 3988 
L 628 4550 
Q 988 4650 1302 4700 
Q 1616 4750 1894 4750 
Q 2613 4750 3031 4423 
Q 3450 4097 3450 3541 
Q 3450 3153 3228 2886 
Q 3006 2619 2597 2516 
z
" transform="scale(0.015625)"/>
       </defs>
       <use xlink:href="#DejaVuSans-30"/>
       <use xlink:href="#DejaVuSans-2e" x="63.623047"/>
       <use xlink:href="#DejaVuSans-33" x="95.410156"/>
       <use xlink:href="#DejaVuSans-30" x="159.033203"/>
      </g>
     </g>
    </g>
    <g id="text_18">
     <!-- R(r) -->
     <g transform="translate(45.654688 154.87125) rotate(-90) scale(0.1 -0.1)">
      <defs>
       <path id="DejaVuSans-52" d="M 2841 2188 
Q 3044 2119 3236 1894 
Q 3428 1669 3622 1275 
L 4263 0 
L 3584 0 
L 2988 1197 
Q 2756 1666 2539 1819 
Q 2322 1972 1947 1972 
L 1259 1972 
L 1259 0 
L 628 0 
L 628 4666 
L 2053 4666 
Q 2853 4666 3247 4331 
Q 3641 3997 3641 3322 
Q 3641 2881 3436 2590 
Q 3231 2300 2841 2188 
z
M 1259 4147 
L 1259 2491 
L 2053 2491 
Q 2509 2491 2742 2702 
Q 2975 2913 2975 3322 
Q 2975 3731 2742 3939 
Q 2509 4147 2053 4147 
L 1259 4147 
z
" transform="scale(0.015625)"/>
       <path id="DejaVuSans-28" d="M 1984 4856 
Q 1566 4138 1362 3434 
Q 1159 2731 1159 2009 
Q 1159 1288 1364 580 
Q 1569 -128 1984 -844 
L 1484 -844 
Q 1016 -109 783 600 
Q 550 1309 550 2009 
Q 550 2706 781 3412 
Q 1013 4119 1484 4856 
L 1984 4856 
z
" transform="scale(0.015625)"/>
       <path id="DejaVuSans-29" d="M 513 4856 
L 1013 4856 
Q 1481 4119 1714 3412 
Q 1947 2706 1947 2009 
Q 1947 1309 1714 600 
Q 1481 -109 1013 -844 
L 513 -844 
Q 928 -128 1133 580 
Q 1338 1288 1338 2009 
Q 1338 2731 1133 3434 
Q 928 4138 513 4856 
z
" transform="scale(0.015625)"/>
      </defs>
      <use xlink:href="#DejaVuSans-52"/>
      <use xlink:href="#DejaVuSans-28" x="69.482422"/>
      <use xlink:href="#DejaVuSans-72" x="108.496094"/>
      <use xlink:href="#DejaVuSans-29" x="149.609375"/>
     </g>
    </g>
   </g>
   <g id="line2d_17">
    <path d="M 103.827273 152.710055 
L 104.273554 155.263759 
L 104.719835 162.461919 
L 105.612397 185.334715 
L 106.504959 208.529418 
L 106.95124 217.288033 
L 107.397521 223.638724 
L 107.843802 227.756699 
L 108.290083 230.055172 
L 108.736364 231.018261 
L 109.182645 231.092267 
L 109.628926 230.640521 
L 110.967769 228.634684 
L 111.41405 228.320637 
L 111.860331 228.353422 
L 112.306612 228.749507 
L 112.752893 229.46032 
L 114.538017 232.944901 
L 114.984298 233.288821 
L 115.430579 233.237348 
L 115.87686 232.776527 
L 116.32314 231.945207 
L 118.108264 227.42101 
L 118.554545 226.834742 
L 119.000826 226.723102 
L 119.447107 227.087975 
L 119.893388 227.847053 
L 122.571074 233.742563 
L 123.463636 234.875389 
L 124.356198 235.509146 
L 127.033884 236.561841 
L 127.480165 236.528132 
L 127.926446 236.238767 
L 128.372727 235.666779 
L 130.157851 232.361201 
L 130.604132 231.942736 
L 131.050413 231.834981 
L 131.496694 232.007984 
L 132.389256 232.915665 
L 134.17438 235.232889 
L 135.066942 235.96156 
L 135.513223 236.072187 
L 135.959504 235.975283 
L 136.405785 235.672753 
L 137.298347 234.612524 
L 138.190909 233.438755 
L 138.63719 233.009753 
L 139.083471 232.760076 
L 139.529752 232.708554 
L 139.976033 232.846891 
L 140.422314 233.151156 
L 141.314876 234.163902 
L 142.207438 235.628443 
L 143.546281 238.091137 
L 143.992562 238.612945 
L 144.438843 238.761718 
L 144.885124 238.422387 
L 145.331405 237.538939 
L 145.777686 236.144218 
L 147.56281 229.488092 
L 148.009091 228.970888 
L 148.455372 229.315292 
L 148.901653 230.492831 
L 149.794215 234.553402 
L 150.686777 239.005465 
L 151.133058 240.782511 
L 151.579339 242.091227 
L 152.02562 242.889682 
L 152.471901 243.174477 
L 152.918182 242.960813 
L 153.364463 242.275302 
L 153.810744 241.159418 
L 154.703306 237.913946 
L 156.48843 230.403025 
L 156.934711 229.002199 
L 157.380992 227.973602 
L 157.827273 227.346469 
L 158.273554 227.096656 
L 158.719835 227.145465 
L 160.058678 227.850463 
L 160.504959 227.928653 
L 161.843802 227.823552 
L 162.290083 228.065153 
L 162.736364 228.664857 
L 163.182645 229.702149 
L 164.075207 233.047629 
L 165.41405 239.239859 
L 165.860331 240.851996 
L 166.306612 241.983554 
L 166.752893 242.577144 
L 167.199174 242.644469 
L 167.645455 242.252687 
L 168.091736 241.505795 
L 171.661983 233.930433 
L 172.554545 231.897608 
L 173.893388 227.953677 
L 175.678512 222.724474 
L 176.571074 220.596773 
L 177.017355 219.860864 
L 177.463636 219.505677 
L 177.909917 219.64138 
L 178.356198 220.314313 
L 178.802479 221.471662 
L 180.141322 225.885955 
L 180.587603 226.825728 
L 181.033884 227.190179 
L 181.480165 226.963675 
L 181.926446 226.262596 
L 182.819008 224.362956 
L 183.265289 223.692652 
L 183.71157 223.49085 
L 184.157851 223.856383 
L 184.604132 224.781487 
L 185.496694 227.836216 
L 186.389256 231.237406 
L 186.835537 232.581397 
L 187.281818 233.486323 
L 187.728099 233.862579 
L 188.17438 233.678074 
L 188.620661 232.960367 
L 189.066942 231.794625 
L 190.852066 225.839727 
L 191.298347 224.952095 
L 191.744628 224.592793 
L 192.190909 224.79866 
L 192.63719 225.524964 
L 193.529752 228.018943 
L 194.422314 230.735866 
L 194.868595 231.789086 
L 195.314876 232.51473 
L 195.761157 232.88119 
L 196.207438 232.900408 
L 196.653719 232.623235 
L 198.438843 230.83501 
L 198.885124 230.976068 
L 199.331405 231.583983 
L 199.777686 232.638863 
L 201.116529 236.792761 
L 201.56281 237.70341 
L 202.009091 238.049708 
L 202.455372 237.77383 
L 202.901653 236.927893 
L 203.794215 234.141134 
L 204.686777 231.226765 
L 205.133058 230.16485 
L 205.579339 229.511043 
L 206.02562 229.296715 
L 206.471901 229.489183 
L 206.918182 229.998481 
L 208.257025 232.039488 
L 208.703306 232.436596 
L 209.149587 232.547446 
L 209.595868 232.359226 
L 210.042149 231.905404 
L 210.934711 230.488902 
L 211.827273 228.974278 
L 212.719835 227.923084 
L 213.166116 227.65099 
L 213.612397 227.538242 
L 214.504959 227.623292 
L 215.397521 227.70327 
L 215.843802 227.582569 
L 216.290083 227.303391 
L 217.182645 226.315773 
L 218.075207 225.198707 
L 218.521488 224.848205 
L 218.967769 224.771619 
L 219.41405 225.032023 
L 219.860331 225.643901 
L 220.752893 227.747253 
L 223.430579 235.653954 
L 223.87686 236.503573 
L 224.32314 237.02595 
L 224.769421 237.151009 
L 225.215702 236.832014 
L 225.661983 236.054901 
L 226.108264 234.842272 
L 227.000826 231.384895 
L 228.339669 225.550768 
L 228.78595 224.126726 
L 229.232231 223.252806 
L 229.678512 223.037094 
L 230.124793 223.501718 
L 230.571074 224.567381 
L 232.356198 230.612247 
L 232.802479 231.418409 
L 233.24876 231.688781 
L 233.695041 231.467653 
L 234.587603 230.136974 
L 235.033884 229.424312 
L 235.480165 228.940694 
L 235.926446 228.83297 
L 236.372727 229.186132 
L 236.819008 230.01609 
L 237.71157 232.837556 
L 239.050413 237.693556 
L 239.496694 238.758137 
L 239.942975 239.328493 
L 240.389256 239.381826 
L 240.835537 238.983205 
L 242.620661 236.171116 
L 243.066942 236.018039 
L 243.513223 236.260486 
L 243.959504 236.855432 
L 245.744628 239.988099 
L 246.190909 240.160187 
L 246.63719 239.870731 
L 247.083471 239.109526 
L 247.976033 236.442014 
L 249.314876 231.725348 
L 249.761157 230.611838 
L 250.207438 229.926277 
L 250.653719 229.711022 
L 251.1 229.950067 
L 251.546281 230.574982 
L 252.438843 232.524477 
L 253.331405 234.517288 
L 253.777686 235.243473 
L 254.223967 235.703991 
L 254.670248 235.890832 
L 255.116529 235.838018 
L 256.009091 235.28335 
L 257.347934 234.362231 
L 258.240496 234.089912 
L 259.133058 234.058952 
L 260.471901 234.262461 
L 261.364463 234.411873 
L 261.810744 234.387564 
L 262.257025 234.225062 
L 262.703306 233.877263 
L 263.149587 233.320599 
L 264.042149 231.65518 
L 265.380992 228.852546 
L 265.827273 228.22072 
L 266.273554 227.866938 
L 266.719835 227.811176 
L 267.166116 228.026146 
L 268.058678 228.99721 
L 269.843802 231.552203 
L 272.075207 234.929575 
L 273.41405 236.35617 
L 275.199174 238.167514 
L 275.645455 238.475997 
L 276.091736 238.632829 
L 276.538017 238.613626 
L 276.984298 238.416897 
L 277.87686 237.56485 
L 279.215702 235.62505 
L 280.108264 234.428819 
L 281.000826 233.722978 
L 281.893388 233.49259 
L 283.678512 233.431027 
L 285.909917 233.5466 
L 286.356198 233.2217 
L 286.802479 232.668773 
L 289.033884 229.166665 
L 290.819008 227.62939 
L 292.157851 226.146217 
L 292.604132 225.914612 
L 293.050413 225.9447 
L 293.496694 226.255414 
L 293.942975 226.822651 
L 294.835537 228.499314 
L 296.17438 231.318005 
L 297.066942 232.567731 
L 297.513223 232.838389 
L 297.959504 232.864795 
L 298.405785 232.691506 
L 300.63719 231.297791 
L 302.868595 230.673742 
L 303.761157 230.69447 
L 304.653719 231.164288 
L 305.992562 232.115056 
L 306.438843 232.165157 
L 306.885124 231.952437 
L 307.331405 231.449002 
L 308.223967 229.693109 
L 309.56281 226.630597 
L 310.009091 225.985377 
L 310.455372 225.682262 
L 310.901653 225.735271 
L 311.347934 226.088473 
L 312.686777 227.677804 
L 313.133058 227.970604 
L 313.579339 228.061203 
L 314.471901 227.837083 
L 317.149587 226.893921 
L 317.595868 226.862128 
L 318.042149 226.998111 
L 318.48843 227.333562 
L 320.273554 229.18431 
L 320.719835 229.190434 
L 321.166116 228.916931 
L 322.504959 227.497279 
L 322.95124 227.292188 
L 323.397521 227.368159 
L 323.843802 227.707978 
L 325.628926 229.667288 
L 326.075207 229.845168 
L 327.860331 230.039326 
L 328.306612 230.390479 
L 329.199174 231.659026 
L 330.538017 233.948058 
L 330.984298 234.464392 
L 331.430579 234.762453 
L 331.87686 234.83449 
L 332.32314 234.701013 
L 333.215702 233.962814 
L 334.108264 232.802015 
L 335.893388 230.168374 
L 336.339669 229.882787 
L 336.78595 229.988097 
L 337.232231 230.57866 
L 337.678512 231.679288 
L 338.571074 235.059221 
L 339.463636 238.721635 
L 339.909917 240.113234 
L 340.356198 241.005037 
L 340.802479 241.337237 
L 341.24876 241.124074 
L 341.695041 240.436057 
L 342.587603 238.080436 
L 343.926446 234.08805 
L 344.372727 233.144425 
L 344.819008 232.538937 
L 345.265289 232.291859 
L 345.71157 232.375444 
L 346.157851 232.727596 
L 347.050413 233.947182 
L 349.281818 237.731418 
L 349.728099 238.142524 
L 350.17438 238.213183 
L 350.620661 237.872975 
L 351.066942 237.118085 
L 351.959504 234.748774 
L 352.852066 232.435795 
L 353.298347 231.778292 
L 353.744628 231.62425 
L 354.190909 232.012346 
L 354.63719 232.906261 
L 355.529752 235.749306 
L 356.422314 238.811029 
L 356.868595 239.924326 
L 357.314876 240.532264 
L 357.761157 240.536269 
L 358.207438 239.919664 
L 358.653719 238.751338 
L 359.546281 235.352932 
L 360.885124 230.123577 
L 361.777686 227.865484 
L 362.223967 227.265701 
L 362.670248 227.044213 
L 363.116529 227.186001 
L 363.56281 227.636101 
L 365.347934 230.314773 
L 365.794215 230.663879 
L 366.240496 230.792415 
L 366.686777 230.735807 
L 368.918182 229.939166 
L 369.810744 230.143457 
L 370.703306 230.695374 
L 373.380992 232.860912 
L 375.166116 233.681544 
L 376.058678 233.952735 
L 376.504959 233.949792 
L 376.95124 233.793709 
L 377.397521 233.46101 
L 378.290083 232.330834 
L 379.628926 230.399378 
L 380.075207 229.993866 
L 380.521488 229.799524 
L 380.967769 229.834379 
L 381.41405 230.087382 
L 382.306612 231.072003 
L 383.199174 232.210703 
L 383.645455 232.612624 
L 384.091736 232.773226 
L 384.538017 232.602847 
L 384.984298 232.036087 
L 385.430579 231.052921 
L 386.32314 228.091322 
L 387.215702 224.888091 
L 387.661983 223.716119 
L 388.108264 223.046736 
L 388.554545 222.932095 
L 389.000826 223.317276 
L 389.893388 224.954175 
L 390.78595 226.490737 
L 391.232231 226.916883 
L 391.678512 227.112245 
L 393.017355 227.289602 
L 393.463636 227.532577 
L 394.356198 228.395807 
L 395.24876 229.271818 
L 395.695041 229.501612 
L 396.141322 229.528298 
L 396.587603 229.35874 
L 398.372727 228.200333 
L 398.819008 228.241611 
L 399.265289 228.487362 
L 400.604132 229.583726 
L 401.050413 229.670586 
L 401.496694 229.481485 
L 401.942975 229.019525 
L 402.835537 227.548059 
L 404.17438 225.303303 
L 405.066942 224.279188 
L 405.959504 223.653986 
L 406.405785 223.583621 
L 406.852066 223.780359 
L 407.298347 224.318583 
L 407.744628 225.229118 
L 408.63719 227.986669 
L 410.868595 235.870303 
L 411.761157 238.210002 
L 412.207438 239.033091 
L 412.653719 239.534847 
L 413.1 239.659131 
L 413.546281 239.382103 
L 413.992562 238.724145 
L 414.885124 236.568955 
L 416.223967 233.021423 
L 416.670248 232.197905 
L 417.116529 231.647936 
L 417.56281 231.361863 
L 418.009091 231.2913 
L 418.901653 231.497045 
L 419.794215 231.701731 
L 420.686777 231.674412 
L 422.02562 231.575256 
L 422.918182 231.812831 
L 423.810744 232.410446 
L 424.703306 233.465561 
L 425.595868 235.077815 
L 426.934711 237.845898 
L 427.380992 238.484225 
L 427.827273 238.827024 
L 428.273554 238.829638 
L 428.719835 238.486045 
L 429.166116 237.820173 
L 430.058678 235.701802 
L 432.290083 229.36234 
L 432.736364 228.864541 
L 433.182645 228.913419 
L 433.628926 229.53559 
L 434.075207 230.661167 
L 435.860331 236.150895 
L 436.306612 236.622506 
L 436.752893 236.438061 
L 437.199174 235.594676 
L 437.645455 234.17901 
L 439.430579 226.900931 
L 439.87686 225.87629 
L 440.32314 225.474469 
L 440.769421 225.660134 
L 441.215702 226.290216 
L 442.554545 228.809948 
L 443.000826 229.329904 
L 443.447107 229.585097 
L 443.893388 229.591802 
L 444.339669 229.383721 
L 444.78595 228.992336 
L 445.678512 227.754819 
L 447.463636 224.776436 
L 447.909917 224.466981 
L 448.356198 224.555634 
L 448.802479 225.110617 
L 449.24876 226.141294 
L 450.141322 229.314421 
L 451.033884 232.813306 
L 451.480165 234.125685 
L 451.926446 234.878354 
L 452.372727 234.958287 
L 452.819008 234.358896 
L 453.265289 233.186804 
L 455.050413 227.307741 
L 455.496694 226.633677 
L 455.942975 226.480925 
L 456.389256 226.795325 
L 457.281818 228.310638 
L 458.17438 229.981332 
L 458.620661 230.558032 
L 459.066942 230.870466 
L 459.513223 230.907801 
L 459.959504 230.704912 
L 461.744628 229.296396 
L 462.190909 229.298603 
L 462.63719 229.564247 
L 463.083471 230.080289 
L 463.976033 231.604519 
L 464.868595 233.146276 
L 465.314876 233.712922 
L 465.761157 234.095536 
L 466.207438 234.309236 
L 467.1 234.422397 
L 468.438843 234.563421 
L 469.331405 234.9764 
L 471.116529 236.243806 
L 471.56281 236.230925 
L 472.009091 235.875542 
L 472.455372 235.11564 
L 472.901653 233.950875 
L 473.794215 230.721961 
L 475.133058 225.751274 
L 475.579339 224.607504 
L 476.02562 223.845487 
L 476.471901 223.464595 
L 476.918182 223.420329 
L 477.364463 223.639634 
L 478.257025 224.540518 
L 480.48843 227.320899 
L 481.380992 228.822568 
L 482.273554 230.978049 
L 483.612397 235.22616 
L 484.504959 237.90264 
L 484.95124 238.895902 
L 485.397521 239.54107 
L 485.843802 239.786055 
L 486.290083 239.624577 
L 486.736364 239.104159 
L 488.521488 235.88557 
L 488.967769 235.492081 
L 489.41405 235.426213 
L 489.860331 235.658302 
L 491.199174 236.979626 
L 491.645455 237.13315 
L 492.091736 236.96103 
L 492.538017 236.457218 
L 494.32314 233.494514 
L 494.769421 233.227885 
L 495.215702 233.229511 
L 496.108264 233.474702 
L 496.554545 233.341197 
L 497.000826 232.837512 
L 497.447107 231.930228 
L 498.78595 228.271732 
L 499.232231 227.64884 
L 499.678512 227.770501 
L 500.124793 228.749701 
L 500.571074 230.532484 
L 502.802479 242.134486 
L 503.24876 243.256113 
L 503.695041 243.787982 
L 504.141322 243.788972 
L 504.587603 243.329465 
L 505.033884 242.474853 
L 505.926446 239.850881 
L 507.265289 235.204447 
L 507.71157 234.00843 
L 508.157851 233.164564 
L 508.604132 232.687753 
L 509.050413 232.516714 
L 510.389256 232.490427 
L 510.835537 232.186613 
L 511.281818 231.610798 
L 512.17438 229.769605 
L 513.513223 226.780262 
L 513.959504 226.165153 
L 514.405785 225.847485 
L 514.852066 225.810552 
L 516.190909 226.349382 
L 516.63719 226.263949 
L 517.083471 225.863768 
L 517.529752 225.144424 
L 519.314876 221.409617 
L 519.761157 221.003207 
L 520.207438 220.980987 
L 520.653719 221.321593 
L 521.546281 222.737341 
L 522.438843 224.244907 
L 522.885124 224.704851 
L 523.331405 224.867723 
L 523.777686 224.742631 
L 525.116529 223.770487 
L 525.56281 223.792935 
L 526.009091 224.211522 
L 526.455372 225.062952 
L 527.347934 227.837056 
L 528.686777 232.739314 
L 529.133058 234.017288 
L 529.579339 234.92425 
L 530.02562 235.368676 
L 530.471901 235.281759 
L 530.918182 234.633211 
L 531.364463 233.452267 
L 532.257025 229.990759 
L 533.149587 226.514173 
L 533.595868 225.364872 
L 534.042149 224.830483 
L 534.48843 224.96629 
L 534.934711 225.734885 
L 535.380992 227.023318 
L 537.612397 235.117281 
L 538.058678 235.94578 
L 538.504959 236.304288 
L 538.95124 236.200021 
L 539.397521 235.683717 
L 540.290083 233.796452 
L 541.182645 231.654913 
L 541.628926 230.85005 
L 542.075207 230.381573 
L 542.521488 230.315965 
L 542.967769 230.662479 
L 543.41405 231.368623 
L 545.199174 234.973742 
L 545.645455 235.22253 
L 546.091736 234.998548 
L 546.538017 234.343114 
L 548.32314 230.625089 
L 548.769421 230.217046 
L 549.215702 230.115714 
L 550.108264 230.45434 
L 551.000826 230.742166 
L 551.447107 230.685988 
L 552.339669 230.19724 
L 553.232231 229.560395 
L 553.678512 229.349907 
L 554.124793 229.297433 
L 554.571074 229.461953 
L 555.017355 229.893558 
L 555.463636 230.627001 
L 555.909917 231.674109 
L 556.802479 234.610079 
L 559.033884 243.357485 
L 559.926446 245.630955 
L 560.372727 246.24 
L 560.372727 246.24 
" clip-path="url(#pa2c63c1474)" style="fill: none; stroke: #1f77b4; stroke-linecap: square"/>
   </g>
   <g id="line2d_18">
    <path d="M 103.827273 44.64 
L 104.273554 50.348208 
L 104.719835 66.451723 
L 105.612397 117.816519 
L 106.504959 170.564955 
L 106.95124 190.969726 
L 107.397521 206.279688 
L 107.843802 216.889909 
L 108.290083 223.70889 
L 108.736364 227.784315 
L 109.182645 230.054001 
L 109.628926 231.233666 
L 110.075207 231.80654 
L 110.521488 232.066714 
L 111.41405 232.221314 
L 114.984298 232.246148 
L 560.372727 232.246149 
L 560.372727 232.246149 
" clip-path="url(#pa2c63c1474)" style="fill: none; stroke: #ff7f0e; stroke-width: 1.5; stroke-linecap: square"/>
   </g>
   <g id="patch_3">
    <path d="M 81 256.32 
L 81 34.56 
" style="fill: none; stroke: #000000; stroke-width: 0.8; stroke-linejoin: miter; stroke-linecap: square"/>
   </g>
   <g id="patch_4">
    <path d="M 583.2 256.32 
L 583.2 34.56 
" style="fill: none; stroke: #000000; stroke-width: 0.8; stroke-linejoin: miter; stroke-linecap: square"/>
   </g>
   <g id="patch_5">
    <path d="M 81 256.32 
L 583.2 256.32 
" style="fill: none; stroke: #000000; stroke-width: 0.8; stroke-linejoin: miter; stroke-linecap: square"/>
   </g>
   <g id="patch_6">
    <path d="M 81 34.56 
L 583.2 34.56 
" style="fill: none; stroke: #000000; stroke-width: 0.8; stroke-linejoin: miter; stroke-linecap: square"/>
   </g>
   <g id="text_19">
    <!-- Covariance: theory vs empirical (Gaussian dZ build) -->
    <g transform="translate(176.0625 28.56) scale(0.12 -0.12)">
     <defs>
      <path id="DejaVuSans-43" d="M 4122 4306 
L 4122 3641 
Q 3803 3938 3442 4084 
Q 3081 4231 2675 4231 
Q 1875 4231 1450 3742 
Q 1025 3253 1025 2328 
Q 1025 1406 1450 917 
Q 1875 428 2675 428 
Q 3081 428 3442 575 
Q 3803 722 4122 1019 
L 4122 359 
Q 3791 134 3420 21 
Q 3050 -91 2638 -91 
Q 1578 -91 968 557 
Q 359 1206 359 2328 
Q 359 3453 968 4101 
Q 1578 4750 2638 4750 
Q 3056 4750 3426 4639 
Q 3797 4528 4122 4306 
z
" transform="scale(0.015625)"/>
      <path id="DejaVuSans-6f" d="M 1959 3097 
Q 1497 3097 1228 2736 
Q 959 2375 959 1747 
Q 959 1119 1226 758 
Q 1494 397 1959 397 
Q 2419 397 2687 759 
Q 2956 1122 2956 1747 
Q 2956 2369 2687 2733 
Q 2419 3097 1959 3097 
z
M 1959 3584 
Q 2709 3584 3137 3096 
Q 3566 2609 3566 1747 
Q 3566 888 3137 398 
Q 2709 -91 1959 -91 
Q 1206 -91 779 398 
Q 353 888 353 1747 
Q 353 2609 779 3096 
Q 1206 3584 1959 3584 
z
" transform="scale(0.015625)"/>
      <path id="DejaVuSans-76" d="M 191 3500 
L 800 3500 
L 1894 563 
L 2988 3500 
L 3597 3500 
L 2284 0 
L 1503 0 
L 191 3500 
z
" transform="scale(0.015625)"/>
      <path id="DejaVuSans-61" d="M 2194 1759 
Q 1497 1759 1228 1600 
Q 959 1441 959 1056 
Q 959 750 1161 570 
Q 1363 391 1709 391 
Q 2188 391 2477 730 
Q 2766 1069 2766 1631 
L 2766 1759 
L 2194 1759 
z
M 3341 1997 
L 3341 0 
L 2766 0 
L 2766 531 
Q 2569 213 2275 61 
Q 1981 -91 1556 -91 
Q 1019 -91 701 211 
Q 384 513 384 1019 
Q 384 1609 779 1909 
Q 1175 2209 1959 2209 
L 2766 2209 
L 2766 2266 
Q 2766 2663 2505 2880 
Q 2244 3097 1772 3097 
Q 1472 3097 1187 3025 
Q 903 2953 641 2809 
L 641 3341 
Q 956 3463 1253 3523 
Q 1550 3584 1831 3584 
Q 2591 3584 2966 3190 
Q 3341 2797 3341 1997 
z
" transform="scale(0.015625)"/>
      <path id="DejaVuSans-69" d="M 603 3500 
L 1178 3500 
L 1178 0 
L 603 0 
L 603 3500 
z
M 603 4863 
L 1178 4863 
L 1178 4134 
L 603 4134 
L 603 4863 
z
" transform="scale(0.015625)"/>
      <path id="DejaVuSans-6e" d="M 3513 2113 
L 3513 0 
L 2938 0 
L 2938 2094 
Q 2938 2591 2744 2837 
Q 2550 3084 2163 3084 
Q 1697 3084 1428 2787 
Q 1159 2491 1159 1978 
L 1159 0 
L 581 0 
L 581 3500 
L 1159 3500 
L 1159 2956 
Q 1366 3272 1645 3428 
Q 1925 3584 2291 3584 
Q 2894 3584 3203 3211 
Q 3513 2838 3513 2113 
z
" transform="scale(0.015625)"/>
      <path id="DejaVuSans-63" d="M 3122 3366 
L 3122 2828 
Q 2878 2963 2633 3030 
Q 2388 3097 2138 3097 
Q 1578 3097 1268 2742 
Q 959 2388 959 1747 
Q 959 1106 1268 751 
Q 1578 397 2138 397 
Q 2388 397 2633 464 
Q 2878 531 3122 666 
L 3122 134 
Q 2881 22 2623 -34 
Q 2366 -91 2075 -91 
Q 1284 -91 818 406 
Q 353 903 353 1747 
Q 353 2603 823 3093 
Q 1294 3584 2113 3584 
Q 2378 3584 2631 3529 
Q 2884 3475 3122 3366 
z
" transform="scale(0.015625)"/>
      <path id="DejaVuSans-65" d="M 3597 1894 
L 3597 1613 
L 953 1613 
Q 991 1019 1311 708 
Q 1631 397 2203 397 
Q 2534 397 2845 478 
Q 3156 559 3463 722 
L 3463 178 
Q 3153 47 2828 -22 
Q 2503 -91 2169 -91 
Q 1331 -91 842 396 
Q 353 884 353 1716 
Q 353 2575 817 3079 
Q 1281 3584 2069 3584 
Q 2775 3584 3186 3129 
Q 3597 2675 3597 1894 
z
M 3022 2063 
Q 3016 2534 2758 2815 
Q 2500 3097 2075 3097 
Q 1594 3097 1305 2825 
Q 1016 2553 972 2059 
L 3022 2063 
z
" transform="scale(0.015625)"/>
      <path id="DejaVuSans-3a" d="M 750 794 
L 1409 794 
L 1409 0 
L 750 0 
L 750 794 
z
M 750 3309 
L 1409 3309 
L 1409 2516 
L 750 2516 
L 750 3309 
z
" transform="scale(0.015625)"/>
      <path id="DejaVuSans-20" transform="scale(0.015625)"/>
      <path id="DejaVuSans-74" d="M 1172 4494 
L 1172 3500 
L 2356 3500 
L 2356 3053 
L 1172 3053 
L 1172 1153 
Q 1172 725 1289 603 
Q 1406 481 1766 481 
L 2356 481 
L 2356 0 
L 1766 0 
Q 1100 0 847 248 
Q 594 497 594 1153 
L 594 3053 
L 172 3053 
L 172 3500 
L 594 3500 
L 594 4494 
L 1172 4494 
z
" transform="scale(0.015625)"/>
      <path id="DejaVuSans-68" d="M 3513 2113 
L 3513 0 
L 2938 0 
L 2938 2094 
Q 2938 2591 2744 2837 
Q 2550 3084 2163 3084 
Q 1697 3084 1428 2787 
Q 1159 2491 1159 1978 
L 1159 0 
L 581 0 
L 581 4863 
L 1159 4863 
L 1159 2956 
Q 1366 3272 1645 3428 
Q 1925 3584 2291 3584 
Q 2894 3584 3203 3211 
Q 3513 2838 3513 2113 
z
" transform="scale(0.015625)"/>
      <path id="DejaVuSans-79" d="M 2059 -325 
Q 1816 -950 1584 -1140 
Q 1353 -1331 966 -1331 
L 506 -1331 
L 506 -850 
L 844 -850 
Q 1081 -850 1212 -737 
Q 1344 -625 1503 -206 
L 1606 56 
L 191 3500 
L 800 3500 
L 1894 763 
L 2988 3500 
L 3597 3500 
L 2059 -325 
z
" transform="scale(0.015625)"/>
      <path id="DejaVuSans-73" d="M 2834 3397 
L 2834 2853 
Q 2591 2978 2328 3040 
Q 2066 3103 1784 3103 
Q 1356 3103 1142 2972 
Q 928 2841 928 2578 
Q 928 2378 1081 2264 
Q 1234 2150 1697 2047 
L 1894 2003 
Q 2506 1872 2764 1633 
Q 3022 1394 3022 966 
Q 3022 478 2636 193 
Q 2250 -91 1575 -91 
Q 1294 -91 989 -36 
Q 684 19 347 128 
L 347 722 
Q 666 556 975 473 
Q 1284 391 1588 391 
Q 1994 391 2212 530 
Q 2431 669 2431 922 
Q 2431 1156 2273 1281 
Q 2116 1406 1581 1522 
L 1381 1569 
Q 847 1681 609 1914 
Q 372 2147 372 2553 
Q 372 3047 722 3315 
Q 1072 3584 1716 3584 
Q 2034 3584 2315 3537 
Q 2597 3491 2834 3397 
z
" transform="scale(0.015625)"/>
      <path id="DejaVuSans-6d" d="M 3328 2828 
Q 3544 3216 3844 3400 
Q 4144 3584 4550 3584 
Q 5097 3584 5394 3201 
Q 5691 2819 5691 2113 
L 5691 0 
L 5113 0 
L 5113 2094 
Q 5113 2597 4934 2840 
Q 4756 3084 4391 3084 
Q 3944 3084 3684 2787 
Q 3425 2491 3425 1978 
L 3425 0 
L 2847 0 
L 2847 2094 
Q 2847 2600 2669 2842 
Q 2491 3084 2119 3084 
Q 1678 3084 1418 2786 
Q 1159 2488 1159 1978 
L 1159 0 
L 581 0 
L 581 3500 
L 1159 3500 
L 1159 2956 
Q 1356 3278 1631 3431 
Q 1906 3584 2284 3584 
Q 2666 3584 2933 3390 
Q 3200 3197 3328 2828 
z
" transform="scale(0.015625)"/>
      <path id="DejaVuSans-70" d="M 1159 525 
L 1159 -1331 
L 581 -1331 
L 581 3500 
L 1159 3500 
L 1159 2969 
Q 1341 3281 1617 3432 
Q 1894 3584 2278 3584 
Q 2916 3584 3314 3078 
Q 3713 2572 3713 1747 
Q 3713 922 3314 415 
Q 2916 -91 2278 -91 
Q 1894 -91 1617 61 
Q 1341 213 1159 525 
z
M 3116 1747 
Q 3116 2381 2855 2742 
Q 2594 3103 2138 3103 
Q 1681 3103 1420 2742 
Q 1159 2381 1159 1747 
Q 1159 1113 1420 752 
Q 1681 391 2138 391 
Q 2594 391 2855 752 
Q 3116 1113 3116 1747 
z
" transform="scale(0.015625)"/>
      <path id="DejaVuSans-6c" d="M 603 4863 
L 1178 4863 
L 1178 0 
L 603 0 
L 603 4863 
z
" transform="scale(0.015625)"/>
      <path id="DejaVuSans-47" d="M 3809 666 
L 3809 1919 
L 2778 1919 
L 2778 2438 
L 4434 2438 
L 4434 434 
Q 4069 175 3628 42 
Q 3188 -91 2688 -91 
Q 1594 -91 976 548 
Q 359 1188 359 2328 
Q 359 3472 976 4111 
Q 1594 4750 2688 4750 
Q 3144 4750 3555 4637 
Q 3966 4525 4313 4306 
L 4313 3634 
Q 3963 3931 3569 4081 
Q 3175 4231 2741 4231 
Q 1884 4231 1454 3753 
Q 1025 3275 1025 2328 
Q 1025 1384 1454 906 
Q 1884 428 2741 428 
Q 3075 428 3337 486 
Q 3600 544 3809 666 
z
" transform="scale(0.015625)"/>
      <path id="DejaVuSans-75" d="M 544 1381 
L 544 3500 
L 1119 3500 
L 1119 1403 
Q 1119 906 1312 657 
Q 1506 409 1894 409 
Q 2359 409 2629 706 
Q 2900 1003 2900 1516 
L 2900 3500 
L 3475 3500 
L 3475 0 
L 2900 0 
L 2900 538 
Q 2691 219 2414 64 
Q 2138 -91 1772 -91 
Q 1169 -91 856 284 
Q 544 659 544 1381 
z
M 1991 3584 
L 1991 3584 
z
" transform="scale(0.015625)"/>
      <path id="DejaVuSans-64" d="M 2906 2969 
L 2906 4863 
L 3481 4863 
L 3481 0 
L 2906 0 
L 2906 525 
Q 2725 213 2448 61 
Q 2172 -91 1784 -91 
Q 1150 -91 751 415 
Q 353 922 353 1747 
Q 353 2572 751 3078 
Q 1150 3584 1784 3584 
Q 2172 3584 2448 3432 
Q 2725 3281 2906 2969 
z
M 947 1747 
Q 947 1113 1208 752 
Q 1469 391 1925 391 
Q 2381 391 2643 752 
Q 2906 1113 2906 1747 
Q 2906 2381 2643 2742 
Q 2381 3103 1925 3103 
Q 1469 3103 1208 2742 
Q 947 2381 947 1747 
z
" transform="scale(0.015625)"/>
      <path id="DejaVuSans-5a" d="M 359 4666 
L 4025 4666 
L 4025 4184 
L 1075 531 
L 4097 531 
L 4097 0 
L 288 0 
L 288 481 
L 3238 4134 
L 359 4134 
L 359 4666 
z
" transform="scale(0.015625)"/>
      <path id="DejaVuSans-62" d="M 3116 1747 
Q 3116 2381 2855 2742 
Q 2594 3103 2138 3103 
Q 1681 3103 1420 2742 
Q 1159 2381 1159 1747 
Q 1159 1113 1420 752 
Q 1681 391 2138 391 
Q 2594 391 2855 752 
Q 3116 1113 3116 1747 
z
M 1159 2969 
Q 1341 3281 1617 3432 
Q 1894 3584 2278 3584 
Q 2916 3584 3314 3078 
Q 3713 2572 3713 1747 
Q 3713 922 3314 415 
Q 2916 -91 2278 -91 
Q 1894 -91 1617 61 
Q 1341 213 1159 525 
L 1159 0 
L 581 0 
L 581 4863 
L 1159 4863 
L 1159 2969 
z
" transform="scale(0.015625)"/>
     </defs>
     <use xlink:href="#DejaVuSans-43"/>
     <use xlink:href="#DejaVuSans-6f" x="69.824219"/>
     <use xlink:href="#DejaVuSans-76" x="131.005859"/>
     <use xlink:href="#DejaVuSans-61" x="190.185547"/>
     <use xlink:href="#DejaVuSans-72" x="251.464844"/>
     <use xlink:href="#DejaVuSans-69" x="292.578125"/>
     <use xlink:href="#DejaVuSans-61" x="320.361328"/>
     <use xlink:href="#DejaVuSans-6e" x="381.640625"/>
     <use xlink:href="#DejaVuSans-63" x="445.019531"/>
     <use xlink:href="#DejaVuSans-65" x="500"/>
     <use xlink:href="#DejaVuSans-3a" x="561.523438"/>
     <use xlink:href="#DejaVuSans-20" x="595.214844"/>
     <use xlink:href="#DejaVuSans-74" x="627.001953"/>
     <use xlink:href="#DejaVuSans-68" x="666.210938"/>
     <use xlink:href="#DejaVuSans-65" x="729.589844"/>
     <use xlink:href="#DejaVuSans-6f" x="791.113281"/>
     <use xlink:href="#DejaVuSans-72" x="852.294922"/>
     <use xlink:href="#DejaVuSans-79" x="893.408203"/>
     <use xlink:href="#DejaVuSans-20" x="952.587891"/>
     <use xlink:href="#DejaVuSans-76" x="984.375"/>
     <use xlink:href="#DejaVuSans-73" x="1043.554688"/>
     <use xlink:href="#DejaVuSans-20" x="1095.654297"/>
     <use xlink:href="#DejaVuSans-65" x="1127.441406"/>
     <use xlink:href="#DejaVuSans-6d" x="1188.964844"/>
     <use xlink:href="#DejaVuSans-70" x="1286.376953"/>
     <use xlink:href="#DejaVuSans-69" x="1349.853516"/>
     <use xlink:href="#DejaVuSans-72" x="1377.636719"/>
     <use xlink:href="#DejaVuSans-69" x="1418.75"/>
     <use xlink:href="#DejaVuSans-63" x="1446.533203"/>
     <use xlink:href="#DejaVuSans-61" x="1501.513672"/>
     <use xlink:href="#DejaVuSans-6c" x="1562.792969"/>
     <use xlink:href="#DejaVuSans-20" x="1590.576172"/>
     <use xlink:href="#DejaVuSans-28" x="1622.363281"/>
     <use xlink:href="#DejaVuSans-47" x="1661.376953"/>
     <use xlink:href="#DejaVuSans-61" x="1738.867188"/>
     <use xlink:href="#DejaVuSans-75" x="1800.146484"/>
     <use xlink:href="#DejaVuSans-73" x="1863.525391"/>
     <use xlink:href="#DejaVuSans-73" x="1915.625"/>
     <use xlink:href="#DejaVuSans-69" x="1967.724609"/>
     <use xlink:href="#DejaVuSans-61" x="1995.507812"/>
     <use xlink:href="#DejaVuSans-6e" x="2056.787109"/>
     <use xlink:href="#DejaVuSans-20" x="2120.166016"/>
     <use xlink:href="#DejaVuSans-64" x="2151.953125"/>
     <use xlink:href="#DejaVuSans-5a" x="2215.429688"/>
     <use xlink:href="#DejaVuSans-20" x="2283.935547"/>
     <use xlink:href="#DejaVuSans-62" x="2315.722656"/>
     <use xlink:href="#DejaVuSans-75" x="2379.199219"/>
     <use xlink:href="#DejaVuSans-69" x="2442.578125"/>
     <use xlink:href="#DejaVuSans-6c" x="2470.361328"/>
     <use xlink:href="#DejaVuSans-64" x="2498.144531"/>
     <use xlink:href="#DejaVuSans-29" x="2561.621094"/>
    </g>
   </g>
  </g>
 </g>
 <defs>
  <clipPath id="pa2c63c1474">
   <rect x="81" y="34.56" width="502.2" height="221.76"/>
  </clipPath>
 </defs>
</svg>
